<svg width="504" height="527" viewBox="0 0 504 527" fill="none" xmlns="http://www.w3.org/2000/svg">
<g opacity="0.5">
<path d="M496.04 0H450.141C448.298 0 446.454 0.737579 444.98 2.21274L378.436 63.4318C377.145 64.7225 376.408 66.5665 376.408 68.5948V119.672C376.408 123.729 379.726 126.864 383.597 126.864H444.795C446.639 126.864 448.482 126.126 449.957 124.651L501.201 68.7792C502.491 67.4885 503.413 65.6445 503.413 63.6162V7.19139C503.229 3.3191 499.911 0 496.04 0Z" fill="#344463"/>
<path d="M496.04 126.864H450.141C448.298 126.864 446.454 127.601 444.98 128.707L378.436 181.629C377.145 182.735 376.408 184.395 376.408 186.054V230.125C376.408 233.628 379.726 236.394 383.597 236.394H444.795C446.639 236.394 448.482 235.656 449.957 234.55L501.201 186.239C502.491 185.132 503.413 183.473 503.413 181.813V133.133C503.229 129.629 499.911 126.864 496.04 126.864Z" fill="#344463"/>
<path d="M496.04 236.394H450.141C448.298 236.394 446.454 236.947 444.98 237.869L378.436 282.493C377.145 283.415 376.408 284.89 376.408 286.181V323.428C376.408 326.379 379.726 328.776 383.597 328.776H444.795C446.639 328.776 448.482 328.223 449.957 327.301L501.201 286.549C502.491 285.627 503.413 284.152 503.413 282.862V241.557C503.229 238.791 499.911 236.394 496.04 236.394Z" fill="#344463"/>
<path d="M496.04 328.96H450.141C448.298 328.96 446.454 329.329 444.98 330.251L378.436 366.577C377.145 367.314 376.408 368.421 376.408 369.527V399.768C376.408 402.165 379.726 404.009 383.597 404.009H444.795C446.639 404.009 448.482 403.64 449.957 402.718L501.201 369.527C502.491 368.789 503.413 367.683 503.413 366.577V333.017C503.229 330.804 499.911 328.96 496.04 328.96Z" fill="#344463"/>
<path d="M496.041 404.193H450.142C448.299 404.193 446.456 404.562 444.981 405.115L378.621 433.327C377.331 433.881 376.594 434.803 376.594 435.725V459.143C376.594 460.987 379.912 462.462 383.783 462.462H444.981C446.824 462.462 448.668 462.093 450.142 461.54L501.387 435.909C502.677 435.356 503.599 434.434 503.599 433.512V407.512C503.23 405.668 499.912 404.193 496.041 404.193Z" fill="#344463"/>
<path d="M496.04 462.462H450.141C448.298 462.462 446.454 462.646 444.98 463.199L378.436 482.93C377.145 483.298 376.408 484.036 376.408 484.589V501C376.408 502.291 379.726 503.398 383.597 503.398H444.795C446.639 503.398 448.482 503.213 449.957 502.66L501.201 484.589C502.491 484.22 503.413 483.483 503.413 482.93V464.675C503.229 463.384 499.911 462.462 496.04 462.462Z" fill="#344463"/>
<path d="M496.04 503.397H450.141C448.298 503.397 446.454 503.582 444.98 503.766L378.436 515.199C377.145 515.383 376.408 515.752 376.408 516.121V525.709C376.408 526.447 379.726 527 383.597 527H444.795C446.639 527 448.482 526.816 449.957 526.631L501.201 516.121C502.491 515.936 503.413 515.568 503.413 515.199V504.504C503.229 503.951 499.911 503.397 496.04 503.397Z" fill="#344463"/>
<path d="M369.219 0H323.321C321.477 0 319.634 0.737579 318.159 2.21274L251.615 63.4318C250.325 64.7225 249.588 66.5665 249.588 68.5948V119.672C249.588 123.729 252.906 126.864 256.777 126.864H317.975C319.818 126.864 321.662 126.126 323.136 124.651L374.381 68.7792C375.671 67.4885 376.593 65.6445 376.593 63.6162V7.19139C376.408 3.3191 373.275 0 369.219 0Z" fill="#344463"/>
<path d="M369.219 126.864H323.321C321.477 126.864 319.634 127.601 318.159 128.707L251.615 181.629C250.325 182.735 249.588 184.395 249.588 186.054V230.125C249.588 233.628 252.906 236.394 256.777 236.394H317.975C319.818 236.394 321.662 235.656 323.136 234.55L374.381 186.239C375.671 185.132 376.593 183.473 376.593 181.813V133.133C376.408 129.629 373.275 126.864 369.219 126.864Z" fill="#344463"/>
<path d="M369.219 236.394H323.321C321.477 236.394 319.634 236.947 318.159 237.869L251.615 282.493C250.325 283.415 249.588 284.89 249.588 286.181V323.428C249.588 326.379 252.906 328.776 256.777 328.776H317.975C319.818 328.776 321.662 328.223 323.136 327.301L374.381 286.549C375.671 285.627 376.593 284.152 376.593 282.862V241.557C376.408 238.791 373.275 236.394 369.219 236.394Z" fill="#344463"/>
<path d="M369.219 328.96H323.321C321.477 328.96 319.634 329.329 318.159 330.251L251.615 366.577C250.325 367.314 249.588 368.421 249.588 369.527V399.768C249.588 402.165 252.906 404.009 256.777 404.009H317.975C319.818 404.009 321.662 403.64 323.136 402.718L374.381 369.527C375.671 368.789 376.593 367.683 376.593 366.577V333.017C376.408 330.804 373.275 328.96 369.219 328.96Z" fill="#344463"/>
<path d="M369.219 404.193H323.32C321.477 404.193 319.633 404.562 318.159 405.115L251.799 433.327C250.509 433.881 249.771 434.803 249.771 435.725V459.143C249.771 460.987 253.09 462.462 256.96 462.462H318.159C320.002 462.462 321.845 462.093 323.32 461.54L374.564 435.909C375.855 435.356 376.776 434.434 376.776 433.512V407.512C376.408 405.668 373.274 404.193 369.219 404.193Z" fill="#344463"/>
<path d="M369.219 462.462H323.321C321.477 462.462 319.634 462.646 318.159 463.199L251.615 482.93C250.325 483.298 249.588 484.036 249.588 484.589V501C249.588 502.291 252.906 503.398 256.777 503.398H317.975C319.818 503.398 321.662 503.213 323.136 502.66L374.381 484.589C375.671 484.22 376.593 483.483 376.593 482.93V464.675C376.408 463.384 373.275 462.462 369.219 462.462Z" fill="#344463"/>
<path d="M369.219 503.397H323.321C321.477 503.397 319.634 503.582 318.159 503.766L251.615 515.199C250.325 515.383 249.588 515.752 249.588 516.121V525.709C249.588 526.447 252.906 527 256.777 527H317.975C319.818 527 321.662 526.816 323.136 526.631L374.381 516.121C375.671 515.936 376.593 515.568 376.593 515.199V504.504C376.408 503.951 373.275 503.397 369.219 503.397Z" fill="#344463"/>
<path d="M242.399 0H196.5C194.657 0 192.814 0.737579 191.339 2.21274L124.795 63.4318C123.505 64.7225 122.768 66.5665 122.768 68.5948V119.672C122.768 123.729 126.086 126.864 129.957 126.864H191.155C192.998 126.864 194.841 126.126 196.316 124.651L247.56 68.7792C248.851 67.4885 249.772 65.6445 249.772 63.6162V7.19139C249.772 3.3191 246.454 0 242.399 0Z" fill="#344463"/>
<path d="M242.399 126.864H196.5C194.657 126.864 192.814 127.601 191.339 128.707L124.795 181.629C123.505 182.735 122.768 184.395 122.768 186.054V230.125C122.768 233.628 126.086 236.394 129.957 236.394H191.155C192.998 236.394 194.841 235.656 196.316 234.55L247.56 186.239C248.851 185.132 249.772 183.473 249.772 181.813V133.133C249.772 129.629 246.454 126.864 242.399 126.864Z" fill="#344463"/>
<path d="M242.399 236.394H196.5C194.657 236.394 192.814 236.947 191.339 237.869L124.795 282.493C123.505 283.415 122.768 284.89 122.768 286.181V323.428C122.768 326.379 126.086 328.776 129.957 328.776H191.155C192.998 328.776 194.841 328.223 196.316 327.301L247.56 286.549C248.851 285.627 249.772 284.152 249.772 282.862V241.557C249.772 238.791 246.454 236.394 242.399 236.394Z" fill="#344463"/>
<path d="M242.399 328.96H196.5C194.657 328.96 192.814 329.329 191.339 330.251L124.795 366.577C123.505 367.314 122.768 368.421 122.768 369.527V399.768C122.768 402.165 126.086 404.009 129.957 404.009H191.155C192.998 404.009 194.841 403.64 196.316 402.718L247.56 369.527C248.851 368.789 249.772 367.683 249.772 366.577V333.017C249.772 330.804 246.454 328.96 242.399 328.96Z" fill="#344463"/>
<path d="M242.4 404.193H196.502C194.658 404.193 192.815 404.562 191.34 405.115L124.981 433.327C123.69 433.881 122.953 434.803 122.953 435.725V459.143C122.953 460.987 126.271 462.462 130.142 462.462H191.34C193.184 462.462 195.027 462.093 196.502 461.54L247.746 435.909C249.036 435.356 249.958 434.434 249.958 433.512V407.512C249.774 405.668 246.456 404.193 242.4 404.193Z" fill="#344463"/>
<path d="M242.399 462.462H196.5C194.657 462.462 192.814 462.646 191.339 463.199L124.795 482.93C123.505 483.298 122.768 484.036 122.768 484.589V501C122.768 502.291 126.086 503.398 129.957 503.398H191.155C192.998 503.398 194.841 503.213 196.316 502.66L247.56 484.589C248.851 484.22 249.772 483.483 249.772 482.93V464.675C249.772 463.384 246.454 462.462 242.399 462.462Z" fill="#344463"/>
<path d="M242.399 503.397H196.5C194.657 503.397 192.814 503.582 191.339 503.766L124.795 515.199C123.505 515.383 122.768 515.752 122.768 516.121V525.709C122.768 526.447 126.086 527 129.957 527H191.155C192.998 527 194.841 526.816 196.316 526.631L247.56 516.121C248.851 515.936 249.772 515.568 249.772 515.199V504.504C249.772 503.951 246.454 503.397 242.399 503.397Z" fill="#344463"/>
<path d="M115.579 0H69.6801C67.8367 0 65.9934 0.737579 64.5187 2.21274L-2.02507 63.4318C-3.3154 64.7225 -4.05273 66.5665 -4.05273 68.5948V119.672C-4.05273 123.729 -0.73477 126.864 3.1362 126.864H64.3344C66.1778 126.864 68.0211 126.126 69.4957 124.651L120.74 68.7792C122.03 67.4885 122.952 65.6445 122.952 63.6162V7.19139C122.952 3.3191 119.634 0 115.579 0Z" fill="#344463"/>
<path d="M115.579 126.864H69.6801C67.8367 126.864 65.9934 127.601 64.5187 128.707L-2.02507 181.629C-3.3154 182.735 -4.05273 184.395 -4.05273 186.054V230.125C-4.05273 233.628 -0.73477 236.394 3.1362 236.394H64.3344C66.1778 236.394 68.0211 235.656 69.4957 234.55L120.74 186.239C122.03 185.132 122.952 183.473 122.952 181.813V133.133C122.952 129.629 119.634 126.864 115.579 126.864Z" fill="#344463"/>
<path d="M115.579 236.394H69.6801C67.8367 236.394 65.9934 236.947 64.5187 237.869L-2.02507 282.493C-3.3154 283.415 -4.05273 284.89 -4.05273 286.181V323.428C-4.05273 326.379 -0.73477 328.776 3.1362 328.776H64.3344C66.1778 328.776 68.0211 328.223 69.4957 327.301L120.74 286.549C122.03 285.627 122.952 284.152 122.952 282.862V241.557C122.952 238.791 119.634 236.394 115.579 236.394Z" fill="#344463"/>
<path d="M115.579 328.96H69.6801C67.8367 328.96 65.9934 329.329 64.5187 330.251L-2.02507 366.577C-3.3154 367.314 -4.05273 368.421 -4.05273 369.527V399.768C-4.05273 402.165 -0.73477 404.009 3.1362 404.009H64.3344C66.1778 404.009 68.0211 403.64 69.4957 402.718L120.74 369.527C122.03 368.789 122.952 367.683 122.952 366.577V333.017C122.952 330.804 119.634 328.96 115.579 328.96Z" fill="#344463"/>
<path d="M115.578 404.193H69.6793C67.836 404.193 65.9926 404.562 64.518 405.115L-1.84153 433.327C-3.13186 433.881 -3.86914 434.803 -3.86914 435.725V459.143C-3.86914 460.987 -0.551176 462.462 3.3198 462.462H64.518C66.3613 462.462 68.2047 462.093 69.6793 461.54L120.924 435.909C122.214 435.356 123.136 434.434 123.136 433.512V407.512C122.951 405.668 119.633 404.193 115.578 404.193Z" fill="#344463"/>
<path d="M115.579 462.462H69.6801C67.8367 462.462 65.9934 462.646 64.5187 463.199L-2.02507 482.93C-3.3154 483.298 -4.05273 484.036 -4.05273 484.589V501C-4.05273 502.291 -0.73477 503.398 3.1362 503.398H64.3344C66.1778 503.398 68.0211 503.213 69.4957 502.66L120.74 484.589C122.03 484.22 122.952 483.483 122.952 482.93V464.675C122.952 463.384 119.634 462.462 115.579 462.462Z" fill="#344463"/>
<path d="M115.579 503.397H69.6801C67.8367 503.397 65.9934 503.582 64.5187 503.766L-2.02507 515.199C-3.3154 515.383 -4.05273 515.752 -4.05273 516.121V525.709C-4.05273 526.447 -0.73477 527 3.1362 527H64.3344C66.1778 527 68.0211 526.816 69.4957 526.631L120.74 516.121C122.03 515.936 122.952 515.568 122.952 515.199V504.504C122.952 503.951 119.634 503.397 115.579 503.397Z" fill="#344463"/>
</g>
</svg>
