<svg width="473" height="474" viewBox="0 0 473 474" fill="none" xmlns="http://www.w3.org/2000/svg">
<g opacity="0.5">
<path d="M34.8568 60.1245L56.7277 60.1245C58.6072 60.1245 60.145 58.5872 60.145 56.7083L60.145 35.1865C60.145 34.3325 59.8033 33.4784 59.1198 32.7952L43.2293 16.91L27.3387 1.02487C26.8261 0.341636 25.9717 1.918e-05 24.9465 1.91351e-05L3.41737 1.81941e-05C1.53784 1.81119e-05 4.35399e-05 1.53729 4.34577e-05 3.41618L4.25021e-05 25.2796C4.24647e-05 26.1337 0.341786 26.9877 1.02525 27.6709L16.745 43.3853L32.4646 59.0997C33.1481 59.7829 34.0025 60.1245 34.8568 60.1245Z" fill="#344463"/>
<path d="M60.147 116.32C60.147 116.662 59.9762 116.833 59.9762 117.004C59.6344 118.199 58.0966 118.883 56.7297 118.883L36.2257 117.004C35.3714 117.004 34.5171 116.491 34.0045 115.979L20.3352 102.485L18.6265 100.777L3.24857 85.4041C2.73597 84.8917 2.22336 83.8668 2.22336 83.1836L0.34382 63.3699L0.34382 62.5158C0.34382 62.1742 0.514696 62.0034 0.514696 61.8326C0.856428 60.6369 2.39422 59.9537 3.76114 59.9537L24.0942 61.8326C24.9486 61.8326 25.8029 62.345 26.4863 62.8574L40.3265 76.6929L42.0352 78.401L57.584 93.9445C58.0966 94.457 58.6092 95.4818 58.6092 96.3358L60.4888 115.808L60.4888 116.32L60.147 116.32Z" fill="#344463"/>
<path d="M59.9741 175.932C59.9741 176.103 59.8033 176.445 59.6324 176.616C59.2907 177.641 57.582 177.641 56.5568 177.641L37.2489 173.883C36.5655 173.883 35.5402 173.2 35.0276 172.687L21.7001 159.364L19.9914 157.656L4.95521 142.625C4.44261 142.112 3.75912 141.088 3.75912 140.404L0.170919 121.786L0.170919 120.932C0.170919 120.761 0.341806 120.42 0.512674 120.249C0.854406 119.224 2.56305 119.224 3.58825 119.224L22.7253 122.982C23.4088 122.982 24.4339 123.665 24.9465 124.178L38.445 137.671L40.1536 139.38L55.3607 154.581C55.8733 155.094 56.5568 156.119 56.5568 156.802L60.145 175.249L60.145 175.932L59.9741 175.932Z" fill="#344463"/>
<path d="M59.9751 235.545C59.9751 235.715 59.6334 235.886 59.6334 236.057C59.4625 236.911 57.583 236.399 56.5578 236.399L38.4459 230.762C37.9333 230.762 36.7373 229.908 36.3956 229.566L23.4097 216.585L21.701 214.877L7.00653 200.187C6.6648 199.846 5.81049 198.65 5.81049 198.138L0.342752 180.715L0.342752 179.861C0.342752 179.69 0.684507 179.519 0.684507 179.349C0.855371 178.495 2.73488 179.007 3.76008 179.007L21.5302 184.473C22.0428 184.473 23.2388 185.327 23.5806 185.669L36.7373 198.821L38.4459 200.529L53.3113 215.389C53.653 215.731 54.5074 216.926 54.5074 217.439L59.9751 234.69L59.9751 235.545Z" fill="#344463"/>
<path d="M59.8032 295.157C59.8032 295.327 59.2906 295.498 59.2906 295.498C59.1197 296.181 57.0693 294.986 56.3859 294.986L39.4701 287.47C39.1284 287.47 37.7614 286.445 37.5906 286.104L24.9465 273.464L23.2378 271.756L8.88504 257.408C8.54331 257.066 7.51813 255.871 7.51813 255.529L0.17085 239.302L0.17085 238.619C0.17085 238.448 0.683481 238.277 0.683481 238.277C0.854349 237.594 2.90471 238.79 3.58818 238.79L20.1622 246.135C20.504 246.135 21.8709 247.159 22.0418 247.501L34.8567 260.312L36.3945 261.849L50.9182 276.368C51.2599 276.709 52.2851 277.905 52.2851 278.247L59.4615 294.303L59.4615 295.157L59.8032 295.157Z" fill="#344463"/>
<path d="M59.8033 354.769C59.8033 354.939 59.2907 354.939 59.2907 354.939C59.1198 355.281 56.8986 353.744 56.386 353.744L40.8371 344.349C40.4954 344.349 39.1285 343.154 38.9576 342.983L26.6552 330.685L25.1174 329.147L11.1064 315.141C10.9355 314.97 9.73945 313.604 9.73945 313.262L0.68355 298.231L0.68355 297.548C0.68355 297.377 1.19613 297.377 1.19613 297.377C1.36699 297.035 3.58828 298.573 4.10088 298.573L19.4788 307.796C19.8206 307.796 21.1875 308.992 21.3583 309.163L34.0025 321.803L35.5403 323.34L49.7222 337.517C49.893 337.688 51.0891 339.054 51.0891 339.396L60.145 354.256L60.145 354.769L59.8033 354.769Z" fill="#344463"/>
<path d="M59.6333 414.381C59.6333 414.381 58.9498 414.381 58.9498 414.551C58.9498 414.722 56.3868 412.673 56.216 412.673L41.8632 401.399C41.6923 401.399 40.3254 400.033 40.1545 399.862L28.023 387.735L26.4852 386.197L12.8159 372.533C12.645 372.362 11.2781 370.995 11.2781 370.825L0.342683 356.989L0.342684 356.306C0.342684 356.306 1.02614 356.306 1.02614 356.135C1.02614 355.964 3.58914 358.014 3.76001 358.014L17.9419 369.117C18.1128 369.117 19.4797 370.483 19.6506 370.654L31.9529 382.952L33.4907 384.489L47.3309 398.325C47.5018 398.496 48.8687 399.862 48.8687 400.033L59.6333 413.697L59.6333 414.381Z" fill="#344463"/>
<path d="M59.6333 473.31L59.6333 473.993L58.9498 473.993L29.7317 444.785L0.513559 415.747L0.513559 415.064L1.36789 415.064L30.4152 444.101L59.6333 473.31Z" fill="#344463"/>
<path d="M472.959 473.31L472.959 473.993L472.276 473.993L443.058 444.785L413.84 415.747L413.84 415.064L414.694 415.064L443.741 444.101L472.959 473.31Z" fill="#344463"/>
<path d="M472.959 414.722L472.276 414.722L443.058 385.685L413.84 356.477L413.84 355.794L414.694 355.794L443.741 384.831L472.959 414.039L472.959 414.722Z" fill="#344463"/>
<path d="M472.959 355.623L472.276 355.623L443.058 326.414L413.84 297.377L413.84 296.523L414.694 296.523L443.741 325.731L472.959 354.769L472.959 355.623Z" fill="#344463"/>
<path d="M472.959 296.352L472.276 296.352L443.058 267.315L413.84 238.107L413.84 237.423L414.694 237.423L443.741 266.461L472.959 295.669L472.959 296.352Z" fill="#344463"/>
<path d="M472.959 237.253L472.276 237.253L443.058 208.044L413.84 178.836L413.84 178.153L414.694 178.153L443.741 207.361L472.959 236.399L472.959 237.253Z" fill="#344463"/>
<path d="M472.959 177.982L472.276 177.982L443.058 148.774L413.84 119.737L413.84 118.883L414.694 118.883L443.741 148.091L472.959 177.299L472.959 177.982Z" fill="#344463"/>
<path d="M472.959 118.712L472.276 118.712L443.058 89.6743L413.84 60.4661L413.84 59.7829L414.694 59.7829L443.741 88.8203L472.959 118.028L472.959 118.712Z" fill="#344463"/>
<path d="M472.959 58.7581L472.959 59.6121L472.276 59.6121L443.058 30.4039L413.84 1.1957L413.84 0.512469L414.694 0.512469L443.741 29.7207L472.959 58.7581Z" fill="#344463"/>
<path d="M413.84 473.993L413.157 473.993L384.11 444.785L354.891 415.747L354.891 415.064L355.575 415.064L384.793 444.101L413.84 473.31L413.84 473.993Z" fill="#344463"/>
<path d="M414.01 414.722L413.327 414.722L410.935 412.502L397.778 399.862L396.24 398.325L383.938 386.027L382.4 384.489L368.731 370.825L367.193 369.287L354.891 356.648L354.891 355.964L355.574 355.964L357.966 358.185L370.952 370.654L372.49 372.191L384.963 384.66L386.501 386.027L400.341 399.862L401.879 401.399L414.01 414.039L414.01 414.722Z" fill="#344463"/>
<path d="M414.01 355.452L413.327 355.452L410.935 353.231L397.607 340.762L396.069 339.225L383.767 326.927L382.229 325.39L368.56 311.725L367.022 310.188L355.061 297.377L355.061 296.694L355.745 296.694L358.137 298.914L371.294 311.213L372.831 312.75L385.305 325.219L386.672 326.585L400.512 340.421L402.05 341.958L414.01 354.769L414.01 355.452Z" fill="#344463"/>
<path d="M414.011 296.181L413.328 296.181C413.328 296.352 410.936 293.961 410.765 293.961L397.266 281.663C397.266 281.663 395.729 280.125 395.558 280.125L383.426 267.998L381.888 266.461L368.219 252.796L366.681 251.259L354.892 238.107L354.892 237.423L355.575 237.423C355.575 237.253 357.967 239.644 358.138 239.644L371.466 251.601C371.466 251.601 373.003 253.138 373.174 253.138L385.647 265.607L387.185 267.144L401.025 280.98C401.025 280.98 402.563 282.517 402.563 282.688L414.182 295.669L414.182 296.181L414.011 296.181Z" fill="#344463"/>
<path d="M414.01 236.911L413.327 236.911C413.327 237.082 410.935 234.861 410.764 234.861L396.924 222.905C396.924 222.905 395.386 221.367 395.215 221.367L383.083 209.24L381.546 207.703L367.876 194.038C367.876 194.038 366.339 192.501 366.339 192.33L354.72 179.007L354.72 178.324L355.403 178.324C355.403 178.153 357.795 180.373 357.966 180.373L371.465 192.159C371.465 192.159 373.002 193.697 373.173 193.697L385.476 205.995L387.013 207.532L400.854 221.367C400.854 221.367 402.391 222.905 402.391 223.076L413.839 236.228L413.839 236.911L414.01 236.911Z" fill="#344463"/>
<path d="M414.01 177.641C414.01 177.641 413.327 177.641 413.327 177.811C413.327 177.982 410.764 175.762 410.764 175.762L396.753 163.976C396.582 163.976 395.215 162.439 395.044 162.439L382.913 150.311L381.375 148.774L367.705 135.109C367.705 135.109 366.168 133.572 366.168 133.401L354.891 119.907L354.891 119.224C354.891 119.224 355.574 119.224 355.574 119.053C355.574 118.883 358.137 121.103 358.137 121.103L371.806 132.718C371.977 132.718 373.344 134.255 373.515 134.255L385.817 146.553L387.355 148.091L401.195 161.926C401.195 161.926 402.733 163.463 402.733 163.634L414.01 176.957L414.01 177.641Z" fill="#344463"/>
<path d="M414.01 118.37C414.01 118.37 413.327 118.37 413.327 118.541C413.327 118.712 410.764 116.491 410.593 116.491L396.411 105.047C396.24 105.047 394.873 103.681 394.702 103.51L382.571 91.3824L381.033 89.8451L367.364 76.1804C367.364 76.1804 365.826 74.6432 365.826 74.4724L354.72 60.8077L354.72 60.1245C354.72 60.1245 355.403 60.1245 355.403 59.9537C355.403 59.7829 357.966 62.0034 358.137 62.0034L372.148 73.2767C372.319 73.2767 373.686 74.6432 373.857 74.814L386.159 87.1122L387.697 88.6495L401.537 102.485C401.537 102.485 403.075 104.022 403.075 104.193L414.01 117.687L414.01 118.37Z" fill="#344463"/>
<path d="M414.01 59.0996C414.01 59.0996 413.327 59.0996 413.327 59.2704C413.327 59.4413 410.764 57.3915 410.593 57.3915L396.24 46.1182C396.069 46.1182 394.702 44.7517 394.531 44.5809L382.4 32.4536L380.862 30.9163L367.193 17.2516C367.022 17.0808 365.655 15.7143 365.655 15.5435L354.72 1.70807L354.72 0.854034C354.72 0.854034 355.403 0.854034 355.403 0.683226C355.403 0.512417 357.966 2.56212 358.137 2.56212L372.319 13.6646C372.49 13.6646 373.857 15.0311 374.028 15.2019L386.33 27.5001L387.868 29.0374L401.708 42.8729C401.879 43.0437 403.246 44.4101 403.246 44.5809L414.01 58.2456L414.01 59.0996Z" fill="#344463"/>
<path d="M354.889 473.993L354.206 473.993L324.988 444.785L295.769 415.747L295.769 415.064L296.624 415.064L325.671 444.101L354.889 473.31L354.889 473.993Z" fill="#344463"/>
<path d="M354.889 414.722L354.206 414.722L351.984 412.673L338.828 400.374C338.828 400.374 337.29 398.837 337.119 398.837L324.646 386.368L323.108 384.831L309.268 370.995L307.73 369.458L295.94 356.818L295.94 356.135L296.624 356.135L298.845 358.185L311.831 370.312L313.369 371.849L326.184 384.66L327.721 386.197L341.732 400.204L343.27 401.741L354.889 414.21L354.889 414.722Z" fill="#344463"/>
<path d="M354.89 355.281L354.207 355.281C354.207 355.452 351.985 353.402 351.815 353.402L338.145 341.616C338.145 341.616 336.607 340.079 336.437 340.079L323.963 327.61L322.426 326.073L308.585 312.237C308.585 312.237 307.048 310.7 307.048 310.529L295.6 297.377L295.6 296.694L296.283 296.694C296.283 296.523 298.504 298.573 298.675 298.573L312.003 310.188C312.003 310.188 313.541 311.725 313.711 311.725L326.697 324.536L328.235 326.073L342.246 340.079C342.246 340.079 343.784 341.616 343.784 341.787L355.061 354.598L355.061 355.281L354.89 355.281Z" fill="#344463"/>
<path d="M354.89 296.011C354.89 296.011 354.207 296.011 354.207 296.181C354.207 296.352 351.985 294.473 351.644 294.473L337.633 283.2C337.462 283.2 336.095 281.834 335.924 281.663L323.451 269.194L321.913 267.656L308.073 253.821C308.073 253.821 306.535 252.284 306.535 252.113L295.6 238.619L295.6 237.936C295.6 237.936 296.283 237.936 296.283 237.765C296.283 237.594 298.504 239.473 298.846 239.473L312.686 250.576C312.857 250.576 314.224 251.942 314.395 252.113L327.039 264.753L328.577 266.29L342.759 280.467C342.759 280.467 344.296 282.004 344.296 282.175L355.061 295.498L355.061 296.011L354.89 296.011Z" fill="#344463"/>
<path d="M354.89 236.74L354.207 236.911C354.207 237.082 351.815 235.374 351.644 235.374L337.291 224.442C337.12 224.442 335.753 223.076 335.582 222.905L323.109 210.436L321.571 208.898L307.731 195.063C307.56 194.892 306.193 193.526 306.193 193.355L295.77 179.519L295.77 178.836L296.454 178.665C296.454 178.495 298.846 180.203 299.017 180.203L313.199 190.793C313.37 190.793 314.737 192.159 314.907 192.33L327.552 204.97L329.089 206.507L343.271 220.684C343.442 220.855 344.809 222.221 344.809 222.392L355.061 236.057L355.061 236.74L354.89 236.74Z" fill="#344463"/>
<path d="M355.061 177.299L354.378 177.47C354.378 177.811 351.985 175.933 351.644 175.933L336.949 165.684C336.778 165.684 335.241 164.318 335.241 164.147L322.767 151.678L321.059 150.311L307.048 136.305C306.877 136.134 305.51 134.768 305.51 134.597L295.429 120.249L295.429 119.566L296.112 119.395C296.112 119.053 298.504 120.932 298.846 120.932L313.37 131.181C313.541 131.181 315.078 132.547 315.078 132.718L327.722 145.358L329.26 146.895L343.442 161.072C343.613 161.243 344.98 162.609 344.98 162.78L354.89 176.957L354.89 177.299L355.061 177.299Z" fill="#344463"/>
<path d="M355.061 118.028L354.548 118.199C354.378 118.541 352.156 116.833 351.815 116.833L336.607 106.926C336.437 106.926 334.899 105.559 334.899 105.559L322.426 93.0905L320.888 91.5532L306.877 77.5469C306.706 77.3761 305.51 76.0097 305.51 75.8389L295.941 61.1494L295.941 60.4661L296.454 60.2953C296.625 59.9537 298.846 61.6618 299.188 61.6618L314.224 71.3978C314.395 71.3978 315.933 72.7643 315.933 72.7643L328.577 85.4041L330.115 86.9414L344.296 101.118C344.467 101.289 345.663 102.656 345.663 102.827L355.061 117.345L355.061 118.028Z" fill="#344463"/>
<path d="M355.061 58.7581C355.061 58.9289 354.548 58.9289 354.548 58.9289C354.378 59.2705 352.156 57.7333 351.644 57.7333L336.095 48.3388C335.753 48.3388 334.386 47.1431 334.215 46.9723L321.913 34.6741L320.375 33.1369L306.364 19.1306C306.193 18.9598 304.997 17.5933 304.997 17.2517L295.941 2.22058L295.941 1.36654C295.941 1.19573 296.454 1.19573 296.454 1.19573C296.625 0.854115 298.846 2.39139 299.359 2.39139L314.737 11.615C315.078 11.615 316.445 12.8107 316.616 12.9815L329.26 25.6213L330.798 27.1586L344.98 41.3357C345.151 41.5065 346.347 42.8729 346.347 43.2146L355.403 58.0749L355.403 58.7581L355.061 58.7581Z" fill="#344463"/>
<path d="M295.77 473.993L295.087 473.993L265.868 444.785L236.821 415.747L236.821 415.064L237.505 415.064L266.723 444.101L295.77 473.31L295.77 473.993Z" fill="#344463"/>
<path d="M295.941 414.552L295.257 414.552C295.257 414.722 293.036 412.673 293.036 412.673L279.709 400.716C279.709 400.716 278.171 399.179 278 399.179L265.356 386.539L263.818 385.002L249.978 371.166C249.978 371.166 248.44 369.629 248.44 369.458L236.992 356.648L236.992 355.964L237.676 355.964C237.676 355.793 239.897 357.843 239.897 357.843L253.053 369.629C253.053 369.629 254.591 371.166 254.762 371.166L267.577 383.977L269.115 385.514L283.126 399.52C283.126 399.52 284.664 401.058 284.664 401.228L296.112 413.868L296.112 414.552L295.941 414.552Z" fill="#344463"/>
<path d="M295.941 355.281C295.941 355.281 295.257 355.281 295.257 355.452C295.257 355.623 293.036 353.744 292.865 353.744L279.025 342.47C278.854 342.47 277.487 341.104 277.317 340.933L264.672 328.293L263.135 326.756L249.124 312.75C249.124 312.75 247.586 311.213 247.586 311.042L236.821 297.719L236.821 297.035C236.821 297.035 237.505 297.036 237.505 296.865C237.505 296.694 239.726 298.573 239.897 298.573L253.566 309.675C253.737 309.675 255.104 311.042 255.275 311.213L268.09 324.023L269.628 325.56L283.809 339.738C283.809 339.738 285.347 341.275 285.347 341.446L296.112 354.598L296.112 355.281L295.941 355.281Z" fill="#344463"/>
<path d="M295.941 295.84L295.257 296.011C295.257 296.352 293.036 294.644 292.865 294.644L278.342 284.225C278.171 284.225 276.633 282.858 276.633 282.688L263.989 270.048L262.451 268.511L248.44 254.504C248.269 254.333 246.902 252.967 246.902 252.796L236.821 238.79L236.821 238.107L237.505 237.936C237.505 237.594 239.726 239.302 240.068 239.302L254.42 249.722C254.591 249.722 256.129 251.088 256.129 251.259L268.944 264.07L270.482 265.607L284.664 279.784C284.835 279.955 286.202 281.321 286.202 281.492L296.112 295.327L296.112 295.84L295.941 295.84Z" fill="#344463"/>
<path d="M295.941 236.399L295.428 236.569C295.257 236.911 293.207 235.374 292.865 235.374L277.829 225.638C277.658 225.638 276.12 224.271 275.95 224.271L263.305 211.631L261.768 210.094L247.586 195.917C247.415 195.746 246.219 194.38 246.219 194.209L236.821 179.69L236.821 179.007L237.334 178.836C237.505 178.495 239.555 180.032 239.897 180.032L254.762 189.597C254.933 189.597 256.471 190.964 256.642 190.964L269.457 203.774L270.994 205.312L285.347 219.659C285.518 219.83 286.885 221.197 286.885 221.538L296.112 235.886L296.112 236.399L295.941 236.399Z" fill="#344463"/>
<path d="M295.942 177.128C295.942 177.299 295.429 177.299 295.429 177.47C295.258 177.982 293.208 176.616 292.695 176.616L276.976 167.563C276.634 167.563 275.267 166.367 275.096 166.196L262.452 153.557L260.914 152.019L246.732 137.842C246.562 137.671 245.365 136.305 245.365 135.963L236.651 120.932L236.651 120.249C236.651 120.078 237.164 120.078 237.164 119.907C237.335 119.395 239.385 120.761 239.898 120.761L255.276 129.643C255.617 129.643 256.984 130.839 257.155 131.01L269.97 143.821L271.508 145.358L285.861 159.706C286.032 159.876 287.228 161.243 287.228 161.585L295.771 176.445L295.771 177.128L295.942 177.128Z" fill="#344463"/>
<path d="M295.942 117.687C295.942 117.858 295.429 117.858 295.429 118.029C295.258 118.541 293.208 117.345 292.525 117.345L276.292 109.146C275.951 109.146 274.584 107.951 274.413 107.78L261.769 95.1402L260.231 93.6029L245.878 79.2551C245.707 79.0842 244.511 77.7178 244.511 77.3762L236.48 61.6618L236.48 60.9786C236.48 60.8078 236.993 60.8078 236.993 60.637C237.164 60.1245 239.214 61.3202 239.898 61.3202L255.959 69.519C256.301 69.519 257.668 70.7146 257.839 70.8855L270.654 83.6961L272.191 85.2333L286.715 99.752C286.886 99.9228 288.082 101.289 288.082 101.631L295.942 117.174L295.942 117.687Z" fill="#344463"/>
<path d="M296.112 58.2457C296.112 58.4165 295.599 58.5873 295.599 58.5873C295.428 59.2705 293.378 58.0749 292.694 58.0749L275.779 50.5593C275.437 50.5593 274.07 49.5345 273.899 49.1928L261.255 36.553L259.546 34.8449L245.194 20.4971C244.852 20.1554 243.827 18.9598 243.827 18.6182L236.479 2.39138L236.479 1.70815C236.479 1.53734 236.992 1.36653 236.992 1.36653C237.163 0.683299 239.213 1.87896 239.897 1.87896L256.471 9.22371C256.813 9.22371 258.179 10.2486 258.35 10.5902L271.165 23.4008L272.703 24.9381L287.227 39.4568C287.568 39.7984 288.594 40.994 288.594 41.3357L295.77 57.3916L295.77 58.2457L296.112 58.2457Z" fill="#344463"/>
<path d="M236.821 473.993L235.966 473.993L206.919 444.785L177.701 415.747L177.701 415.064L178.385 415.064L207.603 444.101L236.821 473.31L236.821 473.993Z" fill="#344463"/>
<path d="M236.821 414.552L236.137 414.552C235.966 414.552 234.429 413.185 234.429 413.185L220.93 401.399C220.93 401.399 219.392 399.862 219.222 399.862L206.748 387.393L206.065 386.71L205.211 385.856L191.029 371.679C191.029 371.679 189.491 370.141 189.491 369.971L178.214 356.818L177.872 356.306L177.872 355.623L178.555 355.623C178.726 355.623 180.264 356.989 180.264 356.989L193.592 368.604C193.592 368.604 195.129 370.141 195.3 370.141L207.944 382.781L208.628 383.465L209.482 384.319L223.664 398.496C223.664 398.496 225.202 400.033 225.202 400.204L236.479 413.185L236.821 413.698C236.821 414.039 236.821 414.552 236.821 414.552Z" fill="#344463"/>
<path d="M236.822 355.281L236.138 355.452C235.967 355.452 234.43 354.256 234.259 354.256L219.906 343.495C219.735 343.495 218.368 342.129 218.197 341.958L205.553 329.318L204.87 328.635L204.015 327.781L189.834 313.604C189.663 313.433 188.296 312.067 188.296 311.896L177.873 298.06L177.531 297.548L177.702 296.865L178.386 296.694C178.556 296.694 180.094 297.889 180.265 297.889L194.447 308.48C194.618 308.48 195.985 309.846 196.156 310.017L208.971 322.827L209.654 323.511L210.508 324.365L224.861 338.713C225.032 338.883 226.399 340.25 226.399 340.421L236.651 354.085L236.993 354.598C236.822 354.598 236.822 355.281 236.822 355.281Z" fill="#344463"/>
<path d="M236.822 295.84C236.822 296.011 236.309 296.011 236.138 296.011C235.797 296.011 234.43 294.986 234.088 294.986L219.052 285.25C218.881 285.25 217.343 283.883 217.343 283.883L204.699 271.243L204.015 270.56L203.161 269.706L188.808 255.358C188.638 255.187 187.441 253.821 187.441 253.65L178.044 239.132L177.873 238.619C177.873 238.619 178.044 238.107 178.044 237.936C178.044 237.765 178.556 237.765 178.727 237.765C179.069 237.765 180.436 238.79 180.778 238.79L195.643 248.355C195.814 248.355 197.352 249.722 197.352 249.722L210.167 262.532L210.85 263.215L211.704 264.07L226.057 278.417C226.228 278.588 227.595 279.955 227.595 280.296L236.822 294.644L236.993 295.157C236.822 295.327 236.822 295.84 236.822 295.84Z" fill="#344463"/>
<path d="M236.651 236.569C236.651 236.74 236.138 236.74 235.967 236.74C235.626 236.74 234.259 235.886 233.917 235.886L218.026 227.175C217.685 227.175 216.318 225.979 216.147 225.808L203.503 213.169L202.819 212.485L201.965 211.631L187.612 197.284C187.441 197.113 186.245 195.746 186.245 195.405L177.873 180.203L177.702 179.69C177.702 179.519 177.873 179.178 177.873 179.178C177.873 179.007 178.386 179.007 178.556 179.007C178.898 179.007 180.265 179.861 180.607 179.861L196.156 188.401C196.497 188.401 197.864 189.597 198.035 189.768L211.021 202.749L211.704 203.433L212.559 204.287L227.082 218.805C227.253 218.976 228.449 220.343 228.449 220.684L236.822 235.715L236.993 236.228C236.993 236.057 236.822 236.399 236.651 236.569Z" fill="#344463"/>
<path d="M236.65 177.128C236.65 177.299 236.308 177.47 235.967 177.47C235.454 177.641 234.258 176.957 233.745 176.957L217.171 169.271C216.829 169.271 215.463 168.246 215.292 167.904L202.477 155.094L201.793 154.411L200.939 153.557L186.415 139.038C186.074 138.696 185.048 137.501 185.048 137.159L177.701 121.103L177.53 120.591C177.53 120.42 177.701 120.078 177.872 120.078C177.872 119.907 178.214 119.737 178.555 119.737C179.068 119.566 180.264 120.249 180.777 120.249L197.18 127.765C197.522 127.765 198.889 128.789 199.059 129.131L212.045 142.112L212.729 142.796L213.583 143.65L228.278 158.339C228.619 158.681 229.644 159.876 229.644 160.218L236.992 175.932L237.163 176.616C236.992 176.616 236.821 176.957 236.65 177.128Z" fill="#344463"/>
<path d="M236.65 117.687C236.65 117.858 236.308 118.028 236.137 118.028C235.625 118.199 234.258 117.687 233.745 117.687L216.488 111.025C215.975 111.025 214.779 110.001 214.437 109.659L201.622 96.8483L200.939 95.9942L200.085 95.1402L185.561 80.6215C185.219 80.2799 184.194 79.0842 184.194 78.5718L177.701 61.8326L177.701 61.1494C177.701 60.9785 178.043 60.8077 178.043 60.6369C178.043 60.4661 178.385 60.2953 178.555 60.2953C179.068 60.1245 180.435 60.6369 180.948 60.6369L198.034 67.1276C198.547 67.1276 199.743 68.1525 200.085 68.4941L213.241 81.6463L213.925 82.3296L214.779 83.1836L229.474 97.8731C229.815 98.2147 230.841 99.4104 230.841 99.9228L237.163 116.491L237.163 117.174C236.992 117.345 236.821 117.687 236.65 117.687Z" fill="#344463"/>
<path d="M236.992 57.904C236.992 58.0748 236.65 58.2456 236.65 58.4164C236.479 59.2705 234.6 58.758 233.574 58.758L215.633 53.1214C215.121 53.1214 213.925 52.2673 213.583 51.9257L200.597 38.9443L198.889 37.2362L184.194 22.5467C183.852 22.2051 182.998 21.0094 182.998 20.497L177.53 3.07455L177.53 2.22051C177.53 2.0497 177.872 1.87889 177.872 1.70808C178.043 0.85404 179.922 1.36646 180.948 1.36646L198.718 6.83233C199.23 6.83233 200.426 7.68637 200.768 8.02798L213.925 21.1802L215.633 22.8883L230.499 37.7486C230.841 38.0902 231.695 39.2859 231.695 39.7983L237.163 57.0499L237.163 57.904L236.992 57.904Z" fill="#344463"/>
<path d="M177.702 473.993L177.018 473.993L147.8 444.785L118.753 415.747L118.753 415.064L119.436 415.064L148.654 444.101L177.702 473.31L177.702 473.993Z" fill="#344463"/>
<path d="M177.703 414.552C177.703 414.552 177.019 414.552 177.019 414.722C176.848 414.722 175.311 413.356 175.14 413.356L161.299 401.741C161.129 401.741 159.762 400.204 159.591 400.204L147.288 387.735L146.605 387.051L145.751 386.197L131.74 372.191C131.74 372.191 130.202 370.654 130.202 370.483L118.925 357.16L118.583 356.648L118.583 355.964C118.583 355.964 119.266 355.964 119.266 355.794C119.437 355.794 120.975 357.16 121.146 357.16L134.815 368.604C134.986 368.604 136.353 370.141 136.524 370.141L149.168 382.781L149.851 383.464L150.706 384.319L164.888 398.496C164.888 398.496 166.425 400.033 166.425 400.204L177.532 413.356L177.874 413.868C177.703 413.868 177.703 414.552 177.703 414.552Z" fill="#344463"/>
<path d="M177.702 355.11C177.702 355.11 177.189 355.281 177.018 355.281C176.848 355.452 175.31 354.085 174.968 354.085L160.274 343.837C160.103 343.837 158.565 342.47 158.565 342.3L145.921 329.66L145.237 328.977L144.383 327.952L130.201 313.775C130.03 313.604 128.663 312.237 128.663 312.067L118.753 297.889L118.411 297.377L118.411 296.694C118.411 296.694 118.924 296.523 119.095 296.523C119.266 296.352 120.803 297.719 121.145 297.719L135.669 307.796C135.84 307.796 137.377 309.163 137.377 309.334L150.192 322.144L150.876 322.827L151.73 323.682L166.083 338.029C166.254 338.2 167.621 339.567 167.621 339.737L177.36 353.744L177.702 354.256C177.873 354.598 177.702 355.11 177.702 355.11Z" fill="#344463"/>
<path d="M177.702 295.84C177.702 296.011 177.189 296.011 177.018 296.181C176.677 296.352 175.31 295.327 174.797 295.327L159.077 286.445C158.736 286.445 157.369 285.25 157.198 285.079L144.554 272.439L143.87 271.756L142.845 270.731L128.492 256.383C128.322 256.212 127.125 254.846 127.125 254.504L118.411 239.302L118.24 238.79C118.24 238.619 118.411 238.107 118.411 238.107C118.411 237.936 118.924 237.936 119.095 237.765C119.436 237.594 120.803 238.619 121.316 238.619L136.694 247.501C137.036 247.501 138.403 248.697 138.574 248.868L151.388 261.678L152.072 262.361L152.926 263.215L167.45 277.734C167.621 277.905 168.817 279.271 168.817 279.613L177.36 294.473L177.531 294.986C177.873 295.157 177.702 295.669 177.702 295.84Z" fill="#344463"/>
<path d="M177.703 236.399C177.703 236.569 177.19 236.74 177.19 236.74C176.848 236.911 175.481 236.228 174.969 236.228L158.395 228.541C158.053 228.541 156.686 227.517 156.515 227.175L143.7 214.364L143.017 213.681L141.992 212.656L127.468 198.138C127.126 197.796 126.101 196.6 126.101 196.259L118.754 180.203L118.583 179.69C118.583 179.519 118.754 179.178 118.754 179.007C118.754 178.836 119.266 178.665 119.266 178.665C119.608 178.495 120.975 179.178 121.488 179.178L137.891 186.693C138.233 186.693 139.599 187.718 139.77 188.06L152.756 201.041L153.44 201.724L154.294 202.579L168.988 217.268C169.33 217.61 170.355 218.805 170.355 219.147L177.703 234.861L177.874 235.374C177.874 235.715 177.874 236.228 177.703 236.399Z" fill="#344463"/>
<path d="M177.702 176.957C177.702 177.128 177.36 177.299 177.189 177.47C176.677 177.811 175.31 177.299 174.797 177.299L157.369 170.979C156.856 170.979 155.66 169.954 155.318 169.613L142.332 156.631L141.649 155.948L140.624 154.923L125.929 140.234C125.587 139.892 124.562 138.696 124.562 138.184L118.411 121.274L118.24 120.591C118.24 120.42 118.411 120.078 118.411 119.907C118.411 119.737 118.753 119.566 118.924 119.395C119.436 119.053 120.803 119.566 121.316 119.566L138.573 125.886C139.086 125.886 140.282 126.911 140.624 127.252L153.78 140.404L154.464 141.088L155.489 142.112L170.354 156.973C170.696 157.314 171.721 158.51 171.721 159.022L177.873 175.591L178.043 176.274C178.043 176.445 177.873 176.787 177.702 176.957Z" fill="#344463"/>
<path d="M177.873 117.516C177.873 117.687 177.531 117.858 177.36 118.028C176.847 118.37 175.48 118.199 174.797 118.199L156.343 113.075C155.831 113.075 154.635 112.221 154.293 111.879L141.136 98.7271L140.453 98.0439L139.428 97.0191L124.562 82.1587C124.221 81.8171 123.366 80.6215 123.366 80.109L118.411 62.345L118.411 61.6617C118.411 61.4909 118.582 61.1493 118.582 60.9785C118.582 60.8077 118.924 60.6369 119.095 60.4661C119.607 60.1245 120.974 60.2953 121.658 60.2953L139.769 65.2487C140.282 65.2487 141.478 66.1028 141.82 66.4444L155.147 79.7674L155.831 80.4507L156.856 81.4755L171.892 96.5066C172.234 96.8482 173.088 98.0439 173.088 98.5563L178.043 116.15L178.043 116.833C178.043 117.004 177.873 117.345 177.873 117.516Z" fill="#344463"/>
<path d="M178.042 57.3915C178.042 57.5623 177.872 57.904 177.701 58.0748C177.359 59.0996 175.65 59.0996 174.625 59.0996L155.317 55.3418C154.634 55.3418 153.609 54.6586 153.096 54.1462L139.768 40.8231L138.06 39.1151L123.024 24.0839C122.511 23.5715 121.827 22.5467 121.827 21.8634L118.239 3.41615L118.239 2.5621C118.239 2.3913 118.41 2.04968 118.581 1.87887C118.923 0.854022 120.631 0.854022 121.657 0.854022L140.794 4.6118C141.477 4.6118 142.502 5.29504 143.015 5.80746L156.513 19.3013L158.222 21.0094L173.429 36.2113C173.942 36.7237 174.625 37.7486 174.625 38.4318L178.213 56.8791L178.213 57.3915L178.042 57.3915Z" fill="#344463"/>
<path d="M118.754 473.993L117.9 473.993L88.8528 444.785L59.6346 415.747L59.6346 415.064L60.3181 415.064L89.5362 444.101L118.754 473.31L118.754 473.993Z" fill="#344463"/>
<path d="M118.754 414.551C118.754 414.551 118.071 414.551 118.071 414.722C117.9 414.893 116.191 413.185 116.021 413.185L102.009 401.741C101.839 401.741 100.472 400.374 100.301 400.204L87.9984 387.905L87.315 387.222L86.4606 386.368L72.6205 372.533C72.6205 372.533 71.0827 370.995 71.0827 370.825L59.9764 357.16L59.6346 356.647L59.6346 355.964C59.6346 355.964 60.3181 355.964 60.3181 355.793C60.489 355.623 62.1976 357.331 62.3685 357.331L76.2087 368.604C76.3795 368.604 77.7464 369.971 77.9173 370.141L90.3906 382.61L90.9032 383.123L91.7575 383.977L105.769 397.983C105.769 397.983 107.306 399.52 107.306 399.691L118.242 413.185L118.584 413.697C118.754 413.868 118.754 414.551 118.754 414.551Z" fill="#344463"/>
<path d="M118.752 355.11C118.752 355.11 118.24 355.281 118.069 355.281C117.898 355.452 116.189 354.256 115.848 354.256L100.641 344.52C100.47 344.52 98.9319 343.324 98.9319 343.154L86.4587 330.685L85.7752 330.001L84.75 328.977L70.5681 314.8C70.3973 314.629 69.2012 313.262 69.2012 313.091L59.6327 298.402L59.2909 297.889L59.2909 297.206C59.2909 297.206 59.8035 297.035 59.9744 297.035C60.1453 296.865 61.8539 298.06 62.1957 298.06L77.2319 307.796C77.4028 307.796 78.9406 309.163 78.9406 309.163L91.5847 321.803L92.0973 322.315L93.1225 323.34L107.304 337.517C107.475 337.688 108.671 339.054 108.671 339.225L118.069 353.744L118.411 354.256C118.752 354.427 118.752 355.11 118.752 355.11Z" fill="#344463"/>
<path d="M118.753 295.669C118.753 295.84 118.241 295.84 118.241 296.011C117.899 296.352 116.361 295.327 115.849 295.327L99.6164 287.129C99.2747 287.129 97.9078 285.933 97.7369 285.762L85.0928 273.122L84.4093 272.439L83.3841 271.414L69.0313 257.066C68.8605 256.896 67.6644 255.529 67.6644 255.187L59.6337 239.473L59.4628 238.961C59.4628 238.79 59.4628 238.277 59.6337 238.277C59.6337 238.107 60.1463 238.107 60.1463 237.936C60.488 237.594 62.0258 238.619 62.5384 238.619L78.5999 246.647C78.9416 246.647 80.3085 247.843 80.4794 248.014L93.4652 260.995L93.9778 261.507L95.003 262.532L109.527 277.051C109.698 277.222 110.894 278.588 110.894 278.93L118.753 294.473L118.924 294.986C118.924 294.986 118.753 295.498 118.753 295.669Z" fill="#344463"/>
<path d="M118.753 236.228C118.753 236.399 118.241 236.569 118.241 236.569C117.899 237.082 116.361 236.399 115.849 236.399L98.5912 229.737C98.0786 229.737 96.8826 228.712 96.5409 228.371L83.555 215.389L82.8716 214.706L81.8463 213.681L67.1519 198.992C66.8101 198.65 65.7849 197.454 65.7849 196.942L59.292 180.203L59.1211 179.519C59.1211 179.349 59.1211 178.836 59.292 178.836C59.292 178.665 59.8046 178.495 59.8046 178.495C60.1463 177.982 61.6841 178.665 62.1967 178.665L79.2833 185.156C79.7959 185.156 80.992 186.181 81.3337 186.523L94.4905 199.675L95.003 200.187L96.0283 201.212L110.723 215.902C111.065 216.243 112.09 217.439 112.09 217.951L118.412 234.52L118.583 235.203C118.924 235.545 118.924 236.057 118.753 236.228Z" fill="#344463"/>
<path d="M118.924 176.787C118.924 176.957 118.583 177.128 118.412 177.299C117.899 177.811 116.532 177.47 115.849 177.47L97.3952 172.346C96.8826 172.346 95.6865 171.491 95.3448 171.15L82.188 157.998L81.5046 157.314L80.4794 156.29L65.614 141.429C65.2723 141.088 64.418 139.892 64.418 139.38L59.4628 121.615L59.292 120.932C59.292 120.761 59.4628 120.42 59.4628 120.249C59.4628 120.078 59.8046 119.907 59.9754 119.737C60.488 119.224 61.855 119.566 62.5384 119.566L80.6503 124.519C81.1629 124.519 82.3589 125.373 82.7007 125.715L96.0282 139.038L96.7117 139.721L97.7369 140.746L112.773 155.777C113.115 156.119 113.969 157.314 113.969 157.827L118.753 175.42L118.924 176.103C118.924 176.103 118.924 176.616 118.924 176.787Z" fill="#344463"/>
<path d="M118.925 117.345C118.925 117.516 118.583 117.858 118.583 118.029C118.07 118.712 116.703 118.712 115.849 118.712L96.3702 115.296C95.6867 115.296 94.6615 114.612 94.1489 114.1L80.8214 100.777L80.1379 100.094L79.1127 99.0688L63.9056 83.8669C63.393 83.3544 62.7095 82.3296 62.7095 81.6464L59.2922 62.8575L59.2922 62.1742C59.2922 62.0034 59.4631 61.6618 59.4631 61.491C59.4631 61.3202 59.8048 60.9786 59.8048 60.8078C60.3174 60.1245 61.6843 60.1245 62.5387 60.1245L81.8466 63.5407C82.53 63.5407 83.5552 64.2239 84.0678 64.7364L97.5662 78.2302L98.2497 78.9134L99.2749 79.9383L114.482 95.1402C114.995 95.6526 115.678 96.6775 115.678 97.3607L118.925 115.979L118.925 116.662C119.095 116.662 118.925 117.004 118.925 117.345Z" fill="#344463"/>
<path d="M119.096 57.05C119.096 57.3916 118.925 57.5624 118.925 57.7332C118.584 58.9289 117.046 59.6121 115.679 59.6121L95.175 57.7332C94.3206 57.7332 93.4663 57.2208 92.9537 56.7084L79.2844 43.2145L77.5757 41.5064L62.1978 26.1337C61.6852 25.6213 61.1726 24.5964 61.1726 23.9132L59.293 4.09944L59.293 3.07459C59.293 2.73298 59.4639 2.56217 59.4639 2.39136C59.8056 1.1957 61.3434 0.512469 62.7104 0.512469L83.0434 2.39136C83.8978 2.39136 84.7521 2.90379 85.4356 3.41621L99.2757 17.2517L100.984 18.9598L116.533 34.5033C117.046 35.0157 117.558 36.0406 117.558 36.7238L119.438 56.196L119.438 57.05L119.096 57.05Z" fill="#344463"/>
<path d="M34.8568 60.1245L56.7277 60.1245C58.6072 60.1245 60.145 58.5872 60.145 56.7083L60.145 35.1865C60.145 34.3325 59.8033 33.4784 59.1198 32.7952L43.2293 16.91L27.3387 1.02487C26.8261 0.341636 25.9717 1.918e-05 24.9465 1.91351e-05L3.41737 1.81941e-05C1.53784 1.81119e-05 4.35399e-05 1.53729 4.34577e-05 3.41618L4.25021e-05 25.2796C4.24647e-05 26.1337 0.341786 26.9877 1.02525 27.6709L16.745 43.3853L32.4646 59.0997C33.1481 59.7829 34.0025 60.1245 34.8568 60.1245Z" fill="#344463"/>
</g>
</svg>
