<svg width="1601" height="6011" viewBox="0 0 1601 6011" fill="none" xmlns="http://www.w3.org/2000/svg">
<g clip-path="url(#clip0_190_3650)">
<mask id="mask0_190_3650" style="mask-type:luminance" maskUnits="userSpaceOnUse" x="0" y="0" width="1601" height="1072">
<path d="M1601 0H0V1072H1601V0Z" fill="white"/>
</mask>
<g mask="url(#mask0_190_3650)">
<path d="M1487.47 -0.75C1495.42 -0.749999 1503.05 2.40823 1508.67 8.03027L1593.16 92.4619C1598.79 98.0885 1601.95 105.722 1601.95 113.682V155.75C1601.95 159.19 1601.26 162.467 1600 165.45V1103H-0.00195122V162.931C-0.682905 160.656 -1.05076 158.246 -1.05078 155.75V24.25C-1.05078 10.4429 10.1421 -0.749988 23.9492 -0.75H1487.47Z" fill="#1B273D"/>
<path d="M1660 128H142V1096H1660V128Z" fill="#1B273D"/>
</g>
<rect x="-28" y="852" width="1683" height="5215" fill="#1B273D"/>
</g>
<defs>
<clipPath id="clip0_190_3650">
<rect width="1601" height="6011" fill="white"/>
</clipPath>
</defs>
</svg>
