<svg width="28" height="27" viewBox="0 0 28 27" fill="none" xmlns="http://www.w3.org/2000/svg">
<path d="M6.57647 9.85728C8.58837 9.85728 10.2193 8.22631 10.2193 6.21441C10.2193 4.2025 8.58837 2.57153 6.57647 2.57153C4.56456 2.57153 2.93359 4.2025 2.93359 6.21441C2.93359 8.22631 4.56456 9.85728 6.57647 9.85728Z" stroke="#F47B47" stroke-width="1.5" stroke-linecap="round" stroke-linejoin="round"/>
<path d="M21.1487 9.85728C23.1606 9.85728 24.7916 8.22631 24.7916 6.21441C24.7916 4.2025 23.1606 2.57153 21.1487 2.57153C19.1368 2.57153 17.5059 4.2025 17.5059 6.21441C17.5059 8.22631 19.1368 9.85728 21.1487 9.85728Z" stroke="#F47B47" stroke-width="1.5" stroke-linecap="round" stroke-linejoin="round"/>
<path d="M0.75 24.4288C1.84286 19.5109 5.30359 17.1431 6.5786 17.1431C8.76432 17.1431 11.3143 18.7824 12.7715 20.7859" stroke="#F47B47" stroke-width="1.5" stroke-linecap="round" stroke-linejoin="round"/>
<path d="M26.9766 24.4288C25.8837 19.5109 22.423 17.1431 21.148 17.1431C18.9622 17.1431 16.4122 18.7824 14.9551 20.7859" stroke="#F47B47" stroke-width="1.5" stroke-linecap="round" stroke-linejoin="round"/>
<path d="M4.75586 15.6043L8.39873 11.9614L13.863 17.4257L19.3274 11.9614L22.9702 15.6043" stroke="#F47B47" stroke-width="1.5" stroke-linecap="round" stroke-linejoin="round"/>
<path d="M10.2207 21.9614L13.8636 25.6043L17.5065 21.9614" stroke="#F47B47" stroke-width="1.5" stroke-linecap="round" stroke-linejoin="round"/>
<path d="M1.11328 0.75H6.57759" stroke="#F47B47" stroke-width="1.5" stroke-linecap="round" stroke-linejoin="round"/>
<path d="M1.11328 0.75V6.21431" stroke="#F47B47" stroke-width="1.5" stroke-linecap="round" stroke-linejoin="round"/>
<path d="M1.11328 6.21431L6.57759 0.75" stroke="#F47B47" stroke-width="1.5" stroke-linecap="round" stroke-linejoin="round"/>
</svg>
