<svg width="26" height="24" viewBox="0 0 26 24" fill="none" xmlns="http://www.w3.org/2000/svg">
<path d="M22.2847 6.13354H3.44184C1.95518 6.13354 0.75 7.33872 0.75 8.82539V19.5927C0.75 21.0794 1.95518 22.2846 3.44184 22.2846H22.2847C23.7714 22.2846 24.9766 21.0794 24.9766 19.5927V8.82539C24.9766 7.33872 23.7714 6.13354 22.2847 6.13354Z" stroke="#F47B47" stroke-width="1.5" stroke-linecap="round" stroke-linejoin="round"/>
<path d="M8.82617 6.13368V3.44184C8.82617 2.72792 9.10978 2.04324 9.61459 1.53842C10.1194 1.0336 10.8041 0.75 11.518 0.75H14.2099C14.9238 0.75 15.6085 1.0336 16.1133 1.53842C16.6181 2.04324 16.9017 2.72792 16.9017 3.44184V6.13368" stroke="#F47B47" stroke-width="1.5" stroke-linecap="round" stroke-linejoin="round"/>
<path d="M0.75 11.5173H24.9766" stroke="#F47B47" stroke-width="1.5" stroke-linecap="round" stroke-linejoin="round"/>
<path d="M11.5176 11.5173H14.2094" stroke="#F47B47" stroke-width="1.5" stroke-linecap="round" stroke-linejoin="round"/>
<path d="M6.13281 19.5929L11.5165 14.2092L15.5543 18.247L18.9766 14.2092" stroke="#F47B47" stroke-width="1.5" stroke-linecap="round" stroke-linejoin="round"/>
<path d="M16.5938 14.1714H19.2856V16.8632" stroke="#F47B47" stroke-width="1.5" stroke-linecap="round" stroke-linejoin="round"/>
</svg>
