<svg width="22" height="28" viewBox="0 0 22 28" fill="none" xmlns="http://www.w3.org/2000/svg">
<path d="M2.13982 0.75H11.8685L18.8176 7.69908V25.7667C18.8176 26.1353 18.6712 26.4888 18.4106 26.7495C18.1499 27.0101 17.7964 27.1565 17.4278 27.1565H2.13982C1.77121 27.1565 1.41771 27.0101 1.15707 26.7495C0.896427 26.4888 0.75 26.1353 0.75 25.7667V2.13982C0.75 1.77121 0.896427 1.41771 1.15707 1.15707C1.41771 0.896427 1.77121 0.75 2.13982 0.75Z" stroke="#F47B47" stroke-width="1.5" stroke-linecap="round" stroke-linejoin="round"/>
<path d="M11.8691 0.75V7.69908H18.8182" stroke="#F47B47" stroke-width="1.5" stroke-linecap="round" stroke-linejoin="round"/>
<path d="M4.91992 12.325H13.2588M4.91992 16.4944H10.4792" stroke="#F47B47" stroke-width="1.5" stroke-linecap="round" stroke-linejoin="round"/>
<path d="M3.5293 22.9871H14.6478" stroke="#F47B47" stroke-width="1.5" stroke-linecap="round" stroke-linejoin="round"/>
<path d="M4.91992 22.9871V18.8176" stroke="#F47B47" stroke-width="1.5" stroke-linecap="round" stroke-linejoin="round"/>
<path d="M9.08984 22.9871V14.6482" stroke="#F47B47" stroke-width="1.5" stroke-linecap="round" stroke-linejoin="round"/>
<path d="M13.2578 22.9872V17.428" stroke="#F47B47" stroke-width="1.5" stroke-linecap="round" stroke-linejoin="round"/>
<path d="M18.8171 22.2923C19.9685 22.2923 20.9019 21.3589 20.9019 20.2075C20.9019 19.0562 19.9685 18.1228 18.8171 18.1228C17.6658 18.1228 16.7324 19.0562 16.7324 20.2075C16.7324 21.3589 17.6658 22.2923 18.8171 22.2923Z" stroke="#F47B47" stroke-width="1.5" stroke-linecap="round" stroke-linejoin="round"/>
<path d="M18.8171 13.9534C19.9685 13.9534 20.9019 13.02 20.9019 11.8687C20.9019 10.7173 19.9685 9.78394 18.8171 9.78394C17.6658 9.78394 16.7324 10.7173 16.7324 11.8687C16.7324 13.02 17.6658 13.9534 18.8171 13.9534Z" stroke="#F47B47" stroke-width="1.5" stroke-linecap="round" stroke-linejoin="round"/>
<path d="M18.8184 13.9534V18.1228" stroke="#F47B47" stroke-width="1.5" stroke-linecap="round" stroke-linejoin="round"/>
</svg>
