<svg width="312" height="312" viewBox="0 0 312 312" fill="none" xmlns="http://www.w3.org/2000/svg">
<g opacity="0.5">
<path d="M215.985 126.044H214.613L206.724 127.416C206.381 127.416 205.923 127.76 205.695 127.988L198.491 135.194L197.577 136.109L191.174 142.514C190.945 142.743 190.602 143.2 190.602 143.544L189.001 152.694C189.001 153.037 188.887 153.38 189.116 153.609C189.344 153.838 189.687 154.409 190.03 154.409H191.402L199.406 153.037C199.749 153.037 200.206 152.694 200.435 152.465L207.638 145.259L208.553 144.344L214.842 138.054C215.07 137.825 215.413 137.367 215.413 137.024L217.014 127.76C217.014 127.416 217.128 127.073 216.9 126.845C216.671 126.501 216.328 126.044 215.985 126.044Z" fill="#344463"/>
<path d="M215.985 94.5901H214.613L206.724 95.9626C206.381 95.9626 205.923 96.3057 205.695 96.5345L198.491 103.74L197.577 104.655L191.174 111.06C190.945 111.289 190.602 111.747 190.602 112.09L189.001 121.24C189.001 121.583 188.887 121.926 189.116 122.155C189.344 122.384 189.687 122.956 190.03 122.956H191.402L199.406 121.583C199.749 121.583 200.206 121.24 200.435 121.011L207.638 113.805L208.553 112.89L214.842 106.6C215.07 106.371 215.413 105.913 215.413 105.57L217.014 96.3057C217.014 95.9626 217.128 95.6195 216.9 95.3907C216.671 95.0476 216.328 94.5901 215.985 94.5901Z" fill="#344463"/>
<path d="M310.545 31.4538L283.332 58.6756V59.9338H284.59L311.802 32.712V31.4538H310.545Z" fill="#344463"/>
<path d="M310.545 62.9076L283.332 90.2438V91.3876H284.59L311.802 64.1657V62.9076H310.545Z" fill="#344463"/>
<path d="M310.545 94.4757L283.332 121.698V122.956H284.59L311.802 95.7339V94.4757H310.545Z" fill="#344463"/>
<path d="M310.545 125.93L296.938 139.54L283.332 153.151V154.409H284.59L298.196 140.799L311.802 127.188V125.93H310.545Z" fill="#344463"/>
<path d="M185.686 137.939V127.645C185.686 126.73 185 126.044 184.085 126.044H174.023C173.566 126.044 173.223 126.158 172.88 126.501L165.448 133.936L158.016 141.37C157.673 141.714 157.559 142.057 157.559 142.514V152.579C157.559 153.494 158.245 154.181 159.159 154.181H169.45C169.907 154.181 170.25 154.066 170.593 153.723L177.911 146.289L185.229 138.854C185.457 138.74 185.686 138.397 185.686 137.939Z" fill="#344463"/>
<path d="M184.542 94.5901H183.17L175.28 95.9626C174.937 95.9626 174.48 96.3057 174.251 96.5345L167.048 103.74L166.133 104.655L159.73 111.06C159.502 111.289 159.159 111.747 159.159 112.09L157.558 121.24C157.558 121.583 157.444 121.926 157.672 122.155C157.901 122.384 158.244 122.956 158.587 122.956H159.959L167.963 121.583C168.306 121.583 168.763 121.24 168.992 121.011L176.195 113.805L177.11 112.89L183.398 106.6C183.627 106.371 183.97 105.913 183.97 105.57L185.571 96.3057C185.571 95.9626 185.685 95.6195 185.456 95.3907C185.228 95.0476 184.885 94.5901 184.542 94.5901Z" fill="#344463"/>
<path d="M247.887 126.044H246.515L239.426 128.789C239.197 128.789 238.626 129.246 238.511 129.361L231.537 136.338L230.736 137.138L224.562 143.315C224.448 143.429 223.99 144.116 223.99 144.23L220.789 152.465C220.789 152.694 220.56 153.151 220.675 153.38C220.789 153.609 221.018 154.295 221.246 154.295H222.618L229.822 151.55C230.05 151.55 230.622 151.093 230.736 150.978L237.711 144.001L238.511 143.2L244.571 137.138C244.686 137.024 245.143 136.338 245.143 136.223L248.344 127.874C248.344 127.645 248.573 127.188 248.459 126.959C248.344 126.73 248.116 126.044 247.887 126.044Z" fill="#344463"/>
<path d="M247.887 94.4757H246.515L239.426 97.2208C239.197 97.2208 238.626 97.6783 238.511 97.7927L231.537 104.77L230.736 105.57L224.562 111.747C224.448 111.861 223.99 112.547 223.99 112.662L220.789 120.897C220.789 121.126 220.56 121.583 220.675 121.812C220.789 122.041 221.018 122.727 221.246 122.727H222.618L229.822 119.982C230.05 119.982 230.622 119.524 230.736 119.41L237.711 112.433L238.511 111.632L244.571 105.57C244.686 105.456 245.143 104.77 245.143 104.655L248.344 96.3057C248.344 96.077 248.573 95.6195 248.459 95.3907C248.344 95.2763 248.116 94.4757 247.887 94.4757Z" fill="#344463"/>
<path d="M247.887 63.022H246.515L239.426 65.767C239.197 65.767 238.626 66.2245 238.511 66.3389L231.537 73.3159L230.736 74.1166L224.562 80.293C224.448 80.4073 223.99 81.0936 223.99 81.208L220.789 89.4432C220.789 89.6719 220.56 90.1294 220.675 90.3582C220.789 90.5869 221.018 91.2732 221.246 91.2732H222.618L229.822 88.5281C230.05 88.5281 230.622 88.0706 230.736 87.9562L237.711 80.9792L238.511 80.1786L244.571 74.1166C244.686 74.0022 245.143 73.3159 245.143 73.2016L248.344 64.852C248.344 64.6233 248.573 64.1657 248.459 63.937C248.344 63.7082 248.116 63.022 247.887 63.022Z" fill="#344463"/>
<path d="M216.442 63.022H215.07L207.981 65.767C207.752 65.767 207.18 66.2245 207.066 66.3389L200.091 73.3159L199.291 74.1166L193.117 80.293C193.002 80.4073 192.545 81.0936 192.545 81.208L189.344 89.4432C189.344 89.6719 189.115 90.1294 189.229 90.3582C189.344 90.5869 189.572 91.2732 189.801 91.2732H191.173L198.376 88.5281C198.605 88.5281 199.177 88.0706 199.291 87.9562L206.266 80.9792L207.066 80.1786L213.126 74.1166C213.24 74.0022 213.698 73.3159 213.698 73.2016L216.899 64.852C216.899 64.6233 217.128 64.1657 217.014 63.937C216.899 63.7082 216.671 63.022 216.442 63.022Z" fill="#344463"/>
<path d="M184.886 63.022H183.628L176.539 65.767C176.311 65.767 175.739 66.2245 175.625 66.3389L168.65 73.3159L167.85 74.1166L161.675 80.293C161.561 80.4073 161.104 81.0936 161.104 81.208L157.902 89.4432C157.902 89.6719 157.674 90.1294 157.788 90.3582C157.902 90.5869 158.131 91.2732 158.36 91.2732H159.732L166.935 88.5281C167.164 88.5281 167.735 88.0706 167.85 87.9562L174.824 80.9792L175.625 80.1786L181.685 74.1166C181.799 74.0022 182.256 73.3159 182.256 73.2016L185.458 64.852C185.458 64.6233 185.686 64.1657 185.572 63.937C185.458 63.7082 185.229 63.022 184.886 63.022Z" fill="#344463"/>
<path d="M279.786 126.044H278.529L272.24 130.161C272.126 130.161 271.44 130.733 271.325 130.848L264.465 137.71L263.665 138.511L257.719 144.459C257.605 144.573 257.033 145.259 257.033 145.374L252.231 152.694C252.231 152.808 251.773 153.38 251.773 153.494C251.888 153.609 252.002 154.524 252.117 154.524H253.374L259.663 150.406C259.777 150.406 260.463 149.72 260.578 149.72L267.324 142.972L268.124 142.171L274.069 136.223C274.184 136.109 274.756 135.423 274.756 135.308L279.558 127.988C279.558 127.874 280.015 127.302 280.015 127.188C280.015 126.959 280.015 126.044 279.786 126.044Z" fill="#344463"/>
<path d="M279.786 94.4757H278.529L272.24 98.5933C272.126 98.5933 271.44 99.1652 271.325 99.2796L264.465 106.142L263.665 106.943L257.719 112.89C257.605 113.005 257.033 113.691 257.033 113.805L252.231 121.126C252.231 121.24 251.773 121.812 251.773 121.926C251.888 122.041 252.002 122.956 252.117 122.956H253.374L259.663 118.838C259.777 118.838 260.463 118.152 260.578 118.152L267.324 111.404L268.124 110.603L274.069 104.655C274.184 104.541 274.756 103.855 274.756 103.74L279.558 96.4201C279.558 96.3057 280.015 95.7339 280.015 95.6195C280.015 95.5051 280.015 94.4757 279.786 94.4757Z" fill="#344463"/>
<path d="M279.786 63.022H278.529L272.24 67.1396C272.126 67.1396 271.44 67.7114 271.325 67.8258L264.465 74.6885L263.665 75.4891L257.719 81.4367C257.605 81.5511 257.033 82.2374 257.033 82.3518L252.231 89.6719C252.231 89.7863 251.773 90.3582 251.773 90.4725C251.888 90.5869 252.002 91.5019 252.117 91.5019H253.374L259.663 87.3844C259.777 87.3844 260.463 86.6981 260.578 86.6981L267.324 79.9498L268.124 79.1492L274.069 73.2016C274.184 73.0872 274.756 72.4009 274.756 72.2865L279.672 64.852C279.672 64.7376 280.129 64.1657 280.129 64.0514C280.015 63.937 280.015 63.022 279.786 63.022Z" fill="#344463"/>
<path d="M279.786 31.4538H278.529L272.24 35.5714C272.126 35.5714 271.44 36.1433 271.325 36.2576L264.465 43.1203L263.665 43.9209L257.719 49.8686C257.605 49.9829 257.033 50.6692 257.033 50.7836L252.231 58.1037C252.231 58.2181 251.773 58.79 251.773 58.9044C251.888 59.0188 252.002 59.9338 252.117 59.9338H253.374L259.663 55.8162C259.777 55.8162 260.463 55.1299 260.578 55.1299L267.324 48.3817L268.124 47.581L274.069 41.6334C274.184 41.519 274.756 40.8327 274.756 40.7184L279.558 33.3982C279.558 33.2838 280.015 32.7119 280.015 32.5976C280.015 32.4832 280.015 31.4538 279.786 31.4538Z" fill="#344463"/>
<path d="M248.343 31.4538H247.085L240.797 35.5714C240.682 35.5714 239.996 36.1433 239.882 36.2576L233.022 43.1203L232.221 43.9209L226.276 49.8686C226.161 49.9829 225.59 50.6692 225.59 50.7836L220.787 58.1037C220.787 58.2181 220.33 58.79 220.33 58.9044C220.444 59.0188 220.559 59.9338 220.673 59.9338H221.931L228.219 55.8162C228.334 55.8162 229.02 55.1299 229.134 55.1299L235.88 48.3817L236.681 47.581L242.626 41.6334C242.74 41.519 243.312 40.8327 243.312 40.7184L248.114 33.3982C248.114 33.2838 248.572 32.7119 248.572 32.5976C248.572 32.4832 248.457 31.4538 248.343 31.4538Z" fill="#344463"/>
<path d="M216.902 31.4538H215.644L209.355 35.5714C209.241 35.5714 208.555 36.1433 208.441 36.2576L201.58 43.1203L200.78 43.9209L194.834 49.8686C194.72 49.9829 194.148 50.6692 194.148 50.7836L189.346 57.9894C189.346 58.1037 188.889 58.6756 188.889 58.79C189.003 58.9044 189.117 59.8194 189.232 59.8194H190.489L196.778 55.7018C196.892 55.7018 197.578 55.0155 197.693 55.0155L204.439 48.2673L205.239 47.4666L211.185 41.519C211.299 41.4046 211.871 40.7184 211.871 40.604L216.673 33.2838C216.673 33.1695 217.13 32.5976 217.13 32.4832C217.13 32.4832 217.016 31.4538 216.902 31.4538Z" fill="#344463"/>
<path d="M185.343 31.4538H184.085L177.797 35.5714C177.682 35.5714 176.996 36.1433 176.882 36.2576L170.022 43.1203L169.221 43.9209L163.276 49.8686C163.161 49.9829 162.59 50.6692 162.59 50.7836L157.787 58.1037C157.787 58.2181 157.33 58.79 157.33 58.9044C157.444 59.0188 157.559 59.9338 157.673 59.9338H158.931L165.219 55.8162C165.334 55.8162 166.02 55.1299 166.134 55.1299L172.88 48.3817L173.68 47.581L179.626 41.6334C179.74 41.519 180.312 40.8327 180.312 40.7184L185.114 33.3982C185.114 33.2838 185.572 32.7119 185.572 32.5976C185.572 32.4832 185.457 31.4538 185.343 31.4538Z" fill="#344463"/>
<path d="M184.543 0L170.936 13.6109L157.33 27.2218V28.48H158.588L172.194 14.8691L185.8 1.25815V0H184.543Z" fill="#344463"/>
<path d="M217.242 1.25815V0H216.098L202.378 13.6109L188.771 27.2218V28.48H190.029L203.635 14.8691L217.242 1.25815Z" fill="#344463"/>
<path d="M248.8 1.25815V0H247.543L233.936 13.6109L220.33 27.2218V28.48H221.588L235.194 14.8691L248.8 1.25815Z" fill="#344463"/>
<path d="M280.244 1.25815V0H278.986L265.38 13.6109L251.773 27.2218V28.48H253.031L266.637 14.8691L280.244 1.25815Z" fill="#344463"/>
<path d="M310.545 0L296.938 13.6109L283.332 27.2218V28.48H284.59L298.196 14.8691L311.802 1.25815V0H310.545Z" fill="#344463"/>
<path d="M215.985 185.749H214.613L206.724 184.376C206.381 184.376 205.923 184.033 205.695 183.804L198.491 176.599L197.577 175.684L191.174 169.279C190.945 169.05 190.602 168.592 190.602 168.249L189.001 159.099C189.001 158.756 188.887 158.413 189.116 158.184C189.344 157.955 189.687 157.383 190.03 157.383H191.402L199.406 158.756C199.749 158.756 200.206 159.099 200.435 159.328L207.638 166.533L208.553 167.449L214.842 173.739C215.07 173.968 215.413 174.426 215.413 174.769L217.014 184.033C217.014 184.376 217.128 184.72 216.9 184.948C216.671 185.291 216.328 185.749 215.985 185.749Z" fill="#344463"/>
<path d="M215.985 217.203H214.613L206.724 215.83C206.381 215.83 205.923 215.487 205.695 215.258L198.491 208.053L197.577 207.137L191.174 200.732C190.945 200.504 190.602 200.046 190.602 199.703L189.001 190.553C189.001 190.21 188.887 189.867 189.116 189.638C189.344 189.409 189.687 188.837 190.03 188.837H191.402L199.406 190.21C199.749 190.21 200.206 190.553 200.435 190.782L207.638 197.987L208.553 198.902L214.842 205.193C215.07 205.422 215.413 205.879 215.413 206.222L217.014 215.487C217.014 215.83 217.128 216.173 216.9 216.402C216.671 216.745 216.328 217.203 215.985 217.203Z" fill="#344463"/>
<path d="M310.545 280.339L283.332 253.117V251.859H284.59L311.802 279.081V280.339H310.545Z" fill="#344463"/>
<path d="M310.545 248.771L283.332 221.549V220.291H284.59L311.802 247.513V248.771H310.545Z" fill="#344463"/>
<path d="M310.545 217.317L283.332 190.095V188.837H284.59L311.802 216.059V217.317H310.545Z" fill="#344463"/>
<path d="M310.545 185.863L296.938 172.252L283.332 158.641V157.383H284.59L298.196 170.994L311.802 184.605V185.863H310.545Z" fill="#344463"/>
<path d="M185.686 173.854V184.148C185.686 185.063 185 185.749 184.085 185.749H174.023C173.566 185.749 173.223 185.635 172.88 185.291L165.448 177.857L158.016 170.422C157.673 170.079 157.559 169.736 157.559 169.279V159.213C157.559 158.298 158.245 157.612 159.159 157.612H169.45C169.907 157.612 170.25 157.726 170.593 158.07L177.911 165.504L185.229 172.939C185.457 173.053 185.686 173.396 185.686 173.854Z" fill="#344463"/>
<path d="M184.542 217.203H183.17L175.28 215.83C174.937 215.83 174.48 215.487 174.251 215.258L167.048 208.053L166.133 207.137L159.73 200.732C159.502 200.504 159.159 200.046 159.159 199.703L157.558 190.553C157.558 190.21 157.444 189.867 157.672 189.638C157.901 189.409 158.244 188.837 158.587 188.837H159.959L167.963 190.21C168.306 190.21 168.763 190.553 168.992 190.782L176.195 197.987L177.11 198.902L183.398 205.193C183.627 205.422 183.97 205.879 183.97 206.222L185.571 215.487C185.571 215.83 185.685 216.173 185.456 216.402C185.228 216.745 184.885 217.203 184.542 217.203Z" fill="#344463"/>
<path d="M247.887 185.749H246.515L239.426 183.004C239.197 183.004 238.626 182.546 238.511 182.432L231.537 175.455L230.736 174.654L224.562 168.478C224.448 168.364 223.99 167.677 223.99 167.563L220.789 159.328C220.789 159.099 220.56 158.641 220.675 158.413C220.789 158.184 221.018 157.498 221.246 157.498H222.618L229.822 160.243C230.05 160.243 230.622 160.7 230.736 160.815L237.711 167.792L238.511 168.592L244.571 174.654C244.686 174.769 245.143 175.455 245.143 175.569L248.344 183.919C248.344 184.148 248.573 184.605 248.459 184.834C248.344 185.063 248.116 185.749 247.887 185.749Z" fill="#344463"/>
<path d="M247.887 217.203H246.515L239.426 214.458C239.197 214.458 238.626 214 238.511 213.886L231.537 206.909L230.736 206.108L224.562 199.932C224.448 199.817 223.99 199.131 223.99 199.017L220.789 190.782C220.789 190.553 220.56 190.095 220.675 189.866C220.789 189.638 221.018 188.951 221.246 188.951H222.618L229.822 191.697C230.05 191.697 230.622 192.154 230.736 192.268L237.711 199.245L238.511 200.046L244.571 206.108C244.686 206.222 245.143 206.909 245.143 207.023L248.344 215.373C248.344 215.601 248.573 216.059 248.459 216.288C248.344 216.516 248.116 217.203 247.887 217.203Z" fill="#344463"/>
<path d="M247.887 248.771H246.515L239.426 246.026C239.197 246.026 238.626 245.568 238.511 245.454L231.537 238.477L230.736 237.676L224.562 231.5C224.448 231.385 223.99 230.699 223.99 230.585L220.789 222.35C220.789 222.121 220.56 221.663 220.675 221.435C220.789 221.206 221.018 220.52 221.246 220.52H222.618L229.822 223.265C230.05 223.265 230.622 223.722 230.736 223.837L237.711 230.814L238.511 231.614L244.571 237.676C244.686 237.791 245.143 238.477 245.143 238.591L248.344 246.941C248.344 247.17 248.573 247.627 248.459 247.856C248.344 247.97 248.116 248.771 247.887 248.771Z" fill="#344463"/>
<path d="M216.442 248.771H215.07L207.981 246.026C207.752 246.026 207.18 245.568 207.066 245.454L200.091 238.477L199.291 237.676L193.117 231.5C193.002 231.385 192.545 230.699 192.545 230.585L189.344 222.35C189.344 222.121 189.115 221.663 189.229 221.435C189.344 221.206 189.572 220.52 189.801 220.52H191.173L198.376 223.265C198.605 223.265 199.177 223.722 199.291 223.837L206.266 230.814L207.066 231.614L213.126 237.676C213.24 237.791 213.698 238.477 213.698 238.591L216.899 246.941C216.899 247.17 217.128 247.627 217.014 247.856C216.899 247.97 216.671 248.771 216.442 248.771Z" fill="#344463"/>
<path d="M184.886 248.771H183.628L176.539 246.026C176.311 246.026 175.739 245.568 175.625 245.454L168.65 238.477L167.85 237.676L161.675 231.5C161.561 231.385 161.104 230.699 161.104 230.585L157.902 222.35C157.902 222.121 157.674 221.663 157.788 221.435C157.902 221.206 158.131 220.52 158.36 220.52H159.732L166.935 223.265C167.164 223.265 167.735 223.722 167.85 223.837L174.824 230.814L175.625 231.614L181.685 237.676C181.799 237.791 182.256 238.477 182.256 238.591L185.458 246.941C185.458 247.17 185.686 247.627 185.572 247.856C185.458 247.97 185.229 248.771 184.886 248.771Z" fill="#344463"/>
<path d="M279.786 185.749H278.529L272.24 181.631C272.126 181.631 271.44 181.059 271.325 180.945L264.465 174.082L263.665 173.282L257.719 167.334C257.605 167.22 257.033 166.533 257.033 166.419L252.231 159.099C252.231 158.985 251.773 158.413 251.773 158.298C251.888 158.184 252.002 157.269 252.117 157.269H253.374L259.663 161.386C259.777 161.386 260.463 162.073 260.578 162.073L267.324 168.821L268.124 169.622L274.069 175.569C274.184 175.684 274.756 176.37 274.756 176.484L279.558 183.804C279.558 183.919 280.015 184.491 280.015 184.605C280.015 184.834 280.015 185.749 279.786 185.749Z" fill="#344463"/>
<path d="M279.786 217.317H278.529L272.24 213.199C272.126 213.199 271.44 212.628 271.325 212.513L264.465 205.651L263.665 204.85L257.719 198.902C257.605 198.788 257.033 198.102 257.033 197.987L252.231 190.667C252.231 190.553 251.773 189.981 251.773 189.867C251.888 189.752 252.002 188.837 252.117 188.837H253.374L259.663 192.955C259.777 192.955 260.463 193.641 260.578 193.641L267.324 200.389L268.124 201.19L274.069 207.137C274.184 207.252 274.756 207.938 274.756 208.053L279.558 215.373C279.558 215.487 280.015 216.059 280.015 216.173C280.015 216.288 280.015 217.317 279.786 217.317Z" fill="#344463"/>
<path d="M279.786 248.771H278.529L272.24 244.653C272.126 244.653 271.44 244.081 271.325 243.967L264.465 237.104L263.665 236.304L257.719 230.356C257.605 230.242 257.033 229.555 257.033 229.441L252.231 222.121C252.231 222.007 251.773 221.435 251.773 221.32C251.888 221.206 252.002 220.291 252.117 220.291H253.374L259.663 224.408C259.777 224.408 260.463 225.095 260.578 225.095L267.324 231.843L268.124 232.644L274.069 238.591C274.184 238.706 274.756 239.392 274.756 239.506L279.558 246.826C279.558 246.941 280.015 247.513 280.015 247.627C280.015 247.741 280.015 248.771 279.786 248.771Z" fill="#344463"/>
<path d="M279.786 280.339H278.529L272.24 276.221C272.126 276.221 271.44 275.65 271.325 275.535L264.465 268.672L263.665 267.872L257.719 261.924C257.605 261.81 257.033 261.124 257.033 261.009L252.231 253.689C252.231 253.575 251.773 253.003 251.773 252.888C251.888 252.774 252.002 251.859 252.117 251.859H253.374L259.663 255.977C259.777 255.977 260.463 256.663 260.578 256.663L267.324 263.411L268.124 264.212L274.069 270.159C274.184 270.274 274.756 270.96 274.756 271.074L279.558 278.395C279.558 278.509 280.015 279.081 280.015 279.195C280.015 279.31 280.015 280.339 279.786 280.339Z" fill="#344463"/>
<path d="M248.343 280.339H247.085L240.797 276.221C240.682 276.221 239.996 275.65 239.882 275.535L233.022 268.672L232.221 267.872L226.276 261.924C226.161 261.81 225.59 261.124 225.59 261.009L220.787 253.689C220.787 253.575 220.33 253.003 220.33 252.888C220.444 252.774 220.559 251.859 220.673 251.859H221.931L228.219 255.977C228.334 255.977 229.02 256.663 229.134 256.663L235.88 263.411L236.681 264.212L242.626 270.159C242.74 270.274 243.312 270.96 243.312 271.074L248.114 278.395C248.114 278.509 248.572 279.081 248.572 279.195C248.572 279.31 248.457 280.339 248.343 280.339Z" fill="#344463"/>
<path d="M216.902 280.339H215.644L209.355 276.221C209.241 276.221 208.555 275.65 208.441 275.535L201.58 268.672L200.78 267.872L194.834 261.924C194.72 261.81 194.148 261.124 194.148 261.009L189.346 253.689C189.346 253.575 188.889 253.003 188.889 252.888C189.003 252.774 189.117 251.859 189.232 251.859H190.489L196.778 255.977C196.892 255.977 197.578 256.663 197.693 256.663L204.439 263.411L205.239 264.212L211.185 270.159C211.299 270.274 211.871 270.96 211.871 271.074L216.673 278.395C216.673 278.509 217.13 279.081 217.13 279.195C217.13 279.31 217.016 280.339 216.902 280.339Z" fill="#344463"/>
<path d="M185.343 280.339H184.085L177.797 276.221C177.682 276.221 176.996 275.65 176.882 275.535L170.022 268.672L169.221 267.872L163.276 261.924C163.161 261.81 162.59 261.124 162.59 261.009L157.787 253.689C157.787 253.575 157.33 253.003 157.33 252.888C157.444 252.774 157.559 251.859 157.673 251.859H158.931L165.219 255.977C165.334 255.977 166.02 256.663 166.134 256.663L172.88 263.411L173.68 264.212L179.626 270.159C179.74 270.274 180.312 270.96 180.312 271.074L185.114 278.395C185.114 278.509 185.572 279.081 185.572 279.195C185.572 279.31 185.457 280.339 185.343 280.339Z" fill="#344463"/>
<path d="M184.543 311.793L170.936 298.182L157.33 284.571V283.313H158.588L172.194 296.924L185.8 310.535V311.793H184.543Z" fill="#344463"/>
<path d="M217.242 310.535V311.793H216.098L202.378 298.182L188.771 284.571V283.313H190.029L203.635 296.924L217.242 310.535Z" fill="#344463"/>
<path d="M248.8 310.535V311.793H247.543L233.936 298.182L220.33 284.571V283.313H221.588L235.194 296.924L248.8 310.535Z" fill="#344463"/>
<path d="M280.244 310.535V311.793H278.986L265.38 298.182L251.773 284.571V283.313H253.031L266.637 296.924L280.244 310.535Z" fill="#344463"/>
<path d="M310.545 311.793L296.938 298.182L283.332 284.571V283.313H284.59L298.196 296.924L311.802 310.535V311.793H310.545Z" fill="#344463"/>
<path d="M95.8155 126.044H97.1875L105.077 127.416C105.42 127.416 105.877 127.76 106.106 127.988L113.309 135.194L114.224 136.109L120.627 142.514C120.856 142.743 121.199 143.2 121.199 143.544L122.799 152.694C122.799 153.037 122.914 153.38 122.685 153.609C122.456 153.838 122.113 154.409 121.77 154.409H120.398L112.395 153.037C112.052 153.037 111.594 152.694 111.365 152.465L104.162 145.259L103.247 144.344L96.9588 138.054C96.7302 137.825 96.3871 137.367 96.3871 137.024L94.7864 127.76C94.7864 127.416 94.6721 127.073 94.9008 126.845C95.1294 126.501 95.3581 126.044 95.8155 126.044Z" fill="#344463"/>
<path d="M95.8155 94.5901H97.1875L105.077 95.9626C105.42 95.9626 105.877 96.3057 106.106 96.5345L113.309 103.74L114.224 104.655L120.627 111.06C120.856 111.289 121.199 111.747 121.199 112.09L122.799 121.24C122.799 121.583 122.914 121.926 122.685 122.155C122.456 122.384 122.113 122.956 121.77 122.956H120.398L112.395 121.583C112.052 121.583 111.594 121.24 111.365 121.011L104.162 113.805L103.247 112.89L96.9588 106.6C96.7302 106.371 96.3871 105.913 96.3871 105.57L94.7864 96.3057C94.7864 95.9626 94.6721 95.6195 94.9008 95.3907C95.1294 95.0476 95.3581 94.5901 95.8155 94.5901Z" fill="#344463"/>
<path d="M1.2577 31.4538L28.4702 58.6756V59.9338H27.2126L0 32.712V31.4538H1.2577Z" fill="#344463"/>
<path d="M1.2577 62.9076L28.4702 90.2438V91.3876H27.2126L0 64.1657V62.9076H1.2577Z" fill="#344463"/>
<path d="M1.2577 94.4757L28.4702 121.698V122.956H27.2126L0 95.7339V94.4757H1.2577Z" fill="#344463"/>
<path d="M1.2577 125.93L14.864 139.54L28.4702 153.151V154.409H27.2126L13.6062 140.799L0 127.188V125.93H1.2577Z" fill="#344463"/>
<path d="M126.115 137.939V127.645C126.115 126.73 126.801 126.044 127.716 126.044H137.778C138.235 126.044 138.578 126.158 138.921 126.501L146.353 133.936L153.785 141.37C154.128 141.714 154.242 142.057 154.242 142.514V152.579C154.242 153.494 153.556 154.181 152.642 154.181H142.351C141.894 154.181 141.551 154.066 141.208 153.723L133.89 146.289L126.573 138.854C126.23 138.74 126.115 138.397 126.115 137.939Z" fill="#344463"/>
<path d="M127.259 94.5901H128.631L136.52 95.9626C136.863 95.9626 137.321 96.3057 137.549 96.5345L144.753 103.74L145.667 104.655L152.07 111.06C152.299 111.289 152.642 111.747 152.642 112.09L154.243 121.24C154.243 121.583 154.357 121.926 154.128 122.155C153.9 122.384 153.557 122.956 153.214 122.956H151.842L143.838 121.583C143.495 121.583 143.037 121.24 142.809 121.011L135.606 113.805L134.691 112.89L128.402 106.6C128.174 106.371 127.831 105.913 127.831 105.57L126.23 96.3057C126.23 95.9626 126.115 95.6195 126.344 95.3907C126.573 95.0476 126.916 94.5901 127.259 94.5901Z" fill="#344463"/>
<path d="M63.801 126.044H65.1731L72.262 128.789C72.4907 128.789 73.0624 129.246 73.1767 129.361L80.1514 136.338L80.9518 137.138L87.126 143.315C87.2403 143.429 87.6977 144.116 87.6977 144.23L90.8992 152.465C90.8992 152.694 91.1279 153.151 91.0135 153.38C90.8992 153.609 90.6705 154.295 90.4418 154.295H89.0698L81.8664 151.55C81.6378 151.55 81.0661 151.093 80.9518 150.978L73.9771 144.001L73.1767 143.2L67.1168 137.138C67.0024 137.024 66.5451 136.338 66.5451 136.223L63.3436 127.874C63.3436 127.645 63.1149 127.188 63.2293 126.959C63.3436 126.73 63.5723 126.044 63.801 126.044Z" fill="#344463"/>
<path d="M63.801 94.4757H65.1731L72.262 97.2208C72.4907 97.2208 73.0624 97.6783 73.1767 97.7927L80.1514 104.77L80.9518 105.57L87.126 111.747C87.2403 111.861 87.6977 112.547 87.6977 112.662L90.8992 120.897C90.8992 121.126 91.1279 121.583 91.0135 121.812C90.8992 122.041 90.6705 122.727 90.4418 122.727H89.0698L81.8664 119.982C81.6378 119.982 81.0661 119.524 80.9518 119.41L73.9771 112.433L73.1767 111.632L67.1168 105.57C67.0024 105.456 66.5451 104.77 66.5451 104.655L63.3436 96.3057C63.3436 96.077 63.1149 95.6195 63.2293 95.3907C63.3436 95.2763 63.5723 94.4757 63.801 94.4757Z" fill="#344463"/>
<path d="M63.801 63.022H65.1731L72.262 65.767C72.4907 65.767 73.0624 66.2245 73.1767 66.3389L80.1514 73.3159L80.9518 74.1166L87.126 80.293C87.2403 80.4073 87.6977 81.0936 87.6977 81.208L90.8992 89.4432C90.8992 89.6719 91.1279 90.1294 91.0135 90.3582C90.8992 90.5869 90.6705 91.2732 90.4418 91.2732H89.0698L81.8664 88.5281C81.6378 88.5281 81.0661 88.0706 80.9518 87.9562L73.9771 80.9792L73.1767 80.1786L67.1168 74.1166C67.0024 74.0022 66.5451 73.3159 66.5451 73.2016L63.3436 64.852C63.3436 64.6233 63.1149 64.1657 63.2293 63.937C63.3436 63.7082 63.5723 63.022 63.801 63.022Z" fill="#344463"/>
<path d="M95.3585 63.022H96.7305L103.82 65.767C104.048 65.767 104.62 66.2245 104.734 66.3389L111.709 73.3159L112.509 74.1166L118.684 80.293C118.798 80.4073 119.255 81.0936 119.255 81.208L122.457 89.4432C122.457 89.6719 122.685 90.1294 122.571 90.3582C122.457 90.5869 122.228 91.2732 121.999 91.2732H120.742L113.538 88.5281C113.31 88.5281 112.738 88.0706 112.624 87.9562L105.649 80.9792L104.849 80.1786L98.7886 74.1166C98.6743 74.0022 98.2169 73.3159 98.2169 73.2016L95.0155 64.852C95.0155 64.6233 94.7868 64.1657 94.9012 63.937C94.9012 63.7082 95.1298 63.022 95.3585 63.022Z" fill="#344463"/>
<path d="M126.801 63.022H128.173L135.262 65.767C135.491 65.767 136.062 66.2245 136.177 66.3389L143.151 73.3159L143.952 74.1166L150.126 80.293C150.24 80.4073 150.698 81.0936 150.698 81.208L153.899 89.4432C153.899 89.6719 154.128 90.1294 154.014 90.3582C153.899 90.5869 153.671 91.2732 153.442 91.2732H152.07L144.866 88.5281C144.638 88.5281 144.066 88.0706 143.952 87.9562L136.977 80.9792L136.177 80.1786L130.117 74.1166C130.002 74.0022 129.545 73.3159 129.545 73.2016L126.344 64.852C126.344 64.6233 126.115 64.1657 126.229 63.937C126.344 63.7082 126.572 63.022 126.801 63.022Z" fill="#344463"/>
<path d="M31.9006 126.044H33.1583L39.4469 130.161C39.5613 130.161 40.2473 130.733 40.3616 130.848L47.222 137.71L48.0223 138.511L53.9679 144.459C54.0822 144.573 54.654 145.259 54.654 145.374L59.4562 152.694C59.4562 152.808 59.9135 153.38 59.9135 153.494C59.7992 153.609 59.6848 154.524 59.5705 154.524H58.3128L52.0242 150.406C51.9098 150.406 51.2238 149.72 51.1094 149.72L44.3635 142.972L43.5631 142.171L37.6175 136.223C37.5032 136.109 36.9315 135.423 36.9315 135.308L32.1293 127.988C32.1293 127.874 31.6719 127.302 31.6719 127.188C31.6719 126.959 31.7862 126.044 31.9006 126.044Z" fill="#344463"/>
<path d="M31.9006 94.4757H33.1583L39.4469 98.5933C39.5613 98.5933 40.2473 99.1652 40.3616 99.2796L47.222 106.142L48.0223 106.943L53.9679 112.89C54.0822 113.005 54.654 113.691 54.654 113.805L59.4562 121.126C59.4562 121.24 59.9135 121.812 59.9135 121.926C59.7992 122.041 59.6848 122.956 59.5705 122.956H58.3128L52.0242 118.838C51.9098 118.838 51.2238 118.152 51.1094 118.152L44.3635 111.404L43.5631 110.603L37.6175 104.655C37.5032 104.541 36.9315 103.855 36.9315 103.74L32.1293 96.4201C32.1293 96.3057 31.6719 95.7339 31.6719 95.6195C31.6719 95.5051 31.7862 94.4757 31.9006 94.4757Z" fill="#344463"/>
<path d="M31.9006 63.022H33.1583L39.4469 67.1396C39.5613 67.1396 40.2473 67.7114 40.3616 67.8258L47.222 74.6885L48.0223 75.4891L53.9679 81.4367C54.0822 81.5511 54.654 82.2374 54.654 82.3518L59.4562 89.6719C59.4562 89.7863 59.9135 90.3582 59.9135 90.4725C59.7992 90.5869 59.6848 91.5019 59.5705 91.5019H58.3128L52.0242 87.3844C51.9098 87.3844 51.2238 86.6981 51.1094 86.6981L44.3635 79.9498L43.5631 79.1492L37.6175 73.2016C37.5032 73.0872 36.9315 72.4009 36.9315 72.2865L32.1293 64.9664C32.1293 64.852 31.6719 64.2801 31.6719 64.1657C31.6719 63.937 31.7862 63.022 31.9006 63.022Z" fill="#344463"/>
<path d="M31.9006 31.4538H33.1583L39.4469 35.5714C39.5613 35.5714 40.2473 36.1433 40.3616 36.2576L47.222 43.1203L48.0223 43.9209L53.9679 49.8686C54.0822 49.9829 54.654 50.6692 54.654 50.7836L59.4562 58.1037C59.4562 58.2181 59.9135 58.79 59.9135 58.9044C59.7992 59.0188 59.6848 59.9338 59.5705 59.9338H58.3128L52.0242 55.8162C51.9098 55.8162 51.2238 55.1299 51.1094 55.1299L44.3635 48.3817L43.5631 47.581L37.6175 41.6334C37.5032 41.519 36.9315 40.8327 36.9315 40.7184L32.1293 33.3982C32.1293 33.2838 31.6719 32.7119 31.6719 32.5976C31.6719 32.4832 31.7862 31.4538 31.9006 31.4538Z" fill="#344463"/>
<path d="M63.4592 31.4538H64.7169L71.0055 35.5714C71.1198 35.5714 71.8058 36.1433 71.9202 36.2576L78.7805 43.1203L79.5809 43.9209L85.5265 49.8686C85.6408 49.9829 86.2125 50.6692 86.2125 50.7836L91.0147 58.1037C91.0147 58.2181 91.4721 58.79 91.4721 58.9044C91.3578 59.0188 91.2434 59.9338 91.129 59.9338H89.8713L83.5827 55.8162C83.4684 55.8162 82.7824 55.1299 82.668 55.1299L75.922 48.3817L75.1216 47.581L69.1761 41.6334C69.0617 41.519 68.49 40.8327 68.49 40.7184L63.6878 33.3982C63.6878 33.2838 63.2305 32.7119 63.2305 32.5976C63.2305 32.4832 63.3448 31.4538 63.4592 31.4538Z" fill="#344463"/>
<path d="M94.9006 31.4538H96.1583L102.447 35.5714C102.561 35.5714 103.247 36.1433 103.362 36.2576L110.222 43.1203L111.022 43.9209L116.968 49.8686C117.082 49.9829 117.654 50.6692 117.654 50.7836L122.456 58.1037C122.456 58.2181 122.913 58.79 122.913 58.9044C122.799 59.0188 122.685 59.9338 122.57 59.9338H121.313L115.024 55.8162C114.91 55.8162 114.224 55.1299 114.109 55.1299L107.363 48.3817L106.563 47.581L100.617 41.6334C100.503 41.519 99.9314 40.8327 99.9314 40.7184L95.1292 33.3982C95.1292 33.2838 94.6719 32.7119 94.6719 32.5976C94.6719 32.4832 94.7862 31.4538 94.9006 31.4538Z" fill="#344463"/>
<path d="M126.458 31.4538H127.716L134.005 35.5714C134.119 35.5714 134.805 36.1433 134.919 36.2576L141.78 43.1203L142.58 43.9209L148.526 49.8686C148.64 49.9829 149.212 50.6692 149.212 50.7836L153.899 57.9894C153.899 58.1037 154.357 58.6756 154.357 58.79C154.243 58.9044 154.128 59.8194 154.014 59.8194H152.756L146.467 55.7018C146.353 55.7018 145.667 55.0155 145.553 55.0155L138.807 48.2673L138.006 47.4666L132.061 41.519C131.947 41.4046 131.375 40.7184 131.375 40.604L126.573 33.2838C126.573 33.1695 126.115 32.5976 126.115 32.4832C126.115 32.4832 126.23 31.4538 126.458 31.4538Z" fill="#344463"/>
<path d="M127.26 0L140.866 13.6109L154.472 27.2218V28.48H153.215L139.608 14.8691L126.002 1.25815V0H127.26Z" fill="#344463"/>
<path d="M94.4434 1.25815V0H95.7011L109.307 13.6109L122.914 27.2218V28.48H121.656L108.05 14.8691L94.4434 1.25815Z" fill="#344463"/>
<path d="M63 1.25815V0H64.2577L77.864 13.6109L91.4703 27.2218V28.48H90.2126L76.6063 14.8691L63 1.25815Z" fill="#344463"/>
<path d="M31.4434 1.25815V0H32.7011L46.3074 13.6109L59.9136 27.2218V28.48H58.7702L45.164 14.8691L31.4434 1.25815Z" fill="#344463"/>
<path d="M1.2577 0L14.864 13.6109L28.4702 27.2218V28.48H27.2126L13.6062 14.8691L0 1.25815V0H1.2577Z" fill="#344463"/>
<path d="M95.8155 185.749H97.1875L105.077 184.376C105.42 184.376 105.877 184.033 106.106 183.804L113.309 176.599L114.224 175.684L120.627 169.279C120.856 169.05 121.199 168.592 121.199 168.249L122.799 159.099C122.799 158.756 122.914 158.413 122.685 158.184C122.456 157.955 122.113 157.383 121.77 157.383H120.398L112.395 158.756C112.052 158.756 111.594 159.099 111.365 159.328L104.162 166.533L103.247 167.449L96.9588 173.739C96.7302 173.968 96.3871 174.426 96.3871 174.769L94.7864 184.033C94.7864 184.376 94.6721 184.72 94.9008 184.948C95.1294 185.291 95.3581 185.749 95.8155 185.749Z" fill="#344463"/>
<path d="M95.8155 217.203H97.1875L105.077 215.83C105.42 215.83 105.877 215.487 106.106 215.258L113.309 208.053L114.224 207.137L120.627 200.732C120.856 200.504 121.199 200.046 121.199 199.703L122.799 190.553C122.799 190.21 122.914 189.867 122.685 189.638C122.456 189.409 122.113 188.837 121.77 188.837H120.398L112.395 190.21C112.052 190.21 111.594 190.553 111.365 190.782L104.162 197.987L103.247 198.902L96.9588 205.193C96.7302 205.422 96.3871 205.879 96.3871 206.222L94.7864 215.487C94.7864 215.83 94.6721 216.173 94.9008 216.402C95.1294 216.745 95.3581 217.203 95.8155 217.203Z" fill="#344463"/>
<path d="M1.2577 280.339L28.4702 253.117V251.859H27.2126L0 279.081V280.339H1.2577Z" fill="#344463"/>
<path d="M1.2577 248.771L28.4702 221.549V220.291H27.2126L0 247.513V248.771H1.2577Z" fill="#344463"/>
<path d="M1.2577 217.317L28.4702 190.095V188.837H27.2126L0 216.059V217.317H1.2577Z" fill="#344463"/>
<path d="M1.2577 185.863L14.864 172.252L28.4702 158.641V157.383H27.2126L13.6062 170.994L0 184.605V185.863H1.2577Z" fill="#344463"/>
<path d="M126.115 173.854V184.148C126.115 185.063 126.801 185.749 127.716 185.749H137.778C138.235 185.749 138.578 185.635 138.921 185.291L146.353 177.857L153.785 170.422C154.128 170.079 154.242 169.736 154.242 169.279V159.213C154.242 158.298 153.556 157.612 152.642 157.612H142.351C141.894 157.612 141.551 157.726 141.208 158.07L133.89 165.504L126.573 172.939C126.23 173.053 126.115 173.396 126.115 173.854Z" fill="#344463"/>
<path d="M127.259 217.203H128.631L136.52 215.83C136.863 215.83 137.321 215.487 137.549 215.258L144.753 208.053L145.667 207.137L152.07 200.732C152.299 200.504 152.642 200.046 152.642 199.703L154.243 190.553C154.243 190.21 154.357 189.867 154.128 189.638C153.9 189.409 153.557 188.837 153.214 188.837H151.842L143.838 190.21C143.495 190.21 143.037 190.553 142.809 190.782L135.606 197.987L134.691 198.902L128.402 205.193C128.174 205.422 127.831 205.879 127.831 206.222L126.23 215.487C126.23 215.83 126.115 216.173 126.344 216.402C126.573 216.745 126.916 217.203 127.259 217.203Z" fill="#344463"/>
<path d="M63.801 185.749H65.1731L72.262 183.004C72.4907 183.004 73.0624 182.546 73.1767 182.432L80.1514 175.455L80.9518 174.654L87.126 168.478C87.2403 168.364 87.6977 167.677 87.6977 167.563L90.8992 159.328C90.8992 159.099 91.1279 158.641 91.0135 158.413C90.8992 158.184 90.6705 157.498 90.4418 157.498H89.0698L81.8664 160.243C81.6378 160.243 81.0661 160.7 80.9518 160.815L73.9771 167.792L73.1767 168.592L67.1168 174.654C67.0024 174.769 66.5451 175.455 66.5451 175.569L63.3436 183.919C63.3436 184.148 63.1149 184.605 63.2293 184.834C63.3436 185.063 63.5723 185.749 63.801 185.749Z" fill="#344463"/>
<path d="M63.801 217.203H65.1731L72.262 214.458C72.4907 214.458 73.0624 214 73.1767 213.886L80.1514 206.909L80.9518 206.108L87.126 199.932C87.2403 199.817 87.6977 199.131 87.6977 199.017L90.8992 190.782C90.8992 190.553 91.1279 190.095 91.0135 189.866C90.8992 189.638 90.6705 188.951 90.4418 188.951H89.0698L81.8664 191.697C81.6378 191.697 81.0661 192.154 80.9518 192.268L73.9771 199.245L73.1767 200.046L67.1168 206.108C67.0024 206.222 66.5451 206.909 66.5451 207.023L63.3436 215.373C63.3436 215.601 63.1149 216.059 63.2293 216.288C63.3436 216.516 63.5723 217.203 63.801 217.203Z" fill="#344463"/>
<path d="M63.801 248.771H65.1731L72.262 246.026C72.4907 246.026 73.0624 245.568 73.1767 245.454L80.1514 238.477L80.9518 237.676L87.126 231.5C87.2403 231.385 87.6977 230.699 87.6977 230.585L90.8992 222.35C90.8992 222.121 91.1279 221.663 91.0135 221.435C90.8992 221.206 90.6705 220.52 90.4418 220.52H89.0698L81.8664 223.265C81.6378 223.265 81.0661 223.722 80.9518 223.837L73.9771 230.814L73.1767 231.614L67.1168 237.676C67.0024 237.791 66.5451 238.477 66.5451 238.591L63.3436 246.941C63.3436 247.17 63.1149 247.627 63.2293 247.856C63.3436 247.97 63.5723 248.771 63.801 248.771Z" fill="#344463"/>
<path d="M95.3585 248.771H96.7305L103.82 246.026C104.048 246.026 104.62 245.568 104.734 245.454L111.709 238.477L112.509 237.676L118.684 231.5C118.798 231.385 119.255 230.699 119.255 230.585L122.457 222.35C122.457 222.121 122.685 221.663 122.571 221.435C122.457 221.206 122.228 220.52 121.999 220.52H120.742L113.538 223.265C113.31 223.265 112.738 223.722 112.624 223.837L105.649 230.814L104.849 231.614L98.7886 237.676C98.6743 237.791 98.2169 238.477 98.2169 238.591L95.0155 246.941C95.0155 247.17 94.7868 247.627 94.9012 247.856C94.9012 247.97 95.1298 248.771 95.3585 248.771Z" fill="#344463"/>
<path d="M126.801 248.771H128.173L135.262 246.026C135.491 246.026 136.062 245.568 136.177 245.454L143.151 238.477L143.952 237.676L150.126 231.5C150.24 231.385 150.698 230.699 150.698 230.585L153.899 222.35C153.899 222.121 154.128 221.663 154.014 221.435C153.899 221.206 153.671 220.52 153.442 220.52H152.07L144.866 223.265C144.638 223.265 144.066 223.722 143.952 223.837L136.977 230.814L136.177 231.614L130.117 237.676C130.002 237.791 129.545 238.477 129.545 238.591L126.344 246.941C126.344 247.17 126.115 247.627 126.229 247.856C126.344 247.97 126.572 248.771 126.801 248.771Z" fill="#344463"/>
<path d="M31.9006 185.749H33.1583L39.4469 181.631C39.5613 181.631 40.2473 181.059 40.3616 180.945L47.222 174.082L48.0223 173.282L53.9679 167.334C54.0822 167.22 54.654 166.533 54.654 166.419L59.4562 159.099C59.4562 158.985 59.9135 158.413 59.9135 158.298C59.7992 158.184 59.6848 157.269 59.5705 157.269H58.3128L52.0242 161.386C51.9098 161.386 51.2238 162.073 51.1094 162.073L44.3635 168.821L43.5631 169.622L37.6175 175.569C37.5032 175.684 36.9315 176.37 36.9315 176.484L32.1293 183.804C32.1293 183.919 31.6719 184.491 31.6719 184.605C31.6719 184.834 31.7862 185.749 31.9006 185.749Z" fill="#344463"/>
<path d="M31.9006 217.317H33.1583L39.4469 213.199C39.5613 213.199 40.2473 212.628 40.3616 212.513L47.222 205.651L48.0223 204.85L53.9679 198.902C54.0822 198.788 54.654 198.102 54.654 197.987L59.4562 190.667C59.4562 190.553 59.9135 189.981 59.9135 189.867C59.7992 189.752 59.6848 188.837 59.5705 188.837H58.3128L52.0242 192.955C51.9098 192.955 51.2238 193.641 51.1094 193.641L44.3635 200.389L43.5631 201.19L37.6175 207.137C37.5032 207.252 36.9315 207.938 36.9315 208.053L32.1293 215.373C32.1293 215.487 31.6719 216.059 31.6719 216.173C31.6719 216.288 31.7862 217.317 31.9006 217.317Z" fill="#344463"/>
<path d="M31.9006 248.771H33.1583L39.4469 244.653C39.5613 244.653 40.2473 244.081 40.3616 243.967L47.222 237.104L48.0223 236.304L53.9679 230.356C54.0822 230.242 54.654 229.555 54.654 229.441L59.4562 222.121C59.4562 222.007 59.9135 221.435 59.9135 221.32C59.7992 221.206 59.6848 220.291 59.5705 220.291H58.3128L52.0242 224.408C51.9098 224.408 51.2238 225.095 51.1094 225.095L44.3635 231.843L43.5631 232.644L37.6175 238.591C37.5032 238.706 36.9315 239.392 36.9315 239.506L32.1293 246.826C32.1293 246.941 31.6719 247.513 31.6719 247.627C31.6719 247.741 31.7862 248.771 31.9006 248.771Z" fill="#344463"/>
<path d="M31.9006 280.339H33.1583L39.4469 276.221C39.5613 276.221 40.2473 275.65 40.3616 275.535L47.222 268.672L48.0223 267.872L53.9679 261.924C54.0822 261.81 54.654 261.124 54.654 261.009L59.4562 253.689C59.4562 253.575 59.9135 253.003 59.9135 252.888C59.7992 252.774 59.6848 251.859 59.5705 251.859H58.3128L52.0242 255.977C51.9098 255.977 51.2238 256.663 51.1094 256.663L44.3635 263.411L43.5631 264.212L37.6175 270.159C37.5032 270.274 36.9315 270.96 36.9315 271.074L32.1293 278.395C32.1293 278.509 31.6719 279.081 31.6719 279.195C31.6719 279.31 31.7862 280.339 31.9006 280.339Z" fill="#344463"/>
<path d="M63.4592 280.339H64.7169L71.0055 276.221C71.1198 276.221 71.8058 275.65 71.9202 275.535L78.7805 268.672L79.5809 267.872L85.5265 261.924C85.6408 261.81 86.2125 261.124 86.2125 261.009L91.0147 253.689C91.0147 253.575 91.4721 253.003 91.4721 252.888C91.3578 252.774 91.2434 251.859 91.129 251.859H89.8713L83.5827 255.977C83.4684 255.977 82.7824 256.663 82.668 256.663L75.922 263.411L75.1216 264.212L69.1761 270.159C69.0617 270.274 68.49 270.96 68.49 271.074L63.6878 278.395C63.6878 278.509 63.2305 279.081 63.2305 279.195C63.2305 279.31 63.3448 280.339 63.4592 280.339Z" fill="#344463"/>
<path d="M94.9006 280.339H96.1583L102.447 276.221C102.561 276.221 103.247 275.65 103.362 275.535L110.222 268.672L111.022 267.872L116.968 261.924C117.082 261.81 117.654 261.124 117.654 261.009L122.456 253.689C122.456 253.575 122.913 253.003 122.913 252.888C122.799 252.774 122.685 251.859 122.57 251.859H121.313L115.024 255.977C114.91 255.977 114.224 256.663 114.109 256.663L107.363 263.411L106.563 264.212L100.617 270.159C100.503 270.274 99.9314 270.96 99.9314 271.074L95.1292 278.395C95.1292 278.509 94.6719 279.081 94.6719 279.195C94.6719 279.31 94.7862 280.339 94.9006 280.339Z" fill="#344463"/>
<path d="M126.458 280.339H127.716L134.005 276.221C134.119 276.221 134.805 275.65 134.919 275.535L141.78 268.672L142.58 267.872L148.526 261.924C148.64 261.81 149.212 261.124 149.212 261.009L154.014 253.689C154.014 253.575 154.471 253.003 154.471 252.888C154.357 252.774 154.243 251.859 154.128 251.859H152.756L146.467 255.977C146.353 255.977 145.667 256.663 145.553 256.663L138.807 263.411L138.006 264.212L132.061 270.159C131.947 270.274 131.375 270.96 131.375 271.074L126.573 278.395C126.573 278.509 126.115 279.081 126.115 279.195C126.115 279.31 126.23 280.339 126.458 280.339Z" fill="#344463"/>
<path d="M127.26 311.793L140.866 298.182L154.472 284.571V283.313H153.215L139.608 296.924L126.002 310.535V311.793H127.26Z" fill="#344463"/>
<path d="M94.4434 310.535V311.793H95.7011L109.307 298.182L122.914 284.571V283.313H121.656L108.05 296.924L94.4434 310.535Z" fill="#344463"/>
<path d="M63 310.535V311.793H64.2577L77.864 298.182L91.4703 284.571V283.313H90.2126L76.6063 296.924L63 310.535Z" fill="#344463"/>
<path d="M31.4434 310.535V311.793H32.7011L46.3074 298.182L59.9136 284.571V283.313H58.7702L45.164 296.924L31.4434 310.535Z" fill="#344463"/>
<path d="M1.2577 311.793L14.864 298.182L28.4702 284.571V283.313H27.2126L13.6062 296.924L0 310.535V311.793H1.2577Z" fill="#344463"/>
</g>
</svg>
