<svg width="750" height="751" viewBox="0 0 750 751" fill="none" xmlns="http://www.w3.org/2000/svg">
<path d="M519.527 303.596H516.227L497.25 306.902C496.425 306.902 495.325 307.728 494.774 308.279L459.846 343.267C459.296 343.818 458.471 344.92 458.471 345.747L454.62 367.786C454.62 368.613 454.345 369.439 454.895 369.99C455.446 370.541 456.271 371.919 457.096 371.919H460.396L479.648 368.613C480.473 368.613 481.573 367.786 482.123 367.235L516.777 332.523C517.327 331.972 518.152 330.87 518.152 330.043L522.002 307.728C522.002 306.902 522.277 306.075 521.727 305.524C521.177 304.698 520.352 303.596 519.527 303.596Z" fill="#AEC7E3"/>
<path d="M519.527 227.835H516.227L497.25 231.14C496.425 231.14 495.325 231.967 494.774 232.518L459.846 267.506C459.296 268.057 458.471 269.159 458.471 269.985L454.62 292.025C454.62 292.851 454.345 293.678 454.895 294.229C455.446 294.78 456.271 296.157 457.096 296.157H460.396L479.648 292.851C480.473 292.851 481.573 292.025 482.123 291.474L516.777 256.762C517.327 256.211 518.152 255.109 518.152 254.282L522.002 231.967C522.002 231.141 522.277 230.314 521.727 229.763C521.177 228.937 520.352 227.835 519.527 227.835Z" fill="#AEC7E3"/>
<path d="M746.975 75.7612L681.518 141.329V144.36H684.543L750 78.7916V75.7612H746.975Z" fill="#AEC7E3"/>
<path d="M746.975 151.522L681.518 217.366V220.121H684.543L750 154.553V151.522H746.975Z" fill="#AEC7E3"/>
<path d="M746.975 227.559L681.518 293.127V296.157H684.543L750 230.59V227.559H746.975Z" fill="#AEC7E3"/>
<path d="M746.975 303.32L681.518 368.888V371.919H684.543L750 306.351V303.32H746.975Z" fill="#AEC7E3"/>
<path d="M446.645 332.247V307.453C446.645 305.249 444.995 303.596 442.794 303.596H418.592C417.492 303.596 416.667 303.871 415.842 304.698L380.088 340.512C379.263 341.339 378.988 342.165 378.988 343.267V367.511C378.988 369.715 380.638 371.368 382.838 371.368H407.591C408.691 371.368 409.516 371.092 410.341 370.266L445.545 334.451C446.095 334.176 446.645 333.349 446.645 332.247Z" fill="#AEC7E3"/>
<path d="M443.894 227.835H440.594L421.617 231.14C420.792 231.14 419.692 231.967 419.142 232.518L384.213 267.506C383.663 268.057 382.838 269.159 382.838 269.985L378.988 292.025C378.988 292.851 378.713 293.678 379.263 294.229C379.813 294.78 380.638 296.157 381.463 296.157H384.763L404.015 292.851C404.84 292.851 405.941 292.025 406.491 291.474L441.144 256.762C441.694 256.211 442.519 255.109 442.519 254.282L446.37 231.967C446.37 231.141 446.645 230.314 446.095 229.763C445.544 228.937 444.719 227.835 443.894 227.835Z" fill="#AEC7E3"/>
<path d="M596.26 303.596H592.959L575.908 310.208C575.358 310.208 573.982 311.31 573.707 311.585L540.154 345.196C539.879 345.471 538.779 347.124 538.779 347.399L531.078 367.235C531.078 367.786 530.528 368.888 530.803 369.439C531.078 369.99 531.628 371.643 532.178 371.643H535.479L552.805 365.031C553.355 365.031 554.731 363.929 555.006 363.654L588.284 330.319C588.559 330.043 589.659 328.39 589.659 328.115L597.36 308.004C597.36 307.453 597.91 306.351 597.635 305.8C597.36 305.249 596.81 303.596 596.26 303.596Z" fill="#AEC7E3"/>
<path d="M596.26 227.559H592.959L575.908 234.171C575.358 234.171 573.982 235.273 573.707 235.548L540.154 269.159C539.879 269.434 538.779 271.087 538.779 271.363L531.078 291.198C531.078 291.749 530.528 292.851 530.803 293.402C531.078 293.953 531.628 295.606 532.178 295.606H535.479L552.805 288.995C553.355 288.995 554.731 287.893 555.006 287.617L588.284 254.282C588.559 254.007 589.659 252.354 589.659 252.078L597.36 231.967C597.36 231.416 597.91 230.314 597.635 229.763C597.36 229.488 596.81 227.559 596.26 227.559Z" fill="#AEC7E3"/>
<path d="M596.26 151.798H592.959L575.908 158.41C575.358 158.41 573.982 159.512 573.707 159.787L540.154 193.398C539.879 193.673 538.779 195.326 538.779 195.602L531.078 215.437C531.078 215.988 530.528 217.09 530.803 217.641C531.078 218.192 531.628 219.845 532.178 219.845H535.479L552.805 213.233C553.355 213.233 554.731 212.131 555.006 211.856L588.284 178.521C588.559 178.245 589.659 176.592 589.659 176.317L597.36 156.206C597.36 155.655 597.91 154.553 597.635 154.002C597.36 153.451 596.81 151.798 596.26 151.798Z" fill="#AEC7E3"/>
<path d="M520.627 151.798H517.327L500.275 158.41C499.725 158.41 498.35 159.512 498.075 159.787L464.521 193.398C464.246 193.673 463.146 195.326 463.146 195.602L455.446 215.437C455.446 215.988 454.896 217.09 455.171 217.641C455.446 218.192 455.996 219.845 456.546 219.845H459.846L477.173 213.233C477.723 213.233 479.098 212.131 479.373 211.856L512.651 178.521C512.926 178.245 514.026 176.592 514.026 176.317L521.727 156.206C521.727 155.655 522.277 154.553 522.002 154.002C521.727 153.451 521.177 151.798 520.627 151.798Z" fill="#AEC7E3"/>
<path d="M444.719 151.798H441.694L424.642 158.41C424.092 158.41 422.717 159.512 422.442 159.787L388.889 193.398C388.614 193.673 387.514 195.326 387.514 195.602L379.813 215.437C379.813 215.988 379.263 217.09 379.538 217.641C379.813 218.192 380.363 219.845 380.913 219.845H384.213L401.54 213.233C402.09 213.233 403.465 212.131 403.74 211.856L437.019 178.521C437.294 178.245 438.394 176.592 438.394 176.317L446.095 156.206C446.095 155.655 446.645 154.553 446.37 154.002C446.095 153.451 445.544 151.798 444.719 151.798Z" fill="#AEC7E3"/>
<path d="M672.992 303.596H669.967L654.841 313.514C654.566 313.514 652.915 314.891 652.64 315.167L619.912 347.95C619.637 348.226 618.262 349.879 618.262 350.154L606.711 367.786C606.711 368.062 605.611 369.439 605.611 369.715C605.886 369.99 606.161 372.194 606.436 372.194H609.461L624.588 362.276C624.863 362.276 626.513 360.623 626.788 360.623L659.241 328.115C659.516 327.839 660.891 326.186 660.891 325.911L672.442 308.279C672.442 308.004 673.542 306.626 673.542 306.351C673.542 305.8 673.542 303.596 672.992 303.596Z" fill="#AEC7E3"/>
<path d="M672.992 227.559H669.967L654.841 237.477C654.566 237.477 652.915 238.854 652.64 239.13L619.912 271.914C619.637 272.189 618.262 273.842 618.262 274.118L606.711 291.749C606.711 292.025 605.611 293.402 605.611 293.678C605.886 293.953 606.161 296.157 606.436 296.157H609.461L624.588 286.24C624.863 286.24 626.513 284.587 626.788 284.587L659.241 252.078C659.516 251.803 660.891 250.15 660.891 249.874L672.442 232.242C672.442 231.967 673.542 230.59 673.542 230.314C673.542 230.039 673.542 227.559 672.992 227.559Z" fill="#AEC7E3"/>
<path d="M672.992 151.798H669.967L654.841 161.716C654.566 161.716 652.915 163.093 652.64 163.369L619.912 196.153C619.637 196.428 618.262 198.081 618.262 198.357L606.711 215.988C606.711 216.264 605.611 217.641 605.611 217.917C605.886 218.192 606.161 220.396 606.436 220.396H609.461L624.588 210.478C624.863 210.478 626.513 208.825 626.788 208.825L659.241 176.317C659.516 176.041 660.891 174.388 660.891 174.113L672.717 156.206C672.717 155.93 673.818 154.553 673.818 154.277C673.543 154.002 673.542 151.798 672.992 151.798Z" fill="#AEC7E3"/>
<path d="M672.992 75.7612H669.967L654.841 85.679C654.566 85.679 652.915 87.0565 652.64 87.332L619.912 120.116C619.637 120.391 618.262 122.044 618.262 122.32L606.711 139.952C606.711 140.227 605.611 141.605 605.611 141.88C605.886 142.156 606.161 144.36 606.436 144.36H609.461L624.588 134.442C624.863 134.442 626.513 132.789 626.788 132.789L659.241 100.28C659.516 100.005 660.891 98.3518 660.891 98.0763L672.442 80.4446C672.442 80.1691 673.542 78.7916 673.542 78.5161C673.542 78.2407 673.542 75.7612 672.992 75.7612Z" fill="#AEC7E3"/>
<path d="M597.36 75.7612H594.335L579.208 85.679C578.933 85.679 577.283 87.0565 577.008 87.332L544.279 120.116C544.004 120.391 542.629 122.044 542.629 122.32L531.078 139.952C531.078 140.227 529.978 141.605 529.978 141.88C530.253 142.156 530.528 144.36 530.803 144.36H533.828L548.955 134.442C549.23 134.442 550.88 132.789 551.155 132.789L583.608 100.28C583.883 100.005 585.259 98.3518 585.259 98.0763L596.81 80.4446C596.81 80.1691 597.91 78.7916 597.91 78.5161C597.91 78.2407 597.635 75.7612 597.36 75.7612Z" fill="#AEC7E3"/>
<path d="M521.727 75.7612H518.702L503.575 85.679C503.3 85.679 501.65 87.0565 501.375 87.332L468.647 120.116C468.372 120.391 466.997 122.044 466.997 122.32L455.446 139.676C455.446 139.952 454.345 141.329 454.345 141.605C454.62 141.88 454.896 144.084 455.171 144.084H458.196L473.322 134.166C473.597 134.166 475.248 132.513 475.523 132.513L507.976 100.005C508.251 99.7293 509.626 98.0763 509.626 97.8008L521.177 80.1691C521.177 79.8936 522.277 78.5161 522.277 78.2407C522.277 78.2407 522.002 75.7612 521.727 75.7612Z" fill="#AEC7E3"/>
<path d="M445.82 75.7612H442.794L427.668 85.679C427.393 85.679 425.743 87.0565 425.468 87.332L392.739 120.116C392.464 120.391 391.089 122.044 391.089 122.32L379.538 139.952C379.538 140.227 378.438 141.605 378.438 141.88C378.713 142.156 378.988 144.36 379.263 144.36H382.288L397.415 134.442C397.69 134.442 399.34 132.789 399.615 132.789L432.068 100.28C432.343 100.005 433.718 98.3518 433.718 98.0763L445.27 80.4446C445.27 80.1691 446.37 78.7916 446.37 78.5161C446.37 78.2407 446.095 75.7612 445.82 75.7612Z" fill="#AEC7E3"/>
<path d="M443.894 0L378.438 65.5679V68.5983H381.463L446.92 3.03045V0H443.894Z" fill="#AEC7E3"/>
<path d="M522.552 3.03045V0H519.802L486.799 32.7839L454.07 65.5679V68.5983H457.096L522.552 3.03045Z" fill="#AEC7E3"/>
<path d="M598.46 3.03045V0H595.435L529.978 65.5679V68.5983H533.003L598.46 3.03045Z" fill="#AEC7E3"/>
<path d="M674.092 3.03045V0H671.067L605.611 65.5679V68.5983H608.636L674.092 3.03045Z" fill="#AEC7E3"/>
<path d="M746.975 0L681.518 65.5679V68.5983H684.543L750 3.03045V0H746.975Z" fill="#AEC7E3"/>
<path d="M519.527 447.404H516.227L497.25 444.098C496.425 444.098 495.325 443.272 494.774 442.721L459.846 407.733C459.296 407.182 458.471 406.08 458.471 405.253L454.62 383.214C454.62 382.387 454.345 381.561 454.895 381.01C455.446 380.459 456.271 379.081 457.096 379.081H460.396L479.648 382.387C480.473 382.387 481.573 383.214 482.123 383.765L516.777 418.477C517.327 419.028 518.152 420.13 518.152 420.957L522.002 443.272C522.002 444.098 522.277 444.925 521.727 445.476C521.177 446.302 520.352 447.404 519.527 447.404Z" fill="#AEC7E3"/>
<path d="M519.527 523.165H516.227L497.25 519.86C496.425 519.86 495.325 519.033 494.774 518.482L459.846 483.494C459.296 482.943 458.471 481.841 458.471 481.015L454.62 458.975C454.62 458.149 454.345 457.322 454.895 456.771C455.446 456.22 456.271 454.843 457.096 454.843H460.396L479.648 458.149C480.473 458.149 481.573 458.975 482.123 459.526L516.777 494.238C517.327 494.789 518.152 495.891 518.152 496.718L522.002 519.033C522.002 519.859 522.277 520.686 521.727 521.237C521.177 522.063 520.352 523.165 519.527 523.165Z" fill="#AEC7E3"/>
<path d="M746.975 675.239L681.518 609.671V606.641H684.543L750 672.208V675.239H746.975Z" fill="#AEC7E3"/>
<path d="M746.975 599.202L681.518 533.634V530.604H684.543L750 596.172V599.202H746.975Z" fill="#AEC7E3"/>
<path d="M746.975 523.441L681.518 457.873V454.843H684.543L750 520.411V523.441H746.975Z" fill="#AEC7E3"/>
<path d="M746.975 447.68L681.518 382.112V379.081H684.543L750 444.649V447.68H746.975Z" fill="#AEC7E3"/>
<path d="M446.645 418.753V443.547C446.645 445.751 444.995 447.404 442.794 447.404H418.592C417.492 447.404 416.667 447.129 415.842 446.302L380.088 410.488C379.263 409.661 378.988 408.835 378.988 407.733V383.489C378.988 381.285 380.638 379.632 382.838 379.632H407.591C408.691 379.632 409.516 379.908 410.341 380.734L445.545 416.549C446.095 416.824 446.645 417.651 446.645 418.753Z" fill="#AEC7E3"/>
<path d="M443.894 523.165H440.594L421.617 519.86C420.792 519.86 419.692 519.033 419.142 518.482L384.213 483.494C383.663 482.943 382.838 481.841 382.838 481.015L378.988 458.975C378.988 458.149 378.713 457.322 379.263 456.771C379.813 456.22 380.638 454.843 381.463 454.843H384.763L404.015 458.149C404.84 458.149 405.941 458.975 406.491 459.526L441.144 494.238C441.694 494.789 442.519 495.891 442.519 496.718L446.37 519.033C446.37 519.859 446.645 520.686 446.095 521.237C445.544 522.063 444.719 523.165 443.894 523.165Z" fill="#AEC7E3"/>
<path d="M596.26 447.404H592.959L575.908 440.792C575.358 440.792 573.982 439.69 573.707 439.415L540.154 405.805C539.879 405.529 538.779 403.876 538.779 403.601L531.078 383.765C531.078 383.214 530.528 382.112 530.803 381.561C531.078 381.01 531.628 379.357 532.178 379.357H535.479L552.805 385.969C553.355 385.969 554.731 387.071 555.006 387.346L588.284 420.681C588.559 420.957 589.659 422.61 589.659 422.885L597.36 442.996C597.36 443.547 597.91 444.649 597.635 445.2C597.36 445.751 596.81 447.404 596.26 447.404Z" fill="#AEC7E3"/>
<path d="M596.26 523.165H592.959L575.908 516.554C575.358 516.554 573.982 515.452 573.707 515.176L540.154 481.566C539.879 481.29 538.779 479.637 538.779 479.362L531.078 459.526C531.078 458.975 530.528 457.873 530.803 457.322C531.078 456.771 531.628 455.118 532.178 455.118H535.479L552.805 461.73C553.355 461.73 554.731 462.832 555.006 463.108L588.284 496.442C588.559 496.718 589.659 498.371 589.659 498.646L597.36 518.758C597.36 519.309 597.91 520.41 597.635 520.961C597.36 521.512 596.81 523.165 596.26 523.165Z" fill="#AEC7E3"/>
<path d="M596.26 599.202H592.959L575.908 592.59C575.358 592.59 573.982 591.488 573.707 591.213L540.154 557.602C539.879 557.327 538.779 555.674 538.779 555.398L531.078 535.563C531.078 535.012 530.528 533.91 530.803 533.359C531.078 532.808 531.628 531.155 532.178 531.155H535.479L552.805 537.767C553.355 537.767 554.731 538.869 555.006 539.144L588.284 572.479C588.559 572.755 589.659 574.408 589.659 574.683L597.36 594.794C597.36 595.345 597.91 596.447 597.635 596.998C597.36 597.274 596.81 599.202 596.26 599.202Z" fill="#AEC7E3"/>
<path d="M520.627 599.202H517.327L500.275 592.59C499.725 592.59 498.35 591.488 498.075 591.213L464.521 557.602C464.246 557.327 463.146 555.674 463.146 555.398L455.446 535.563C455.446 535.012 454.896 533.91 455.171 533.359C455.446 532.808 455.996 531.155 456.546 531.155H459.846L477.173 537.767C477.723 537.767 479.098 538.869 479.373 539.144L512.651 572.479C512.926 572.755 514.026 574.408 514.026 574.683L521.727 594.794C521.727 595.345 522.277 596.447 522.002 596.998C521.727 597.274 521.177 599.202 520.627 599.202Z" fill="#AEC7E3"/>
<path d="M444.719 599.202H441.694L424.642 592.59C424.092 592.59 422.717 591.488 422.442 591.213L388.889 557.602C388.614 557.327 387.514 555.674 387.514 555.398L379.813 535.563C379.813 535.012 379.263 533.91 379.538 533.359C379.813 532.808 380.363 531.155 380.913 531.155H384.213L401.54 537.767C402.09 537.767 403.465 538.869 403.74 539.144L437.019 572.479C437.294 572.755 438.394 574.408 438.394 574.683L446.095 594.794C446.095 595.345 446.645 596.447 446.37 596.998C446.095 597.274 445.544 599.202 444.719 599.202Z" fill="#AEC7E3"/>
<path d="M672.992 447.404H669.967L654.841 437.486C654.566 437.486 652.915 436.109 652.64 435.833L619.912 403.05C619.637 402.774 618.262 401.121 618.262 400.846L606.711 383.214C606.711 382.938 605.611 381.561 605.611 381.285C605.886 381.01 606.161 378.806 606.436 378.806H609.461L624.588 388.724C624.863 388.724 626.513 390.377 626.788 390.377L659.241 422.885C659.516 423.161 660.891 424.814 660.891 425.089L672.442 442.721C672.442 442.996 673.542 444.374 673.542 444.649C673.542 445.2 673.542 447.404 672.992 447.404Z" fill="#AEC7E3"/>
<path d="M672.992 523.441H669.967L654.841 513.523C654.566 513.523 652.915 512.146 652.64 511.87L619.912 479.086C619.637 478.811 618.262 477.158 618.262 476.882L606.711 459.251C606.711 458.975 605.611 457.598 605.611 457.322C605.886 457.047 606.161 454.843 606.436 454.843H609.461L624.588 464.76C624.863 464.76 626.513 466.413 626.788 466.413L659.241 498.922C659.516 499.197 660.891 500.85 660.891 501.126L672.442 518.758C672.442 519.033 673.542 520.411 673.542 520.686C673.542 520.962 673.542 523.441 672.992 523.441Z" fill="#AEC7E3"/>
<path d="M672.992 599.202H669.967L654.841 589.284C654.566 589.284 652.915 587.907 652.64 587.631L619.912 554.847C619.637 554.572 618.262 552.919 618.262 552.643L606.711 535.012C606.711 534.736 605.611 533.359 605.611 533.083C605.886 532.808 606.161 530.604 606.436 530.604H609.461L624.588 540.522C624.863 540.522 626.513 542.175 626.788 542.175L659.241 574.683C659.516 574.959 660.891 576.612 660.891 576.887L672.442 594.519C672.442 594.794 673.542 596.172 673.542 596.447C673.542 596.723 673.542 599.202 672.992 599.202Z" fill="#AEC7E3"/>
<path d="M672.992 675.239H669.967L654.841 665.321C654.566 665.321 652.915 663.944 652.64 663.668L619.912 630.884C619.637 630.609 618.262 628.956 618.262 628.68L606.711 611.048C606.711 610.773 605.611 609.395 605.611 609.12C605.886 608.844 606.161 606.641 606.436 606.641H609.461L624.588 616.558C624.863 616.558 626.513 618.211 626.788 618.211L659.241 650.72C659.516 650.995 660.891 652.648 660.891 652.924L672.442 670.555C672.442 670.831 673.542 672.208 673.542 672.484C673.542 672.759 673.542 675.239 672.992 675.239Z" fill="#AEC7E3"/>
<path d="M597.36 675.239H594.335L579.208 665.321C578.933 665.321 577.283 663.944 577.008 663.668L544.279 630.884C544.004 630.609 542.629 628.956 542.629 628.68L531.078 611.048C531.078 610.773 529.978 609.395 529.978 609.12C530.253 608.844 530.528 606.641 530.803 606.641H533.828L548.955 616.558C549.23 616.558 550.88 618.211 551.155 618.211L583.608 650.72C583.883 650.995 585.259 652.648 585.259 652.924L596.81 670.555C596.81 670.831 597.91 672.208 597.91 672.484C597.91 672.759 597.635 675.239 597.36 675.239Z" fill="#AEC7E3"/>
<path d="M521.727 675.239H518.702L503.575 665.321C503.3 665.321 501.65 663.944 501.375 663.668L468.647 630.884C468.372 630.609 466.997 628.956 466.997 628.68L455.446 611.048C455.446 610.773 454.345 609.395 454.345 609.12C454.62 608.844 454.896 606.641 455.171 606.641H458.196L473.322 616.558C473.597 616.558 475.248 618.211 475.523 618.211L507.976 650.72C508.251 650.995 509.626 652.648 509.626 652.924L521.177 670.555C521.177 670.831 522.277 672.208 522.277 672.484C522.277 672.759 522.002 675.239 521.727 675.239Z" fill="#AEC7E3"/>
<path d="M445.82 675.239H442.794L427.668 665.321C427.393 665.321 425.743 663.944 425.468 663.668L392.739 630.884C392.464 630.609 391.089 628.956 391.089 628.68L379.538 611.048C379.538 610.773 378.438 609.395 378.438 609.12C378.713 608.844 378.988 606.641 379.263 606.641H382.288L397.415 616.558C397.69 616.558 399.34 618.211 399.615 618.211L432.068 650.72C432.343 650.995 433.718 652.648 433.718 652.924L445.27 670.555C445.27 670.831 446.37 672.208 446.37 672.484C446.37 672.759 446.095 675.239 445.82 675.239Z" fill="#AEC7E3"/>
<path d="M443.894 751L378.438 685.432V682.402H381.463L446.92 747.97V751H443.894Z" fill="#AEC7E3"/>
<path d="M522.552 747.97V751H519.802L486.799 718.216L454.07 685.432V682.402H457.096L522.552 747.97Z" fill="#AEC7E3"/>
<path d="M598.46 747.97V751H595.435L529.978 685.432V682.402H533.003L598.46 747.97Z" fill="#AEC7E3"/>
<path d="M674.092 747.97V751H671.067L605.611 685.432V682.402H608.636L674.092 747.97Z" fill="#AEC7E3"/>
<path d="M746.975 751L681.518 685.432V682.402H684.543L750 747.97V751H746.975Z" fill="#AEC7E3"/>
<path d="M230.473 303.596H233.773L252.75 306.902C253.575 306.902 254.676 307.728 255.226 308.279L290.154 343.267C290.704 343.818 291.529 344.92 291.529 345.747L295.38 367.786C295.38 368.613 295.655 369.439 295.105 369.99C294.555 370.541 293.729 371.919 292.904 371.919H289.604L270.352 368.613C269.527 368.613 268.427 367.786 267.877 367.235L233.223 332.523C232.673 331.972 231.848 330.87 231.848 330.043L227.998 307.728C227.998 306.902 227.723 306.075 228.273 305.524C228.823 304.698 229.373 303.596 230.473 303.596Z" fill="#AEC7E3"/>
<path d="M230.473 227.835H233.773L252.75 231.14C253.575 231.14 254.676 231.967 255.226 232.518L290.154 267.506C290.704 268.057 291.529 269.159 291.529 269.985L295.38 292.025C295.38 292.851 295.655 293.678 295.105 294.229C294.555 294.78 293.729 296.157 292.904 296.157H289.604L270.352 292.851C269.527 292.851 268.427 292.025 267.877 291.474L233.223 256.762C232.673 256.211 231.848 255.109 231.848 254.282L227.998 231.967C227.998 231.141 227.723 230.314 228.273 229.763C228.823 228.937 229.373 227.835 230.473 227.835Z" fill="#AEC7E3"/>
<path d="M3.02524 75.7612L68.4818 141.329V144.36H65.4565L0 78.7916V75.7612H3.02524Z" fill="#AEC7E3"/>
<path d="M3.02524 151.522L68.4818 217.366V220.121H65.4565L0 154.553V151.522H3.02524Z" fill="#AEC7E3"/>
<path d="M3.02524 227.559L68.4818 293.127V296.157H65.4565L0 230.59V227.559H3.02524Z" fill="#AEC7E3"/>
<path d="M3.02524 303.32L68.4818 368.888V371.919H65.4565L0 306.351V303.32H3.02524Z" fill="#AEC7E3"/>
<path d="M303.355 332.247V307.453C303.355 305.249 305.005 303.596 307.206 303.596H331.408C332.508 303.596 333.333 303.871 334.158 304.698L369.912 340.512C370.737 341.339 371.012 342.165 371.012 343.267V367.511C371.012 369.715 369.362 371.368 367.162 371.368H342.409C341.309 371.368 340.484 371.092 339.659 370.266L304.455 334.451C303.63 334.176 303.355 333.349 303.355 332.247Z" fill="#AEC7E3"/>
<path d="M306.106 227.835H309.406L328.383 231.14C329.208 231.14 330.308 231.967 330.858 232.518L365.787 267.506C366.337 268.057 367.162 269.159 367.162 269.985L371.012 292.025C371.012 292.851 371.287 293.678 370.737 294.229C370.187 294.78 369.362 296.157 368.537 296.157H365.237L345.985 292.851C345.16 292.851 344.059 292.025 343.509 291.474L308.856 256.762C308.306 256.211 307.481 255.109 307.481 254.282L303.63 231.967C303.63 231.141 303.355 230.314 303.906 229.763C304.456 228.937 305.281 227.835 306.106 227.835Z" fill="#AEC7E3"/>
<path d="M153.465 303.596H156.766L173.817 310.208C174.367 310.208 175.743 311.31 176.018 311.585L209.571 345.196C209.846 345.471 210.946 347.124 210.946 347.399L218.647 367.235C218.647 367.786 219.197 368.888 218.922 369.439C218.647 369.99 218.097 371.643 217.547 371.643H214.246L196.92 365.031C196.37 365.031 194.994 363.929 194.719 363.654L161.441 330.319C161.166 330.043 160.066 328.39 160.066 328.115L152.365 308.004C152.365 307.453 151.815 306.351 152.09 305.8C152.365 305.249 152.915 303.596 153.465 303.596Z" fill="#AEC7E3"/>
<path d="M153.465 227.559H156.766L173.817 234.171C174.367 234.171 175.743 235.273 176.018 235.548L209.571 269.159C209.846 269.434 210.946 271.087 210.946 271.363L218.647 291.198C218.647 291.749 219.197 292.851 218.922 293.402C218.647 293.953 218.097 295.606 217.547 295.606H214.246L196.92 288.995C196.37 288.995 194.994 287.893 194.719 287.617L161.441 254.282C161.166 254.007 160.066 252.354 160.066 252.078L152.365 231.967C152.365 231.416 151.815 230.314 152.09 229.763C152.365 229.488 152.915 227.559 153.465 227.559Z" fill="#AEC7E3"/>
<path d="M153.465 151.798H156.766L173.817 158.41C174.367 158.41 175.743 159.512 176.018 159.787L209.571 193.398C209.846 193.673 210.946 195.326 210.946 195.602L218.647 215.437C218.647 215.988 219.197 217.09 218.922 217.641C218.647 218.192 218.097 219.845 217.547 219.845H214.246L196.92 213.233C196.37 213.233 194.994 212.131 194.719 211.856L161.441 178.521C161.166 178.245 160.066 176.592 160.066 176.317L152.365 156.206C152.365 155.655 151.815 154.553 152.09 154.002C152.365 153.451 152.915 151.798 153.465 151.798Z" fill="#AEC7E3"/>
<path d="M229.373 151.798H232.673L249.725 158.41C250.275 158.41 251.65 159.512 251.925 159.787L285.479 193.398C285.754 193.673 286.854 195.326 286.854 195.602L294.554 215.437C294.554 215.988 295.104 217.09 294.829 217.641C294.554 218.192 294.004 219.845 293.454 219.845H290.429L273.102 213.233C272.552 213.233 271.177 212.131 270.902 211.856L237.624 178.521C237.349 178.245 236.249 176.592 236.249 176.317L228.548 156.206C228.548 155.655 227.998 154.553 228.273 154.002C228.273 153.451 228.823 151.798 229.373 151.798Z" fill="#AEC7E3"/>
<path d="M305.005 151.798H308.306L325.358 158.41C325.908 158.41 327.283 159.512 327.558 159.787L361.111 193.398C361.386 193.673 362.486 195.326 362.486 195.602L370.187 215.437C370.187 215.988 370.737 217.09 370.462 217.641C370.187 218.192 369.637 219.845 369.087 219.845H365.787L348.46 213.233C347.91 213.233 346.535 212.131 346.26 211.856L312.981 178.521C312.706 178.245 311.606 176.592 311.606 176.317L303.905 156.206C303.905 155.655 303.355 154.553 303.63 154.002C303.905 153.451 304.455 151.798 305.005 151.798Z" fill="#AEC7E3"/>
<path d="M76.7326 303.596H79.758L94.8845 313.514C95.1595 313.514 96.8097 314.891 97.0847 315.167L129.813 347.95C130.088 348.226 131.463 349.879 131.463 350.154L143.014 367.786C143.014 368.062 144.114 369.439 144.114 369.715C143.839 369.99 143.564 372.194 143.289 372.194H140.264L125.138 362.276C124.863 362.276 123.212 360.623 122.937 360.623L90.484 328.115C90.2089 327.839 88.8339 326.186 88.8339 325.911L77.2827 308.279C77.2827 308.004 76.1825 306.626 76.1825 306.351C76.1825 305.8 76.4576 303.596 76.7326 303.596Z" fill="#AEC7E3"/>
<path d="M76.7326 227.559H79.758L94.8845 237.477C95.1595 237.477 96.8097 238.854 97.0847 239.13L129.813 271.914C130.088 272.189 131.463 273.842 131.463 274.118L143.014 291.749C143.014 292.025 144.114 293.402 144.114 293.678C143.839 293.953 143.564 296.157 143.289 296.157H140.264L125.138 286.24C124.863 286.24 123.212 284.587 122.937 284.587L90.484 252.078C90.2089 251.803 88.8339 250.15 88.8339 249.874L77.2827 232.242C77.2827 231.967 76.1825 230.59 76.1825 230.314C76.1825 230.039 76.4576 227.559 76.7326 227.559Z" fill="#AEC7E3"/>
<path d="M76.7326 151.798H79.758L94.8845 161.716C95.1595 161.716 96.8097 163.093 97.0847 163.369L129.813 196.153C130.088 196.428 131.463 198.081 131.463 198.357L143.014 215.988C143.014 216.264 144.114 217.641 144.114 217.917C143.839 218.192 143.564 220.396 143.289 220.396H140.264L125.138 210.478C124.863 210.478 123.212 208.825 122.937 208.825L90.484 176.317C90.2089 176.041 88.8339 174.388 88.8339 174.113L77.2827 156.481C77.2827 156.206 76.1825 154.828 76.1825 154.553C76.1825 154.002 76.4576 151.798 76.7326 151.798Z" fill="#AEC7E3"/>
<path d="M76.7326 75.7612H79.758L94.8845 85.679C95.1595 85.679 96.8097 87.0565 97.0847 87.332L129.813 120.116C130.088 120.391 131.463 122.044 131.463 122.32L143.014 139.952C143.014 140.227 144.114 141.605 144.114 141.88C143.839 142.156 143.564 144.36 143.289 144.36H140.264L125.138 134.442C124.863 134.442 123.212 132.789 122.937 132.789L90.484 100.28C90.2089 100.005 88.8339 98.3518 88.8339 98.0763L77.2827 80.4446C77.2827 80.1691 76.1825 78.7916 76.1825 78.5161C76.1825 78.2407 76.4576 75.7612 76.7326 75.7612Z" fill="#AEC7E3"/>
<path d="M152.64 75.7612H155.666L170.792 85.679C171.067 85.679 172.717 87.0565 172.992 87.332L205.721 120.116C205.996 120.391 207.371 122.044 207.371 122.32L218.922 139.952C218.922 140.227 220.022 141.605 220.022 141.88C219.747 142.156 219.472 144.36 219.197 144.36H216.172L201.045 134.442C200.77 134.442 199.12 132.789 198.845 132.789L166.392 100.28C166.117 100.005 164.741 98.3518 164.741 98.0763L153.19 80.4446C153.19 80.1691 152.09 78.7916 152.09 78.5161C152.09 78.2407 152.365 75.7612 152.64 75.7612Z" fill="#AEC7E3"/>
<path d="M228.273 75.7612H231.298L246.425 85.679C246.7 85.679 248.35 87.0565 248.625 87.332L281.353 120.116C281.628 120.391 283.003 122.044 283.003 122.32L294.554 139.952C294.554 140.227 295.655 141.605 295.655 141.88C295.38 142.156 295.104 144.36 294.829 144.36H291.804L276.678 134.442C276.403 134.442 274.753 132.789 274.477 132.789L242.024 100.28C241.749 100.005 240.374 98.3518 240.374 98.0763L228.823 80.4446C228.823 80.1691 227.723 78.7916 227.723 78.5161C227.723 78.2407 227.998 75.7612 228.273 75.7612Z" fill="#AEC7E3"/>
<path d="M304.18 75.7612H307.206L322.332 85.679C322.607 85.679 324.257 87.0565 324.533 87.332L357.261 120.116C357.536 120.391 358.911 122.044 358.911 122.32L370.187 139.676C370.187 139.952 371.287 141.329 371.287 141.605C371.012 141.88 370.737 144.084 370.462 144.084H367.437L352.31 134.166C352.035 134.166 350.385 132.513 350.11 132.513L317.657 100.005C317.382 99.7293 316.007 98.0763 316.007 97.8008L304.455 80.1691C304.455 79.8936 303.355 78.5161 303.355 78.2407C303.355 78.2407 303.63 75.7612 304.18 75.7612Z" fill="#AEC7E3"/>
<path d="M306.106 0L371.562 65.5679V68.5983H368.537L303.08 3.03045V0H306.106Z" fill="#AEC7E3"/>
<path d="M227.173 3.03045V0H230.198L295.655 65.5679V68.5983H292.629L227.173 3.03045Z" fill="#AEC7E3"/>
<path d="M151.54 3.03045V0H154.565L220.022 65.5679V68.5983H216.997L151.54 3.03045Z" fill="#AEC7E3"/>
<path d="M75.6326 3.03045V0H78.6578L144.114 65.5679V68.5983H141.364L108.636 35.8144L75.6326 3.03045Z" fill="#AEC7E3"/>
<path d="M3.02524 5.60178e-08L68.4818 65.5679V68.5983H65.4565L8.51484e-07 3.03045V5.60178e-08H3.02524Z" fill="#AEC7E3"/>
<path d="M230.473 447.404H233.773L252.75 444.098C253.575 444.098 254.676 443.272 255.226 442.721L290.154 407.733C290.704 407.182 291.529 406.08 291.529 405.253L295.38 383.214C295.38 382.387 295.655 381.561 295.105 381.01C294.555 380.459 293.729 379.081 292.904 379.081H289.604L270.352 382.387C269.527 382.387 268.427 383.214 267.877 383.765L233.223 418.477C232.673 419.028 231.848 420.13 231.848 420.957L227.998 443.272C227.998 444.098 227.723 444.925 228.273 445.476C228.823 446.302 229.373 447.404 230.473 447.404Z" fill="#AEC7E3"/>
<path d="M230.473 523.165H233.773L252.75 519.86C253.575 519.86 254.676 519.033 255.226 518.482L290.154 483.494C290.704 482.943 291.529 481.841 291.529 481.015L295.38 458.975C295.38 458.149 295.655 457.322 295.105 456.771C294.555 456.22 293.729 454.843 292.904 454.843H289.604L270.352 458.149C269.527 458.149 268.427 458.975 267.877 459.526L233.223 494.238C232.673 494.789 231.848 495.891 231.848 496.718L227.998 519.033C227.998 519.859 227.723 520.686 228.273 521.237C228.823 522.063 229.373 523.165 230.473 523.165Z" fill="#AEC7E3"/>
<path d="M3.02524 675.239L68.4818 609.671V606.641H65.4565L0 672.208V675.239H3.02524Z" fill="#AEC7E3"/>
<path d="M3.02524 599.202L68.4818 533.634V530.604H65.4565L0 596.172V599.202H3.02524Z" fill="#AEC7E3"/>
<path d="M3.02524 523.441L68.4818 457.873V454.843H65.4565L0 520.411V523.441H3.02524Z" fill="#AEC7E3"/>
<path d="M3.02524 447.68L68.4818 382.112V379.081H65.4565L0 444.649V447.68H3.02524Z" fill="#AEC7E3"/>
<path d="M303.355 418.753V443.547C303.355 445.751 305.005 447.404 307.206 447.404H331.408C332.508 447.404 333.333 447.129 334.158 446.302L369.912 410.488C370.737 409.661 371.012 408.835 371.012 407.733V383.489C371.012 381.285 369.362 379.632 367.162 379.632H342.409C341.309 379.632 340.484 379.908 339.659 380.734L304.455 416.549C303.63 416.824 303.355 417.651 303.355 418.753Z" fill="#AEC7E3"/>
<path d="M306.106 523.165H309.406L328.383 519.86C329.208 519.86 330.308 519.033 330.858 518.482L365.787 483.494C366.337 482.943 367.162 481.841 367.162 481.015L371.012 458.975C371.012 458.149 371.287 457.322 370.737 456.771C370.187 456.22 369.362 454.843 368.537 454.843H365.237L345.985 458.149C345.16 458.149 344.059 458.975 343.509 459.526L308.856 494.238C308.306 494.789 307.481 495.891 307.481 496.718L303.63 519.033C303.63 519.859 303.355 520.686 303.906 521.237C304.456 522.063 305.281 523.165 306.106 523.165Z" fill="#AEC7E3"/>
<path d="M153.465 447.404H156.766L173.817 440.792C174.367 440.792 175.743 439.69 176.018 439.415L209.571 405.805C209.846 405.529 210.946 403.876 210.946 403.601L218.647 383.765C218.647 383.214 219.197 382.112 218.922 381.561C218.647 381.01 218.097 379.357 217.547 379.357H214.246L196.92 385.969C196.37 385.969 194.994 387.071 194.719 387.346L161.441 420.681C161.166 420.957 160.066 422.61 160.066 422.885L152.365 442.996C152.365 443.547 151.815 444.649 152.09 445.2C152.365 445.751 152.915 447.404 153.465 447.404Z" fill="#AEC7E3"/>
<path d="M153.465 523.165H156.766L173.817 516.554C174.367 516.554 175.743 515.452 176.018 515.176L209.571 481.566C209.846 481.29 210.946 479.637 210.946 479.362L218.647 459.526C218.647 458.975 219.197 457.873 218.922 457.322C218.647 456.771 218.097 455.118 217.547 455.118H214.246L196.92 461.73C196.37 461.73 194.994 462.832 194.719 463.108L161.441 496.442C161.166 496.718 160.066 498.371 160.066 498.646L152.365 518.758C152.365 519.309 151.815 520.41 152.09 520.961C152.365 521.512 152.915 523.165 153.465 523.165Z" fill="#AEC7E3"/>
<path d="M153.465 599.202H156.766L173.817 592.59C174.367 592.59 175.743 591.488 176.018 591.213L209.571 557.602C209.846 557.327 210.946 555.674 210.946 555.398L218.647 535.563C218.647 535.012 219.197 533.91 218.922 533.359C218.647 532.808 218.097 531.155 217.547 531.155H214.246L196.92 537.767C196.37 537.767 194.994 538.869 194.719 539.144L161.441 572.479C161.166 572.755 160.066 574.408 160.066 574.683L152.365 594.794C152.365 595.345 151.815 596.447 152.09 596.998C152.365 597.274 152.915 599.202 153.465 599.202Z" fill="#AEC7E3"/>
<path d="M229.373 599.202H232.673L249.725 592.59C250.275 592.59 251.65 591.488 251.925 591.213L285.479 557.602C285.754 557.327 286.854 555.674 286.854 555.398L294.554 535.563C294.554 535.012 295.104 533.91 294.829 533.359C294.554 532.808 294.004 531.155 293.454 531.155H290.429L273.102 537.767C272.552 537.767 271.177 538.869 270.902 539.144L237.624 572.479C237.349 572.755 236.249 574.408 236.249 574.683L228.548 594.794C228.548 595.345 227.998 596.447 228.273 596.998C228.273 597.274 228.823 599.202 229.373 599.202Z" fill="#AEC7E3"/>
<path d="M305.005 599.202H308.306L325.358 592.59C325.908 592.59 327.283 591.488 327.558 591.213L361.111 557.602C361.386 557.327 362.486 555.674 362.486 555.398L370.187 535.563C370.187 535.012 370.737 533.91 370.462 533.359C370.187 532.808 369.637 531.155 369.087 531.155H365.787L348.46 537.767C347.91 537.767 346.535 538.869 346.26 539.144L312.981 572.479C312.706 572.755 311.606 574.408 311.606 574.683L303.905 594.794C303.905 595.345 303.355 596.447 303.63 596.998C303.905 597.274 304.455 599.202 305.005 599.202Z" fill="#AEC7E3"/>
<path d="M76.7326 447.404H79.758L94.8845 437.486C95.1595 437.486 96.8097 436.109 97.0847 435.833L129.813 403.05C130.088 402.774 131.463 401.121 131.463 400.846L143.014 383.214C143.014 382.938 144.114 381.561 144.114 381.285C143.839 381.01 143.564 378.806 143.289 378.806H140.264L125.138 388.724C124.863 388.724 123.212 390.377 122.937 390.377L90.484 422.885C90.2089 423.161 88.8339 424.814 88.8339 425.089L77.2827 442.721C77.2827 442.996 76.1825 444.374 76.1825 444.649C76.1825 445.2 76.4576 447.404 76.7326 447.404Z" fill="#AEC7E3"/>
<path d="M76.7326 523.441H79.758L94.8845 513.523C95.1595 513.523 96.8097 512.146 97.0847 511.87L129.813 479.086C130.088 478.811 131.463 477.158 131.463 476.882L143.014 459.251C143.014 458.975 144.114 457.598 144.114 457.322C143.839 457.047 143.564 454.843 143.289 454.843H140.264L125.138 464.76C124.863 464.76 123.212 466.413 122.937 466.413L90.484 498.922C90.2089 499.197 88.8339 500.85 88.8339 501.126L77.2827 518.758C77.2827 519.033 76.1825 520.411 76.1825 520.686C76.1825 520.962 76.4576 523.441 76.7326 523.441Z" fill="#AEC7E3"/>
<path d="M76.7326 599.202H79.758L94.8845 589.284C95.1595 589.284 96.8097 587.907 97.0847 587.631L129.813 554.847C130.088 554.572 131.463 552.919 131.463 552.643L143.014 535.012C143.014 534.736 144.114 533.359 144.114 533.083C143.839 532.808 143.564 530.604 143.289 530.604H140.264L125.138 540.522C124.863 540.522 123.212 542.175 122.937 542.175L90.484 574.683C90.2089 574.959 88.8339 576.612 88.8339 576.887L77.2827 594.519C77.2827 594.794 76.1825 596.172 76.1825 596.447C76.1825 596.723 76.4576 599.202 76.7326 599.202Z" fill="#AEC7E3"/>
<path d="M76.7326 675.239H79.758L94.8845 665.321C95.1595 665.321 96.8097 663.944 97.0847 663.668L129.813 630.884C130.088 630.609 131.463 628.956 131.463 628.68L143.014 611.048C143.014 610.773 144.114 609.395 144.114 609.12C143.839 608.844 143.564 606.641 143.289 606.641H140.264L125.138 616.558C124.863 616.558 123.212 618.211 122.937 618.211L90.484 650.72C90.2089 650.995 88.8339 652.648 88.8339 652.924L77.2827 670.555C77.2827 670.831 76.1825 672.208 76.1825 672.484C76.1825 672.759 76.4576 675.239 76.7326 675.239Z" fill="#AEC7E3"/>
<path d="M152.64 675.239H155.666L170.792 665.321C171.067 665.321 172.717 663.944 172.992 663.668L205.721 630.884C205.996 630.609 207.371 628.956 207.371 628.68L218.922 611.048C218.922 610.773 220.022 609.395 220.022 609.12C219.747 608.844 219.472 606.641 219.197 606.641H216.172L201.045 616.558C200.77 616.558 199.12 618.211 198.845 618.211L166.392 650.72C166.117 650.995 164.741 652.648 164.741 652.924L153.19 670.555C153.19 670.831 152.09 672.208 152.09 672.484C152.09 672.759 152.365 675.239 152.64 675.239Z" fill="#AEC7E3"/>
<path d="M228.273 675.239H231.298L246.425 665.321C246.7 665.321 248.35 663.944 248.625 663.668L281.353 630.884C281.628 630.609 283.003 628.956 283.003 628.68L294.554 611.048C294.554 610.773 295.655 609.395 295.655 609.12C295.38 608.844 295.104 606.641 294.829 606.641H291.804L276.678 616.558C276.403 616.558 274.753 618.211 274.477 618.211L242.024 650.72C241.749 650.995 240.374 652.648 240.374 652.924L228.823 670.555C228.823 670.831 227.723 672.208 227.723 672.484C227.723 672.759 227.998 675.239 228.273 675.239Z" fill="#AEC7E3"/>
<path d="M304.18 675.239H307.206L322.332 665.321C322.607 665.321 324.257 663.944 324.533 663.668L357.261 630.884C357.536 630.609 358.911 628.956 358.911 628.68L370.462 611.048C370.462 610.773 371.562 609.395 371.562 609.12C371.287 608.844 371.012 606.641 370.737 606.641H367.437L352.31 616.558C352.035 616.558 350.385 618.211 350.11 618.211L317.657 650.72C317.382 650.995 316.007 652.648 316.007 652.924L304.455 670.555C304.455 670.831 303.355 672.208 303.355 672.484C303.355 672.759 303.63 675.239 304.18 675.239Z" fill="#AEC7E3"/>
<path d="M306.106 751L371.562 685.432V682.402H368.537L303.08 747.97V751H306.106Z" fill="#AEC7E3"/>
<path d="M227.173 747.97V751H230.198L295.655 685.432V682.402H292.629L227.173 747.97Z" fill="#AEC7E3"/>
<path d="M151.54 747.97V751H154.565L220.022 685.432V682.402H216.997L151.54 747.97Z" fill="#AEC7E3"/>
<path d="M75.6326 747.97V751H78.6578L144.114 685.432V682.402H141.364L108.636 715.186L75.6326 747.97Z" fill="#AEC7E3"/>
<path d="M3.02524 751L68.4818 685.432V682.402H65.4565L0 747.97V751H3.02524Z" fill="#AEC7E3"/>
</svg>
