<svg width="2088" height="1547" viewBox="0 0 2088 1547" fill="none" xmlns="http://www.w3.org/2000/svg">
<path d="M2088 839.481V1517C2088 1533.57 2074.57 1547 2058 1547H30C13.4315 1547 0 1533.57 0 1517V30C0 13.4315 13.4315 0 30 0H1250.77C1261.4 0 1271.59 4.22986 1279.1 11.7558L2076.32 811.237C2083.8 818.735 2088 828.892 2088 839.481Z" fill="#16888C"/>
<path d="M2088 839.481V1517C2088 1533.57 2074.57 1547 2058 1547H30C13.4315 1547 0 1533.57 0 1517V30C0 13.4315 13.4315 0 30 0H1250.77C1261.4 0 1271.59 4.22986 1279.1 11.7558L2076.32 811.237C2083.8 818.735 2088 828.892 2088 839.481Z" fill="black" fill-opacity="0.2"/>
</svg>
