<svg width="22" height="19" viewBox="0 0 22 19" fill="none" xmlns="http://www.w3.org/2000/svg">
<path d="M0.75 9.48047H20.7051" stroke="#F47B47" stroke-width="1.5" stroke-linecap="round" stroke-linejoin="round"/>
<path d="M3.24384 11.3514C4.27704 11.3514 5.11462 10.5139 5.11462 9.48065C5.11462 8.44744 4.27704 7.60986 3.24384 7.60986C2.21063 7.60986 1.37305 8.44744 1.37305 9.48065C1.37305 10.5139 2.21063 11.3514 3.24384 11.3514Z" stroke="#F47B47" stroke-width="1.5" stroke-linecap="round" stroke-linejoin="round"/>
<path d="M10.7282 11.3514C11.7614 11.3514 12.599 10.5139 12.599 9.48065C12.599 8.44744 11.7614 7.60986 10.7282 7.60986C9.695 7.60986 8.85742 8.44744 8.85742 9.48065C8.85742 10.5139 9.695 11.3514 10.7282 11.3514Z" stroke="#F47B47" stroke-width="1.5" stroke-linecap="round" stroke-linejoin="round"/>
<path d="M18.2106 11.3514C19.2438 11.3514 20.0814 10.5139 20.0814 9.48065C20.0814 8.44744 19.2438 7.60986 18.2106 7.60986C17.1774 7.60986 16.3398 8.44744 16.3398 9.48065C16.3398 10.5139 17.1774 11.3514 18.2106 11.3514Z" stroke="#F47B47" stroke-width="1.5" stroke-linecap="round" stroke-linejoin="round"/>
<path d="M3.24414 16.9637V13.2222" stroke="#F47B47" stroke-width="1.5" stroke-linecap="round" stroke-linejoin="round"/>
<path d="M10.7285 17.7794V11.5435" stroke="#F47B47" stroke-width="1.5" stroke-linecap="round" stroke-linejoin="round"/>
<path d="M18.2109 16.9399V11.9512" stroke="#F47B47" stroke-width="1.5" stroke-linecap="round" stroke-linejoin="round"/>
<path d="M6.98633 3.24438L9.48071 5.73877L14.4695 0.75" stroke="#F47B47" stroke-width="1.5" stroke-linecap="round" stroke-linejoin="round"/>
</svg>
