<svg width="24" height="16" viewBox="0 0 24 16" fill="none" xmlns="http://www.w3.org/2000/svg">
<path d="M6.23828 6.23877C6.23828 4.78306 6.81656 3.38697 7.8459 2.35762C8.87525 1.32828 10.2713 0.75 11.7271 0.75C13.1828 0.75 14.5789 1.32828 15.6082 2.35762C16.6375 3.38697 17.2158 4.78306 17.2158 6.23877" stroke="#F47B47" stroke-width="1.5" stroke-linecap="round" stroke-linejoin="round"/>
<path d="M11.7285 0.75V6.23877" stroke="#F47B47" stroke-width="1.5" stroke-linecap="round" stroke-linejoin="round"/>
<path d="M5.14062 6.23877H18.3137" stroke="#F47B47" stroke-width="1.5" stroke-linecap="round" stroke-linejoin="round"/>
<path d="M4.04297 7.33643V9.53193C4.04297 10.1142 4.27428 10.6727 4.68602 11.0844C5.09776 11.4961 5.65619 11.7274 6.23848 11.7274H17.216C17.7983 11.7274 18.3567 11.4961 18.7685 11.0844C19.1802 10.6727 19.4115 10.1142 19.4115 9.53193V7.33643" stroke="#F47B47" stroke-width="1.5" stroke-linecap="round" stroke-linejoin="round"/>
<path d="M11.7275 8.43408C16.6674 8.43408 21.0584 10.6296 22.7051 11.7273C21.0584 12.8251 16.6674 15.0206 11.7275 15.0206C6.78765 15.0206 2.39663 12.8251 0.75 11.7273C2.39663 10.6296 6.78765 8.43408 11.7275 8.43408Z" stroke="#F47B47" stroke-width="1.5" stroke-linecap="round" stroke-linejoin="round"/>
<path d="M11.7267 13.3738C12.6361 13.3738 13.3733 12.6366 13.3733 11.7272C13.3733 10.8178 12.6361 10.0806 11.7267 10.0806C10.8173 10.0806 10.0801 10.8178 10.0801 11.7272C10.0801 12.6366 10.8173 13.3738 11.7267 13.3738Z" stroke="#F47B47" stroke-width="1.5" stroke-linecap="round" stroke-linejoin="round"/>
</svg>
