<svg width="21" height="22" viewBox="0 0 21 22" fill="none" xmlns="http://www.w3.org/2000/svg">
<path d="M9.64258 5.22184C9.64258 4.03583 10.1137 2.8984 10.9523 2.05977C11.791 1.22114 12.9284 0.75 14.1144 0.75C15.3004 0.75 16.4378 1.22114 17.2765 2.05977C18.1151 2.8984 18.5862 4.03583 18.5862 5.22184" stroke="#F47B47" stroke-width="1.5" stroke-linecap="round" stroke-linejoin="round"/>
<path d="M14.1152 0.75V5.22184" stroke="#F47B47" stroke-width="1.5" stroke-linecap="round" stroke-linejoin="round"/>
<path d="M8.52539 5.22217H19.705" stroke="#F47B47" stroke-width="1.5" stroke-linecap="round" stroke-linejoin="round"/>
<path d="M8.52539 6.33984V7.4578C8.52539 8.0508 8.76096 8.61952 9.18028 9.03883C9.59959 9.45815 10.1683 9.69372 10.7613 9.69372H17.4691C18.0621 9.69372 18.6308 9.45815 19.0501 9.03883C19.4694 8.61952 19.705 8.0508 19.705 7.4578V6.33984" stroke="#F47B47" stroke-width="1.5" stroke-linecap="round" stroke-linejoin="round"/>
<path d="M8.01673 11.7212H2.42694C1.50079 11.7212 0.75 12.472 0.75 13.3981V18.9879C0.75 19.9141 1.50079 20.6649 2.42694 20.6649H8.01673C8.94288 20.6649 9.69367 19.9141 9.69367 18.9879V13.3981C9.69367 12.472 8.94288 11.7212 8.01673 11.7212Z" stroke="#F47B47" stroke-width="1.5" stroke-linecap="round" stroke-linejoin="round"/>
<path d="M2.98633 11.7212V10.6032C2.98633 10.1585 3.163 9.73192 3.47749 9.41743C3.79198 9.10295 4.21851 8.92627 4.66327 8.92627H5.78123C6.22598 8.92627 6.65251 9.10295 6.967 9.41743C7.28149 9.73192 7.45816 10.1585 7.45816 10.6032V11.7212" stroke="#F47B47" stroke-width="1.5" stroke-linecap="round" stroke-linejoin="round"/>
<path d="M3.54492 16.1929H6.8988" stroke="#F47B47" stroke-width="1.5" stroke-linecap="round" stroke-linejoin="round"/>
<path d="M3.54492 18.4292H5.78084" stroke="#F47B47" stroke-width="1.5" stroke-linecap="round" stroke-linejoin="round"/>
<path d="M11.9297 16.1932L14.1656 18.4291L18.6374 12.8394" stroke="#F47B47" stroke-width="1.5" stroke-linecap="round" stroke-linejoin="round"/>
</svg>
