<svg width="17" height="22" viewBox="0 0 17 22" fill="none" xmlns="http://www.w3.org/2000/svg">
<path d="M13.5686 3.95508H2.88644C1.70652 3.95508 0.75 4.91159 0.75 6.09152V18.9102C0.75 20.0901 1.70652 21.0466 2.88644 21.0466H13.5686C14.7486 21.0466 15.7051 20.0901 15.7051 18.9102V6.09152C15.7051 4.91159 14.7486 3.95508 13.5686 3.95508Z" stroke="#F47B47" stroke-width="1.5" stroke-linecap="round" stroke-linejoin="round"/>
<path d="M5.02148 3.95466V2.88644C5.02148 2.31982 5.24657 1.77641 5.64723 1.37575C6.04789 0.975089 6.5913 0.75 7.15792 0.75H9.29436C9.86098 0.75 10.4044 0.975089 10.8051 1.37575C11.2057 1.77641 11.4308 2.31982 11.4308 2.88644V3.95466" stroke="#F47B47" stroke-width="1.5" stroke-linecap="round" stroke-linejoin="round"/>
<path d="M3.95508 9.29639H12.5008M3.95508 13.5693H12.5008M3.95508 17.8421H9.29618" stroke="#F47B47" stroke-width="1.5" stroke-linecap="round" stroke-linejoin="round"/>
<path d="M5.02148 15.5193L7.15792 17.6557L11.4308 13.3828" stroke="#F47B47" stroke-width="1.5" stroke-linecap="round" stroke-linejoin="round"/>
</svg>
