<svg width="471" height="462" viewBox="0 0 471 462" fill="none" xmlns="http://www.w3.org/2000/svg">
<g clip-path="url(#clip0_2_5860)">
<path d="M18.9623 35.0314L41.5268 35.0314C43.4659 35.0314 45.0525 33.4454 45.0525 31.5069L45.0525 9.30247C45.0525 8.42134 44.6999 7.54021 43.9948 6.83531L27.6002 -9.55366L11.2057 -25.9426C10.6768 -26.6475 9.79539 -27 8.73768 -27L-13.4743 -27C-15.4134 -27 -17 -25.414 -17 -23.4755L-17 -0.918615C-17 -0.0374863 -16.6474 0.843642 -15.9423 1.54854L0.276003 17.7613L16.4942 33.974C17.1994 34.6789 18.0808 35.0314 18.9623 35.0314Z" fill="#344463"/>
<path d="M45.0525 93.0095C45.0525 93.362 44.8762 93.5382 44.8762 93.7144C44.5236 94.948 42.937 95.6529 41.5268 95.6529L20.3725 93.7144C19.4911 93.7144 18.6097 93.1858 18.0808 92.6571L3.97798 78.7353L2.21512 76.973L-13.6506 61.1127C-14.1794 60.584 -14.7083 59.5267 -14.7083 58.8218L-16.6474 38.3796L-16.6474 37.4985C-16.6474 37.1461 -16.4711 36.9698 -16.4711 36.7936C-16.1186 35.56 -14.532 34.8551 -13.1217 34.8551L7.85623 36.7936C8.73766 36.7936 9.61907 37.3223 10.3242 37.851L24.6033 52.1252L26.3662 53.8875L42.4082 69.924C42.937 70.4527 43.4659 71.51 43.4659 72.3912L45.405 92.4809L45.405 93.0095L45.0525 93.0095Z" fill="#344463"/>
<path d="M44.8761 154.512C44.8761 154.688 44.6998 155.041 44.5235 155.217C44.1709 156.274 42.4081 156.274 41.3504 156.274L21.4301 152.398C20.725 152.398 19.6672 151.693 19.1384 151.164L5.38815 137.418L3.62529 135.656L-11.8878 120.148C-12.4167 119.62 -13.1218 118.562 -13.1218 117.857L-16.8238 98.6488L-16.8238 97.7676C-16.8238 97.5914 -16.6475 97.239 -16.4712 97.0627C-16.1187 96.0054 -14.3558 96.0054 -13.2981 96.0054L6.44587 99.8823C7.15101 99.8823 8.20871 100.587 8.73756 101.116L22.6641 115.038L24.427 116.8L40.1164 132.484C40.6452 133.013 41.3504 134.07 41.3504 134.775L45.0524 153.807L45.0524 154.512L44.8761 154.512Z" fill="#344463"/>
<path d="M44.8761 216.015C44.8761 216.191 44.5235 216.367 44.5235 216.544C44.3472 217.425 42.4081 216.896 41.3504 216.896L22.6641 211.081C22.1353 211.081 20.9013 210.199 20.5487 209.847L7.15103 196.454L5.38817 194.692L-9.77238 179.536C-10.125 179.184 -11.0063 177.95 -11.0063 177.422L-16.6475 159.447L-16.6475 158.565C-16.6475 158.389 -16.2949 158.213 -16.2949 158.037C-16.1186 157.156 -14.1795 157.684 -13.1218 157.684L5.21188 163.324C5.74073 163.324 6.97475 164.205 7.32732 164.557L20.9013 178.126L22.6641 179.889L38.001 195.22C38.3535 195.573 39.235 196.806 39.235 197.335L44.8761 215.134L44.8761 216.015Z" fill="#344463"/>
<path d="M44.6998 277.518C44.6998 277.694 44.171 277.87 44.171 277.87C43.9947 278.575 41.8793 277.341 41.1741 277.341L23.7218 269.587C23.3693 269.587 21.959 268.53 21.7827 268.178L8.73759 255.137L6.97473 253.375L-7.83323 238.572C-8.1858 238.219 -9.24349 236.986 -9.24349 236.633L-16.8238 219.892L-16.8238 219.187C-16.8238 219.011 -16.2949 218.835 -16.2949 218.835C-16.1186 218.13 -14.0032 219.363 -13.2981 219.363L3.80162 226.941C4.15419 226.941 5.56448 227.998 5.74077 228.351L18.9622 241.568L20.5487 243.154L35.533 258.133C35.8856 258.485 36.9433 259.719 36.9433 260.071L44.3473 276.636L44.3473 277.518L44.6998 277.518Z" fill="#344463"/>
<path d="M44.6998 339.02C44.6998 339.197 44.1709 339.197 44.1709 339.197C43.9947 339.549 41.7029 337.963 41.1741 337.963L25.1321 328.271C24.7796 328.271 23.3693 327.037 23.193 326.861L10.5004 314.173L8.91386 312.586L-5.54157 298.136C-5.71785 297.96 -6.95183 296.55 -6.95183 296.198L-16.2949 280.69L-16.2949 279.985C-16.2949 279.809 -15.7661 279.809 -15.7661 279.809C-15.5898 279.456 -13.2981 281.042 -12.7692 281.042L3.09646 290.558C3.44903 290.558 4.85927 291.792 5.03556 291.968L18.0807 305.009L19.6673 306.595L34.2989 321.222C34.4752 321.398 35.7092 322.808 35.7092 323.16L45.0524 338.492L45.0524 339.02L44.6998 339.02Z" fill="#344463"/>
<path d="M44.5236 400.523C44.5236 400.523 43.8184 400.523 43.8184 400.699C43.8184 400.875 41.1741 398.761 40.9978 398.761L26.1899 387.13C26.0136 387.13 24.6033 385.72 24.427 385.544L11.9108 373.032L10.3242 371.446L-3.77866 357.348C-3.95495 357.172 -5.36522 355.762 -5.36522 355.586L-16.6475 341.311L-16.6475 340.606C-16.6475 340.606 -15.9423 340.606 -15.9423 340.43C-15.9423 340.254 -13.2981 342.369 -13.1218 342.369L1.5099 353.823C1.68619 353.823 3.09647 355.233 3.27275 355.409L15.9653 368.098L17.5519 369.684L31.831 383.958C32.0073 384.134 33.4176 385.544 33.4176 385.72L44.5236 399.818L44.5236 400.523Z" fill="#344463"/>
<path d="M44.5236 461.321L44.5236 462.026L43.8184 462.026L13.6736 431.891L-16.4712 401.933L-16.4712 401.228L-15.5898 401.228L14.3788 431.186L44.5236 461.321Z" fill="#344463"/>
<path d="M470.958 461.321L470.958 462.026L470.253 462.026L440.108 431.891L409.963 401.933L409.963 401.228L410.845 401.228L440.813 431.186L470.958 461.321Z" fill="#344463"/>
<path d="M470.958 400.875L470.253 400.875L440.108 370.917L409.963 340.783L409.963 340.078L410.845 340.078L440.813 370.036L470.958 400.171L470.958 400.875Z" fill="#344463"/>
<path d="M470.958 339.902L470.253 339.902L440.108 309.767L409.963 279.809L409.963 278.928L410.845 278.928L440.813 309.062L470.958 339.02L470.958 339.902Z" fill="#344463"/>
<path d="M470.958 278.751L470.253 278.751L440.108 248.793L409.963 218.658L409.963 217.953L410.845 217.953L440.813 247.912L470.958 278.046L470.958 278.751Z" fill="#344463"/>
<path d="M470.958 217.777L470.253 217.777L440.108 187.643L409.963 157.508L409.963 156.803L410.845 156.803L440.813 186.938L470.958 216.896L470.958 217.777Z" fill="#344463"/>
<path d="M470.958 156.627L470.253 156.627L440.108 126.492L409.963 96.5341L409.963 95.653L410.845 95.653L440.813 125.788L470.958 155.922L470.958 156.627Z" fill="#344463"/>
<path d="M470.958 95.4768L470.253 95.4768L440.108 65.5184L409.963 35.3839L409.963 34.679L410.845 34.679L440.813 64.6373L470.958 94.7719L470.958 95.4768Z" fill="#344463"/>
<path d="M470.958 33.6216L470.958 34.5027L470.253 34.5027L440.108 4.36816L409.963 -25.7664L409.963 -26.4713L410.845 -26.4713L440.813 3.66326L470.958 33.6216Z" fill="#344463"/>
<path d="M409.963 462.026L409.258 462.026L379.29 431.891L349.145 401.933L349.145 401.228L349.85 401.228L379.995 431.186L409.963 461.321L409.963 462.026Z" fill="#344463"/>
<path d="M410.14 400.876L409.434 400.876L406.966 398.585L393.392 385.544L391.806 383.958L379.113 371.27L377.527 369.684L363.424 355.586L361.837 354L349.145 340.959L349.145 340.254L349.85 340.254L352.318 342.545L365.716 355.409L367.302 356.995L380.171 369.86L381.758 371.27L396.037 385.544L397.623 387.13L410.14 400.171L410.14 400.876Z" fill="#344463"/>
<path d="M410.14 339.725L409.434 339.725L406.966 337.434L393.216 324.57L391.63 322.984L378.937 310.296L377.35 308.71L363.248 294.612L361.661 293.025L349.321 279.809L349.321 279.104L350.026 279.104L352.494 281.395L366.068 294.083L367.655 295.669L380.524 308.533L381.934 309.943L396.213 324.217L397.8 325.803L410.14 339.02L410.14 339.725Z" fill="#344463"/>
<path d="M410.14 278.575L409.434 278.575C409.434 278.751 406.966 276.284 406.79 276.284L392.864 263.596C392.864 263.596 391.277 262.01 391.101 262.01L378.584 249.498L376.998 247.912L362.895 233.814L361.308 232.228L349.145 218.658L349.145 217.953L349.85 217.953C349.85 217.777 352.318 220.244 352.494 220.244L366.244 232.58C366.244 232.58 367.831 234.166 368.007 234.166L380.876 247.031L382.463 248.617L396.742 262.891C396.742 262.891 398.328 264.477 398.328 264.653L410.316 278.046L410.316 278.575L410.14 278.575Z" fill="#344463"/>
<path d="M410.14 217.425L409.434 217.425C409.434 217.601 406.966 215.31 406.79 215.31L392.511 202.974C392.511 202.974 390.924 201.388 390.748 201.388L378.232 188.876L376.645 187.29L362.542 173.192C362.542 173.192 360.956 171.606 360.956 171.43L348.968 157.684L348.968 156.979L349.674 156.979C349.674 156.803 352.142 159.094 352.318 159.094L366.244 171.254C366.244 171.254 367.831 172.84 368.007 172.84L380.7 185.528L382.286 187.114L396.566 201.388C396.566 201.388 398.152 202.974 398.152 203.15L409.963 216.72L409.963 217.425L410.14 217.425Z" fill="#344463"/>
<path d="M410.14 156.274C410.14 156.274 409.434 156.274 409.434 156.451C409.434 156.627 406.79 154.336 406.79 154.336L392.335 142.176C392.158 142.176 390.748 140.59 390.572 140.59L378.056 128.078L376.469 126.492L362.366 112.394C362.366 112.394 360.78 110.808 360.78 110.632L349.145 96.7103L349.145 96.0054C349.145 96.0054 349.85 96.0054 349.85 95.8291C349.85 95.6529 352.494 97.9439 352.494 97.9439L366.597 109.927C366.773 109.927 368.184 111.513 368.36 111.513L381.052 124.201L382.639 125.787L396.918 140.062C396.918 140.062 398.505 141.648 398.505 141.824L410.14 155.57L410.14 156.274Z" fill="#344463"/>
<path d="M410.14 95.1243C410.14 95.1243 409.434 95.1243 409.434 95.3005C409.434 95.4767 406.79 93.1858 406.614 93.1858L391.982 81.3787C391.806 81.3787 390.396 79.9689 390.219 79.7926L377.703 67.2806L376.116 65.6946L362.014 51.5966C362.014 51.5966 360.427 50.0105 360.427 49.8343L348.968 35.7363L348.968 35.0314C348.968 35.0314 349.674 35.0314 349.674 34.8551C349.674 34.6789 352.318 36.9699 352.494 36.9699L366.95 48.6007C367.126 48.6007 368.536 50.0105 368.712 50.1868L381.405 62.875L382.992 64.461L397.271 78.7353C397.271 78.7353 398.857 80.3213 398.857 80.4975L410.14 94.4194L410.14 95.1243Z" fill="#344463"/>
<path d="M410.14 33.974C410.14 33.974 409.434 33.974 409.434 34.1502C409.434 34.3265 406.79 32.2118 406.614 32.2118L391.806 20.5809C391.63 20.5809 390.219 19.1711 390.043 18.9949L377.527 6.48285L375.94 4.89682L361.837 -9.20122C361.661 -9.37745 360.251 -10.7872 360.251 -10.9635L348.968 -25.2377L348.968 -26.1189C348.968 -26.1189 349.674 -26.1189 349.674 -26.2951C349.674 -26.4713 352.318 -24.3566 352.494 -24.3566L367.126 -12.902C367.302 -12.902 368.712 -11.4922 368.889 -11.3159L381.581 1.37231L383.168 2.95834L397.447 17.2326C397.623 17.4088 399.034 18.8186 399.034 18.9949L410.14 33.0929L410.14 33.974Z" fill="#344463"/>
<path d="M349.145 462.026L348.44 462.026L318.295 431.891L288.15 401.933L288.15 401.228L289.031 401.228L319 431.186L349.145 461.321L349.145 462.026Z" fill="#344463"/>
<path d="M349.145 400.875L348.44 400.875L346.148 398.761L332.574 386.072C332.574 386.072 330.987 384.486 330.811 384.486L317.942 371.622L316.356 370.036L302.077 355.762L300.49 354.176L288.326 341.135L288.326 340.43L289.031 340.43L291.323 342.545L304.721 355.057L306.307 356.643L319.529 369.86L321.115 371.446L335.571 385.896L337.157 387.482L349.145 400.347L349.145 400.875Z" fill="#344463"/>
<path d="M349.145 339.549L348.44 339.549C348.44 339.725 346.148 337.61 345.972 337.61L331.869 325.451C331.869 325.451 330.282 323.865 330.106 323.865L317.237 311L315.651 309.414L301.371 295.14C301.371 295.14 299.785 293.554 299.785 293.378L287.974 279.809L287.974 279.104L288.679 279.104C288.679 278.927 290.971 281.042 291.147 281.042L304.897 293.025C304.897 293.025 306.484 294.611 306.66 294.611L320.058 307.828L321.644 309.414L336.1 323.865C336.1 323.865 337.686 325.451 337.686 325.627L349.321 338.844L349.321 339.549L349.145 339.549Z" fill="#344463"/>
<path d="M349.145 278.399C349.145 278.399 348.44 278.399 348.44 278.575C348.44 278.751 346.148 276.813 345.795 276.813L331.34 265.182C331.164 265.182 329.753 263.772 329.577 263.596L316.708 250.731L315.122 249.145L300.843 234.871C300.843 234.871 299.256 233.285 299.256 233.109L287.974 219.187L287.974 218.482C287.974 218.482 288.679 218.482 288.679 218.306C288.679 218.13 290.971 220.068 291.323 220.068L305.602 231.523C305.779 231.523 307.189 232.933 307.365 233.109L320.41 246.15L321.997 247.736L336.628 262.362C336.628 262.362 338.215 263.948 338.215 264.125L349.321 277.87L349.321 278.399L349.145 278.399Z" fill="#344463"/>
<path d="M349.145 217.249L348.44 217.425C348.44 217.601 345.972 215.839 345.795 215.839L330.987 204.56C330.811 204.56 329.401 203.15 329.225 202.974L316.356 190.11L314.769 188.524L300.49 174.25C300.314 174.073 298.903 172.663 298.903 172.487L288.15 158.213L288.15 157.508L288.855 157.332C288.855 157.156 291.323 158.918 291.499 158.918L306.131 169.844C306.307 169.844 307.718 171.254 307.894 171.43L320.939 184.471L322.526 186.057L337.157 200.683C337.334 200.86 338.744 202.269 338.744 202.446L349.321 216.544L349.321 217.249L349.145 217.249Z" fill="#344463"/>
<path d="M349.321 155.922L348.616 156.098C348.616 156.451 346.148 154.512 345.795 154.512L330.635 143.939C330.459 143.939 328.872 142.529 328.872 142.353L316.003 129.488L314.24 128.078L299.785 113.628C299.609 113.452 298.198 112.042 298.198 111.866L287.797 97.0628L287.797 96.3579L288.503 96.1816C288.503 95.8292 290.971 97.7677 291.323 97.7677L306.307 108.341C306.484 108.341 308.07 109.751 308.07 109.927L321.115 122.968L322.702 124.554L337.334 139.181C337.51 139.357 338.92 140.767 338.92 140.943L349.145 155.57L349.145 155.922L349.321 155.922Z" fill="#344463"/>
<path d="M349.321 94.7718L348.792 94.9481C348.616 95.3005 346.324 93.5383 345.972 93.5383L330.282 83.3172C330.106 83.3172 328.519 81.9074 328.519 81.9074L315.651 69.0429L314.064 67.4569L299.609 53.0064C299.432 52.8302 298.198 51.4204 298.198 51.2442L288.326 36.0888L288.326 35.3839L288.855 35.2076C289.031 34.8552 291.323 36.6174 291.676 36.6174L307.189 46.6623C307.365 46.6623 308.952 48.0721 308.952 48.0721L321.997 61.1128L323.583 62.6988L338.215 77.3255C338.391 77.5018 339.625 78.9116 339.625 79.0878L349.321 94.0669L349.321 94.7718Z" fill="#344463"/>
<path d="M349.321 33.6216C349.321 33.7978 348.792 33.7978 348.792 33.7978C348.616 34.1503 346.324 32.5642 345.795 32.5642L329.753 22.8718C329.401 22.8718 327.99 21.6383 327.814 21.462L315.122 8.77381L313.535 7.18778L299.08 -7.26271C298.903 -7.43893 297.669 -8.84873 297.669 -9.20119L288.326 -24.709L288.326 -25.5902C288.326 -25.7664 288.855 -25.7664 288.855 -25.7664C289.031 -26.1188 291.323 -24.5328 291.852 -24.5328L307.718 -15.0166C308.07 -15.0166 309.48 -13.783 309.657 -13.6068L322.702 -0.566137L324.288 1.01989L338.92 15.6466C339.096 15.8228 340.33 17.2326 340.33 17.5851L349.674 32.9167L349.674 33.6216L349.321 33.6216Z" fill="#344463"/>
<path d="M288.15 462.026L287.445 462.026L257.3 431.891L227.332 401.933L227.332 401.228L228.037 401.228L258.182 431.186L288.15 461.321L288.15 462.026Z" fill="#344463"/>
<path d="M288.326 400.699L287.621 400.699C287.621 400.875 285.329 398.761 285.329 398.761L271.579 386.425C271.579 386.425 269.993 384.839 269.816 384.839L256.771 371.798L255.185 370.212L240.906 355.938C240.906 355.938 239.319 354.352 239.319 354.176L227.508 340.959L227.508 340.254L228.213 340.254C228.213 340.078 230.505 342.192 230.505 342.192L244.079 354.352C244.079 354.352 245.665 355.938 245.841 355.938L259.063 369.155L260.649 370.741L275.105 385.191C275.105 385.191 276.691 386.777 276.691 386.954L288.503 399.994L288.503 400.699L288.326 400.699Z" fill="#344463"/>
<path d="M288.326 339.549C288.326 339.549 287.621 339.549 287.621 339.725C287.621 339.901 285.329 337.963 285.153 337.963L270.874 326.332C270.698 326.332 269.287 324.922 269.111 324.746L256.066 311.705L254.479 310.119L240.024 295.669C240.024 295.669 238.438 294.083 238.438 293.907L227.332 280.161L227.332 279.456C227.332 279.456 228.037 279.456 228.037 279.28C228.037 279.104 230.328 281.042 230.505 281.042L244.607 292.497C244.784 292.497 246.194 293.907 246.37 294.083L259.592 307.3L261.178 308.886L275.81 323.512C275.81 323.512 277.397 325.099 277.397 325.275L288.503 338.844L288.503 339.549L288.326 339.549Z" fill="#344463"/>
<path d="M288.326 278.222L287.621 278.399C287.621 278.751 285.329 276.989 285.153 276.989L270.169 266.239C269.993 266.239 268.406 264.829 268.406 264.653L255.361 251.612L253.774 250.026L239.319 235.576C239.143 235.4 237.732 233.99 237.732 233.814L227.332 219.363L227.332 218.658L228.037 218.482C228.037 218.13 230.328 219.892 230.681 219.892L245.489 230.642C245.665 230.642 247.252 232.051 247.252 232.228L260.473 245.445L262.06 247.031L276.691 261.657C276.868 261.834 278.278 263.243 278.278 263.42L288.503 277.694L288.503 278.222L288.326 278.222Z" fill="#344463"/>
<path d="M288.326 216.896L287.797 217.072C287.621 217.425 285.506 215.839 285.153 215.839L269.64 205.794C269.464 205.794 267.877 204.384 267.701 204.384L254.656 191.343L253.069 189.757L238.438 175.131C238.261 174.954 237.027 173.545 237.027 173.368L227.332 158.389L227.332 157.684L227.86 157.508C228.037 157.156 230.152 158.742 230.505 158.742L245.841 168.61C246.018 168.61 247.604 170.02 247.781 170.02L261.002 183.237L262.589 184.823L277.397 199.626C277.573 199.802 278.983 201.212 278.983 201.564L288.503 216.367L288.503 216.896L288.326 216.896Z" fill="#344463"/>
<path d="M288.326 155.746C288.326 155.922 287.797 155.922 287.797 156.098C287.621 156.627 285.506 155.217 284.977 155.217L268.759 145.877C268.406 145.877 266.996 144.644 266.819 144.467L253.774 131.427L252.188 129.841L237.556 115.214C237.38 115.038 236.146 113.628 236.146 113.276L227.155 97.7677L227.155 97.0628C227.155 96.8865 227.684 96.8865 227.684 96.7103C227.86 96.1816 229.976 97.5914 230.505 97.5914L246.37 106.755C246.723 106.755 248.133 107.989 248.31 108.165L261.531 121.382L263.117 122.968L277.925 137.771C278.102 137.947 279.336 139.357 279.336 139.709L288.15 155.041L288.15 155.746L288.326 155.746Z" fill="#344463"/>
<path d="M288.326 94.4194C288.326 94.5956 287.797 94.5956 287.797 94.7718C287.621 95.3005 285.506 94.0669 284.801 94.0669L268.053 85.6081C267.701 85.6081 266.291 84.3745 266.114 84.1983L253.069 71.1576L251.483 69.5716L236.675 54.7687C236.498 54.5924 235.264 53.1826 235.264 52.8302L226.979 36.6174L226.979 35.9125C226.979 35.7363 227.508 35.7363 227.508 35.5601C227.684 35.0314 229.8 36.265 230.505 36.265L247.076 44.7238C247.428 44.7238 248.838 45.9574 249.015 46.1336L262.236 59.3505L263.823 60.9365L278.807 75.9157C278.983 76.0919 280.217 77.5017 280.217 77.8542L288.326 93.8907L288.326 94.4194Z" fill="#344463"/>
<path d="M288.503 33.0929C288.503 33.2691 287.974 33.4454 287.974 33.4454C287.797 34.1503 285.682 32.9167 284.977 32.9167L267.525 25.1628C267.172 25.1628 265.762 24.1054 265.585 23.753L252.54 10.7123L250.777 8.95003L235.97 -5.85291C235.617 -6.20536 234.559 -7.43894 234.559 -7.79139L226.979 -24.5328L226.979 -25.2377C226.979 -25.4139 227.508 -25.5902 227.508 -25.5902C227.684 -26.2951 229.8 -25.0615 230.505 -25.0615L247.604 -17.4838C247.957 -17.4838 249.367 -16.4264 249.543 -16.074L262.765 -2.85707L264.351 -1.27104L279.336 13.7081C279.688 14.0606 280.746 15.2942 280.746 15.6466L288.15 32.2118L288.15 33.0929L288.503 33.0929Z" fill="#344463"/>
<path d="M227.332 462.026L226.45 462.026L196.482 431.891L166.337 401.933L166.337 401.228L167.042 401.228L197.187 431.186L227.332 461.321L227.332 462.026Z" fill="#344463"/>
<path d="M227.332 400.699L226.626 400.699C226.45 400.699 224.864 399.289 224.864 399.289L210.937 387.13C210.937 387.13 209.35 385.544 209.174 385.544L196.305 372.679L195.6 371.974L194.719 371.093L180.087 356.467C180.087 356.467 178.5 354.881 178.5 354.704L166.866 341.135L166.513 340.606L166.513 339.901L167.218 339.901C167.395 339.901 168.981 341.311 168.981 341.311L182.731 353.295C182.731 353.295 184.318 354.881 184.494 354.881L197.539 367.921L198.244 368.626L199.126 369.507L213.758 384.134C213.758 384.134 215.344 385.72 215.344 385.896L226.979 399.289L227.332 399.818C227.332 400.17 227.332 400.699 227.332 400.699Z" fill="#344463"/>
<path d="M227.332 339.549L226.626 339.725C226.45 339.725 224.864 338.492 224.687 338.492L209.879 327.389C209.703 327.389 208.293 325.98 208.116 325.803L195.071 312.763L194.366 312.058L193.485 311.177L178.853 296.55C178.677 296.374 177.266 294.964 177.266 294.788L166.513 280.513L166.16 279.985L166.337 279.28L167.042 279.104C167.218 279.104 168.805 280.337 168.981 280.337L183.613 291.263C183.789 291.263 185.199 292.673 185.376 292.849L198.597 306.066L199.302 306.771L200.184 307.652L214.992 322.455C215.168 322.631 216.578 324.041 216.578 324.217L227.155 338.315L227.508 338.844C227.332 338.844 227.332 339.549 227.332 339.549Z" fill="#344463"/>
<path d="M227.332 278.222C227.332 278.399 226.803 278.399 226.626 278.399C226.274 278.399 224.864 277.341 224.511 277.341L208.998 267.296C208.822 267.296 207.235 265.887 207.235 265.887L194.19 252.846L193.485 252.141L192.603 251.26L177.795 236.457C177.619 236.281 176.385 234.871 176.385 234.695L166.689 219.716L166.513 219.187C166.513 219.187 166.689 218.658 166.689 218.482C166.689 218.306 167.218 218.306 167.394 218.306C167.747 218.306 169.157 219.363 169.51 219.363L184.847 229.232C185.023 229.232 186.61 230.642 186.61 230.642L199.831 243.858L200.536 244.563L201.418 245.445L216.226 260.247C216.402 260.424 217.812 261.834 217.812 262.186L227.332 276.989L227.508 277.518C227.332 277.694 227.332 278.222 227.332 278.222Z" fill="#344463"/>
<path d="M227.155 217.072C227.155 217.249 226.626 217.249 226.45 217.249C226.098 217.249 224.687 216.367 224.335 216.367L207.94 207.38C207.588 207.38 206.177 206.146 206.001 205.97L192.956 192.929L192.251 192.225L191.369 191.343L176.561 176.54C176.385 176.364 175.151 174.954 175.151 174.602L166.513 158.918L166.337 158.389C166.337 158.213 166.513 157.861 166.513 157.861C166.513 157.684 167.042 157.684 167.218 157.684C167.571 157.684 168.981 158.565 169.334 158.565L185.376 167.377C185.728 167.377 187.138 168.61 187.315 168.787L200.712 182.18L201.418 182.885L202.299 183.766L217.283 198.745C217.46 198.921 218.694 200.331 218.694 200.683L227.332 216.191L227.508 216.72C227.508 216.544 227.332 216.896 227.155 217.072Z" fill="#344463"/>
<path d="M227.155 155.746C227.155 155.922 226.803 156.098 226.45 156.098C225.921 156.274 224.687 155.57 224.158 155.57L207.059 147.639C206.706 147.639 205.296 146.582 205.12 146.23L191.898 133.013L191.193 132.308L190.312 131.427L175.327 116.448C174.975 116.095 173.917 114.861 173.917 114.509L166.337 97.9438L166.16 97.4152C166.16 97.2389 166.337 96.8865 166.513 96.8865C166.513 96.7103 166.866 96.534 167.218 96.534C167.747 96.3578 168.981 97.0627 169.51 97.0627L186.433 104.817C186.786 104.817 188.196 105.874 188.372 106.226L201.77 119.62L202.475 120.324L203.357 121.206L218.517 136.361C218.87 136.713 219.928 137.947 219.928 138.299L227.508 154.512L227.684 155.217C227.508 155.217 227.332 155.57 227.155 155.746Z" fill="#344463"/>
<path d="M227.155 94.4194C227.155 94.5956 226.803 94.7718 226.626 94.7718C226.097 94.948 224.687 94.4194 224.158 94.4194L206.354 87.5466C205.825 87.5466 204.591 86.4892 204.238 86.1368L191.017 72.9199L190.312 72.0387L189.43 71.1576L174.446 56.1784C174.093 55.826 173.036 54.5924 173.036 54.0637L166.337 36.7936L166.337 36.0887C166.337 35.9125 166.689 35.7363 166.689 35.5601C166.689 35.3838 167.042 35.2076 167.218 35.2076C167.747 35.0314 169.157 35.5601 169.686 35.5601L187.315 42.2566C187.844 42.2566 189.078 43.314 189.43 43.6664L203.004 57.2358L203.709 57.9407L204.591 58.8218L219.751 73.9772C220.104 74.3297 221.161 75.5632 221.161 76.0919L227.684 93.1858L227.684 93.8907C227.508 94.0669 227.332 94.4194 227.155 94.4194Z" fill="#344463"/>
<path d="M227.508 32.7404C227.508 32.9166 227.155 33.0928 227.155 33.2691C226.979 34.1502 225.04 33.6215 223.982 33.6215L205.472 27.8061C204.943 27.8061 203.709 26.9249 203.357 26.5725L189.959 13.1794L188.196 11.4171L173.036 -3.73829C172.683 -4.09074 171.802 -5.32432 171.802 -5.853L166.16 -23.828L166.16 -24.7091C166.16 -24.8853 166.513 -25.0616 166.513 -25.2378C166.689 -26.1189 168.628 -25.5902 169.686 -25.5902L188.02 -19.951C188.549 -19.951 189.783 -19.0699 190.135 -18.7175L203.709 -5.14809L205.472 -3.38584L220.809 11.9458C221.162 12.2982 222.043 13.5318 222.043 14.0605L227.684 31.8593L227.684 32.7404L227.508 32.7404Z" fill="#344463"/>
<path d="M166.337 462.026L165.632 462.026L135.487 431.891L105.518 401.933L105.518 401.228L106.223 401.228L136.368 431.186L166.337 461.321L166.337 462.026Z" fill="#344463"/>
<path d="M166.337 400.699C166.337 400.699 165.632 400.699 165.632 400.875C165.455 400.875 163.869 399.466 163.693 399.466L149.413 387.482C149.237 387.482 147.827 385.896 147.651 385.896L134.958 373.032L134.253 372.327L133.371 371.446L118.916 356.995C118.916 356.995 117.329 355.409 117.329 355.233L105.695 341.487L105.342 340.959L105.342 340.254C105.342 340.254 106.047 340.254 106.047 340.078C106.223 340.078 107.81 341.487 107.986 341.487L122.089 353.295C122.265 353.295 123.676 354.881 123.852 354.881L136.897 367.921L137.602 368.626L138.484 369.507L153.115 384.134C153.115 384.134 154.702 385.72 154.702 385.896L166.16 399.466L166.513 399.994C166.337 399.994 166.337 400.699 166.337 400.699Z" fill="#344463"/>
<path d="M166.337 339.373C166.337 339.373 165.808 339.549 165.632 339.549C165.455 339.725 163.869 338.315 163.516 338.315L148.356 327.742C148.179 327.742 146.593 326.332 146.593 326.156L133.548 313.115L132.843 312.41L131.961 311.353L117.329 296.726C117.153 296.55 115.743 295.14 115.743 294.964L105.518 280.337L105.166 279.808L105.166 279.104C105.166 279.104 105.695 278.927 105.871 278.927C106.047 278.751 107.634 280.161 107.986 280.161L122.971 290.558C123.147 290.558 124.733 291.968 124.733 292.144L137.955 305.361L138.66 306.066L139.541 306.947L154.349 321.75C154.526 321.926 155.936 323.336 155.936 323.512L165.984 337.963L166.337 338.492C166.513 338.844 166.337 339.373 166.337 339.373Z" fill="#344463"/>
<path d="M166.337 278.223C166.337 278.399 165.808 278.399 165.632 278.575C165.279 278.751 163.869 277.694 163.34 277.694L147.122 268.53C146.769 268.53 145.359 267.297 145.183 267.12L132.137 254.08L131.432 253.375L130.375 252.317L115.567 237.514C115.39 237.338 114.156 235.928 114.156 235.576L105.166 219.892L104.989 219.363C104.989 219.187 105.166 218.658 105.166 218.658C105.166 218.482 105.695 218.482 105.871 218.306C106.223 218.13 107.634 219.187 108.163 219.187L124.028 228.351C124.381 228.351 125.791 229.584 125.967 229.76L139.189 242.977L139.894 243.682L140.775 244.563L155.76 259.543C155.936 259.719 157.17 261.129 157.17 261.481L165.984 276.813L166.16 277.341C166.513 277.518 166.337 278.046 166.337 278.223Z" fill="#344463"/>
<path d="M166.337 216.896C166.337 217.072 165.808 217.249 165.808 217.249C165.455 217.425 164.045 216.72 163.516 216.72L146.417 208.79C146.064 208.79 144.654 207.732 144.477 207.38L131.256 194.163L130.551 193.458L129.493 192.401L114.509 177.422C114.156 177.069 113.099 175.836 113.099 175.483L105.518 158.918L105.342 158.389C105.342 158.213 105.518 157.861 105.518 157.684C105.518 157.508 106.047 157.332 106.047 157.332C106.4 157.156 107.81 157.861 108.339 157.861L125.262 165.614C125.615 165.614 127.025 166.672 127.201 167.024L140.599 180.417L141.304 181.122L142.186 182.003L157.346 197.159C157.699 197.511 158.757 198.745 158.757 199.097L166.337 215.31L166.513 215.839C166.513 216.191 166.513 216.72 166.337 216.896Z" fill="#344463"/>
<path d="M166.337 155.57C166.337 155.746 165.984 155.922 165.808 156.098C165.279 156.451 163.869 155.922 163.34 155.922L145.359 149.402C144.83 149.402 143.596 148.344 143.243 147.992L129.846 134.599L129.141 133.894L128.083 132.836L112.922 117.681C112.57 117.329 111.512 116.095 111.512 115.566L105.166 98.1201L104.989 97.4152C104.989 97.2389 105.166 96.8865 105.166 96.7103C105.166 96.534 105.518 96.3578 105.695 96.1816C106.223 95.8291 107.634 96.3578 108.163 96.3578L125.967 102.878C126.496 102.878 127.73 103.936 128.083 104.288L141.657 117.857L142.362 118.562L143.42 119.62L158.756 134.951C159.109 135.304 160.167 136.537 160.167 137.066L166.513 154.16L166.689 154.865C166.689 155.041 166.513 155.393 166.337 155.57Z" fill="#344463"/>
<path d="M166.513 94.2432C166.513 94.4194 166.16 94.5956 165.984 94.7719C165.455 95.1243 164.045 94.9481 163.34 94.9481L144.301 89.6613C143.772 89.6613 142.538 88.7802 142.186 88.4277L128.612 74.8584L127.907 74.1535L126.849 73.0961L111.512 57.7645C111.159 57.4121 110.278 56.1785 110.278 55.6498L105.166 37.3224L105.166 36.6174C105.166 36.4412 105.342 36.0888 105.342 35.9126C105.342 35.7363 105.695 35.5601 105.871 35.3839C106.4 35.0314 107.81 35.2076 108.515 35.2076L127.201 40.3182C127.73 40.3182 128.964 41.1993 129.317 41.5518L143.067 55.2974L143.772 56.0023L144.83 57.0596L160.343 72.5675C160.696 72.9199 161.577 74.1535 161.577 74.6822L166.689 92.8334L166.689 93.5383C166.689 93.7145 166.513 94.067 166.513 94.2432Z" fill="#344463"/>
<path d="M166.689 32.2117C166.689 32.388 166.513 32.7404 166.337 32.9167C165.984 33.974 164.221 33.974 163.164 33.974L143.243 30.097C142.538 30.097 141.48 29.3921 140.952 28.8635L127.201 15.1179L125.439 13.3556L109.925 -2.15222C109.397 -2.68089 108.691 -3.73824 108.691 -4.44315L104.989 -23.4755L104.989 -24.3566C104.989 -24.5328 105.166 -24.8853 105.342 -25.0615C105.695 -26.1189 107.457 -26.1189 108.515 -26.1189L128.259 -22.2419C128.964 -22.2419 130.022 -21.537 130.551 -21.0083L144.477 -7.08653L146.24 -5.32427L161.93 10.3598C162.458 10.8885 163.164 11.9458 163.164 12.6507L166.866 31.6831L166.866 32.2117L166.689 32.2117Z" fill="#344463"/>
<path d="M105.518 462.026L104.637 462.026L74.6684 431.891L44.5235 401.933L44.5235 401.228L45.2287 401.228L75.3735 431.186L105.518 461.321L105.518 462.026Z" fill="#344463"/>
<path d="M105.518 400.699C105.518 400.699 104.813 400.699 104.813 400.875C104.637 401.052 102.874 399.289 102.698 399.289L88.2423 387.482C88.066 387.482 86.6558 386.072 86.4795 385.896L73.7869 373.208L73.0818 372.503L72.2003 371.622L57.9212 357.348C57.9212 357.348 56.3347 355.762 56.3347 355.585L44.8761 341.487L44.5235 340.959L44.5235 340.254C44.5235 340.254 45.2287 340.254 45.2287 340.078C45.405 339.901 47.1678 341.664 47.3441 341.664L61.6232 353.295C61.7995 353.295 63.2098 354.704 63.3861 354.881L76.2549 367.745L76.7838 368.274L77.6652 369.155L92.1206 383.605C92.1206 383.605 93.7072 385.191 93.7072 385.368L104.989 399.289L105.342 399.818C105.518 399.994 105.518 400.699 105.518 400.699Z" fill="#344463"/>
<path d="M105.518 339.373C105.518 339.373 104.989 339.549 104.813 339.549C104.637 339.725 102.874 338.492 102.521 338.492L86.832 328.447C86.6558 328.447 85.0692 327.213 85.0692 327.037L72.2003 314.173L71.4952 313.468L70.4375 312.41L55.8058 297.784C55.6295 297.607 54.3955 296.198 54.3955 296.021L44.5235 280.866L44.171 280.337L44.171 279.632C44.171 279.632 44.6998 279.456 44.8761 279.456C45.0524 279.28 46.8153 280.513 47.1678 280.513L62.6809 290.558C62.8572 290.558 64.4438 291.968 64.4438 291.968L77.4889 305.009L78.0178 305.537L79.0755 306.595L93.7072 321.222C93.8835 321.398 95.1175 322.808 95.1175 322.984L104.813 337.963L105.166 338.492C105.518 338.668 105.518 339.373 105.518 339.373Z" fill="#344463"/>
<path d="M105.518 278.046C105.518 278.223 104.989 278.223 104.989 278.399C104.637 278.751 103.05 277.694 102.521 277.694L85.7743 269.235C85.4218 269.235 84.0115 268.001 83.8352 267.825L70.7901 254.785L70.0849 254.08L69.0272 253.022L54.2192 238.219C54.043 238.043 52.809 236.633 52.809 236.281L44.5235 220.068L44.3473 219.539C44.3473 219.363 44.3473 218.835 44.5235 218.835C44.5235 218.658 45.0524 218.658 45.0524 218.482C45.405 218.13 46.9915 219.187 47.5204 219.187L64.0912 227.47C64.4438 227.47 65.8541 228.703 66.0304 228.879L79.4281 242.273L79.9569 242.801L81.0146 243.859L95.9989 258.838C96.1752 259.014 97.4092 260.424 97.4092 260.776L105.518 276.813L105.695 277.341C105.695 277.341 105.518 277.87 105.518 278.046Z" fill="#344463"/>
<path d="M105.518 216.72C105.518 216.896 104.99 217.072 104.99 217.072C104.637 217.601 103.05 216.896 102.522 216.896L84.7167 210.023C84.1878 210.023 82.9538 208.966 82.6013 208.613L69.2036 195.22L68.4984 194.515L67.4407 193.458L52.2802 178.303C51.9276 177.95 50.8699 176.717 50.8699 176.188L44.171 158.918L43.9947 158.213C43.9947 158.037 43.9948 157.508 44.171 157.508C44.171 157.332 44.6999 157.156 44.6999 157.156C45.0525 156.627 46.639 157.332 47.1679 157.332L64.7964 164.028C65.3253 164.028 66.5593 165.086 66.9118 165.438L80.4858 179.008L81.0147 179.536L82.0724 180.594L97.233 195.749C97.5855 196.101 98.6432 197.335 98.6432 197.864L105.166 214.958L105.342 215.662C105.695 216.015 105.695 216.544 105.518 216.72Z" fill="#344463"/>
<path d="M105.695 155.393C105.695 155.57 105.342 155.746 105.166 155.922C104.637 156.451 103.227 156.098 102.521 156.098L83.4826 150.811C82.9538 150.811 81.7198 149.93 81.3672 149.578L67.7932 136.009L67.0881 135.304L66.0304 134.246L50.6935 118.915C50.341 118.562 49.4595 117.329 49.4595 116.8L44.3473 98.4725L44.171 97.7676C44.171 97.5914 44.3473 97.2389 44.3473 97.0627C44.3473 96.8865 44.6998 96.7102 44.8761 96.534C45.405 96.0053 46.8153 96.3578 47.5204 96.3578L66.2067 101.468C66.7355 101.468 67.9695 102.349 68.3221 102.702L82.0723 116.447L82.7775 117.152L83.8352 118.21L99.3483 133.718C99.7009 134.07 100.582 135.304 100.582 135.832L105.518 153.984L105.695 154.688C105.695 154.688 105.695 155.217 105.695 155.393Z" fill="#344463"/>
<path d="M105.695 94.0669C105.695 94.2431 105.342 94.5956 105.342 94.7718C104.813 95.4767 103.403 95.4767 102.521 95.4767L82.4249 91.9522C81.7198 91.9522 80.6621 91.2473 80.1332 90.7186L66.383 76.9731L65.6778 76.2681L64.6201 75.2108L48.9307 59.5267C48.4018 58.998 47.6967 57.9407 47.6967 57.2358L44.171 37.851L44.171 37.1461C44.171 36.9699 44.3473 36.6174 44.3473 36.4412C44.3473 36.265 44.6999 35.9125 44.6999 35.7363C45.2287 35.0314 46.639 35.0314 47.5204 35.0314L67.4407 38.5559C68.1458 38.5559 69.2035 39.2608 69.7324 39.7895L83.6589 53.7113L84.3641 54.4162L85.4218 55.4735L101.111 71.1576C101.64 71.6863 102.345 72.7436 102.345 73.4485L105.695 92.6571L105.695 93.362C105.871 93.362 105.695 93.7145 105.695 94.0669Z" fill="#344463"/>
<path d="M105.871 31.8593C105.871 32.2118 105.695 32.388 105.695 32.5642C105.342 33.7978 103.755 34.5027 102.345 34.5027L81.1909 32.5642C80.3094 32.5642 79.428 32.0356 78.8991 31.5069L64.7963 17.5851L63.0335 15.8228L47.1678 -0.0374767C46.6389 -0.566154 46.1101 -1.62351 46.1101 -2.32841L44.1709 -22.7706L44.1709 -23.8279C44.1709 -24.1804 44.3472 -24.3566 44.3472 -24.5328C44.6998 -25.7664 46.2864 -26.4713 47.6966 -26.4713L68.6746 -24.5328C69.556 -24.5328 70.4375 -24.0041 71.1426 -23.4755L85.4217 -9.2012L87.1846 -7.43894L103.227 8.59758C103.755 9.12625 104.284 10.1836 104.284 10.8885L106.223 30.9782L106.223 31.8593L105.871 31.8593Z" fill="#344463"/>
<path d="M18.9623 35.0314L41.5268 35.0314C43.4659 35.0314 45.0525 33.4454 45.0525 31.5069L45.0525 9.30247C45.0525 8.42134 44.6999 7.54021 43.9948 6.83531L27.6002 -9.55366L11.2057 -25.9426C10.6768 -26.6475 9.79539 -27 8.73768 -27L-13.4743 -27C-15.4134 -27 -17 -25.414 -17 -23.4755L-17 -0.918615C-17 -0.0374863 -16.6474 0.843642 -15.9423 1.54854L0.276003 17.7613L16.4942 33.974C17.1994 34.6789 18.0808 35.0314 18.9623 35.0314Z" fill="#344463"/>
</g>
<defs>
<clipPath id="clip0_2_5860">
<rect x="471" y="2.05881e-05" width="462" height="471" rx="20" transform="rotate(90 471 2.05881e-05)" fill="white"/>
</clipPath>
</defs>
</svg>
