<svg width="498" height="498" viewBox="0 0 498 498" fill="none" xmlns="http://www.w3.org/2000/svg">
<path d="M344.966 201.319H342.774L330.174 203.511C329.626 203.511 328.895 204.059 328.53 204.425L305.338 227.626C304.972 227.991 304.425 228.722 304.425 229.27L301.868 243.885C301.868 244.433 301.685 244.981 302.051 245.346C302.416 245.712 302.964 246.625 303.512 246.625H305.703L318.486 244.433C319.034 244.433 319.765 243.885 320.13 243.519L343.14 220.501C343.505 220.136 344.053 219.405 344.053 218.857L346.61 204.059C346.61 203.511 346.792 202.963 346.427 202.598C346.062 202.05 345.514 201.319 344.966 201.319Z" fill="#35435A" fill-opacity="0.2"/>
<path d="M344.966 151.081H342.774L330.174 153.273C329.626 153.273 328.895 153.821 328.53 154.186L305.338 177.387C304.972 177.753 304.425 178.484 304.425 179.032L301.868 193.646C301.868 194.194 301.685 194.742 302.051 195.108C302.416 195.473 302.964 196.387 303.512 196.387H305.703L318.486 194.194C319.034 194.194 319.765 193.646 320.13 193.281L343.14 170.263C343.505 169.897 344.053 169.167 344.053 168.618L346.61 153.821C346.61 153.273 346.792 152.725 346.427 152.359C346.062 151.811 345.514 151.081 344.966 151.081Z" fill="#35435A" fill-opacity="0.2"/>
<path d="M495.991 50.2384L452.528 93.7175V95.7271H454.537L498 52.248V50.2384H495.991Z" fill="#35435A" fill-opacity="0.2"/>
<path d="M495.991 100.477L452.528 144.139V145.966H454.537L498 102.486V100.477H495.991Z" fill="#35435A" fill-opacity="0.2"/>
<path d="M495.991 150.898L452.528 194.377V196.387H454.537L498 152.908V150.898H495.991Z" fill="#35435A" fill-opacity="0.2"/>
<path d="M495.991 201.136L452.528 244.616V246.625H454.537L498 203.146V201.136H495.991Z" fill="#35435A" fill-opacity="0.2"/>
<path d="M296.572 220.318V203.877C296.572 202.415 295.476 201.319 294.015 201.319H277.945C277.214 201.319 276.667 201.502 276.119 202.05L252.378 225.799C251.831 226.347 251.648 226.895 251.648 227.626V243.702C251.648 245.164 252.744 246.26 254.205 246.26H270.64C271.371 246.26 271.919 246.077 272.466 245.529L295.842 221.78C296.207 221.597 296.572 221.049 296.572 220.318Z" fill="#35435A" fill-opacity="0.2"/>
<path d="M294.746 151.081H292.554L279.954 153.273C279.406 153.273 278.675 153.821 278.31 154.186L255.118 177.387C254.752 177.753 254.205 178.484 254.205 179.032L251.648 193.646C251.648 194.194 251.465 194.742 251.831 195.108C252.196 195.473 252.744 196.387 253.291 196.387H255.483L268.266 194.194C268.814 194.194 269.545 193.646 269.91 193.281L292.92 170.263C293.285 169.897 293.833 169.167 293.833 168.618L296.389 153.821C296.389 153.273 296.572 152.725 296.207 152.359C295.842 151.811 295.294 151.081 294.746 151.081Z" fill="#35435A" fill-opacity="0.2"/>
<path d="M395.916 201.319H393.725L382.403 205.704C382.037 205.704 381.124 206.434 380.942 206.617L358.662 228.905C358.48 229.087 357.749 230.183 357.749 230.366L352.636 243.519C352.636 243.885 352.271 244.616 352.453 244.981C352.636 245.346 353.001 246.442 353.366 246.442H355.558L367.063 242.058C367.428 242.058 368.341 241.327 368.524 241.145L390.62 219.04C390.803 218.857 391.534 217.761 391.534 217.578L396.647 204.242C396.647 203.877 397.012 203.146 396.83 202.781C396.647 202.415 396.282 201.319 395.916 201.319Z" fill="#35435A" fill-opacity="0.2"/>
<path d="M395.916 150.898H393.725L382.403 155.282C382.037 155.282 381.124 156.013 380.942 156.196L358.662 178.484C358.48 178.666 357.749 179.762 357.749 179.945L352.636 193.098C352.636 193.464 352.271 194.194 352.453 194.56C352.636 194.925 353.001 196.021 353.366 196.021H355.558L367.063 191.637C367.428 191.637 368.341 190.906 368.524 190.723L390.62 168.618C390.803 168.436 391.534 167.34 391.534 167.157L396.647 153.821C396.647 153.456 397.012 152.725 396.83 152.359C396.647 152.177 396.282 150.898 395.916 150.898Z" fill="#35435A" fill-opacity="0.2"/>
<path d="M395.916 100.66H393.725L382.403 105.044C382.037 105.044 381.124 105.775 380.942 105.957L358.662 128.245C358.48 128.428 357.749 129.524 357.749 129.707L352.636 142.86C352.636 143.225 352.271 143.956 352.453 144.321C352.636 144.687 353.001 145.783 353.366 145.783H355.558L367.063 141.398C367.428 141.398 368.341 140.668 368.524 140.485L390.62 118.38C390.803 118.197 391.534 117.101 391.534 116.919L396.647 103.583C396.647 103.217 397.012 102.486 396.83 102.121C396.647 101.756 396.282 100.66 395.916 100.66Z" fill="#35435A" fill-opacity="0.2"/>
<path d="M345.696 100.66H343.505L332.183 105.044C331.817 105.044 330.904 105.775 330.722 105.957L308.442 128.245C308.26 128.428 307.529 129.524 307.529 129.707L302.416 142.86C302.416 143.225 302.051 143.956 302.233 144.321C302.416 144.687 302.781 145.783 303.146 145.783H305.338L316.843 141.398C317.208 141.398 318.121 140.668 318.304 140.485L340.4 118.38C340.583 118.197 341.314 117.101 341.314 116.919L346.427 103.583C346.427 103.217 346.792 102.486 346.609 102.121C346.427 101.756 346.062 100.66 345.696 100.66Z" fill="#35435A" fill-opacity="0.2"/>
<path d="M295.294 100.66H293.285L281.963 105.044C281.597 105.044 280.684 105.775 280.502 105.957L258.222 128.245C258.04 128.428 257.309 129.524 257.309 129.707L252.196 142.86C252.196 143.225 251.831 143.956 252.013 144.321C252.196 144.687 252.561 145.783 252.926 145.783H255.118L266.623 141.398C266.988 141.398 267.901 140.668 268.084 140.485L290.18 118.38C290.363 118.197 291.093 117.101 291.093 116.919L296.207 103.583C296.207 103.217 296.572 102.486 296.389 102.121C296.207 101.756 295.842 100.66 295.294 100.66Z" fill="#35435A" fill-opacity="0.2"/>
<path d="M446.867 201.319H444.858L434.814 207.896C434.632 207.896 433.536 208.809 433.353 208.992L411.622 230.731C411.439 230.914 410.526 232.01 410.526 232.193L402.856 243.885C402.856 244.068 402.125 244.981 402.125 245.164C402.308 245.346 402.491 246.808 402.673 246.808H404.682L414.726 240.231C414.909 240.231 416.004 239.135 416.187 239.135L437.736 217.578C437.919 217.395 438.832 216.299 438.832 216.117L446.502 204.425C446.502 204.242 447.232 203.329 447.232 203.146C447.232 202.781 447.232 201.319 446.867 201.319Z" fill="#35435A" fill-opacity="0.2"/>
<path d="M446.867 150.898H444.858L434.814 157.475C434.632 157.475 433.536 158.388 433.353 158.571L411.622 180.31C411.439 180.493 410.526 181.589 410.526 181.772L402.856 193.464C402.856 193.646 402.125 194.56 402.125 194.742C402.308 194.925 402.491 196.387 402.673 196.387H404.682L414.726 189.81C414.909 189.81 416.004 188.714 416.187 188.714L437.736 167.157C437.919 166.974 438.832 165.878 438.832 165.696L446.502 154.004C446.502 153.821 447.232 152.908 447.232 152.725C447.232 152.542 447.232 150.898 446.867 150.898Z" fill="#35435A" fill-opacity="0.2"/>
<path d="M446.867 100.66H444.858L434.814 107.236C434.632 107.236 433.536 108.15 433.353 108.332L411.622 130.072C411.439 130.255 410.526 131.351 410.526 131.533L402.856 143.225C402.856 143.408 402.125 144.321 402.125 144.504C402.308 144.687 402.491 146.148 402.673 146.148H404.682L414.726 139.572C414.909 139.572 416.004 138.475 416.187 138.475L437.736 116.919C437.919 116.736 438.832 115.64 438.832 115.457L446.684 103.583C446.684 103.4 447.415 102.486 447.415 102.304C447.232 102.121 447.232 100.66 446.867 100.66Z" fill="#35435A" fill-opacity="0.2"/>
<path d="M446.867 50.2384H444.858L434.814 56.8151C434.632 56.8151 433.536 57.7285 433.353 57.9112L411.622 79.6508C411.439 79.8335 410.526 80.9296 410.526 81.1123L402.856 92.8041C402.856 92.9868 402.125 93.9002 402.125 94.0829C402.308 94.2656 402.491 95.7271 402.673 95.7271H404.682L414.726 89.1504C414.909 89.1504 416.004 88.0543 416.187 88.0543L437.736 66.4974C437.919 66.3148 438.832 65.2186 438.832 65.036L446.502 53.3441C446.502 53.1614 447.232 52.248 447.232 52.0653C447.232 51.8826 447.232 50.2384 446.867 50.2384Z" fill="#35435A" fill-opacity="0.2"/>
<path d="M396.647 50.2384H394.638L384.594 56.8151C384.411 56.8151 383.316 57.7285 383.133 57.9112L361.402 79.6508C361.219 79.8335 360.306 80.9296 360.306 81.1123L352.636 92.8041C352.636 92.9868 351.905 93.9002 351.905 94.0829C352.088 94.2656 352.271 95.7271 352.453 95.7271H354.462L364.506 89.1504C364.689 89.1504 365.784 88.0543 365.967 88.0543L387.516 66.4974C387.699 66.3148 388.612 65.2186 388.612 65.036L396.282 53.3441C396.282 53.1614 397.012 52.248 397.012 52.0653C397.012 51.8826 396.829 50.2384 396.647 50.2384Z" fill="#35435A" fill-opacity="0.2"/>
<path d="M346.427 50.2384H344.418L334.374 56.8151C334.191 56.8151 333.096 57.7285 332.913 57.9112L311.182 79.6508C310.999 79.8335 310.086 80.9296 310.086 81.1123L302.416 92.6214C302.416 92.8041 301.685 93.7175 301.685 93.9002C301.868 94.0829 302.051 95.5444 302.233 95.5444H304.242L314.286 88.9677C314.469 88.9677 315.564 87.8716 315.747 87.8716L337.296 66.3148C337.479 66.1321 338.392 65.0359 338.392 64.8533L346.062 53.1614C346.062 52.9787 346.792 52.0653 346.792 51.8826C346.792 51.8826 346.609 50.2384 346.427 50.2384Z" fill="#35435A" fill-opacity="0.2"/>
<path d="M296.024 50.2384H294.016L283.971 56.8151C283.789 56.8151 282.693 57.7285 282.51 57.9112L260.779 79.6508C260.596 79.8335 259.683 80.9296 259.683 81.1123L252.013 92.8041C252.013 92.9868 251.283 93.9002 251.283 94.0829C251.465 94.2656 251.648 95.7271 251.831 95.7271H253.839L263.883 89.1504C264.066 89.1504 265.162 88.0543 265.344 88.0543L286.893 66.4974C287.076 66.3148 287.989 65.2186 287.989 65.036L295.659 53.3441C295.659 53.1614 296.389 52.248 296.389 52.0653C296.389 51.8826 296.207 50.2384 296.024 50.2384Z" fill="#35435A" fill-opacity="0.2"/>
<path d="M294.746 0L251.283 43.4791V45.4886H253.292L296.755 2.00954V0L294.746 0Z" fill="#35435A" fill-opacity="0.2"/>
<path d="M346.975 2.00954V0L345.149 0L323.234 21.7395L301.503 43.4791V45.4886H303.512L346.975 2.00954Z" fill="#35435A" fill-opacity="0.2"/>
<path d="M397.377 2.00954V0L395.369 0L351.905 43.4791V45.4886H353.914L397.377 2.00954Z" fill="#35435A" fill-opacity="0.2"/>
<path d="M447.597 2.00954V0L445.589 0L402.125 43.4791V45.4886H404.134L447.597 2.00954Z" fill="#35435A" fill-opacity="0.2"/>
<path d="M495.991 0L452.528 43.4791V45.4886H454.537L498 2.00954V0L495.991 0Z" fill="#35435A" fill-opacity="0.2"/>
<path d="M344.966 296.681H342.774L330.174 294.489C329.626 294.489 328.895 293.941 328.53 293.575L305.338 270.374C304.972 270.009 304.425 269.278 304.425 268.73L301.868 254.115C301.868 253.567 301.685 253.019 302.051 252.654C302.416 252.288 302.964 251.375 303.512 251.375H305.703L318.486 253.567C319.034 253.567 319.765 254.115 320.13 254.481L343.14 277.499C343.505 277.864 344.053 278.595 344.053 279.143L346.61 293.941C346.61 294.489 346.792 295.037 346.427 295.402C346.062 295.95 345.514 296.681 344.966 296.681Z" fill="#35435A" fill-opacity="0.2"/>
<path d="M344.966 346.919H342.774L330.174 344.727C329.626 344.727 328.895 344.179 328.53 343.814L305.338 320.613C304.972 320.247 304.425 319.516 304.425 318.968L301.868 304.354C301.868 303.806 301.685 303.258 302.051 302.892C302.416 302.527 302.964 301.613 303.512 301.613H305.703L318.486 303.806C319.034 303.806 319.765 304.354 320.13 304.719L343.14 327.737C343.505 328.103 344.053 328.833 344.053 329.382L346.61 344.179C346.61 344.727 346.792 345.275 346.427 345.641C346.062 346.189 345.514 346.919 344.966 346.919Z" fill="#35435A" fill-opacity="0.2"/>
<path d="M495.991 447.762L452.528 404.282V402.273H454.537L498 445.752V447.762H495.991Z" fill="#35435A" fill-opacity="0.2"/>
<path d="M495.991 397.34L452.528 353.861V351.852H454.537L498 395.331V397.34H495.991Z" fill="#35435A" fill-opacity="0.2"/>
<path d="M495.991 347.102L452.528 303.623V301.613H454.537L498 345.092V347.102H495.991Z" fill="#35435A" fill-opacity="0.2"/>
<path d="M495.991 296.864L452.528 253.384V251.375H454.537L498 294.854V296.864H495.991Z" fill="#35435A" fill-opacity="0.2"/>
<path d="M296.572 277.682V294.123C296.572 295.585 295.476 296.681 294.015 296.681H277.945C277.214 296.681 276.667 296.498 276.119 295.95L252.378 272.201C251.831 271.653 251.648 271.105 251.648 270.374V254.298C251.648 252.836 252.744 251.74 254.205 251.74H270.64C271.371 251.74 271.919 251.923 272.466 252.471L295.842 276.22C296.207 276.403 296.572 276.951 296.572 277.682Z" fill="#35435A" fill-opacity="0.2"/>
<path d="M294.746 346.919H292.554L279.954 344.727C279.406 344.727 278.675 344.179 278.31 343.814L255.118 320.613C254.752 320.247 254.205 319.516 254.205 318.968L251.648 304.354C251.648 303.806 251.465 303.258 251.831 302.892C252.196 302.527 252.744 301.613 253.291 301.613H255.483L268.266 303.806C268.814 303.806 269.545 304.354 269.91 304.719L292.92 327.737C293.285 328.103 293.833 328.833 293.833 329.382L296.389 344.179C296.389 344.727 296.572 345.275 296.207 345.641C295.842 346.189 295.294 346.919 294.746 346.919Z" fill="#35435A" fill-opacity="0.2"/>
<path d="M395.916 296.681H393.725L382.403 292.296C382.037 292.296 381.124 291.566 380.942 291.383L358.662 269.095C358.48 268.913 357.749 267.817 357.749 267.634L352.636 254.481C352.636 254.115 352.271 253.384 352.453 253.019C352.636 252.654 353.001 251.558 353.366 251.558H355.558L367.063 255.942C367.428 255.942 368.341 256.673 368.524 256.855L390.62 278.96C390.803 279.143 391.534 280.239 391.534 280.422L396.647 293.758C396.647 294.123 397.012 294.854 396.83 295.219C396.647 295.585 396.282 296.681 395.916 296.681Z" fill="#35435A" fill-opacity="0.2"/>
<path d="M395.916 346.919H393.725L382.403 342.535C382.037 342.535 381.124 341.804 380.942 341.621L358.662 319.334C358.48 319.151 357.749 318.055 357.749 317.872L352.636 304.719C352.636 304.354 352.271 303.623 352.453 303.258C352.636 302.892 353.001 301.796 353.366 301.796H355.558L367.063 306.18C367.428 306.18 368.341 306.911 368.524 307.094L390.62 329.199C390.803 329.382 391.534 330.478 391.534 330.66L396.647 343.996C396.647 344.362 397.012 345.092 396.83 345.458C396.647 345.823 396.282 346.919 395.916 346.919Z" fill="#35435A" fill-opacity="0.2"/>
<path d="M395.916 397.34H393.725L382.403 392.956C382.037 392.956 381.124 392.225 380.942 392.043L358.662 369.755C358.48 369.572 357.749 368.476 357.749 368.293L352.636 355.14C352.636 354.775 352.271 354.044 352.453 353.679C352.636 353.313 353.001 352.217 353.366 352.217H355.558L367.063 356.602C367.428 356.602 368.341 357.332 368.524 357.515L390.62 379.62C390.803 379.803 391.534 380.899 391.534 381.081L396.647 394.417C396.647 394.783 397.012 395.514 396.83 395.879C396.647 396.062 396.282 397.34 395.916 397.34Z" fill="#35435A" fill-opacity="0.2"/>
<path d="M345.696 397.34H343.505L332.183 392.956C331.817 392.956 330.904 392.225 330.722 392.043L308.442 369.755C308.26 369.572 307.529 368.476 307.529 368.293L302.416 355.14C302.416 354.775 302.051 354.044 302.233 353.679C302.416 353.313 302.781 352.217 303.146 352.217H305.338L316.843 356.602C317.208 356.602 318.121 357.332 318.304 357.515L340.4 379.62C340.583 379.803 341.314 380.899 341.314 381.081L346.427 394.417C346.427 394.783 346.792 395.514 346.609 395.879C346.427 396.062 346.062 397.34 345.696 397.34Z" fill="#35435A" fill-opacity="0.2"/>
<path d="M295.294 397.34H293.285L281.963 392.956C281.597 392.956 280.684 392.225 280.502 392.043L258.222 369.755C258.04 369.572 257.309 368.476 257.309 368.293L252.196 355.14C252.196 354.775 251.831 354.044 252.013 353.679C252.196 353.313 252.561 352.217 252.926 352.217H255.118L266.623 356.602C266.988 356.602 267.901 357.332 268.084 357.515L290.18 379.62C290.363 379.803 291.093 380.899 291.093 381.081L296.207 394.417C296.207 394.783 296.572 395.514 296.389 395.879C296.207 396.062 295.842 397.34 295.294 397.34Z" fill="#35435A" fill-opacity="0.2"/>
<path d="M446.867 296.681H444.858L434.814 290.104C434.632 290.104 433.536 289.191 433.353 289.008L411.622 267.269C411.439 267.086 410.526 265.99 410.526 265.807L402.856 254.115C402.856 253.933 402.125 253.019 402.125 252.836C402.308 252.654 402.491 251.192 402.673 251.192H404.682L414.726 257.769C414.909 257.769 416.004 258.865 416.187 258.865L437.736 280.422C437.919 280.605 438.832 281.701 438.832 281.883L446.502 293.575C446.502 293.758 447.232 294.671 447.232 294.854C447.232 295.219 447.232 296.681 446.867 296.681Z" fill="#35435A" fill-opacity="0.2"/>
<path d="M446.867 347.102H444.858L434.814 340.525C434.632 340.525 433.536 339.612 433.353 339.429L411.622 317.69C411.439 317.507 410.526 316.411 410.526 316.228L402.856 304.536C402.856 304.354 402.125 303.44 402.125 303.258C402.308 303.075 402.491 301.613 402.673 301.613H404.682L414.726 308.19C414.909 308.19 416.004 309.286 416.187 309.286L437.736 330.843C437.919 331.026 438.832 332.122 438.832 332.305L446.502 343.996C446.502 344.179 447.232 345.092 447.232 345.275C447.232 345.458 447.232 347.102 446.867 347.102Z" fill="#35435A" fill-opacity="0.2"/>
<path d="M446.867 397.34H444.858L434.814 390.764C434.632 390.764 433.536 389.85 433.353 389.668L411.622 367.928C411.439 367.745 410.526 366.649 410.526 366.467L402.856 354.775C402.856 354.592 402.125 353.679 402.125 353.496C402.308 353.313 402.491 351.852 402.673 351.852H404.682L414.726 358.428C414.909 358.428 416.004 359.525 416.187 359.525L437.736 381.081C437.919 381.264 438.832 382.36 438.832 382.543L446.502 394.235C446.502 394.417 447.232 395.331 447.232 395.514C447.232 395.696 447.232 397.34 446.867 397.34Z" fill="#35435A" fill-opacity="0.2"/>
<path d="M446.867 447.762H444.858L434.814 441.185C434.632 441.185 433.536 440.271 433.353 440.089L411.622 418.349C411.439 418.167 410.526 417.07 410.526 416.888L402.856 405.196C402.856 405.013 402.125 404.1 402.125 403.917C402.308 403.734 402.491 402.273 402.673 402.273H404.682L414.726 408.85C414.909 408.85 416.004 409.946 416.187 409.946L437.736 431.503C437.919 431.685 438.832 432.781 438.832 432.964L446.502 444.656C446.502 444.839 447.232 445.752 447.232 445.935C447.232 446.117 447.232 447.762 446.867 447.762Z" fill="#35435A" fill-opacity="0.2"/>
<path d="M396.647 447.762H394.638L384.594 441.185C384.411 441.185 383.316 440.271 383.133 440.089L361.402 418.349C361.219 418.167 360.306 417.07 360.306 416.888L352.636 405.196C352.636 405.013 351.905 404.1 351.905 403.917C352.088 403.734 352.271 402.273 352.453 402.273H354.462L364.506 408.85C364.689 408.85 365.784 409.946 365.967 409.946L387.516 431.503C387.699 431.685 388.612 432.781 388.612 432.964L396.282 444.656C396.282 444.839 397.012 445.752 397.012 445.935C397.012 446.117 396.829 447.762 396.647 447.762Z" fill="#35435A" fill-opacity="0.2"/>
<path d="M346.427 447.762H344.418L334.374 441.185C334.191 441.185 333.096 440.271 332.913 440.089L311.182 418.349C310.999 418.167 310.086 417.07 310.086 416.888L302.416 405.196C302.416 405.013 301.685 404.1 301.685 403.917C301.868 403.734 302.051 402.273 302.233 402.273H304.242L314.286 408.85C314.469 408.85 315.564 409.946 315.747 409.946L337.296 431.503C337.479 431.685 338.392 432.781 338.392 432.964L346.062 444.656C346.062 444.839 346.792 445.752 346.792 445.935C346.792 446.117 346.609 447.762 346.427 447.762Z" fill="#35435A" fill-opacity="0.2"/>
<path d="M296.024 447.762H294.016L283.971 441.185C283.789 441.185 282.693 440.271 282.51 440.089L260.779 418.349C260.596 418.167 259.683 417.07 259.683 416.888L252.013 405.196C252.013 405.013 251.283 404.1 251.283 403.917C251.465 403.734 251.648 402.273 251.831 402.273H253.839L263.883 408.85C264.066 408.85 265.162 409.946 265.344 409.946L286.893 431.503C287.076 431.685 287.989 432.781 287.989 432.964L295.659 444.656C295.659 444.839 296.389 445.752 296.389 445.935C296.389 446.117 296.207 447.762 296.024 447.762Z" fill="#35435A" fill-opacity="0.2"/>
<path d="M294.746 498L251.283 454.521V452.511H253.292L296.755 495.99V498H294.746Z" fill="#35435A" fill-opacity="0.2"/>
<path d="M346.975 495.99V498H345.149L323.234 476.26L301.503 454.521V452.511H303.512L346.975 495.99Z" fill="#35435A" fill-opacity="0.2"/>
<path d="M397.377 495.99V498H395.369L351.905 454.521V452.511H353.914L397.377 495.99Z" fill="#35435A" fill-opacity="0.2"/>
<path d="M447.597 495.99V498H445.589L402.125 454.521V452.511H404.134L447.597 495.99Z" fill="#35435A" fill-opacity="0.2"/>
<path d="M495.991 498L452.528 454.521V452.511H454.537L498 495.99V498H495.991Z" fill="#35435A" fill-opacity="0.2"/>
<path d="M153.034 201.319H155.226L167.826 203.511C168.374 203.511 169.105 204.059 169.47 204.425L192.662 227.626C193.028 227.991 193.575 228.722 193.575 229.27L196.132 243.885C196.132 244.433 196.315 244.981 195.949 245.346C195.584 245.712 195.036 246.625 194.489 246.625H192.297L179.514 244.433C178.966 244.433 178.235 243.885 177.87 243.519L154.86 220.501C154.495 220.136 153.947 219.405 153.947 218.857L151.391 204.059C151.391 203.511 151.208 202.963 151.573 202.598C151.938 202.05 152.304 201.319 153.034 201.319Z" fill="#35435A" fill-opacity="0.2"/>
<path d="M153.034 151.081H155.226L167.826 153.273C168.374 153.273 169.105 153.821 169.47 154.186L192.662 177.387C193.028 177.753 193.575 178.484 193.575 179.032L196.132 193.646C196.132 194.194 196.315 194.742 195.949 195.108C195.584 195.473 195.036 196.387 194.489 196.387H192.297L179.514 194.194C178.966 194.194 178.235 193.646 177.87 193.281L154.86 170.263C154.495 169.897 153.947 169.167 153.947 168.618L151.391 153.821C151.391 153.273 151.208 152.725 151.573 152.359C151.938 151.811 152.304 151.081 153.034 151.081Z" fill="#35435A" fill-opacity="0.2"/>
<path d="M2.00876 50.2384L45.4719 93.7175V95.7271H43.4631L0 52.248L0 50.2384H2.00876Z" fill="#35435A" fill-opacity="0.2"/>
<path d="M2.00876 100.477L45.4719 144.139V145.966H43.4631L0 102.486L0 100.477H2.00876Z" fill="#35435A" fill-opacity="0.2"/>
<path d="M2.00876 150.898L45.4719 194.377V196.387H43.4631L0 152.908L0 150.898H2.00876Z" fill="#35435A" fill-opacity="0.2"/>
<path d="M2.00876 201.136L45.4719 244.616V246.625H43.4631L0 203.146L0 201.136H2.00876Z" fill="#35435A" fill-opacity="0.2"/>
<path d="M201.428 220.318V203.877C201.428 202.415 202.524 201.319 203.985 201.319H220.055C220.786 201.319 221.333 201.502 221.881 202.05L245.622 225.799C246.169 226.347 246.352 226.895 246.352 227.626V243.702C246.352 245.164 245.256 246.26 243.795 246.26H227.36C226.629 246.26 226.081 246.077 225.534 245.529L202.158 221.78C201.611 221.597 201.428 221.049 201.428 220.318Z" fill="#35435A" fill-opacity="0.2"/>
<path d="M203.254 151.081H205.446L218.046 153.273C218.594 153.273 219.325 153.821 219.69 154.186L242.882 177.387C243.248 177.753 243.795 178.484 243.795 179.032L246.352 193.646C246.352 194.194 246.535 194.742 246.169 195.108C245.804 195.473 245.256 196.387 244.709 196.387H242.517L229.734 194.194C229.186 194.194 228.455 193.646 228.09 193.281L205.08 170.263C204.715 169.897 204.167 169.167 204.167 168.618L201.611 153.821C201.611 153.273 201.428 152.725 201.793 152.359C202.159 151.811 202.706 151.081 203.254 151.081Z" fill="#35435A" fill-opacity="0.2"/>
<path d="M101.901 201.319H104.092L115.415 205.704C115.78 205.704 116.693 206.434 116.876 206.617L139.155 228.905C139.338 229.087 140.068 230.183 140.068 230.366L145.182 243.519C145.182 243.885 145.547 244.616 145.364 244.981C145.181 245.346 144.816 246.442 144.451 246.442H142.26L130.755 242.058C130.389 242.058 129.476 241.327 129.294 241.145L107.197 219.04C107.014 218.857 106.284 217.761 106.284 217.578L101.17 204.242C101.17 203.877 100.805 203.146 100.988 202.781C101.17 202.415 101.536 201.319 101.901 201.319Z" fill="#35435A" fill-opacity="0.2"/>
<path d="M101.901 150.898H104.092L115.415 155.282C115.78 155.282 116.693 156.013 116.876 156.196L139.155 178.484C139.338 178.666 140.068 179.762 140.068 179.945L145.182 193.098C145.182 193.464 145.547 194.194 145.364 194.56C145.181 194.925 144.816 196.021 144.451 196.021H142.26L130.755 191.637C130.389 191.637 129.476 190.906 129.294 190.723L107.197 168.618C107.014 168.436 106.284 167.34 106.284 167.157L101.17 153.821C101.17 153.456 100.805 152.725 100.988 152.359C101.17 152.177 101.536 150.898 101.901 150.898Z" fill="#35435A" fill-opacity="0.2"/>
<path d="M101.901 100.66H104.092L115.415 105.044C115.78 105.044 116.693 105.775 116.876 105.957L139.155 128.245C139.338 128.428 140.068 129.524 140.068 129.707L145.182 142.86C145.182 143.225 145.547 143.956 145.364 144.321C145.181 144.687 144.816 145.783 144.451 145.783H142.26L130.755 141.398C130.389 141.398 129.476 140.668 129.294 140.485L107.197 118.38C107.014 118.197 106.284 117.101 106.284 116.919L101.17 103.583C101.17 103.217 100.805 102.486 100.988 102.121C101.17 101.756 101.536 100.66 101.901 100.66Z" fill="#35435A" fill-opacity="0.2"/>
<path d="M152.304 100.66H154.495L165.817 105.044C166.183 105.044 167.096 105.775 167.278 105.957L189.558 128.245C189.74 128.428 190.471 129.524 190.471 129.707L195.584 142.86C195.584 143.225 195.949 143.956 195.767 144.321C195.584 144.687 195.219 145.783 194.854 145.783H192.845L181.34 141.398C180.975 141.398 180.062 140.668 179.879 140.485L157.782 118.38C157.6 118.197 156.869 117.101 156.869 116.919L151.756 103.583C151.756 103.217 151.391 102.486 151.573 102.121C151.573 101.756 151.938 100.66 152.304 100.66Z" fill="#35435A" fill-opacity="0.2"/>
<path d="M202.524 100.66H204.715L216.037 105.044C216.403 105.044 217.316 105.775 217.498 105.957L239.778 128.245C239.96 128.428 240.691 129.524 240.691 129.707L245.804 142.86C245.804 143.225 246.169 143.956 245.987 144.321C245.804 144.687 245.439 145.783 245.074 145.783H242.882L231.377 141.398C231.012 141.398 230.099 140.668 229.916 140.485L207.82 118.38C207.637 118.197 206.906 117.101 206.906 116.919L201.793 103.583C201.793 103.217 201.428 102.486 201.611 102.121C201.793 101.756 202.158 100.66 202.524 100.66Z" fill="#35435A" fill-opacity="0.2"/>
<path d="M50.9504 201.319H52.9593L63.0033 207.896C63.1859 207.896 64.2816 208.809 64.4642 208.992L86.1958 230.731C86.3784 230.914 87.2915 232.01 87.2915 232.193L94.9615 243.885C94.9615 244.068 95.6919 244.981 95.6919 245.164C95.5093 245.346 95.3267 246.808 95.1441 246.808H93.1353L83.0913 240.231C82.9087 240.231 81.8129 239.135 81.6303 239.135L60.0814 217.578C59.8987 217.395 58.9857 216.299 58.9857 216.117L51.3157 204.425C51.3157 204.242 50.5852 203.329 50.5852 203.146C50.5852 202.781 50.7678 201.319 50.9504 201.319Z" fill="#35435A" fill-opacity="0.2"/>
<path d="M50.9504 150.898H52.9593L63.0033 157.475C63.1859 157.475 64.2816 158.388 64.4642 158.571L86.1958 180.31C86.3784 180.493 87.2915 181.589 87.2915 181.772L94.9615 193.464C94.9615 193.646 95.6919 194.56 95.6919 194.742C95.5093 194.925 95.3267 196.387 95.1441 196.387H93.1353L83.0913 189.81C82.9087 189.81 81.8129 188.714 81.6303 188.714L60.0814 167.157C59.8987 166.974 58.9857 165.878 58.9857 165.696L51.3157 154.004C51.3157 153.821 50.5852 152.908 50.5852 152.725C50.5852 152.542 50.7678 150.898 50.9504 150.898Z" fill="#35435A" fill-opacity="0.2"/>
<path d="M50.9504 100.66H52.9593L63.0033 107.236C63.1859 107.236 64.2816 108.15 64.4642 108.332L86.1958 130.072C86.3784 130.255 87.2915 131.351 87.2915 131.533L94.9615 143.225C94.9615 143.408 95.6919 144.321 95.6919 144.504C95.5093 144.687 95.3267 146.148 95.1441 146.148H93.1353L83.0913 139.572C82.9087 139.572 81.8129 138.475 81.6303 138.475L60.0814 116.919C59.8987 116.736 58.9857 115.64 58.9857 115.457L51.3157 103.765C51.3157 103.583 50.5852 102.669 50.5852 102.486C50.5852 102.121 50.7678 100.66 50.9504 100.66Z" fill="#35435A" fill-opacity="0.2"/>
<path d="M50.9504 50.2384H52.9593L63.0033 56.8151C63.1859 56.8151 64.2816 57.7285 64.4642 57.9112L86.1958 79.6508C86.3784 79.8335 87.2915 80.9296 87.2915 81.1123L94.9615 92.8041C94.9615 92.9868 95.6919 93.9002 95.6919 94.0829C95.5093 94.2656 95.3267 95.7271 95.1441 95.7271H93.1353L83.0913 89.1504C82.9087 89.1504 81.8129 88.0543 81.6303 88.0543L60.0814 66.4974C59.8987 66.3148 58.9857 65.2186 58.9857 65.036L51.3157 53.3441C51.3157 53.1614 50.5852 52.248 50.5852 52.0653C50.5852 51.8826 50.7678 50.2384 50.9504 50.2384Z" fill="#35435A" fill-opacity="0.2"/>
<path d="M101.353 50.2384H103.362L113.406 56.8151C113.589 56.8151 114.684 57.7285 114.867 57.9112L136.598 79.6508C136.781 79.8335 137.694 80.9296 137.694 81.1123L145.364 92.8041C145.364 92.9868 146.095 93.9002 146.095 94.0829C145.912 94.2656 145.729 95.7271 145.547 95.7271H143.538L133.494 89.1504C133.311 89.1504 132.216 88.0543 132.033 88.0543L110.484 66.4974C110.301 66.3148 109.388 65.2186 109.388 65.036L101.718 53.3441C101.718 53.1614 100.988 52.248 100.988 52.0653C100.988 51.8826 101.171 50.2384 101.353 50.2384Z" fill="#35435A" fill-opacity="0.2"/>
<path d="M151.573 50.2384H153.582L163.626 56.8151C163.809 56.8151 164.904 57.7285 165.087 57.9112L186.819 79.6508C187.001 79.8335 187.914 80.9296 187.914 81.1123L195.584 92.8041C195.584 92.9868 196.315 93.9002 196.315 94.0829C196.132 94.2656 195.949 95.7271 195.767 95.7271H193.758L183.714 89.1504C183.531 89.1504 182.436 88.0543 182.253 88.0543L160.704 66.4974C160.521 66.3148 159.608 65.2186 159.608 65.036L151.938 53.3441C151.938 53.1614 151.208 52.248 151.208 52.0653C151.208 51.8826 151.391 50.2384 151.573 50.2384Z" fill="#35435A" fill-opacity="0.2"/>
<path d="M201.976 50.2384H203.985L214.029 56.8151C214.211 56.8151 215.307 57.7285 215.49 57.9112L237.221 79.6508C237.404 79.8335 238.317 80.9296 238.317 81.1123L245.804 92.6214C245.804 92.8041 246.535 93.7175 246.535 93.9002C246.352 94.0829 246.169 95.5444 245.987 95.5444H243.978L233.934 88.9677C233.751 88.9677 232.656 87.8716 232.473 87.8716L210.924 66.3148C210.742 66.1321 209.828 65.0359 209.828 64.8533L202.158 53.1614C202.158 52.9787 201.428 52.0653 201.428 51.8826C201.428 51.8826 201.611 50.2384 201.976 50.2384Z" fill="#35435A" fill-opacity="0.2"/>
<path d="M203.254 0L246.717 43.4791V45.4886H244.709L201.245 2.00954V0L203.254 0Z" fill="#35435A" fill-opacity="0.2"/>
<path d="M150.843 2.00954V0L152.851 0L196.315 43.4791V45.4886H194.306L150.843 2.00954Z" fill="#35435A" fill-opacity="0.2"/>
<path d="M100.623 2.00954V0L102.631 0L146.095 43.4791V45.4886H144.086L100.623 2.00954Z" fill="#35435A" fill-opacity="0.2"/>
<path d="M50.22 2.00954V0L52.2288 0L95.6919 43.4791V45.4886H93.8657L72.1342 23.7491L50.22 2.00954Z" fill="#35435A" fill-opacity="0.2"/>
<path d="M2.00876 3.71463e-08L45.4719 43.4791V45.4886H43.4631L5.65385e-07 2.00954L5.65385e-07 3.71463e-08L2.00876 3.71463e-08Z" fill="#35435A" fill-opacity="0.2"/>
<path d="M153.034 296.681H155.226L167.826 294.489C168.374 294.489 169.105 293.941 169.47 293.575L192.662 270.374C193.028 270.009 193.575 269.278 193.575 268.73L196.132 254.115C196.132 253.567 196.315 253.019 195.949 252.654C195.584 252.288 195.036 251.375 194.489 251.375H192.297L179.514 253.567C178.966 253.567 178.235 254.115 177.87 254.481L154.86 277.499C154.495 277.864 153.947 278.595 153.947 279.143L151.391 293.941C151.391 294.489 151.208 295.037 151.573 295.402C151.938 295.95 152.304 296.681 153.034 296.681Z" fill="#35435A" fill-opacity="0.2"/>
<path d="M153.034 346.919H155.226L167.826 344.727C168.374 344.727 169.105 344.179 169.47 343.814L192.662 320.613C193.028 320.247 193.575 319.516 193.575 318.968L196.132 304.354C196.132 303.806 196.315 303.258 195.949 302.892C195.584 302.527 195.036 301.613 194.489 301.613H192.297L179.514 303.806C178.966 303.806 178.235 304.354 177.87 304.719L154.86 327.737C154.495 328.103 153.947 328.833 153.947 329.382L151.391 344.179C151.391 344.727 151.208 345.275 151.573 345.641C151.938 346.189 152.304 346.919 153.034 346.919Z" fill="#35435A" fill-opacity="0.2"/>
<path d="M2.00876 447.762L45.4719 404.282V402.273H43.4631L0 445.752L0 447.762H2.00876Z" fill="#35435A" fill-opacity="0.2"/>
<path d="M2.00876 397.34L45.4719 353.861V351.852H43.4631L0 395.331L0 397.34H2.00876Z" fill="#35435A" fill-opacity="0.2"/>
<path d="M2.00876 347.102L45.4719 303.623V301.613H43.4631L0 345.092L0 347.102H2.00876Z" fill="#35435A" fill-opacity="0.2"/>
<path d="M2.00876 296.864L45.4719 253.384V251.375H43.4631L0 294.854L0 296.864H2.00876Z" fill="#35435A" fill-opacity="0.2"/>
<path d="M201.428 277.682V294.123C201.428 295.585 202.524 296.681 203.985 296.681H220.055C220.786 296.681 221.333 296.498 221.881 295.95L245.622 272.201C246.169 271.653 246.352 271.105 246.352 270.374V254.298C246.352 252.836 245.256 251.74 243.795 251.74H227.36C226.629 251.74 226.081 251.923 225.534 252.471L202.158 276.22C201.611 276.403 201.428 276.951 201.428 277.682Z" fill="#35435A" fill-opacity="0.2"/>
<path d="M203.254 346.919H205.446L218.046 344.727C218.594 344.727 219.325 344.179 219.69 343.814L242.882 320.613C243.248 320.247 243.795 319.516 243.795 318.968L246.352 304.354C246.352 303.806 246.535 303.258 246.169 302.892C245.804 302.527 245.256 301.613 244.709 301.613H242.517L229.734 303.806C229.186 303.806 228.455 304.354 228.09 304.719L205.08 327.737C204.715 328.103 204.167 328.833 204.167 329.382L201.611 344.179C201.611 344.727 201.428 345.275 201.793 345.641C202.159 346.189 202.706 346.919 203.254 346.919Z" fill="#35435A" fill-opacity="0.2"/>
<path d="M101.901 296.681H104.092L115.415 292.296C115.78 292.296 116.693 291.566 116.876 291.383L139.155 269.095C139.338 268.913 140.068 267.817 140.068 267.634L145.182 254.481C145.182 254.115 145.547 253.384 145.364 253.019C145.181 252.654 144.816 251.558 144.451 251.558H142.26L130.755 255.942C130.389 255.942 129.476 256.673 129.294 256.855L107.197 278.96C107.014 279.143 106.284 280.239 106.284 280.422L101.17 293.758C101.17 294.123 100.805 294.854 100.988 295.219C101.17 295.585 101.536 296.681 101.901 296.681Z" fill="#35435A" fill-opacity="0.2"/>
<path d="M101.901 346.919H104.092L115.415 342.535C115.78 342.535 116.693 341.804 116.876 341.621L139.155 319.334C139.338 319.151 140.068 318.055 140.068 317.872L145.182 304.719C145.182 304.354 145.547 303.623 145.364 303.258C145.181 302.892 144.816 301.796 144.451 301.796H142.26L130.755 306.18C130.389 306.18 129.476 306.911 129.294 307.094L107.197 329.199C107.014 329.382 106.284 330.478 106.284 330.66L101.17 343.996C101.17 344.362 100.805 345.092 100.988 345.458C101.17 345.823 101.536 346.919 101.901 346.919Z" fill="#35435A" fill-opacity="0.2"/>
<path d="M101.901 397.34H104.092L115.415 392.956C115.78 392.956 116.693 392.225 116.876 392.043L139.155 369.755C139.338 369.572 140.068 368.476 140.068 368.293L145.182 355.14C145.182 354.775 145.547 354.044 145.364 353.679C145.181 353.313 144.816 352.217 144.451 352.217H142.26L130.755 356.602C130.389 356.602 129.476 357.332 129.294 357.515L107.197 379.62C107.014 379.803 106.284 380.899 106.284 381.081L101.17 394.417C101.17 394.783 100.805 395.514 100.988 395.879C101.17 396.062 101.536 397.34 101.901 397.34Z" fill="#35435A" fill-opacity="0.2"/>
<path d="M152.304 397.34H154.495L165.817 392.956C166.183 392.956 167.096 392.225 167.278 392.043L189.558 369.755C189.74 369.572 190.471 368.476 190.471 368.293L195.584 355.14C195.584 354.775 195.949 354.044 195.767 353.679C195.584 353.313 195.219 352.217 194.854 352.217H192.845L181.34 356.602C180.975 356.602 180.062 357.332 179.879 357.515L157.782 379.62C157.6 379.803 156.869 380.899 156.869 381.081L151.756 394.417C151.756 394.783 151.391 395.514 151.573 395.879C151.573 396.062 151.938 397.34 152.304 397.34Z" fill="#35435A" fill-opacity="0.2"/>
<path d="M202.524 397.34H204.715L216.037 392.956C216.403 392.956 217.316 392.225 217.498 392.043L239.778 369.755C239.96 369.572 240.691 368.476 240.691 368.293L245.804 355.14C245.804 354.775 246.169 354.044 245.987 353.679C245.804 353.313 245.439 352.217 245.074 352.217H242.882L231.377 356.602C231.012 356.602 230.099 357.332 229.916 357.515L207.82 379.62C207.637 379.803 206.906 380.899 206.906 381.081L201.793 394.417C201.793 394.783 201.428 395.514 201.611 395.879C201.793 396.062 202.158 397.34 202.524 397.34Z" fill="#35435A" fill-opacity="0.2"/>
<path d="M50.9504 296.681H52.9593L63.0033 290.104C63.1859 290.104 64.2816 289.191 64.4642 289.008L86.1958 267.269C86.3784 267.086 87.2915 265.99 87.2915 265.807L94.9615 254.115C94.9615 253.933 95.6919 253.019 95.6919 252.836C95.5093 252.654 95.3267 251.192 95.1441 251.192H93.1353L83.0913 257.769C82.9087 257.769 81.8129 258.865 81.6303 258.865L60.0814 280.422C59.8987 280.605 58.9857 281.701 58.9857 281.883L51.3157 293.575C51.3157 293.758 50.5852 294.671 50.5852 294.854C50.5852 295.219 50.7678 296.681 50.9504 296.681Z" fill="#35435A" fill-opacity="0.2"/>
<path d="M50.9504 347.102H52.9593L63.0033 340.525C63.1859 340.525 64.2816 339.612 64.4642 339.429L86.1958 317.69C86.3784 317.507 87.2915 316.411 87.2915 316.228L94.9615 304.536C94.9615 304.354 95.6919 303.44 95.6919 303.258C95.5093 303.075 95.3267 301.613 95.1441 301.613H93.1353L83.0913 308.19C82.9087 308.19 81.8129 309.286 81.6303 309.286L60.0814 330.843C59.8987 331.026 58.9857 332.122 58.9857 332.305L51.3157 343.996C51.3157 344.179 50.5852 345.092 50.5852 345.275C50.5852 345.458 50.7678 347.102 50.9504 347.102Z" fill="#35435A" fill-opacity="0.2"/>
<path d="M50.9504 397.34H52.9593L63.0033 390.764C63.1859 390.764 64.2816 389.85 64.4642 389.668L86.1958 367.928C86.3784 367.745 87.2915 366.649 87.2915 366.467L94.9615 354.775C94.9615 354.592 95.6919 353.679 95.6919 353.496C95.5093 353.313 95.3267 351.852 95.1441 351.852H93.1353L83.0913 358.428C82.9087 358.428 81.8129 359.525 81.6303 359.525L60.0814 381.081C59.8987 381.264 58.9857 382.36 58.9857 382.543L51.3157 394.235C51.3157 394.417 50.5852 395.331 50.5852 395.514C50.5852 395.696 50.7678 397.34 50.9504 397.34Z" fill="#35435A" fill-opacity="0.2"/>
<path d="M50.9504 447.762H52.9593L63.0033 441.185C63.1859 441.185 64.2816 440.271 64.4642 440.089L86.1958 418.349C86.3784 418.167 87.2915 417.07 87.2915 416.888L94.9615 405.196C94.9615 405.013 95.6919 404.1 95.6919 403.917C95.5093 403.734 95.3267 402.273 95.1441 402.273H93.1353L83.0913 408.85C82.9087 408.85 81.8129 409.946 81.6303 409.946L60.0814 431.503C59.8987 431.685 58.9857 432.781 58.9857 432.964L51.3157 444.656C51.3157 444.839 50.5852 445.752 50.5852 445.935C50.5852 446.117 50.7678 447.762 50.9504 447.762Z" fill="#35435A" fill-opacity="0.2"/>
<path d="M101.353 447.762H103.362L113.406 441.185C113.589 441.185 114.684 440.271 114.867 440.089L136.598 418.349C136.781 418.167 137.694 417.07 137.694 416.888L145.364 405.196C145.364 405.013 146.095 404.1 146.095 403.917C145.912 403.734 145.729 402.273 145.547 402.273H143.538L133.494 408.85C133.311 408.85 132.216 409.946 132.033 409.946L110.484 431.503C110.301 431.685 109.388 432.781 109.388 432.964L101.718 444.656C101.718 444.839 100.988 445.752 100.988 445.935C100.988 446.117 101.171 447.762 101.353 447.762Z" fill="#35435A" fill-opacity="0.2"/>
<path d="M151.573 447.762H153.582L163.626 441.185C163.809 441.185 164.904 440.271 165.087 440.089L186.819 418.349C187.001 418.167 187.914 417.07 187.914 416.888L195.584 405.196C195.584 405.013 196.315 404.1 196.315 403.917C196.132 403.734 195.949 402.273 195.767 402.273H193.758L183.714 408.85C183.531 408.85 182.436 409.946 182.253 409.946L160.704 431.503C160.521 431.685 159.608 432.781 159.608 432.964L151.938 444.656C151.938 444.839 151.208 445.752 151.208 445.935C151.208 446.117 151.391 447.762 151.573 447.762Z" fill="#35435A" fill-opacity="0.2"/>
<path d="M201.976 447.762H203.985L214.029 441.185C214.211 441.185 215.307 440.271 215.49 440.089L237.221 418.349C237.404 418.167 238.317 417.07 238.317 416.888L245.987 405.196C245.987 405.013 246.717 404.1 246.717 403.917C246.535 403.734 246.352 402.273 246.169 402.273H243.978L233.934 408.85C233.751 408.85 232.656 409.946 232.473 409.946L210.924 431.503C210.742 431.685 209.828 432.781 209.828 432.964L202.158 444.656C202.158 444.839 201.428 445.752 201.428 445.935C201.428 446.117 201.611 447.762 201.976 447.762Z" fill="#35435A" fill-opacity="0.2"/>
<path d="M203.254 498L246.717 454.521V452.511H244.709L201.245 495.99V498H203.254Z" fill="#35435A" fill-opacity="0.2"/>
<path d="M150.843 495.99V498H152.851L196.315 454.521V452.511H194.306L150.843 495.99Z" fill="#35435A" fill-opacity="0.2"/>
<path d="M100.623 495.99V498H102.631L146.095 454.521V452.511H144.086L100.623 495.99Z" fill="#35435A" fill-opacity="0.2"/>
<path d="M50.22 495.99V498H52.2288L95.6919 454.521V452.511H93.8657L72.1342 474.251L50.22 495.99Z" fill="#35435A" fill-opacity="0.2"/>
<path d="M2.00876 498L45.4719 454.521V452.511H43.4631L0 495.99L0 498H2.00876Z" fill="#35435A" fill-opacity="0.2"/>
</svg>
