<svg width="240" height="175" viewBox="0 0 240 175" fill="none" xmlns="http://www.w3.org/2000/svg">
<foreignObject x="0" y="0" width="0" height="0"><div xmlns="http://www.w3.org/1999/xhtml" style="backdrop-filter:blur(40px);clip-path:url(#bgblur_0_3001_2736_clip_path);height:100%;width:100%"></div></foreignObject><g opacity="0.8" data-figma-bg-blur-radius="80">
<path d="M10 0.5H230C235.247 0.5 239.5 4.7533 239.5 10V123.498C239.5 125.897 238.593 128.207 236.96 129.965L198.398 171.467C196.601 173.401 194.079 174.5 191.438 174.5H10C4.7533 174.5 0.5 170.247 0.5 165V10C0.5 4.7533 4.7533 0.500003 10 0.5Z" fill="url(#paint0_radial_3001_2736)" fill-opacity="0.1"/>
<path d="M10 0.5H230C235.247 0.5 239.5 4.7533 239.5 10V123.498C239.5 125.897 238.593 128.207 236.96 129.965L198.398 171.467C196.601 173.401 194.079 174.5 191.438 174.5H10C4.7533 174.5 0.5 170.247 0.5 165V10C0.5 4.7533 4.7533 0.500003 10 0.5Z" stroke="url(#paint1_radial_3001_2736)"/>
<path d="M10 0.5H230C235.247 0.5 239.5 4.7533 239.5 10V123.498C239.5 125.897 238.593 128.207 236.96 129.965L198.398 171.467C196.601 173.401 194.079 174.5 191.438 174.5H10C4.7533 174.5 0.5 170.247 0.5 165V10C0.5 4.7533 4.7533 0.500003 10 0.5Z" stroke="url(#paint2_radial_3001_2736)"/>
</g>
<defs>
<clipPath id="bgblur_0_3001_2736_clip_path" transform="translate(0 0)"><path d="M10 0.5H230C235.247 0.5 239.5 4.7533 239.5 10V123.498C239.5 125.897 238.593 128.207 236.96 129.965L198.398 171.467C196.601 173.401 194.079 174.5 191.438 174.5H10C4.7533 174.5 0.5 170.247 0.5 165V10C0.5 4.7533 4.7533 0.500003 10 0.5Z"/>
</clipPath><radialGradient id="paint0_radial_3001_2736" cx="0" cy="0" r="1" gradientTransform="matrix(216.375 156.589 -123.058 250.265 36.7666 36.8221)" gradientUnits="userSpaceOnUse">
<stop stop-color="#67BDD0"/>
<stop offset="0.770833" stop-color="#6EBFF4" stop-opacity="0.223958"/>
<stop offset="1" stop-color="#4690D5" stop-opacity="0"/>
</radialGradient>
<radialGradient id="paint1_radial_3001_2736" cx="0" cy="0" r="1" gradientTransform="matrix(192.907 127.549 -174.924 389.372 -33.0117 -21.6378)" gradientUnits="userSpaceOnUse">
<stop stop-color="#98F9FF"/>
<stop offset="1" stop-color="white" stop-opacity="0"/>
</radialGradient>
<radialGradient id="paint2_radial_3001_2736" cx="0" cy="0" r="1" gradientTransform="matrix(-181.017 -141.215 193.666 -365.372 259.87 197.017)" gradientUnits="userSpaceOnUse">
<stop stop-color="#F47B47"/>
<stop offset="1" stop-color="#F47B47" stop-opacity="0"/>
</radialGradient>
</defs>
</svg>
