<svg width="40" height="41" viewBox="0 0 40 41" fill="none" xmlns="http://www.w3.org/2000/svg">
<path d="M38.6211 0.899902H0.898438V39.7657H38.6211V0.899902Z" stroke="#F47B47" stroke-width="1.8"/>
<path d="M12.9018 18.0465C15.7428 18.0465 18.0458 15.9993 18.0458 13.4741C18.0458 10.9488 15.7428 8.90161 12.9018 8.90161C10.0609 8.90161 7.75781 10.9488 7.75781 13.4741C7.75781 15.9993 10.0609 18.0465 12.9018 18.0465Z" stroke="#F47B47" stroke-width="1.8"/>
<path d="M27.1896 31.7638C29.7149 31.7638 31.7621 29.7166 31.7621 27.1913C31.7621 24.666 29.7149 22.6189 27.1896 22.6189C24.6643 22.6189 22.6172 24.666 22.6172 27.1913C22.6172 29.7166 24.6643 31.7638 27.1896 31.7638Z" stroke="#F47B47" stroke-width="1.8"/>
</svg>
