<svg width="39" height="52" viewBox="0 0 39 52" fill="none" xmlns="http://www.w3.org/2000/svg">
<g filter="url(#filter0_d_56_5920)">
<path d="M29.0671 0.899902H9.73372C7.06435 0.899902 4.90039 3.06386 4.90039 5.73324V29.8999C4.90039 32.5693 7.06435 34.7332 9.73372 34.7332H29.0671C31.7364 34.7332 33.9004 32.5693 33.9004 29.8999V5.73324C33.9004 3.06386 31.7364 0.899902 29.0671 0.899902Z" stroke="#F47B47" stroke-width="1.8"/>
<path d="M4.90039 25.0667H33.9004" stroke="#F47B47" stroke-width="1.8" stroke-linecap="round"/>
<path d="M14.5671 22.65C15.9017 22.65 16.9837 21.568 16.9837 20.2333C16.9837 18.8986 15.9017 17.8167 14.5671 17.8167C13.2324 17.8167 12.1504 18.8986 12.1504 20.2333C12.1504 21.568 13.2324 22.65 14.5671 22.65Z" fill="#F47B47"/>
<path d="M24.2331 22.65C25.5678 22.65 26.6497 21.568 26.6497 20.2333C26.6497 18.8986 25.5678 17.8167 24.2331 17.8167C22.8984 17.8167 21.8164 18.8986 21.8164 20.2333C21.8164 21.568 22.8984 22.65 24.2331 22.65Z" fill="#F47B47"/>
<path d="M9.73372 34.7332L4.90039 44.3998" stroke="#F47B47" stroke-width="1.8" stroke-linecap="round"/>
<path d="M29.0664 34.7332L33.8997 44.3998" stroke="#F47B47" stroke-width="1.8" stroke-linecap="round"/>
</g>
<defs>
<filter id="filter0_d_56_5920" x="0" y="0" width="38.8008" height="53.3" filterUnits="userSpaceOnUse" color-interpolation-filters="sRGB">
<feFlood flood-opacity="0" result="BackgroundImageFix"/>
<feColorMatrix in="SourceAlpha" type="matrix" values="0 0 0 0 0 0 0 0 0 0 0 0 0 0 0 0 0 0 127 0" result="hardAlpha"/>
<feOffset dy="4"/>
<feGaussianBlur stdDeviation="2"/>
<feComposite in2="hardAlpha" operator="out"/>
<feColorMatrix type="matrix" values="0 0 0 0 0 0 0 0 0 0 0 0 0 0 0 0 0 0 0.25 0"/>
<feBlend mode="normal" in2="BackgroundImageFix" result="effect1_dropShadow_56_5920"/>
<feBlend mode="normal" in="SourceGraphic" in2="effect1_dropShadow_56_5920" result="shape"/>
</filter>
</defs>
</svg>
