<svg width="1605" height="791" viewBox="0 0 1605 791" fill="none" xmlns="http://www.w3.org/2000/svg">
<path d="M2.02398 164H1604.02V633H2.02398V164Z" fill="#96B7E3"/>
<path d="M25 181.5L1577 181.5C1590.81 181.5 1602 170.307 1602 156.5V114.427C1602 106.47 1598.84 98.8396 1593.21 93.2135L1508.79 8.78706C1503.16 3.16096 1495.53 0.000257116 1487.57 0.000255725L25 0C11.1929 -2.41411e-06 2.54063e-05 11.1929 2.29922e-05 25L0 156.5C-2.41411e-06 170.307 11.1929 181.5 25 181.5Z" fill="#96B7E3"/>
<path d="M1578 608.75L26.0005 608.75C12.1934 608.75 1.0005 619.943 1.0005 633.75L1.00051 675.824C1.00051 683.78 4.1612 691.411 9.78729 697.037L94.2137 781.463C99.8398 787.089 107.47 790.25 115.427 790.25L1578 790.25C1591.81 790.25 1603 779.057 1603 765.25V633.75C1603 619.943 1591.81 608.75 1578 608.75Z" fill="#96B7E3"/>
</svg>
