<svg width="798" height="812" viewBox="0 0 798 812" fill="none" xmlns="http://www.w3.org/2000/svg">
<path d="M88.1265 751.438V713.925C88.1265 710.701 85.4897 708.063 82.267 708.063H45.3524C43.8876 708.063 42.4227 708.65 41.2508 709.822L14.0043 737.078L-13.2422 764.333C-14.4141 765.213 -15 766.678 -15 768.436V805.364C-15 808.587 -12.3632 811.225 -9.14054 811.225H28.36C29.8249 811.225 31.2897 810.639 32.4616 809.467L59.4151 782.504L86.3686 755.541C87.5405 754.369 88.1265 752.904 88.1265 751.438Z" fill="#1B273D" fill-opacity="0.1"/>
<path d="M184.513 708.063C185.099 708.063 185.392 708.356 185.685 708.356C187.736 708.942 188.908 711.58 188.908 713.925L185.685 749.093C185.685 750.559 184.806 752.024 183.927 752.903L160.782 776.349L157.853 779.28L131.485 805.656C130.606 806.536 128.848 807.415 127.676 807.415L93.6915 810.639H92.2266C91.6407 810.639 91.3477 810.346 91.0547 810.346C89.0039 809.759 87.832 807.122 87.832 804.777L91.0547 769.902C91.0547 768.436 91.9337 766.971 92.8126 765.799L116.543 742.06L119.473 739.129L146.134 712.459C147.013 711.58 148.77 710.701 150.235 710.701L183.634 707.477H184.513V708.063Z" fill="#1B273D" fill-opacity="0.1"/>
<path d="M286.763 708.357C287.056 708.357 287.642 708.65 287.935 708.943C289.693 709.529 289.693 712.46 289.693 714.218L283.247 747.335C283.247 748.507 282.076 750.266 281.197 751.145L258.345 774.005L255.415 776.936L229.633 802.726C228.754 803.605 226.997 804.777 225.825 804.777L193.891 810.932H192.426C192.133 810.932 191.547 810.639 191.254 810.346C189.496 809.76 189.496 806.829 189.496 805.071L195.941 772.246C195.941 771.074 197.113 769.316 197.992 768.436L221.137 745.284L224.067 742.353L250.141 716.27C251.02 715.39 252.778 714.218 253.95 714.218L285.591 708.063H286.763V708.357Z" fill="#1B273D" fill-opacity="0.1"/>
<path d="M389.013 708.356C389.306 708.356 389.599 708.942 389.892 708.942C391.357 709.235 390.478 712.459 390.478 714.217L380.81 745.283C380.81 746.162 379.345 748.214 378.759 748.8L356.493 771.073L353.563 774.004L328.367 799.208C327.782 799.795 325.731 801.26 324.852 801.26L294.969 810.638H293.504C293.211 810.638 292.918 810.052 292.625 810.052C291.16 809.759 292.039 806.535 292.039 804.777L301.414 774.297C301.414 773.418 302.879 771.367 303.465 770.78L326.024 748.214L328.953 745.283L354.442 719.786C355.028 719.2 357.079 717.734 357.958 717.734L387.548 708.356H389.013Z" fill="#1B273D" fill-opacity="0.1"/>
<path d="M491.26 708.65C491.553 708.65 491.846 709.529 491.846 709.529C493.017 709.822 490.967 713.339 490.967 714.511L478.076 743.526C478.076 744.112 476.318 746.456 475.732 746.749L454.052 768.437L451.122 771.367L426.513 795.986C425.927 796.572 423.876 798.33 423.29 798.33L395.457 810.932H394.286C393.993 810.932 393.7 810.053 393.7 810.053C392.528 809.76 394.579 806.243 394.579 805.071L407.176 776.643C407.176 776.057 408.934 773.712 409.52 773.419L431.493 751.438L434.13 748.801L459.033 723.89C459.618 723.304 461.669 721.545 462.255 721.545L489.795 709.236H491.26V708.65Z" fill="#1B273D" fill-opacity="0.1"/>
<path d="M593.508 708.65C593.801 708.65 593.801 709.529 593.801 709.529C594.387 709.822 591.75 713.632 591.75 714.511L575.637 741.181C575.637 741.767 573.586 744.111 573.293 744.404L552.199 765.506L549.562 768.143L525.538 792.175C525.246 792.468 522.902 794.52 522.316 794.52L496.534 810.053H495.362C495.069 810.053 495.069 809.174 495.069 809.174C494.483 808.88 497.12 805.07 497.12 804.191L512.941 777.815C512.941 777.229 514.991 774.884 515.284 774.591L536.964 752.904L539.601 750.266L563.918 725.941C564.211 725.648 566.555 723.596 567.141 723.596L592.629 708.063H593.508V708.65Z" fill="#1B273D" fill-opacity="0.1"/>
<path d="M695.755 708.943C695.755 708.943 695.755 710.115 696.048 710.115C696.341 710.115 692.825 714.511 692.825 714.804L673.489 739.422C673.489 739.716 671.145 742.06 670.852 742.353L650.051 763.161L647.415 765.799L623.977 789.245C623.684 789.538 621.34 791.882 621.047 791.882L597.316 810.639H596.144C596.144 810.639 596.144 809.467 595.851 809.467C595.558 809.467 599.074 805.071 599.074 804.778L618.117 780.453C618.117 780.16 620.461 777.815 620.754 777.522L641.848 756.421L644.485 753.783L668.216 730.044C668.509 729.751 670.852 727.406 671.145 727.406L694.583 708.943H695.755Z" fill="#1B273D" fill-opacity="0.1"/>
<path d="M796.828 708.943H797.999V710.115L747.901 760.231L698.096 810.346H696.924V808.881L746.729 759.058L796.828 708.943Z" fill="#1B273D" fill-opacity="0.1"/>
<path d="M796.828 0H797.999V1.17229L747.901 51.2877L698.096 101.403H696.924V99.9378L746.729 50.1154L796.828 0Z" fill="#1B273D" fill-opacity="0.1"/>
<path d="M696.337 0V1.17229L646.532 51.2877L596.434 101.403H595.262V99.9378L645.067 50.1154L695.165 0H696.337Z" fill="#1B273D" fill-opacity="0.1"/>
<path d="M594.97 0V1.17229L544.872 51.2877L495.066 101.403H493.602V99.9378L543.7 50.1154L593.505 0H594.97Z" fill="#1B273D" fill-opacity="0.1"/>
<path d="M493.308 0V1.17229L443.503 51.2877L393.404 101.403H392.232V99.9378L442.038 50.1154L492.136 0H493.308Z" fill="#1B273D" fill-opacity="0.1"/>
<path d="M391.939 0V1.17229L341.841 51.2877L291.742 101.403H290.57V99.9378L340.669 50.1154L390.474 0H391.939Z" fill="#1B273D" fill-opacity="0.1"/>
<path d="M290.281 0V1.17229L240.182 51.2877L190.377 101.403H188.912V99.9378L239.01 50.1154L289.109 0H290.281Z" fill="#1B273D" fill-opacity="0.1"/>
<path d="M188.611 0V1.17229L138.805 51.2877L88.7071 101.403H87.5352V99.9378L137.341 50.1154L187.439 0H188.611Z" fill="#1B273D" fill-opacity="0.1"/>
<path d="M85.7827 0H87.2475V1.17229L37.1492 51.2877L-12.9492 101.403H-14.1211V99.9378L35.9773 50.1154L85.7827 0Z" fill="#1B273D" fill-opacity="0.1"/>
<path d="M797.999 101.404V102.577L747.901 152.399L698.096 202.514H696.924V201.342L746.729 151.227L796.828 101.404H797.999Z" fill="#1B273D" fill-opacity="0.1"/>
<path d="M696.341 101.11V102.282L692.533 106.385L670.853 128.952L668.216 131.589L647.122 152.691L644.485 155.328L621.047 178.774L618.41 181.412L596.731 202.513H595.559V201.341L599.367 197.238L620.754 174.964L623.391 172.326L644.778 150.932L647.122 148.295L670.853 124.556L673.489 121.918L695.169 101.11H696.341Z" fill="#1B273D" fill-opacity="0.1"/>
<path d="M594.673 101.11V102.282L590.865 106.385L569.478 129.245L566.841 131.882L545.747 152.984L543.11 155.621L519.672 179.067L517.036 181.705L495.063 202.22H493.891V201.048L497.699 196.945L518.793 174.378L521.43 171.74L542.817 150.346L545.161 148.001L568.892 124.263L571.528 121.625L593.501 101.11H594.673Z" fill="#1B273D" fill-opacity="0.1"/>
<path d="M493.014 101.11V102.282C493.307 102.282 489.206 106.385 489.206 106.678L468.112 129.831C468.112 129.831 465.475 132.469 465.475 132.762L444.674 153.57L442.037 156.208L418.599 179.653L415.963 182.291L393.404 202.513H392.232V201.341C391.939 201.341 396.04 197.238 396.04 196.945L416.549 174.085C416.549 174.085 419.185 171.447 419.185 171.154L440.572 149.76L443.209 147.122L466.94 123.383C466.94 123.383 469.577 120.746 469.87 120.746L492.136 100.817H493.014V101.11Z" fill="#1B273D" fill-opacity="0.1"/>
<path d="M391.353 101.11V102.282C391.646 102.282 387.838 106.385 387.838 106.678L367.33 130.417C367.33 130.417 364.693 133.055 364.693 133.348L343.892 154.156L341.255 156.794L317.817 180.239C317.817 180.239 315.18 182.877 314.887 182.877L292.036 202.806H290.864V201.634C290.571 201.634 294.379 197.531 294.379 197.238L314.595 174.085C314.595 174.085 317.231 171.447 317.231 171.154L338.325 150.053L340.962 147.415L364.693 123.676C364.693 123.676 367.33 121.039 367.623 121.039L390.182 101.403H391.353V101.11Z" fill="#1B273D" fill-opacity="0.1"/>
<path d="M289.691 101.11C289.691 101.11 289.691 102.282 289.984 102.282C290.277 102.282 286.469 106.678 286.469 106.678L266.254 130.71C266.254 131.003 263.617 133.348 263.617 133.641L242.816 154.449L240.179 157.087L216.741 180.533C216.741 180.533 214.104 183.17 213.811 183.17L190.666 202.513H189.495C189.495 202.513 189.495 201.341 189.202 201.341C188.909 201.341 192.717 196.945 192.717 196.945L212.639 173.499C212.639 173.206 215.276 170.861 215.276 170.568L236.37 149.467L239.007 146.829L262.738 123.09C262.738 123.09 265.375 120.453 265.668 120.453L288.519 101.11H289.691Z" fill="#1B273D" fill-opacity="0.1"/>
<path d="M188.031 101.11C188.031 101.11 188.031 102.282 188.324 102.282C188.617 102.282 184.808 106.678 184.808 106.971L165.179 131.296C165.179 131.589 162.836 133.934 162.543 134.227L141.741 155.035L139.105 157.673L115.667 181.119C115.667 181.119 113.03 183.756 112.737 183.756L89.2993 202.806H88.1274C88.1274 202.806 88.1274 201.634 87.8344 201.634C87.5415 201.634 91.3501 197.238 91.3501 196.945L110.686 172.913C110.686 172.62 113.03 170.275 113.323 169.982L134.417 148.881L137.054 146.243L160.785 122.504C160.785 122.504 163.421 119.867 163.714 119.867L186.859 101.11H188.031Z" fill="#1B273D" fill-opacity="0.1"/>
<path d="M86.3684 101.11C86.3684 101.11 86.3684 102.282 86.6614 102.282C86.9543 102.282 83.4386 106.678 83.4386 106.971L64.1024 131.589C64.1024 131.882 61.7587 134.227 61.4657 134.52L40.6646 155.328L38.0279 157.966L14.59 181.412C14.297 181.705 11.9533 184.049 11.6603 184.049L-12.0705 202.806H-13.5354C-13.5354 202.806 -13.5354 201.634 -13.8284 201.634C-14.1213 201.634 -10.6057 197.238 -10.6057 196.945L8.43758 172.62C8.43758 172.327 10.7814 169.982 11.0743 169.689L32.1684 148.588L34.8051 145.95L58.536 122.211C58.8289 121.918 61.1727 119.573 61.4657 119.573L84.9035 101.11H86.3684Z" fill="#1B273D" fill-opacity="0.1"/>
<path d="M797.999 202.514V203.686L747.901 253.801L698.096 303.917H696.924V302.451L746.729 252.629L796.828 202.514H797.999Z" fill="#1B273D" fill-opacity="0.1"/>
<path d="M696.339 202.514V203.686L692.824 207.496L671.73 230.062C671.73 230.062 669.093 232.7 669.093 232.993L647.706 254.388L645.069 257.025L621.338 280.764L618.702 283.402L597.021 303.624H595.85V302.451L599.365 298.641L620.166 276.368L622.803 273.73L644.776 251.75L647.413 249.112L671.437 225.08L674.073 222.443L695.46 202.514H696.339Z" fill="#1B273D" fill-opacity="0.1"/>
<path d="M594.384 202.513V203.686C594.677 203.686 591.161 207.496 591.161 207.789L570.946 231.234C570.946 231.234 568.309 233.872 568.309 234.165L546.922 255.559L544.286 258.197L520.555 281.936C520.555 281.936 517.918 284.574 517.625 284.574L495.066 304.209H493.894V303.037C493.601 303.037 497.117 299.227 497.117 298.934L517.039 276.074C517.039 276.074 519.676 273.437 519.676 273.144L541.649 250.87L544.286 248.233L568.309 224.201C568.309 224.201 570.946 221.563 571.239 221.563L593.212 202.22H594.384V202.513Z" fill="#1B273D" fill-opacity="0.1"/>
<path d="M492.721 202.513C492.721 202.513 492.721 203.686 493.014 203.686C493.307 203.686 490.085 207.496 490.085 208.082L470.748 232.114C470.748 232.407 468.405 234.751 468.112 235.044L446.725 256.439L444.088 259.076L420.357 282.815C420.357 282.815 417.72 285.453 417.427 285.453L394.283 304.209H393.111C393.111 304.209 393.111 303.037 392.818 303.037C392.525 303.037 395.747 299.227 395.747 298.641L414.791 274.902C414.791 274.609 417.134 272.265 417.427 271.971L439.107 250.284L441.744 247.646L466.061 223.321C466.061 223.321 468.698 220.684 468.991 220.684L491.843 202.22H492.721V202.513Z" fill="#1B273D" fill-opacity="0.1"/>
<path d="M391.061 202.513L391.354 203.686C391.647 203.686 388.717 207.789 388.717 208.082L369.967 232.7C369.967 232.993 367.623 235.337 367.33 235.63L345.943 257.025L343.307 259.662L319.576 283.401C319.283 283.694 316.939 286.039 316.646 286.039L292.915 303.916H291.743L291.45 302.744C291.157 302.744 294.087 298.641 294.087 298.348L312.251 274.023C312.251 273.73 314.595 271.385 314.888 271.092L336.568 249.405L339.205 246.767L363.522 222.442C363.815 222.149 366.158 219.805 366.451 219.805L389.889 202.22H391.061V202.513Z" fill="#1B273D" fill-opacity="0.1"/>
<path d="M289.11 202.22L289.403 203.393C289.989 203.393 286.766 207.496 286.766 208.082L269.188 233.286C269.188 233.579 266.844 236.217 266.551 236.217L245.164 257.611L242.82 260.542L218.796 284.574C218.503 284.867 216.159 287.211 215.867 287.211L191.257 304.503H190.085L189.792 303.33C189.206 303.33 192.429 299.227 192.429 298.641L210.007 273.73C210.007 273.437 212.351 270.799 212.644 270.799L234.324 249.112L236.961 246.474L261.277 222.149C261.57 221.856 263.914 219.511 264.207 219.511L288.524 202.513H289.11V202.22Z" fill="#1B273D" fill-opacity="0.1"/>
<path d="M187.444 202.22L187.737 203.099C188.323 203.392 185.393 207.202 185.393 207.789L168.401 233.872C168.401 234.165 166.057 236.803 166.057 236.803L144.67 258.197L142.033 260.835L118.01 284.867C117.717 285.16 115.373 287.211 115.08 287.211L89.8841 303.623H88.7123L88.4193 302.744C87.8333 302.451 90.7631 298.641 90.7631 298.055L107.463 272.265C107.463 271.971 109.806 269.334 109.806 269.334L131.486 247.646L134.123 245.009L158.44 220.684C158.733 220.391 161.077 218.339 161.37 218.339L186.272 202.22H187.444Z" fill="#1B273D" fill-opacity="0.1"/>
<path d="M85.7817 202.22C86.0747 202.22 86.0746 203.099 86.0746 203.099C86.6606 203.392 84.0238 207.202 84.0238 208.081L67.9103 234.751C67.9103 235.337 65.8595 237.682 65.5666 237.975L44.4725 259.076L41.8357 261.714L17.812 285.746C17.519 286.039 15.1752 288.09 14.5893 288.09L-11.1924 303.623H-12.6572C-12.9502 303.623 -12.9502 302.744 -12.9502 302.744C-13.5361 302.451 -10.8994 298.641 -10.8994 297.762L4.92115 271.385C4.92115 270.799 6.97196 268.454 7.26494 268.161L28.9449 246.474L31.5817 243.836L55.8984 219.511C56.1914 219.218 58.5352 217.167 59.1211 217.167L84.6098 201.634H85.7817V202.22Z" fill="#1B273D" fill-opacity="0.1"/>
<path d="M797.999 303.916V305.088L747.901 355.204L698.096 405.026H696.924V403.854L746.729 353.738L796.828 303.916H797.999Z" fill="#1B273D" fill-opacity="0.1"/>
<path d="M696.042 303.623V304.795C696.335 304.795 692.82 308.605 692.82 308.605L672.311 331.465C672.311 331.465 669.675 334.103 669.675 334.396L647.995 356.083L645.358 358.721L621.627 382.46C621.627 382.46 618.99 385.097 618.697 385.097L596.724 404.733H595.553V403.561C595.26 403.561 598.775 399.751 598.775 399.751L618.99 377.184C618.99 377.184 621.627 374.547 621.627 374.254L643.6 352.273L646.237 349.636L670.261 325.604C670.261 325.604 672.897 322.966 673.19 322.966L694.87 303.33H696.042V303.623Z" fill="#1B273D" fill-opacity="0.1"/>
<path d="M594.382 303.623C594.382 303.623 594.382 304.795 594.675 304.795C594.968 304.795 591.745 308.605 591.745 308.898L572.409 332.637C572.409 332.93 570.065 335.275 569.772 335.568L548.092 357.255L545.455 359.893L521.431 383.925C521.431 383.925 518.795 386.563 518.502 386.563L495.65 405.026H494.478C494.478 405.026 494.478 403.854 494.185 403.854C493.892 403.854 497.115 400.044 497.115 399.751L516.158 376.305C516.158 376.012 518.502 373.667 518.795 373.374L540.768 351.394L543.404 348.756L567.721 324.431C567.721 324.431 570.358 321.794 570.651 321.794L593.21 303.33H594.382V303.623Z" fill="#1B273D" fill-opacity="0.1"/>
<path d="M492.43 303.623L492.723 304.795C493.309 304.795 490.38 308.605 490.38 308.898L472.508 333.81C472.508 334.103 470.164 336.74 469.872 336.74L448.192 358.428L445.555 361.065L421.531 385.097C421.238 385.39 418.894 387.735 418.601 387.735L394.578 405.026H393.406L393.113 403.854C392.527 403.854 395.456 400.044 395.456 399.458L413.328 374.84C413.328 374.547 415.672 371.909 415.965 371.909L437.938 349.929L440.574 347.291L464.891 322.966C465.184 322.673 467.528 320.328 467.821 320.328L491.552 303.33H492.43V303.623Z" fill="#1B273D" fill-opacity="0.1"/>
<path d="M390.477 303.623L390.77 304.502C391.356 304.795 388.719 308.312 388.719 308.898L372.02 334.689C372.02 334.982 369.676 337.62 369.676 337.913L347.996 359.6L345.359 362.238L321.042 386.563C320.749 386.856 318.406 388.907 318.113 388.907L293.21 405.026H292.038L291.745 404.147C291.159 403.854 293.796 400.337 293.796 399.751L310.202 374.254C310.202 373.961 312.546 371.323 312.546 371.03L334.519 349.049L337.156 346.412L361.766 321.794C362.059 321.501 364.402 319.156 364.988 319.156L389.598 303.33H390.477V303.623Z" fill="#1B273D" fill-opacity="0.1"/>
<path d="M288.814 303.624C289.107 303.624 289.107 304.503 289.4 304.503C290.279 304.796 287.935 308.313 287.935 309.192L272.407 336.155C272.407 336.741 270.357 339.085 270.064 339.378L248.384 361.066L245.747 363.703L221.43 388.028C221.137 388.322 218.793 390.373 218.207 390.373L192.426 405.32H191.254C190.961 405.32 190.961 404.44 190.668 404.44C189.789 404.147 192.133 400.631 192.133 399.751L207.367 373.375C207.367 372.789 209.418 370.444 209.711 370.151L231.684 348.171L234.321 345.533L258.931 320.915C259.224 320.622 261.567 318.57 262.153 318.57L287.642 303.917H288.814V303.624Z" fill="#1B273D" fill-opacity="0.1"/>
<path d="M186.857 303.624C187.15 303.624 187.15 304.503 187.443 304.503C188.322 304.796 186.271 308.313 186.271 309.485L172.208 337.327C172.208 337.913 170.158 340.258 169.865 340.551L148.185 362.238L145.548 364.876L120.938 389.494C120.645 389.787 118.301 391.838 117.715 391.838L90.762 405.613H89.5901C89.2971 405.613 89.2971 404.734 89.0041 404.734C88.1252 404.441 90.176 400.924 90.176 399.751L104.239 372.203C104.239 371.616 106.29 369.272 106.582 368.979L128.555 346.998L131.192 344.361L156.095 319.449C156.388 319.156 158.732 317.105 159.318 317.105L185.978 303.624H186.857Z" fill="#1B273D" fill-opacity="0.1"/>
<path d="M84.9041 303.33C85.1971 303.33 85.49 304.209 85.49 304.209C86.6619 304.502 84.6111 308.019 84.6111 309.192L71.7203 338.206C71.7203 338.792 69.9625 341.136 69.3765 341.43L47.6965 363.117L44.7668 366.048L20.1571 390.666C19.5711 391.252 17.5203 393.01 16.9344 393.01L-10.898 405.612H-12.0699C-12.3629 405.612 -12.6559 404.733 -12.6559 404.733C-13.8278 404.44 -11.777 400.923 -11.777 399.751L0.820871 371.323C0.820871 370.737 2.57871 368.392 3.16465 368.099L25.1376 346.119L27.7744 343.481L52.6771 318.57C53.263 317.984 55.3138 316.225 55.8998 316.225L83.4392 303.916H84.9041V303.33Z" fill="#1B273D" fill-opacity="0.1"/>
<path d="M797.999 405.026V406.491L747.901 456.314L698.096 506.429H696.924V505.257L746.729 455.141L796.828 405.026H797.999Z" fill="#1B273D" fill-opacity="0.1"/>
<path d="M696.046 405.026V406.198C696.046 406.491 693.703 409.129 693.703 409.129L673.487 432.282C673.487 432.282 670.851 434.919 670.851 435.212L649.464 456.607L648.292 457.779L646.827 459.244L622.51 483.569C622.51 483.569 619.873 486.207 619.58 486.207L597.022 505.55L596.143 506.136H594.971V504.964C594.971 504.671 597.314 502.033 597.314 502.033L617.237 479.173C617.237 479.173 619.873 476.536 619.873 476.242L641.553 454.555L642.725 453.383L644.19 451.917L668.507 427.592C668.507 427.592 671.144 424.955 671.437 424.955L693.703 405.612L694.581 405.026C695.167 405.026 696.046 405.026 696.046 405.026Z" fill="#1B273D" fill-opacity="0.1"/>
<path d="M594.38 405.026L594.673 406.199C594.673 406.492 592.622 409.13 592.622 409.423L574.165 434.041C574.165 434.334 571.821 436.678 571.528 436.971L549.848 458.659L548.677 459.831L547.212 461.296L522.895 485.621C522.602 485.915 520.258 488.259 519.965 488.259L496.234 506.137L495.355 506.723L494.184 506.43L493.891 505.257C493.891 504.964 495.941 502.327 495.941 502.033L514.106 477.708C514.106 477.415 516.45 475.071 516.743 474.778L538.715 452.797L539.887 451.625L541.352 450.16L565.962 425.542C566.255 425.248 568.599 422.904 568.892 422.904L592.33 405.32L593.208 404.733C593.208 405.026 594.38 405.026 594.38 405.026Z" fill="#1B273D" fill-opacity="0.1"/>
<path d="M492.427 405.026C492.72 405.026 492.72 405.906 492.72 406.199C492.72 406.785 490.962 409.129 490.962 409.716L474.263 435.506C474.263 435.799 471.919 438.437 471.919 438.437L450.239 460.124L449.067 461.296L447.602 462.762L422.993 487.38C422.7 487.673 420.356 489.724 420.063 489.724L395.16 505.843L394.281 506.137C394.281 506.137 393.402 505.843 393.109 505.843C392.816 505.843 392.816 504.964 392.816 504.671C392.816 504.085 394.574 501.74 394.574 501.154L410.981 475.657C410.981 475.364 413.325 472.726 413.325 472.726L435.297 450.746L436.469 449.574L437.934 448.108L462.544 423.49C462.837 423.197 465.181 420.852 465.767 420.852L490.376 405.026L491.255 404.733C491.548 405.026 492.427 405.026 492.427 405.026Z" fill="#1B273D" fill-opacity="0.1"/>
<path d="M390.767 405.32C391.06 405.32 391.06 406.199 391.06 406.492C391.06 407.078 389.595 409.423 389.595 410.009L374.654 437.264C374.654 437.851 372.603 440.195 372.31 440.488L350.63 462.176L349.458 463.348L347.993 464.813L323.383 489.431C323.09 489.724 320.746 491.776 320.161 491.776L294.086 506.137L293.207 506.43C292.914 506.43 292.328 506.137 292.328 506.137C292.035 506.137 292.035 505.257 292.035 504.964C292.035 504.378 293.5 502.034 293.5 501.447L308.149 474.778C308.149 474.192 310.199 471.847 310.492 471.554L332.758 449.28L333.93 448.108L335.395 446.643L360.298 421.732C360.591 421.439 362.935 419.387 363.521 419.387L389.302 405.026L390.181 404.733C389.888 404.733 390.474 405.026 390.767 405.32Z" fill="#1B273D" fill-opacity="0.1"/>
<path d="M288.816 405.319C289.109 405.319 289.402 405.905 289.402 406.491C289.695 407.371 288.523 409.422 288.523 410.301L275.339 438.729C275.339 439.316 273.581 441.66 272.995 441.953L251.022 463.934L249.851 465.106L248.386 466.571L223.483 491.483C222.897 492.069 220.846 493.827 220.26 493.827L192.721 506.429L191.842 506.722C191.549 506.722 190.963 506.429 190.963 506.136C190.67 506.136 190.377 505.55 190.377 504.964C190.084 504.085 191.256 502.033 191.256 501.154L204.147 473.019C204.147 472.433 205.905 470.088 206.491 469.795L228.757 447.522L229.928 446.349L231.393 444.884L256.589 419.68C257.175 419.094 259.226 417.335 259.812 417.335L286.765 404.733L287.937 404.44C287.937 404.733 288.523 405.026 288.816 405.319Z" fill="#1B273D" fill-opacity="0.1"/>
<path d="M186.86 405.319C187.153 405.319 187.446 405.905 187.446 406.198C187.739 407.078 186.86 409.422 186.86 410.301L175.434 439.902C175.434 440.781 173.676 442.832 173.09 443.419L151.117 465.399L149.652 466.571L148.188 468.037L123.285 492.948C122.699 493.534 120.648 495.292 119.769 495.292L91.0579 506.429H89.886C89.593 506.429 89.3 505.843 89.0071 505.843C88.7141 505.843 88.4211 505.257 88.4211 504.964C88.1281 504.085 89.0071 501.74 89.0071 500.861L100.14 471.554C100.14 470.674 101.898 468.623 102.484 468.037L125.043 445.47L126.215 444.298L127.679 442.832L152.875 417.628C153.461 417.042 155.512 415.284 156.391 415.284L184.809 404.44H185.981C186.274 404.733 186.86 405.026 186.86 405.319Z" fill="#1B273D" fill-opacity="0.1"/>
<path d="M84.3176 404.733C84.6105 404.733 84.9035 405.319 85.1965 405.319C86.6613 405.612 85.7824 408.836 85.7824 410.594L76.1143 441.367C76.1143 442.246 74.6494 444.298 74.0635 444.884L51.7976 467.157L48.8678 470.088L23.6722 495.292C23.0862 495.879 21.0354 497.344 20.1565 497.344L-9.72674 506.722H-11.1916C-11.4846 506.722 -11.7776 506.136 -12.0705 506.136C-13.5354 505.843 -12.6565 502.619 -12.6565 500.861L-3.28134 470.381C-3.28134 469.502 -1.81648 467.451 -1.23053 466.864L21.3284 444.298L24.2581 441.367L49.7468 415.87C50.3327 415.284 52.3835 413.818 53.2624 413.818L82.8527 404.44H84.3176V404.733Z" fill="#1B273D" fill-opacity="0.1"/>
<path d="M797.999 506.429V507.602L747.901 557.717L698.096 607.539H696.924V606.367L746.729 556.252L796.828 506.429H797.999Z" fill="#1B273D" fill-opacity="0.1"/>
<path d="M696.044 506.429C696.044 506.429 696.044 507.602 696.337 507.602C696.337 507.895 693.994 510.532 693.994 510.825L674.071 534.564C674.071 534.857 671.435 537.202 671.435 537.495L650.048 558.596L648.876 559.768L647.411 561.234L623.387 585.266C623.387 585.266 620.75 587.903 620.457 587.903L597.606 607.246L596.727 607.832H595.555C595.555 607.832 595.555 606.66 595.262 606.66C595.262 606.367 597.606 603.729 597.606 603.436L617.235 579.991C617.235 579.697 619.871 577.353 619.871 577.06L641.551 555.372L642.723 554.2L644.188 552.735L668.505 528.41C668.505 528.41 671.142 525.772 671.435 525.772L693.994 506.722L694.872 506.136C694.872 506.429 696.044 506.429 696.044 506.429Z" fill="#1B273D" fill-opacity="0.1"/>
<path d="M594.091 506.429C594.091 506.429 594.384 507.308 594.384 507.601C594.677 507.894 592.333 510.532 592.333 511.118L574.755 536.322C574.755 536.616 572.411 539.253 572.118 539.253L550.438 560.941L549.266 562.113L547.509 563.578L523.192 587.903C522.899 588.196 520.555 590.541 520.262 590.541L495.945 607.539L495.066 608.125H493.894C493.894 608.125 493.602 607.246 493.602 606.953C493.309 606.66 495.652 604.022 495.652 603.436L512.938 578.525C512.938 578.232 515.282 575.594 515.574 575.594L537.547 553.614L538.719 552.441L540.184 550.976L564.794 526.358C565.087 526.065 567.431 523.72 567.724 523.72L591.747 507.015L592.626 506.429C593.212 506.136 594.091 506.429 594.091 506.429Z" fill="#1B273D" fill-opacity="0.1"/>
<path d="M492.431 506.43C492.724 506.43 492.724 507.309 493.017 507.603C493.31 508.189 491.552 510.533 491.552 511.412L476.317 538.375C476.317 538.961 474.267 541.306 473.974 541.599L452.294 563.286L451.122 564.459L449.364 566.217L424.754 590.835C424.461 591.128 422.117 593.18 421.531 593.18L395.457 608.126L394.578 608.419C394.285 608.419 393.406 608.126 393.406 608.126C393.113 608.126 393.113 607.247 392.82 606.954C392.527 606.368 394.285 604.023 394.285 603.144L409.519 576.768C409.519 576.181 411.57 573.837 411.863 573.544L433.836 551.563L435.008 550.391L436.473 548.926L461.376 524.015C461.669 523.721 464.012 521.67 464.598 521.67L490.087 507.016L490.966 506.723C491.259 506.137 492.138 506.43 492.431 506.43Z" fill="#1B273D" fill-opacity="0.1"/>
<path d="M390.474 506.429C390.767 506.429 391.06 507.309 391.06 507.309C391.353 507.895 390.181 510.239 390.181 511.118L376.997 539.546C376.997 540.133 375.24 542.477 374.654 542.77L352.681 564.751L351.509 565.923L349.751 567.681L324.848 592.593C324.262 593.179 322.212 594.937 321.626 594.937L294.086 607.539L293.207 607.832C292.914 607.832 292.328 607.539 292.035 607.539C291.742 607.539 291.449 606.66 291.449 606.66C291.156 606.074 292.328 603.729 292.328 602.85L305.219 574.715C305.219 574.129 306.977 571.784 307.563 571.491L329.829 549.218L331.001 548.046L332.466 546.58L357.661 521.376C358.247 520.79 360.298 519.031 360.884 519.031L387.837 506.429L388.716 506.136C389.302 506.136 390.181 506.136 390.474 506.429Z" fill="#1B273D" fill-opacity="0.1"/>
<path d="M288.517 506.429C288.81 506.429 289.103 507.015 289.396 507.308C289.982 508.187 289.103 510.532 289.103 511.411L278.263 541.305C278.263 542.184 276.505 544.235 275.919 544.821L253.653 567.095L252.482 568.267L250.724 570.026L225.528 595.23C224.942 595.816 222.891 597.575 222.012 597.575L193.008 608.125L191.836 608.418C191.543 608.418 190.957 608.125 190.664 608.125C190.371 608.125 190.078 607.539 189.785 607.246C189.199 606.367 190.078 604.022 190.078 603.143L200.918 573.543C200.918 572.663 202.676 570.612 203.262 570.026L225.821 547.459L226.993 546.287L228.751 544.528L254.239 519.031C254.825 518.445 256.876 516.686 257.755 516.686L286.173 506.136L287.345 505.843C287.638 505.843 288.224 506.136 288.517 506.429Z" fill="#1B273D" fill-opacity="0.1"/>
<path d="M186.563 506.136C186.856 506.136 187.149 506.722 187.442 507.015C188.028 507.894 187.735 510.239 187.735 511.411L178.946 543.063C178.946 543.942 177.481 545.994 176.895 546.58L154.336 569.146L153.164 570.319L151.406 572.077L125.918 597.575C125.332 598.161 123.281 599.626 122.402 599.626L91.9327 608.125H90.7608C90.4678 608.125 89.8819 607.832 89.5889 607.832C89.2959 607.832 89.0029 607.246 88.71 606.953C88.124 606.074 88.417 603.729 88.417 602.557L96.9132 571.491C96.9132 570.612 98.3781 568.56 98.964 567.974L121.816 545.114L122.988 543.942L124.746 542.184L150.527 516.393C151.113 515.807 153.164 514.342 154.043 514.342L184.219 505.843H185.391C185.684 505.843 186.27 506.136 186.563 506.136Z" fill="#1B273D" fill-opacity="0.1"/>
<path d="M83.4389 505.843C83.7318 505.843 84.3178 506.136 84.6107 506.429C86.3686 507.015 86.3686 509.946 86.3686 511.704L79.9232 544.822C79.9232 545.994 78.7513 547.752 77.8724 548.632L55.0205 571.491L52.0908 574.422L26.3092 600.212C25.4302 601.091 23.6724 602.264 22.5005 602.264L-9.14056 608.418H-10.6054C-10.8984 608.418 -11.4843 608.125 -11.7773 607.832C-13.5352 607.246 -13.5352 604.315 -13.5352 602.557L-7.08975 569.733C-7.08975 568.56 -5.91786 566.802 -5.03894 565.923L18.1059 542.77L21.0356 539.839L47.1102 513.756C47.9891 512.877 49.747 511.704 50.9189 511.704L82.5599 505.55H83.4389V505.843Z" fill="#1B273D" fill-opacity="0.1"/>
<path d="M797.999 607.539V609.004L747.901 658.827L698.096 708.942H696.924V707.77L746.729 657.654L796.828 607.539H797.999Z" fill="#1B273D" fill-opacity="0.1"/>
<path d="M696.047 607.539C696.047 607.539 696.047 608.711 696.34 608.711C696.633 609.004 693.704 611.935 693.704 612.228L674.074 636.26C674.074 636.553 671.731 638.898 671.438 639.191L650.344 660.292L649.172 661.464L647.707 662.93L623.976 686.669C623.976 686.669 621.339 689.306 621.046 689.306L597.609 708.356L596.73 708.942H595.558C595.558 708.942 595.558 707.77 595.265 707.77C594.972 707.477 597.901 704.546 597.901 704.253L617.238 680.514C617.238 680.221 619.581 677.877 619.874 677.583L641.261 656.189L642.14 655.31L643.605 653.845L667.629 629.813C667.629 629.813 670.266 627.175 670.559 627.175L693.704 608.418L694.583 607.832C694.876 607.539 696.047 607.539 696.047 607.539Z" fill="#1B273D" fill-opacity="0.1"/>
<path d="M594.091 607.539C594.091 607.539 594.384 608.418 594.384 608.711C594.677 609.004 592.626 611.935 592.626 612.521L575.926 638.605C575.926 638.898 573.875 641.536 573.582 641.536L552.196 662.93L551.024 664.102L549.266 665.861L524.949 690.186C524.656 690.479 522.312 692.53 522.019 692.53L496.824 708.942L495.945 709.528H494.773C494.773 709.528 494.48 708.649 494.48 708.356C494.187 708.063 496.238 705.132 496.238 704.546L512.937 678.756C512.937 678.463 515.281 675.825 515.281 675.825L536.961 654.138L537.84 653.258L539.598 651.5L563.914 627.175C564.207 626.882 566.551 624.83 566.844 624.83L591.747 608.711L592.626 608.125C592.919 607.539 594.091 607.539 594.091 607.539Z" fill="#1B273D" fill-opacity="0.1"/>
<path d="M492.137 607.54C492.43 607.54 492.43 608.419 492.723 608.419C493.309 609.005 491.551 611.643 491.551 612.522L477.488 640.364C477.488 640.95 475.437 643.294 475.144 643.588L453.464 665.275L452.292 666.447L450.534 668.206L425.925 692.824C425.632 693.117 423.288 695.168 422.702 695.168L395.749 708.943L394.87 709.236C394.577 709.236 393.698 709.236 393.698 708.943C393.405 708.943 393.405 708.064 393.112 708.064C392.526 707.477 394.284 704.84 394.284 703.961L408.053 676.412C408.053 675.826 410.104 673.481 410.397 673.188L432.663 650.914L433.542 650.035L435.3 648.277L460.203 623.366C460.496 623.073 462.839 621.021 463.425 621.021L490.086 607.54L490.965 607.247C490.965 607.247 491.844 607.54 492.137 607.54Z" fill="#1B273D" fill-opacity="0.1"/>
<path d="M390.182 607.539C390.475 607.539 390.768 608.418 390.768 608.418C391.647 609.004 390.475 611.642 390.475 612.521L379.049 642.121C379.049 643 377.291 645.052 376.705 645.638L354.439 667.912L353.267 669.084L351.509 670.842L326.314 696.047C325.728 696.633 323.677 698.391 322.798 698.391L294.087 709.528L292.915 709.821C292.622 709.821 291.743 709.821 291.743 709.528C291.45 709.528 291.157 708.649 291.157 708.649C290.278 708.063 291.45 705.425 291.45 704.546L302.583 675.238C302.583 674.359 304.341 672.308 304.927 671.722L327.486 649.155L328.365 648.276L330.122 646.517L355.318 621.313C355.904 620.727 357.955 618.969 358.834 618.969L387.252 608.125L388.424 607.832C389.01 607.246 389.889 607.246 390.182 607.539Z" fill="#1B273D" fill-opacity="0.1"/>
<path d="M288.226 607.247C288.519 607.247 288.812 607.833 289.105 608.126C289.984 609.005 289.398 611.35 289.398 612.522L280.609 644.174C280.609 645.053 279.144 647.104 278.558 647.691L255.999 670.257L254.827 671.429L253.069 673.188L227.581 698.685C226.995 699.271 224.944 700.737 224.065 700.737L193.596 709.236L192.424 709.529C192.131 709.529 191.545 709.236 191.252 709.236C190.959 709.236 190.666 708.65 190.373 708.357C189.494 707.477 190.08 705.133 190.08 703.961L198.576 672.895C198.576 672.016 200.041 669.964 200.627 669.378L223.479 646.518L224.651 645.346L226.409 643.588L252.19 617.797C252.776 617.211 254.827 615.746 255.706 615.746L285.882 607.54L287.054 607.247C287.054 607.247 287.933 607.247 288.226 607.247Z" fill="#1B273D" fill-opacity="0.1"/>
<path d="M186.271 607.248C186.564 607.248 187.15 607.834 187.443 607.834C188.615 608.713 188.615 611.058 188.615 612.523L182.755 645.934C182.755 647.106 181.583 648.864 180.704 649.743L157.853 672.603L156.681 673.775L154.923 675.534L128.848 701.617C127.969 702.497 126.211 703.669 125.04 703.669L92.8126 709.53H91.6407C91.3477 709.53 90.7618 709.237 90.4688 709.237C90.1758 709.237 89.5899 708.651 89.2969 708.651C88.125 707.772 88.125 705.427 88.125 703.962L93.9845 670.845C93.9845 669.672 95.1564 667.914 96.0353 667.035L119.18 643.882L120.352 642.71L122.11 640.951L148.184 614.868C149.063 613.989 150.821 612.816 151.993 612.816L183.927 607.248H185.099C185.099 606.955 185.685 607.248 186.271 607.248Z" fill="#1B273D" fill-opacity="0.1"/>
<path d="M82.8529 606.953C83.4389 606.953 83.7319 607.246 84.0248 607.246C86.0756 607.833 87.2475 610.47 87.2475 612.815L84.0248 647.983C84.0248 649.449 83.1459 650.914 82.267 651.793L59.1221 675.239L56.1924 678.17L29.8248 704.547C28.9459 705.426 27.1881 706.305 26.0162 706.305L-7.96866 709.529H-9.7265C-10.3124 709.529 -10.6054 709.236 -10.8984 709.236C-12.9492 708.649 -14.1211 706.012 -14.1211 703.667L-10.8984 668.792C-10.8984 667.326 -10.0195 665.861 -9.14055 664.689L14.5903 640.95L17.52 638.019L44.1805 611.349C45.0594 610.47 46.8173 609.591 47.9892 609.591L81.3881 606.367H82.8529V606.953Z" fill="#1B273D" fill-opacity="0.1"/>
<path d="M88.1265 751.438V713.925C88.1265 710.701 85.4897 708.063 82.267 708.063H45.3524C43.8876 708.063 42.4227 708.65 41.2508 709.822L14.0043 737.078L-13.2422 764.333C-14.4141 765.213 -15 766.678 -15 768.436V805.364C-15 808.587 -12.3632 811.225 -9.14054 811.225H28.36C29.8249 811.225 31.2897 810.639 32.4616 809.467L59.4151 782.504L86.3686 755.541C87.5405 754.369 88.1265 752.904 88.1265 751.438Z" fill="#1B273D" fill-opacity="0.1"/>
</svg>
