<svg width="16" height="15" viewBox="0 0 16 15" fill="none" xmlns="http://www.w3.org/2000/svg">
<path d="M7.18785 13.1245L7.99307 12.1059C8.14578 11.9231 8.10413 11.6488 7.89589 11.5182L5.18871 9.62465C5.09152 9.55935 4.96658 9.53323 4.85551 9.54629L1.74573 9.99031C1.62078 10.0034 1.5236 10.0687 1.45418 10.1601L0.648972 11.1787C0.496259 11.3615 0.537908 11.6358 0.746153 11.7664L3.45333 13.6469C3.55051 13.7122 3.67546 13.7383 3.78652 13.7253L6.89631 13.2813C7.02126 13.2682 7.11844 13.216 7.18785 13.1245Z" fill="#F47B47"/>
<path d="M1.71794 8.74982L2.99517 9.15466C3.23118 9.23302 3.48108 9.10242 3.56438 8.88041L4.61948 5.87678C4.66113 5.7723 4.64725 5.65477 4.59172 5.55029L3.18954 2.91231C3.134 2.80784 3.03682 2.72948 2.92576 2.70336L1.64852 2.29853C1.41251 2.22017 1.16262 2.35076 1.07932 2.57277L0.0242165 5.57641C-0.0174324 5.68089 -0.00354941 5.79842 0.0519825 5.90289L1.46805 8.55393C1.5097 8.64535 1.60688 8.71064 1.71794 8.74982Z" fill="#F47B47"/>
<path d="M4.43901 2.50739L4.42513 3.77414C4.42513 4.00921 4.61949 4.2051 4.86938 4.2051L8.22906 4.23122C8.35401 4.23122 8.46507 4.19204 8.54837 4.11368L10.7835 2.03725C10.8668 1.9589 10.9224 1.85442 10.9224 1.73689L10.9362 0.470135C10.9362 0.235067 10.7419 0.0391779 10.492 0.0391779L7.13231 0C7.00736 0 6.8963 0.0391779 6.813 0.117534L4.57784 2.20702C4.49454 2.28538 4.43901 2.38985 4.43901 2.50739Z" fill="#F47B47"/>
<path d="M11.6025 3.00353L10.3114 3.39531C10.0754 3.46061 9.93658 3.70873 10.0199 3.93074L11.0333 6.94744C11.075 7.05192 11.1444 7.14333 11.2555 7.19557L14.0459 8.55374C14.157 8.60597 14.282 8.61903 14.393 8.57985L15.6841 8.20113C15.9201 8.13584 16.059 7.88771 15.9757 7.6657L14.9622 4.649C14.9206 4.54453 14.8512 4.45311 14.7401 4.40088L11.9496 3.02965C11.8385 2.97741 11.7136 2.97741 11.6025 3.00353Z" fill="#F47B47"/>
<path d="M13.3103 9.57244L12.5189 8.54075C12.3801 8.34486 12.0886 8.30569 11.8942 8.44934L9.15925 10.2776C9.06207 10.3429 8.99265 10.4474 8.97877 10.5519L8.4651 13.4772C8.45122 13.5816 8.47898 13.6992 8.5484 13.7906L9.33973 14.8223C9.47856 15.0182 9.7701 15.0573 9.96446 14.9137L12.6994 13.0723C12.7966 13.007 12.866 12.9026 12.8799 12.7981L13.3936 9.8728C13.4074 9.78139 13.3797 9.66385 13.3103 9.57244Z" fill="#F47B47"/>
</svg>
