<svg width="58" height="57" viewBox="0 0 58 57" fill="none" xmlns="http://www.w3.org/2000/svg">
<path d="M50.3333 1H7.16667C3.76091 1 1 3.7236 1 7.08333V49.6667C1 53.0264 3.76091 55.75 7.16667 55.75H50.3333C53.7391 55.75 56.5 53.0264 56.5 49.6667V7.08333C56.5 3.7236 53.7391 1 50.3333 1Z" stroke="#79B2BE" stroke-width="2" stroke-linecap="round" stroke-linejoin="round"/>
<path d="M22.5833 10.125H13.3333C11.6305 10.125 10.25 11.4868 10.25 13.1667V22.2917C10.25 23.9715 11.6305 25.3333 13.3333 25.3333H22.5833C24.2862 25.3333 25.6667 23.9715 25.6667 22.2917V13.1667C25.6667 11.4868 24.2862 10.125 22.5833 10.125Z" stroke="#79B2BE" stroke-width="2" stroke-linecap="round" stroke-linejoin="round"/>
<path d="M44.1673 10.125H34.9173C33.2144 10.125 31.834 11.4868 31.834 13.1667V16.2083C31.834 17.8882 33.2144 19.25 34.9173 19.25H44.1673C45.8702 19.25 47.2507 17.8882 47.2507 16.2083V13.1667C47.2507 11.4868 45.8702 10.125 44.1673 10.125Z" stroke="#79B2BE" stroke-width="2" stroke-linecap="round" stroke-linejoin="round"/>
<path d="M44.1673 22.2917H34.9173C33.2144 22.2917 31.834 23.6535 31.834 25.3334V37.5001C31.834 39.1799 33.2144 40.5417 34.9173 40.5417H44.1673C45.8702 40.5417 47.2507 39.1799 47.2507 37.5001V25.3334C47.2507 23.6535 45.8702 22.2917 44.1673 22.2917Z" stroke="#79B2BE" stroke-width="2" stroke-linecap="round" stroke-linejoin="round"/>
<path d="M22.5833 28.375H13.3333C11.6305 28.375 10.25 29.7368 10.25 31.4167V43.5833C10.25 45.2632 11.6305 46.625 13.3333 46.625H22.5833C24.2862 46.625 25.6667 45.2632 25.6667 43.5833V31.4167C25.6667 29.7368 24.2862 28.375 22.5833 28.375Z" stroke="#79B2BE" stroke-width="2" stroke-linecap="round" stroke-linejoin="round"/>
<path d="M25.666 17.7292H31.8327" stroke="#79B2BE" stroke-width="2" stroke-linecap="round" stroke-linejoin="round"/>
<path d="M17.959 25.3333V28.3749" stroke="#79B2BE" stroke-width="2" stroke-linecap="round" stroke-linejoin="round"/>
<path d="M39.541 19.25V22.2917" stroke="#79B2BE" stroke-width="2" stroke-linecap="round" stroke-linejoin="round"/>
</svg>
