<svg width="51" height="50" viewBox="0 0 51 50" fill="none" xmlns="http://www.w3.org/2000/svg">
<path d="M7.125 12.9583C10.5077 12.9583 13.25 10.2814 13.25 6.97917C13.25 3.67696 10.5077 1 7.125 1C3.74226 1 1 3.67696 1 6.97917C1 10.2814 3.74226 12.9583 7.125 12.9583Z" stroke="#79B2BE" stroke-width="2" stroke-linecap="round" stroke-linejoin="round"/>
<path d="M43.875 12.9583C47.2577 12.9583 50 10.2814 50 6.97917C50 3.67696 47.2577 1 43.875 1C40.4923 1 37.75 3.67696 37.75 6.97917C37.75 10.2814 40.4923 12.9583 43.875 12.9583Z" stroke="#79B2BE" stroke-width="2" stroke-linecap="round" stroke-linejoin="round"/>
<path d="M25.5 42.8543C28.8827 42.8543 31.625 40.1774 31.625 36.8752C31.625 33.573 28.8827 30.896 25.5 30.896C22.1173 30.896 19.375 33.573 19.375 36.8752C19.375 40.1774 22.1173 42.8543 25.5 42.8543Z" stroke="#79B2BE" stroke-width="2" stroke-linecap="round" stroke-linejoin="round"/>
<path d="M12.332 10.8657L20.2945 29.9991" stroke="#79B2BE" stroke-width="2" stroke-linecap="round" stroke-linejoin="round"/>
<path d="M38.6695 10.8657L30.707 29.9991" stroke="#79B2BE" stroke-width="2" stroke-linecap="round" stroke-linejoin="round"/>
<path d="M13.25 6.979H37.75" stroke="#79B2BE" stroke-width="2" stroke-linecap="round" stroke-linejoin="round"/>
<path d="M1 48.8335H50" stroke="#79B2BE" stroke-width="2" stroke-linecap="round" stroke-linejoin="round"/>
<path d="M7.125 48.8332V39.8644M25.5 48.8332V33.8853M43.875 48.8332V36.8748" stroke="#79B2BE" stroke-width="2" stroke-linecap="round" stroke-linejoin="round"/>
</svg>
