<svg width="60" height="54" viewBox="0 0 60 54" fill="none" xmlns="http://www.w3.org/2000/svg">
<path d="M52.5556 1H7.44444C3.88528 1 1 3.88528 1 7.44444V46.1111C1 49.6703 3.88528 52.5556 7.44444 52.5556H52.5556C56.1147 52.5556 59 49.6703 59 46.1111V7.44444C59 3.88528 56.1147 1 52.5556 1Z" stroke="#79B2BE" stroke-width="2" stroke-linecap="round" stroke-linejoin="round"/>
<path d="M13.8906 1V52.5556M30.0017 1V52.5556M46.1128 1V52.5556" stroke="#79B2BE" stroke-width="2" stroke-linecap="round" stroke-linejoin="round"/>
<path d="M1 17.1113H59M1 33.2224H59" stroke="#79B2BE" stroke-width="2" stroke-linecap="round" stroke-linejoin="round"/>
<path d="M10.668 52.5558L49.3346 13.8892" stroke="#79B2BE" stroke-width="2" stroke-linecap="round" stroke-linejoin="round"/>
<path d="M42.888 13.8892L46.1102 17.1114M36.4436 20.3336L39.6658 23.5558M29.9991 26.7781L33.2214 30.0003M23.5547 33.2225L26.7769 36.4447" stroke="#79B2BE" stroke-width="2" stroke-linecap="round" stroke-linejoin="round"/>
</svg>
