<svg width="79" height="57" viewBox="0 0 79 57" fill="none" xmlns="http://www.w3.org/2000/svg">
<path d="M22.3281 34.3263C39.3893 34.3263 47.9198 21.8351 52.1851 5.18018C35.124 9.34391 22.3281 17.6714 22.3281 34.3263Z" stroke="#79B2BE" stroke-width="2" stroke-linecap="round" stroke-linejoin="round"/>
<path d="M22.3281 34.3252C22.3281 46.8164 30.8587 55.1439 43.6546 55.1439" stroke="#79B2BE" stroke-width="2" stroke-linecap="round" stroke-linejoin="round"/>
<path d="M1 50.98C18.0611 34.325 35.1223 50.98 52.1834 34.325C69.2446 17.6701 77.7752 34.325 77.7752 34.325" stroke="#79B2BE" stroke-width="2" stroke-linecap="round" stroke-linejoin="round"/>
<path d="M64.6636 13.4912C68.197 13.4912 71.0615 10.6949 71.0615 7.2456C71.0615 3.79625 68.197 1 64.6636 1C61.1301 1 58.2656 3.79625 58.2656 7.2456C58.2656 10.6949 61.1301 13.4912 64.6636 13.4912Z" stroke="#79B2BE" stroke-width="2" stroke-linecap="round" stroke-linejoin="round"/>
<path d="M54 26.394C55.7061 18.8993 60.3979 13.9028 64.6632 13.9028C68.9285 13.9028 73.6203 18.8993 75.3264 26.394" stroke="#79B2BE" stroke-width="2" stroke-linecap="round" stroke-linejoin="round"/>
</svg>
