<svg width="47" height="57" viewBox="0 0 47 57" fill="none" xmlns="http://www.w3.org/2000/svg">
<path d="M45.9711 1C25.0913 1 7.42383 15.4552 7.42383 36.335C7.42383 46.9355 16.097 55.6087 26.6975 55.6087C47.5773 55.6087 45.9711 25.0921 45.9711 1Z" stroke="#79B2BE" stroke-width="2" stroke-linecap="round" stroke-linejoin="round"/>
<path d="M7.42383 36.3349C17.0607 33.1227 26.6975 23.4858 33.122 10.6367" stroke="#79B2BE" stroke-width="2" stroke-linecap="round" stroke-linejoin="round"/>
<path d="M1 20.2732C2.37064 16.5477 4.70312 13.2515 7.76038 10.7194C10.8176 8.18739 14.4907 6.50983 18.4064 5.85722C22.322 5.20461 26.3406 5.60023 30.0538 7.00385C33.767 8.40748 37.0425 10.7691 39.5473 13.8487" stroke="#79B2BE" stroke-width="2" stroke-linecap="round" stroke-linejoin="round"/>
<path d="M39.5473 33.1226C38.1767 36.8481 35.8442 40.1443 32.7869 42.6764C29.7297 45.2084 26.0566 46.886 22.1409 47.5386C18.2253 48.1912 14.2067 47.7956 10.4935 46.3919C6.78028 44.9883 3.50483 42.6267 1 39.5471" stroke="#79B2BE" stroke-width="2" stroke-linecap="round" stroke-linejoin="round"/>
</svg>
