<svg width="1602" height="1048" viewBox="0 0 1602 1048" fill="none" xmlns="http://www.w3.org/2000/svg">
<path d="M1577 866.463C1563.19 866.463 38.8071 866.463 25 866.463C11.1929 866.463 -1.20706e-06 877.656 0 891.463L3.67803e-06 933.537C4.3736e-06 941.493 3.1607 949.124 8.78679 954.75L93.2132 1039.18C98.8393 1044.8 106.47 1047.96 114.426 1047.96L1577 1047.96C1590.81 1047.96 1602 1036.77 1602 1022.96V891.463C1602 877.656 1590.81 866.463 1577 866.463Z" fill="#1B273D"/>
<path d="M25.002 912.5C25.002 912.5 1563.19 912.5 1577 912.5C1590.81 912.5 1602 901.307 1602 887.5L1602 114.427C1602 106.47 1598.84 98.8396 1593.21 93.2135L1508.79 8.78702C1503.16 3.16093 1495.53 0.000226598 1487.57 0.000225207L25 -3.05176e-05C11.1927 -3.29317e-05 -0.000127127 11.1929 -7.47049e-06 25L0.00203899 887.5C0.00215865 901.307 11.1949 912.5 25.002 912.5Z" fill="#1B273D"/>
</svg>
