<svg width="111" height="23" viewBox="0 0 111 23" fill="none" xmlns="http://www.w3.org/2000/svg" preserveAspectRatio="none">
<path d="M111 16.2879V1.26932C111 0.568653 110.471 0 109.82 0H1.18005C0.528664 0 0 0.568653 0 1.26932V21.7307C0 22.4313 0.528664 23 1.18005 23H104.212C104.505 23 104.798 22.8781 105.015 22.6649L110.632 17.2119C110.868 16.9784 111 16.6433 111 16.2879Z" fill="#1A273D"/>
<path d="M10.511 16.13C9.77433 16.13 9.12867 15.935 8.574 15.545C8.028 15.155 7.60333 14.609 7.3 13.907C6.99667 13.205 6.845 12.3817 6.845 11.437C6.845 10.501 7.001 9.682 7.313 8.98C7.625 8.278 8.054 7.73633 8.6 7.355C9.15467 6.965 9.80033 6.77 10.537 6.77C11.2823 6.77 11.928 6.965 12.474 7.355C13.0287 7.745 13.4533 8.291 13.748 8.993C14.0513 9.695 14.203 10.514 14.203 11.45C14.203 12.3947 14.047 13.218 13.735 13.92C13.423 14.622 12.9897 15.168 12.435 15.558C11.889 15.9393 11.2477 16.13 10.511 16.13ZM10.524 14.804C10.9833 14.804 11.382 14.674 11.72 14.414C12.058 14.1453 12.318 13.7597 12.5 13.257C12.6907 12.7543 12.786 12.152 12.786 11.45C12.786 10.7393 12.6907 10.137 12.5 9.643C12.318 9.14033 12.058 8.759 11.72 8.499C11.382 8.23033 10.9833 8.096 10.524 8.096C10.0733 8.096 9.679 8.23033 9.341 8.499C9.003 8.759 8.73867 9.14033 8.548 9.643C8.35733 10.137 8.262 10.7393 8.262 11.45C8.262 12.152 8.35733 12.7543 8.548 13.257C8.73867 13.7597 9.003 14.1453 9.341 14.414C9.679 14.674 10.0733 14.804 10.524 14.804ZM18.0485 16.117C17.6325 16.117 17.2121 16.0693 16.7875 15.974C16.3715 15.8787 15.9555 15.7313 15.5395 15.532L15.0325 15.298L15.4225 14.271L16.0205 14.479C16.2978 14.5743 16.5881 14.6567 16.8915 14.726C17.2035 14.7867 17.5111 14.817 17.8145 14.817C18.4991 14.817 19.0278 14.661 19.4005 14.349C19.7731 14.037 19.9595 13.5993 19.9595 13.036C19.9595 12.5507 19.7731 12.1693 19.4005 11.892C19.0365 11.6147 18.5425 11.476 17.9185 11.476C17.7191 11.476 17.4981 11.4933 17.2555 11.528C17.0128 11.554 16.7745 11.593 16.5405 11.645L15.6955 11.45L16.0855 6.887H21.0385L20.8695 8.2H17.1905L16.9955 10.462C17.2641 10.3927 17.5241 10.345 17.7755 10.319C18.0268 10.2843 18.2651 10.267 18.4905 10.267C19.0711 10.267 19.5738 10.3797 19.9985 10.605C20.4231 10.8217 20.7525 11.1337 20.9865 11.541C21.2205 11.9483 21.3375 12.4337 21.3375 12.997C21.3375 13.647 21.2031 14.206 20.9345 14.674C20.6745 15.1333 20.2975 15.4887 19.8035 15.74C19.3181 15.9913 18.7331 16.117 18.0485 16.117ZM25.6424 16L29.2434 6.9H30.8814L34.5084 16H32.9874L30.0754 8.33H30.0364L27.0724 16H25.6424ZM27.6314 13.985V12.763H32.4674V13.985H27.6314ZM37.4532 16.091C36.7252 16.091 36.1879 15.8917 35.8412 15.493C35.5032 15.0943 35.3342 14.5613 35.3342 13.894V9.461H36.6472V13.582C36.6472 14.0327 36.7555 14.3663 36.9722 14.583C37.1975 14.791 37.5225 14.895 37.9472 14.895C38.1379 14.895 38.3242 14.869 38.5062 14.817C38.6882 14.765 38.8789 14.6913 39.0782 14.596L39.5982 14.362V9.461H40.9242V16H39.9102L39.7542 14.986L40.0272 15.194L39.3382 15.558C39.0089 15.74 38.6839 15.8743 38.3632 15.961C38.0512 16.0477 37.7479 16.091 37.4532 16.091ZM45.7373 18.717C45.434 18.717 45.0873 18.6867 44.6973 18.626C44.316 18.574 43.9563 18.5003 43.6183 18.405L43.1763 18.275L43.4103 17.313L43.8523 17.391C44.121 17.4343 44.4113 17.4733 44.7233 17.508C45.0353 17.5427 45.3213 17.56 45.5813 17.56C46.188 17.56 46.656 17.4603 46.9853 17.261C47.3147 17.0703 47.4793 16.7107 47.4793 16.182V15.259L47.0893 15.441C46.8293 15.571 46.5563 15.6707 46.2703 15.74C45.993 15.8007 45.7243 15.831 45.4643 15.831C45.005 15.831 44.5933 15.7487 44.2293 15.584C43.8653 15.4107 43.5533 15.1767 43.2933 14.882C43.042 14.5787 42.8513 14.232 42.7213 13.842C42.5913 13.452 42.5263 13.036 42.5263 12.594C42.5263 12.022 42.639 11.4933 42.8643 11.008C43.0983 10.514 43.432 10.1153 43.8653 9.812C44.3073 9.50867 44.8403 9.357 45.4643 9.357C45.7677 9.357 46.071 9.41333 46.3743 9.526C46.6863 9.63 46.9853 9.77733 47.2713 9.968L47.6873 10.241L47.8303 9.461H48.8053V16.117C48.8053 16.7237 48.6797 17.2177 48.4283 17.599C48.177 17.989 47.8217 18.2707 47.3623 18.444C46.903 18.626 46.3613 18.717 45.7373 18.717ZM43.8653 12.607C43.8653 13.0403 43.9477 13.4087 44.1123 13.712C44.2857 14.0153 44.5197 14.245 44.8143 14.401C45.109 14.5483 45.447 14.622 45.8283 14.622C46.019 14.622 46.2097 14.6003 46.4003 14.557C46.5997 14.5137 46.799 14.453 46.9983 14.375L47.4793 14.18V11.177L47.0373 10.943C46.8033 10.813 46.5867 10.722 46.3873 10.67C46.188 10.6093 46.0017 10.579 45.8283 10.579C45.4123 10.579 45.057 10.67 44.7623 10.852C44.4677 11.0253 44.2423 11.2637 44.0863 11.567C43.939 11.8703 43.8653 12.217 43.8653 12.607ZM52.7891 16.091C52.0611 16.091 51.5238 15.8917 51.1771 15.493C50.8391 15.0943 50.6701 14.5613 50.6701 13.894V9.461H51.9831V13.582C51.9831 14.0327 52.0915 14.3663 52.3081 14.583C52.5335 14.791 52.8585 14.895 53.2831 14.895C53.4738 14.895 53.6601 14.869 53.8421 14.817C54.0241 14.765 54.2148 14.6913 54.4141 14.596L54.9341 14.362V9.461H56.2601V16H55.2461L55.0901 14.986L55.3631 15.194L54.6741 15.558C54.3448 15.74 54.0198 15.8743 53.6991 15.961C53.3871 16.0477 53.0838 16.091 52.7891 16.091ZM60.1893 16.091C59.8686 16.091 59.5436 16.0607 59.2143 16C58.8849 15.9393 58.5469 15.8527 58.2003 15.74L57.7583 15.584L57.9793 14.648L58.3953 14.726C58.6813 14.778 58.9673 14.8213 59.2533 14.856C59.5479 14.882 59.8296 14.895 60.0983 14.895C60.5143 14.895 60.8306 14.8343 61.0473 14.713C61.2639 14.5917 61.3723 14.4053 61.3723 14.154C61.3723 14.0153 61.3419 13.8983 61.2813 13.803C61.2293 13.699 61.1079 13.6037 60.9173 13.517C60.7353 13.4217 60.4493 13.322 60.0593 13.218C59.4873 13.062 59.0366 12.9017 58.7073 12.737C58.3866 12.5637 58.1569 12.36 58.0183 12.126C57.8883 11.8833 57.8233 11.5843 57.8233 11.229C57.8319 10.8043 57.9446 10.4577 58.1613 10.189C58.3779 9.91167 58.6726 9.70367 59.0453 9.565C59.4266 9.42633 59.8599 9.357 60.3453 9.357C60.6573 9.357 60.9736 9.383 61.2943 9.435C61.6236 9.487 61.9356 9.55633 62.2303 9.643L62.5293 9.747L62.3343 10.683L62.0743 10.644C61.7883 10.592 61.5239 10.5617 61.2813 10.553C61.0473 10.5357 60.8263 10.527 60.6183 10.527C60.1416 10.527 59.7689 10.5833 59.5003 10.696C59.2403 10.8 59.1103 10.9603 59.1103 11.177C59.1103 11.3243 59.1449 11.4413 59.2143 11.528C59.2923 11.6147 59.4439 11.7013 59.6693 11.788C59.8946 11.866 60.2326 11.9613 60.6833 12.074C61.2206 12.2127 61.6323 12.3687 61.9183 12.542C62.2129 12.7067 62.4166 12.906 62.5293 13.14C62.6506 13.3653 62.7113 13.647 62.7113 13.985C62.7113 14.4703 62.5986 14.869 62.3733 15.181C62.1479 15.493 61.8446 15.7227 61.4633 15.87C61.0906 16.0173 60.6659 16.091 60.1893 16.091ZM66.6885 16.091C66.0558 16.091 65.5791 15.9567 65.2585 15.688C64.9465 15.4193 64.7905 14.986 64.7905 14.388V10.618H63.3605V9.708L64.7905 9.461V7.901L66.1165 7.433V9.461H68.3265V10.618H66.1165V13.972C66.1165 14.31 66.1771 14.5613 66.2985 14.726C66.4285 14.882 66.7015 14.96 67.1175 14.96C67.2388 14.96 67.3688 14.9557 67.5075 14.947C67.6461 14.9297 67.7891 14.9123 67.9365 14.895L68.2875 14.843L68.4435 15.792L68.1315 15.883C67.9061 15.9437 67.6635 15.9913 67.4035 16.026C67.1435 16.0693 66.9051 16.091 66.6885 16.091ZM72.9836 16V14.843C72.9836 14.3577 73.0443 13.946 73.1656 13.608C73.287 13.2613 73.4863 12.9537 73.7636 12.685C74.041 12.4077 74.4006 12.1347 74.8426 11.866L76.0906 11.099C76.602 10.787 76.9703 10.4967 77.1956 10.228C77.4296 9.95933 77.5466 9.64733 77.5466 9.292C77.5466 8.91067 77.4166 8.60733 77.1566 8.382C76.8966 8.15667 76.5153 8.044 76.0126 8.044C75.6486 8.044 75.302 8.07867 74.9726 8.148C74.652 8.21733 74.2966 8.317 73.9066 8.447L73.3346 8.642L72.9706 7.693L73.5166 7.433C73.9933 7.20767 74.4613 7.043 74.9206 6.939C75.38 6.82633 75.8263 6.77 76.2596 6.77C76.823 6.77 77.304 6.86533 77.7026 7.056C78.11 7.24667 78.422 7.524 78.6386 7.888C78.864 8.252 78.9766 8.69833 78.9766 9.227C78.9766 9.63433 78.8943 10.007 78.7296 10.345C78.5736 10.683 78.344 10.995 78.0406 11.281C77.7373 11.567 77.369 11.84 76.9356 12.1L75.5706 12.919C75.172 13.153 74.8686 13.3957 74.6606 13.647C74.4613 13.8983 74.3616 14.2493 74.3616 14.7V15.038L74.1926 14.7H79.1196V16H72.9836ZM84.0169 16.13C83.2802 16.13 82.6345 15.935 82.0799 15.545C81.5339 15.155 81.1092 14.609 80.8059 13.907C80.5025 13.205 80.3509 12.3817 80.3509 11.437C80.3509 10.501 80.5069 9.682 80.8189 8.98C81.1309 8.278 81.5599 7.73633 82.1059 7.355C82.6605 6.965 83.3062 6.77 84.0429 6.77C84.7882 6.77 85.4339 6.965 85.9799 7.355C86.5345 7.745 86.9592 8.291 87.2539 8.993C87.5572 9.695 87.7089 10.514 87.7089 11.45C87.7089 12.3947 87.5529 13.218 87.2409 13.92C86.9289 14.622 86.4955 15.168 85.9409 15.558C85.3949 15.9393 84.7535 16.13 84.0169 16.13ZM84.0299 14.804C84.4892 14.804 84.8879 14.674 85.2259 14.414C85.5639 14.1453 85.8239 13.7597 86.0059 13.257C86.1965 12.7543 86.2919 12.152 86.2919 11.45C86.2919 10.7393 86.1965 10.137 86.0059 9.643C85.8239 9.14033 85.5639 8.759 85.2259 8.499C84.8879 8.23033 84.4892 8.096 84.0299 8.096C83.5792 8.096 83.1849 8.23033 82.8469 8.499C82.5089 8.759 82.2445 9.14033 82.0539 9.643C81.8632 10.137 81.7679 10.7393 81.7679 11.45C81.7679 12.152 81.8632 12.7543 82.0539 13.257C82.2445 13.7597 82.5089 14.1453 82.8469 14.414C83.1849 14.674 83.5792 14.804 84.0299 14.804ZM88.967 16V14.843C88.967 14.3577 89.0277 13.946 89.149 13.608C89.2703 13.2613 89.4697 12.9537 89.747 12.685C90.0243 12.4077 90.384 12.1347 90.826 11.866L92.074 11.099C92.5853 10.787 92.9537 10.4967 93.179 10.228C93.413 9.95933 93.53 9.64733 93.53 9.292C93.53 8.91067 93.4 8.60733 93.14 8.382C92.88 8.15667 92.4987 8.044 91.996 8.044C91.632 8.044 91.2853 8.07867 90.956 8.148C90.6353 8.21733 90.28 8.317 89.89 8.447L89.318 8.642L88.954 7.693L89.5 7.433C89.9767 7.20767 90.4447 7.043 90.904 6.939C91.3633 6.82633 91.8097 6.77 92.243 6.77C92.8063 6.77 93.2873 6.86533 93.686 7.056C94.0933 7.24667 94.4053 7.524 94.622 7.888C94.8473 8.252 94.96 8.69833 94.96 9.227C94.96 9.63433 94.8777 10.007 94.713 10.345C94.557 10.683 94.3273 10.995 94.024 11.281C93.7207 11.567 93.3523 11.84 92.919 12.1L91.554 12.919C91.1553 13.153 90.852 13.3957 90.644 13.647C90.4447 13.8983 90.345 14.2493 90.345 14.7V15.038L90.176 14.7H95.103V16H88.967ZM99.0699 16.117C98.6539 16.117 98.2336 16.0693 97.8089 15.974C97.3929 15.8787 96.9769 15.7313 96.5609 15.532L96.0539 15.298L96.4439 14.271L97.0419 14.479C97.3193 14.5743 97.6096 14.6567 97.9129 14.726C98.2249 14.7867 98.5326 14.817 98.8359 14.817C99.5206 14.817 100.049 14.661 100.422 14.349C100.795 14.037 100.981 13.5993 100.981 13.036C100.981 12.5507 100.795 12.1693 100.422 11.892C100.058 11.6147 99.5639 11.476 98.9399 11.476C98.7406 11.476 98.5196 11.4933 98.2769 11.528C98.0343 11.554 97.7959 11.593 97.5619 11.645L96.7169 11.45L97.1069 6.887H102.06L101.891 8.2H98.2119L98.0169 10.462C98.2856 10.3927 98.5456 10.345 98.7969 10.319C99.0483 10.2843 99.2866 10.267 99.5119 10.267C100.093 10.267 100.595 10.3797 101.02 10.605C101.445 10.8217 101.774 11.1337 102.008 11.541C102.242 11.9483 102.359 12.4337 102.359 12.997C102.359 13.647 102.225 14.206 101.956 14.674C101.696 15.1333 101.319 15.4887 100.825 15.74C100.34 15.9913 99.7546 16.117 99.0699 16.117Z" fill="white"/>
</svg>
