<svg width="45" height="46" viewBox="0 0 45 46" fill="none" xmlns="http://www.w3.org/2000/svg">
<path d="M22.2258 34.5999C15.4258 34.5999 9.92578 29.0999 9.92578 22.2999C9.92578 21.4999 10.5257 20.8999 11.3257 20.8999C12.1257 20.8999 12.7258 21.4999 12.7258 22.2999C12.7258 27.5999 17.0258 31.7999 22.2258 31.7999C27.5258 31.7999 31.7258 27.4999 31.7258 22.2999C31.7258 21.4999 32.3257 20.8999 33.1257 20.8999C33.9257 20.8999 34.5258 21.4999 34.5258 22.2999C34.5258 28.9999 29.0258 34.5999 22.2258 34.5999Z" fill="#F47B47"/>
<path d="M26.825 45.1H17.625C17.125 45.1 16.625 44.8001 16.425 44.4001L14.225 40.6L10.325 38.3H6.02499C5.52499 38.3 5.02498 38 4.82498 37.6L0.225 29.7C-0.075 29.3 -0.075 28.7 0.225 28.3L2.42501 24.5V22.2C2.42501 21.4 3.02498 20.8 3.82498 20.8H40.725C41.525 20.8 42.125 21.4 42.125 22.2V24.5L44.325 28.3C44.625 28.7 44.625 29.3 44.325 29.7L39.725 37.6C39.425 38 39.025 38.3 38.525 38.3H34.225L30.325 40.6L28.125 44.4001C27.825 44.8001 27.325 45.1 26.825 45.1ZM18.425 42.2H25.925L27.925 38.8C28.025 38.6 28.225 38.4 28.425 38.3L33.025 35.7C33.225 35.6 33.525 35.5 33.725 35.5H37.625L41.425 29L39.425 25.6C39.325 25.4 39.225 25.1 39.225 24.9V23.7H5.12496V24.9C5.12496 25.1 5.02501 25.4 4.92501 25.6L2.92501 29L6.725 35.5H10.625C10.825 35.5 11.125 35.6 11.325 35.7L15.925 38.3C16.125 38.4 16.325 38.6 16.425 38.8L18.425 42.2Z" fill="#F47B47"/>
<path d="M22.2258 10.6C19.3258 10.6 16.9258 8.2 16.9258 5.3C16.9258 2.4 19.3258 0 22.2258 0C25.1258 0 27.5258 2.4 27.5258 5.3C27.5258 8.2 25.1258 10.6 22.2258 10.6ZM22.2258 2.8C20.8258 2.8 19.7258 3.9 19.7258 5.3C19.7258 6.7 20.8258 7.8 22.2258 7.8C23.6258 7.8 24.7258 6.7 24.7258 5.3C24.7258 3.9 23.6258 2.8 22.2258 2.8Z" fill="#F47B47"/>
<path d="M29.9254 23.6001C29.1254 23.6001 28.5254 23.0001 28.5254 22.2001V18.8001C28.5254 17.2001 27.2254 15.9001 25.6254 15.9001H18.7254C17.1254 15.9001 15.8254 17.2001 15.8254 18.8001V22.2001C15.8254 23.0001 15.2254 23.6001 14.4254 23.6001C13.6254 23.6001 13.0254 23.0001 13.0254 22.2001V18.8001C13.0254 15.7001 15.5254 13.1001 18.7254 13.1001H25.6254C28.7254 13.1001 31.3254 15.6001 31.3254 18.8001V22.2001C31.4254 23.0001 30.7254 23.6001 29.9254 23.6001Z" fill="#F47B47"/>
</svg>
