<svg width="46" height="31" viewBox="0 0 46 31" fill="none" xmlns="http://www.w3.org/2000/svg">
<path d="M25.2004 26.5999H5.30039C4.50039 26.5999 3.90039 25.9999 3.90039 25.1999V5.2999C3.90039 4.4999 4.50039 3.8999 5.30039 3.8999H25.2004C26.0004 3.8999 26.6004 4.4999 26.6004 5.2999V9.3999C26.6004 10.1999 26.0004 10.7999 25.2004 10.7999C24.4004 10.7999 23.8004 10.1999 23.8004 9.3999V6.6999H6.70039V23.7999H23.8004V16.6999C23.8004 15.8999 24.4004 15.2999 25.2004 15.2999C26.0004 15.2999 26.6004 15.8999 26.6004 16.6999V25.1999C26.6004 25.9999 26.0004 26.5999 25.2004 26.5999Z" fill="#F47B47"/>
<path d="M15.3 19.6C12.9 19.6 11 17.7 11 15.3C11 12.9 12.9 11 15.3 11C17.7 11 19.6 12.9 19.6 15.3C19.6 17.6 17.7 19.6 15.3 19.6ZM15.3 13.7C14.5 13.7 13.8 14.4 13.8 15.2C13.8 16 14.5 16.7 15.3 16.7C16.1 16.7 16.8 16 16.8 15.2C16.8 14.4 16.1 13.7 15.3 13.7Z" fill="#F47B47"/>
<path d="M33.8998 16.8001C30.7998 16.8001 28.2998 14.3001 28.2998 11.2001C28.2998 8.1001 30.7998 5.6001 33.8998 5.6001C36.9998 5.6001 39.4998 8.1001 39.4998 11.2001C39.4998 14.3001 36.9998 16.8001 33.8998 16.8001ZM33.8998 8.4001C32.2998 8.4001 31.0998 9.7001 31.0998 11.2001C31.0998 12.8001 32.3998 14.0001 33.8998 14.0001C35.4998 14.0001 36.6998 12.7001 36.6998 11.2001C36.6998 9.6001 35.3998 8.4001 33.8998 8.4001Z" fill="#F47B47"/>
<path d="M39.5004 30.3001C36.4004 30.3001 33.9004 27.8001 33.9004 24.7001C33.9004 21.6001 36.4004 19.1001 39.5004 19.1001C42.6004 19.1001 45.1004 21.6001 45.1004 24.7001C45.1004 27.8001 42.6004 30.3001 39.5004 30.3001ZM39.5004 21.9001C37.9004 21.9001 36.7004 23.2001 36.7004 24.7001C36.7004 26.3001 38.0004 27.5001 39.5004 27.5001C41.1004 27.5001 42.3004 26.2001 42.3004 24.7001C42.3004 23.1001 41.0004 21.9001 39.5004 21.9001Z" fill="#F47B47"/>
<path d="M15.2996 13.6999C14.6996 13.6999 14.0996 13.2999 13.8996 12.6999C13.6996 11.9999 14.0996 11.1999 14.8996 10.9999L31.3996 6.19989C32.0996 5.99989 32.8996 6.39989 33.0996 7.19989C33.2996 7.89989 32.8996 8.6999 32.0996 8.8999L15.5996 13.6999C15.4996 13.6999 15.3996 13.6999 15.2996 13.6999Z" fill="#F47B47"/>
<path d="M29.9 14.1001C29.1 14.1001 28.5 13.5001 28.5 12.7001C28.5 11.9001 29.1 11.3 29.9 11.3C30.7 11.3 31.3 11.9001 31.3 12.7001C31.4 13.5001 30.7 14.1001 29.9 14.1001Z" fill="#F47B47"/>
<path d="M35.1996 26.0999C34.4996 26.0999 33.8996 25.5999 33.7996 24.8999L32.5996 16.9999L16.1996 19.3999C15.3996 19.4999 14.6996 18.9999 14.5996 18.1999C14.4996 17.3999 14.9996 16.6999 15.7996 16.5999L33.5996 13.9999C33.9996 13.8999 34.2996 13.9999 34.5996 14.2999C34.8996 14.4999 35.0996 14.8999 35.1996 15.1999L36.5996 24.4999C36.6996 25.2999 36.1996 25.9999 35.3996 26.0999C35.3996 26.0999 35.2996 26.0999 35.1996 26.0999Z" fill="#F47B47"/>
<path d="M43.2004 24.2C42.7004 24.2 42.1004 23.9 41.9004 23.4L36.8004 11.8C36.5004 11.1 36.8004 10.3 37.5004 9.90002C38.2004 9.60002 39.0004 9.90002 39.4004 10.6L44.5004 22.2C44.8004 22.9 44.5004 23.7 43.8004 24.1C43.6004 24.2 43.4004 24.2 43.2004 24.2Z" fill="#F47B47"/>
<path d="M15.3004 6.7C14.5004 6.7 13.9004 6.1 13.9004 5.3V1.4C13.9004 0.600002 14.5004 0 15.3004 0C16.1004 0 16.7004 0.600002 16.7004 1.4V5.3C16.7004 6.1 16.1004 6.7 15.3004 6.7Z" fill="#F47B47"/>
<path d="M20.9996 6.7C20.1996 6.7 19.5996 6.1 19.5996 5.3V1.4C19.5996 0.600002 20.1996 0 20.9996 0C21.7996 0 22.3996 0.600002 22.3996 1.4V5.3C22.3996 6.1 21.7996 6.7 20.9996 6.7Z" fill="#F47B47"/>
<path d="M9.49961 6.7C8.69961 6.7 8.09961 6.1 8.09961 5.3V1.4C8.09961 0.600002 8.69961 0 9.49961 0C10.2996 0 10.8996 0.600002 10.8996 1.4V5.3C10.8996 6.1 10.2996 6.7 9.49961 6.7Z" fill="#F47B47"/>
<path d="M5.3 16.6001H1.4C0.6 16.6001 0 16.0001 0 15.2001C0 14.4001 0.6 13.8 1.4 13.8H5.3C6.1 13.8 6.7 14.4001 6.7 15.2001C6.7 16.0001 6.1 16.6001 5.3 16.6001Z" fill="#F47B47"/>
<path d="M5.3 10.9001H1.4C0.6 10.9001 0 10.3001 0 9.5001C0 8.7001 0.6 8.1001 1.4 8.1001H5.3C6.1 8.1001 6.7 8.7001 6.7 9.5001C6.7 10.3001 6.1 10.9001 5.3 10.9001Z" fill="#F47B47"/>
<path d="M5.3 22.4001H1.4C0.6 22.4001 0 21.8001 0 21.0001C0 20.2001 0.6 19.6001 1.4 19.6001H5.3C6.1 19.6001 6.7 20.2001 6.7 21.0001C6.7 21.8001 6.1 22.4001 5.3 22.4001Z" fill="#F47B47"/>
<path d="M15.3004 30.5001C14.5004 30.5001 13.9004 29.9001 13.9004 29.1001V25.2001C13.9004 24.4001 14.5004 23.8 15.3004 23.8C16.1004 23.8 16.7004 24.4001 16.7004 25.2001V29.1001C16.7004 29.9001 16.1004 30.5001 15.3004 30.5001Z" fill="#F47B47"/>
<path d="M9.49961 30.5001C8.69961 30.5001 8.09961 29.9001 8.09961 29.1001V25.2001C8.09961 24.4001 8.69961 23.8 9.49961 23.8C10.2996 23.8 10.8996 24.4001 10.8996 25.2001V29.1001C10.8996 29.9001 10.2996 30.5001 9.49961 30.5001Z" fill="#F47B47"/>
<path d="M20.9996 30.5001C20.1996 30.5001 19.5996 29.9001 19.5996 29.1001V25.2001C19.5996 24.4001 20.1996 23.8 20.9996 23.8C21.7996 23.8 22.3996 24.4001 22.3996 25.2001V29.1001C22.3996 29.9001 21.7996 30.5001 20.9996 30.5001Z" fill="#F47B47"/>
</svg>
