<svg width="43" height="46" viewBox="0 0 43 46" fill="none" xmlns="http://www.w3.org/2000/svg">
<path d="M21.5256 32.9999C20.7256 32.9999 20.1256 32.3999 20.1256 31.5999C20.1256 30.7999 20.7256 30.1999 21.5256 30.1999C25.7256 30.1999 29.0256 26.7999 29.0256 22.6999C29.0256 18.4999 25.6256 15.1999 21.5256 15.1999C17.3256 15.1999 14.0256 18.5999 14.0256 22.6999C14.0256 23.4999 13.4256 24.0999 12.6256 24.0999C11.8256 24.0999 11.2256 23.4999 11.2256 22.6999C11.2256 16.9999 15.8256 12.2999 21.6256 12.2999C27.3256 12.2999 32.0256 16.8999 32.0256 22.6999C31.8256 28.2999 27.2256 32.9999 21.5256 32.9999Z" fill="#F47B47"/>
<path d="M12.5249 23.9999C12.4249 23.9999 12.3249 23.9999 12.2249 23.9999C11.8249 23.8999 11.5249 23.6999 11.3249 23.3999L8.9249 19.5999C8.5249 18.8999 8.7249 18.0999 9.3249 17.6999C10.0249 17.2999 10.8249 17.4999 11.2249 18.0999L12.8249 20.6999L15.4249 19.0999C16.1249 18.6999 16.9249 18.8999 17.3249 19.4999C17.7249 20.1999 17.5249 20.9999 16.9249 21.3999L13.1249 23.7999C13.1249 23.9999 12.8249 23.9999 12.5249 23.9999Z" fill="#F47B47"/>
<path d="M24.925 45.2H18.025C17.525 45.2 17.025 44.9 16.825 44.5L13.825 39.2L11.025 37.6H4.92498C4.42498 37.6 3.925 37.3 3.725 36.9L0.225 30.9C-0.075 30.5 -0.075 29.9 0.225 29.5L3.225 24.2V21L0.225 15.7C-0.075 15.3 -0.075 14.7 0.225 14.3L3.725 8.3C4.025 7.9 4.42498 7.6 4.92498 7.6H11.025L13.825 6L16.825 0.699997C17.125 0.299997 17.525 0 18.025 0H24.925C25.425 0 25.925 0.299997 26.125 0.699997L29.125 6L31.925 7.6H38.025C38.525 7.6 39.025 7.9 39.225 8.3L42.725 14.3C43.025 14.7 43.025 15.3 42.725 15.7L39.725 21V24.2L42.725 29.5C43.025 29.9 43.025 30.5 42.725 30.9L39.225 36.9C38.925 37.3 38.525 37.6 38.025 37.6H31.925L29.125 39.2L26.125 44.5C25.925 44.9 25.425 45.2 24.925 45.2ZM18.825 42.4H24.125L26.925 37.5C27.025 37.3 27.225 37.1 27.425 37L30.925 35C31.125 34.9 31.425 34.8 31.625 34.8H37.225L39.825 30.2L37.025 25.3C36.925 25.1 36.825 24.8 36.825 24.6V20.6C36.825 20.4 36.925 20.1 37.025 19.9L39.825 15L37.225 10.4H31.625C31.425 10.4 31.125 10.3 30.925 10.2L27.425 8.2C27.225 8.1 27.025 7.9 26.925 7.7L24.125 2.8H18.825L16.025 7.7C15.925 7.9 15.725 8.1 15.525 8.2L12.025 10.2C11.825 10.3 11.525 10.4 11.325 10.4H5.725L3.12499 15L5.92498 19.9C6.02498 20.1 6.12499 20.4 6.12499 20.6V24.6C6.12499 24.8 6.02498 25.1 5.92498 25.3L3.12499 30.2L5.725 34.8H11.325C11.525 34.8 11.825 34.9 12.025 35L15.525 37C15.725 37.1 15.925 37.3 16.025 37.5L18.825 42.4Z" fill="#F47B47"/>
</svg>
