<svg width="44" height="46" viewBox="0 0 44 46" fill="none" xmlns="http://www.w3.org/2000/svg">
<path d="M28.1994 18.6001C28.1994 16.7001 26.6994 15.2001 24.7994 15.2001C22.8994 15.2001 21.3994 16.7001 21.3994 18.6001C21.3994 20.5001 22.8994 22.0001 24.7994 22.0001C26.5994 22.0001 28.1994 20.5001 28.1994 18.6001Z" fill="#F47B47"/>
<path d="M26.4994 30.1001H22.9994C22.4994 30.1001 21.9994 29.8001 21.7994 29.4001L20.4994 27.2001L19.3994 26.6001H16.8994C16.3994 26.6001 15.8994 26.3001 15.6994 25.9001L13.9994 22.9001C13.6994 22.5001 13.6994 21.9001 13.9994 21.5001L15.2994 19.3001V18.0001L13.9994 15.8001C13.6994 15.4001 13.6994 14.8001 13.9994 14.4001L15.6994 11.4001C15.9994 11.0001 16.3994 10.7001 16.8994 10.7001H19.3994L20.4994 10.1001L21.7994 7.90007C22.0994 7.50007 22.4994 7.20007 22.9994 7.20007H26.4994C26.9994 7.20007 27.4994 7.50007 27.6994 7.90007L28.9994 10.1001L30.0994 10.7001H32.5994C33.0994 10.7001 33.5994 11.0001 33.7994 11.4001L35.4994 14.4001C35.7994 14.8001 35.7994 15.4001 35.4994 15.8001L34.1994 18.0001V19.2001L35.4994 21.4001C35.7994 21.8001 35.7994 22.4001 35.4994 22.8001L33.7994 25.8001C33.4994 26.2001 33.0994 26.5001 32.5994 26.5001H30.0994L28.9994 27.1001L27.6994 29.3001C27.4994 29.8001 26.9994 30.1001 26.4994 30.1001ZM23.8994 27.2001H25.6994L26.6994 25.4001C26.7994 25.2001 26.9994 25.0001 27.1994 24.9001L28.8994 23.9001C29.0994 23.8001 29.3994 23.7001 29.5994 23.7001H31.6994L32.5994 22.1001L31.5994 20.3001C31.4994 20.1001 31.3994 19.8001 31.3994 19.6001V17.6001C31.3994 17.4001 31.4994 17.1001 31.5994 16.9001L32.5994 15.1001L31.6994 13.5001H29.5994C29.3994 13.5001 29.0994 13.4001 28.8994 13.3001L27.1994 12.3001C26.9994 12.2001 26.7994 12.0001 26.6994 11.8001L25.6994 10.0001H23.8994L22.8994 11.8001C22.7994 12.0001 22.5994 12.2001 22.3994 12.3001L20.6994 13.3001C20.4994 13.4001 20.1994 13.5001 19.9994 13.5001H17.7994L16.8994 15.1001L17.8994 16.9001C17.9994 17.1001 18.0994 17.4001 18.0994 17.6001V19.6001C18.0994 19.8001 17.9994 20.1001 17.8994 20.3001L16.8994 22.1001L17.7994 23.7001H19.8994C20.0994 23.7001 20.3994 23.8001 20.5994 23.9001L22.2994 24.9001C22.4994 25.0001 22.6994 25.2001 22.7994 25.4001L23.8994 27.2001Z" fill="#F47B47"/>
<path d="M42.1 45.1C41.3 45.1 40.7 44.5 40.7 43.7V20.5C40.7 10.8 32.8 2.8 23 2.8C15.4 2.8 8.7 7.6 6.3 14.8L3.00002 24.7C2.90002 25.1 2.9 25.5 3.2 25.9C3.5 26.3 3.8 26.5 4.3 26.5H6.8C7.6 26.5 8.2 27.1 8.2 27.9V31.5C8.2 31.9 8.50001 32.2 8.90001 32.2H11.6C12.4 32.2 13 32.8 13 33.6V39.5C13 41.1 14.3 42.4 15.9 42.4H25.3C28.6 42.4 31.3 39.7 31.3 36.4V34.3C31.3 33.5 31.9 32.9 32.7 32.9C33.5 32.9 34.1 33.5 34.1 34.3V36.4C34.1 41.3 30.1 45.3 25.2 45.3H15.8C12.7 45.3 10.1 42.7 10.1 39.6V35.2H8.8C6.8 35.2 5.3 33.6 5.3 31.7V29.6H4.2C2.9 29.6 1.6 29 0.800005 27.9C4.52995e-06 26.8 -0.200002 25.4 0.199998 24.2L3.50002 14.3C6.40002 5.6 14.2 0 23 0C34.3 0 43.5 9.2 43.5 20.5V43.7C43.5 44.5 42.9 45.1 42.1 45.1Z" fill="#F47B47"/>
</svg>
