<svg width="39" height="46" viewBox="0 0 39 46" fill="none" xmlns="http://www.w3.org/2000/svg">
<path d="M19.1 45.1C8.49998 45.1 0 36.5 0 26C0 25.2 0.600024 24.6 1.40002 24.6H36.9C37.7 24.6 38.3 25.2 38.3 26C38.3 36.6 29.7 45.1 19.1 45.1ZM2.90002 27.4C3.60002 35.7 10.6 42.3 19.2 42.3C27.7 42.3 34.7 35.7 35.5 27.4H2.90002Z" fill="#F47B47"/>
<path d="M22.3997 27.4C21.5997 27.4 20.9996 26.8 20.9996 26V9.90002L15.1996 3.60001L9.39966 9.90002V26C9.39966 26.8 8.79963 27.4 7.99963 27.4C7.19963 27.4 6.59961 26.8 6.59961 26V9.30002C6.59961 8.90002 6.69963 8.60002 6.99963 8.30002L14.1996 0.5C14.4996 0.2 14.7996 0 15.1996 0C15.5996 0 15.9996 0.2 16.1996 0.5L23.3997 8.30002C23.5997 8.60002 23.7996 8.90002 23.7996 9.30002V26C23.7996 26.8 23.1997 27.4 22.3997 27.4Z" fill="#F47B47"/>
<path d="M16.8 21.0001H13.4C12.6 21.0001 12 20.4001 12 19.6001C12 18.8001 12.6 18.2001 13.4 18.2001H16.8C17.6 18.2001 18.2 18.8001 18.2 19.6001C18.3 20.4001 17.6 21.0001 16.8 21.0001Z" fill="#F47B47"/>
<path d="M16.8 13.9H13.4C12.6 13.9 12 13.3 12 12.5C12 11.7 12.6 11.1 13.4 11.1H16.8C17.6 11.1 18.2 11.7 18.2 12.5C18.3 13.3 17.6 13.9 16.8 13.9Z" fill="#F47B47"/>
<path d="M30.4 27.4C29.6 27.4 29 26.8 29 26V14.8H22.4C21.6 14.8 21 14.2 21 13.4C21 12.6 21.6 12 22.4 12H30.4C31.2 12 31.8 12.6 31.8 13.4V26C31.8 26.8 31.2 27.4 30.4 27.4Z" fill="#F47B47"/>
</svg>
