<svg width="22" height="22" viewBox="0 0 22 22" fill="none" xmlns="http://www.w3.org/2000/svg">
<g clip-path="url(#clip0_56_5946)">
<path d="M4.53516 3.78924V18.4559C4.53511 18.619 4.57858 18.7792 4.66109 18.9199C4.7436 19.0606 4.86215 19.1767 5.00451 19.2563C5.14688 19.3359 5.3079 19.376 5.47097 19.3726C5.63403 19.3692 5.79324 19.3224 5.93216 19.2369L17.8488 11.9036C17.9823 11.8216 18.0925 11.7067 18.169 11.57C18.2454 11.4333 18.2856 11.2792 18.2856 11.1226C18.2856 10.9659 18.2454 10.8119 18.169 10.6752C18.0925 10.5384 17.9823 10.4236 17.8488 10.3416L5.93216 3.00824C5.79324 2.92277 5.63403 2.87592 5.47097 2.87251C5.3079 2.86911 5.14688 2.90927 5.00451 2.98886C4.86215 3.06845 4.7436 3.18459 4.66109 3.32528C4.57858 3.46598 4.53511 3.62614 4.53516 3.78924Z" fill="#FEFEFE"/>
</g>
<defs>
<clipPath id="clip0_56_5946">
<rect width="22" height="22" fill="white"/>
</clipPath>
</defs>
</svg>
