<svg width="30" height="30" viewBox="0 0 30 30" fill="none" xmlns="http://www.w3.org/2000/svg">
<path d="M10.7165 13.9344C12.3235 13.9344 13.6263 12.6316 13.6263 11.0246C13.6263 9.41752 12.3235 8.11475 10.7165 8.11475C9.10942 8.11475 7.80664 9.41752 7.80664 11.0246C7.80664 12.6316 9.10942 13.9344 10.7165 13.9344Z" stroke="white" stroke-linecap="round" stroke-linejoin="round"/>
<path d="M5.625 24.1187C6.49795 20.336 8.97131 18.2991 10.7172 18.2991C12.4631 18.2991 14.9365 20.336 15.8094 24.1187" stroke="white" stroke-linecap="round" stroke-linejoin="round"/>
<path d="M22.3571 15.3892C23.9642 15.3892 25.2669 14.0865 25.2669 12.4794C25.2669 10.8724 23.9642 9.56958 22.3571 9.56958C20.75 9.56958 19.4473 10.8724 19.4473 12.4794C19.4473 14.0865 20.75 15.3892 22.3571 15.3892Z" stroke="white" stroke-linecap="round" stroke-linejoin="round"/>
<path d="M17.2637 24.1187C18.1366 20.336 20.61 18.2991 22.3559 18.2991C24.1018 18.2991 26.5751 20.336 27.4481 24.1187" stroke="white" stroke-linecap="round" stroke-linejoin="round"/>
<path d="M12.9004 16.1167C14.3553 17.2806 18.7201 17.2806 20.175 16.1167" stroke="white" stroke-linecap="round" stroke-linejoin="round"/>
<path d="M20.1737 16.1167L19.0098 17.8626" stroke="white" stroke-linecap="round" stroke-linejoin="round"/>
<path d="M12.9004 16.1167L14.0643 17.8626" stroke="white" stroke-linecap="round" stroke-linejoin="round"/>
<path d="M19.4465 3.75H13.6268C12.8233 3.75 12.1719 4.40139 12.1719 5.20492V8.11475C12.1719 8.91827 12.8233 9.56966 13.6268 9.56966H19.4465C20.25 9.56966 20.9014 8.91827 20.9014 8.11475V5.20492C20.9014 4.40139 20.25 3.75 19.4465 3.75Z" stroke="white" stroke-linecap="round" stroke-linejoin="round"/>
<path d="M14.3535 6.65991H18.7183" stroke="white" stroke-linecap="round" stroke-linejoin="round"/>
</svg>
