<svg width="36" height="36" viewBox="0 0 36 36" fill="none" xmlns="http://www.w3.org/2000/svg">
<path d="M28.959 9.00146H7.95898C6.30213 9.00146 4.95898 10.7177 4.95898 12.8348V28.1681C4.95898 30.2852 6.30213 32.0015 7.95898 32.0015H28.959C30.6158 32.0015 31.959 30.2852 31.959 28.1681V12.8348C31.959 10.7177 30.6158 9.00146 28.959 9.00146Z" stroke="white" stroke-linecap="round" stroke-linejoin="round"/>
<path d="M4.95898 15.0015L31.959 15.0015" stroke="white" stroke-linecap="round" stroke-linejoin="round"/>
<path d="M12.959 25.0015L15.959 28.0015L21.959 22.0015" stroke="white" stroke-linecap="round" stroke-linejoin="round"/>
<path d="M17.959 5.00146C24.709 5.00146 30.709 9.50146 32.959 12.5015C30.709 15.5015 24.709 20.0015 17.959 20.0015C11.209 20.0015 5.20898 15.5015 2.95898 12.5015C5.20898 9.50146 11.209 5.00146 17.959 5.00146Z" stroke="white" stroke-linecap="round" stroke-linejoin="round"/>
<path d="M18 14.25C19.2426 14.25 20.25 13.2426 20.25 12C20.25 10.7574 19.2426 9.75 18 9.75C16.7574 9.75 15.75 10.7574 15.75 12C15.75 13.2426 16.7574 14.25 18 14.25Z" stroke="white" stroke-linecap="round" stroke-linejoin="round"/>
</svg>
