<svg width="29" height="29" viewBox="0 0 29 29" fill="none" xmlns="http://www.w3.org/2000/svg">
<path d="M8.45833 3.625H16.9167L22.9583 9.66667V25.375C22.9583 25.6955 22.831 26.0028 22.6044 26.2294C22.3778 26.456 22.0705 26.5833 21.75 26.5833H8.45833C8.13786 26.5833 7.83052 26.456 7.60391 26.2294C7.37731 26.0028 7.25 25.6955 7.25 25.375V4.83333C7.25 4.51286 7.37731 4.20552 7.60391 3.97891C7.83052 3.75231 8.13786 3.625 8.45833 3.625Z" stroke="white" stroke-linecap="round" stroke-linejoin="round"/>
<path d="M16.916 3.625V9.66667H22.9577" stroke="white" stroke-linecap="round" stroke-linejoin="round"/>
<path d="M10.875 13.2917H18.125M10.875 18.1251H18.125" stroke="white" stroke-linecap="round" stroke-linejoin="round"/>
<path d="M13.2715 22.7499L15.084 24.5624L18.709 20.3333" stroke="white" stroke-linecap="round" stroke-linejoin="round"/>
<path d="M4.95898 15.5015L7.45898 13.5015L9.95898 15.5015" stroke="white" stroke-linecap="round" stroke-linejoin="round"/>
<path d="M25.959 16.5015L22.959 13.5015L19.959 16.5015" stroke="white" stroke-linecap="round" stroke-linejoin="round"/>
</svg>
