<svg width="28" height="28" viewBox="0 0 28 28" fill="none" xmlns="http://www.w3.org/2000/svg">
<path d="M22.1667 4.66675H5.83333C4.54467 4.66675 3.5 5.71142 3.5 7.00008V22.1667C3.5 23.4554 4.54467 24.5001 5.83333 24.5001H22.1667C23.4553 24.5001 24.5 23.4554 24.5 22.1667V7.00008C24.5 5.71142 23.4553 4.66675 22.1667 4.66675Z" stroke="white" stroke-linecap="round" stroke-linejoin="round"/>
<path d="M9.33398 2.33325V6.99992M18.6673 2.33325V6.99992" stroke="white" stroke-linecap="round" stroke-linejoin="round"/>
<path d="M3.5 10.5H24.5" stroke="white" stroke-linecap="round" stroke-linejoin="round"/>
<path d="M8.16602 15.1667H19.8327" stroke="white" stroke-linecap="round" stroke-linejoin="round"/>
<path d="M8.16667 16.3333C8.811 16.3333 9.33333 15.811 9.33333 15.1667C9.33333 14.5223 8.811 14 8.16667 14C7.52233 14 7 14.5223 7 15.1667C7 15.811 7.52233 16.3333 8.16667 16.3333Z" stroke="white" stroke-linecap="round" stroke-linejoin="round"/>
<path d="M14.0007 16.3333C14.645 16.3333 15.1673 15.811 15.1673 15.1667C15.1673 14.5223 14.645 14 14.0007 14C13.3563 14 12.834 14.5223 12.834 15.1667C12.834 15.811 13.3563 16.3333 14.0007 16.3333Z" stroke="white" stroke-linecap="round" stroke-linejoin="round"/>
<path d="M19.8327 16.3333C20.477 16.3333 20.9993 15.811 20.9993 15.1667C20.9993 14.5223 20.477 14 19.8327 14C19.1884 14 18.666 14.5223 18.666 15.1667C18.666 15.811 19.1884 16.3333 19.8327 16.3333Z" stroke="white" stroke-linecap="round" stroke-linejoin="round"/>
</svg>
