<svg width="44" height="37" viewBox="0 0 44 37" fill="none" xmlns="http://www.w3.org/2000/svg">
<path d="M34.4678 18.8162C37.1764 19.0271 39.3641 19.9231 41.0309 21.5043C42.6978 23.0855 43.5312 25.1937 43.5312 27.8291C43.5312 30.7806 42.6457 33.047 40.8747 34.6282C39.1037 36.2094 36.916 37 34.3115 37C30.7695 36.7892 28.2172 35.4715 26.6545 33.047C25.0918 30.6225 24.3105 27.8818 24.3105 24.8248C24.3105 21.8732 24.7272 19.1325 25.5606 16.6026C26.4982 14.0727 27.6963 11.7009 29.1547 9.48718C30.6132 7.27351 32.2801 5.32336 34.1553 3.63675C36.1346 1.95015 38.1661 0.737895 40.2496 0L44 5.21796C41.9165 6.69374 39.9371 8.69659 38.0619 11.2265C36.2909 13.7564 35.0928 16.2863 34.4678 18.8162ZM10.1573 18.8162C12.8659 19.0271 15.0536 19.9231 16.7204 21.5043C18.3873 23.0855 19.2207 25.1937 19.2207 27.8291C19.2207 30.7806 18.2831 33.047 16.4079 34.6282C14.6369 36.2094 12.5534 37 10.1573 37C6.51108 36.8946 3.90665 35.6296 2.34399 33.2051C0.781329 30.6752 0 27.8818 0 24.8248C0 21.8732 0.416708 19.1325 1.25013 16.6026C2.18772 14.0727 3.38576 11.7009 4.84424 9.48718C6.30272 7.27351 7.96956 5.32336 9.84475 3.63675C11.8241 1.95015 13.8556 0.737895 15.9391 0L19.6895 5.21796C17.606 6.69374 15.6266 8.69659 13.7514 11.2265C11.9804 13.7564 10.7823 16.2863 10.1573 18.8162Z" fill="#F47B47"/>
</svg>
