<svg width="1601" height="266" viewBox="0 0 1601 266" fill="none" xmlns="http://www.w3.org/2000/svg">
<rect width="1601" height="266" fill="#626262"/>
<path d="M1575.95 84.463C1562.15 84.463 37.7593 84.4631 23.9521 84.4631C10.145 84.4631 -1.04785 95.6561 -1.04785 109.463L-1.04785 151.537C-1.04785 159.493 2.11284 167.124 7.73894 172.75L92.1654 257.176C97.7915 262.802 105.422 265.963 113.379 265.963L1575.95 265.963C1589.76 265.963 1600.95 254.77 1600.95 240.963V109.463C1600.95 95.6559 1589.76 84.463 1575.95 84.463Z" fill="#1B273D"/>
<path d="M23.9542 130.5C23.9542 130.5 1562.15 130.5 1575.95 130.5C1589.76 130.5 1600.95 119.307 1600.95 105.5L1600.95 -667.573C1600.95 -675.53 1597.79 -683.16 1592.17 -688.787L1507.74 -773.213C1502.11 -778.839 1494.48 -782 1486.53 -782L23.9521 -782C10.1449 -782 -1.04798 -770.807 -1.04786 -757L-1.04581 105.5C-1.04569 119.307 10.1471 130.5 23.9542 130.5Z" fill="#1B273D"/>
</svg>
