<svg width="33" height="35" viewBox="0 0 33 35" fill="none" xmlns="http://www.w3.org/2000/svg">
<path d="M31.9356 26.8134C28.59 26.8134 25.9287 24.076 25.9287 20.8064C25.9287 17.4608 28.666 14.7995 31.9356 14.7995C32.5439 14.7995 33.0002 15.2557 33.0002 15.864C33.0002 16.4723 32.5439 16.9286 31.9356 16.9286C29.8066 16.9286 28.0577 18.6774 28.0577 20.8064C28.0577 22.9355 29.8066 24.6843 31.9356 24.6843C32.5439 24.6843 33.0002 25.1405 33.0002 25.7488C33.0002 26.2811 32.5439 26.8134 31.9356 26.8134Z" fill="#F47B47"/>
<path d="M31.9355 34.265H30.1866C29.8064 34.265 29.4262 34.0369 29.2742 33.7327L27.2972 30.2351C26.9931 30.083 26.765 29.9309 26.4608 29.7788L26.0806 29.5507H22.0506C21.6705 29.5507 21.2903 29.3226 21.1382 29.0185C20.3779 27.6498 20.1497 27.3456 19.3893 26.053C19.1612 25.7489 19.1612 25.2926 19.3893 24.9885L21.4424 21.4908V20.0461L19.3893 16.5484C19.1612 16.2442 19.1612 15.788 19.3893 15.4838C20.1497 14.1152 20.3779 13.811 21.1382 12.5184C21.3663 12.2143 21.6705 11.9862 22.0506 11.9862H26.0806C26.5369 11.758 26.917 11.5299 27.2972 11.3018L29.2742 7.80412C29.5023 7.49997 29.8064 7.27185 30.1866 7.27185H31.9355C32.5438 7.27185 33 7.72807 33 8.33637V33.2765C33 33.8088 32.5438 34.265 31.9355 34.265ZM30.871 32.136V9.32486L29.0461 12.5184C28.97 12.6705 28.818 12.8226 28.6659 12.8986C28.0576 13.2788 27.5253 13.5069 26.917 13.8871C26.765 13.9631 26.5368 14.0391 26.3848 14.0391H22.659C22.2028 14.7995 21.9746 15.1797 21.5184 15.9401L23.3433 19.1336C23.4193 19.2857 23.4954 19.5138 23.4954 19.6659V21.6429C23.4954 21.7949 23.4193 22.023 23.3433 22.1751L21.5184 25.3687C21.9746 26.129 22.2028 26.5092 22.659 27.2696H26.3848C26.5368 27.2696 26.765 27.3456 26.917 27.4217L27.6014 27.8019C27.9816 28.03 28.2857 28.182 28.6659 28.4102C28.818 28.4862 28.97 28.6383 29.0461 28.7903L30.871 32.136Z" fill="#F47B47"/>
<path d="M10.8734 34.2652C10.2651 34.2652 9.80886 33.809 9.80886 33.2007V9.32504H5.47473V33.2007C5.47473 33.809 5.01854 34.2652 4.41024 34.2652C3.80194 34.2652 3.3457 33.809 3.3457 33.2007V8.2605C3.3457 7.6522 3.80194 7.19598 4.41024 7.19598H10.8734C11.4817 7.19598 11.9379 7.6522 11.9379 8.2605V33.2007C11.9379 33.809 11.4817 34.2652 10.8734 34.2652Z" fill="#F47B47"/>
<path d="M16.2717 12.5943C15.2833 12.5943 14.2948 12.2141 13.2303 11.4537C12.774 11.1496 12.6219 10.4653 12.9261 9.933C13.2302 9.47677 13.9146 9.3247 14.4468 9.62885C15.4353 10.3132 16.1957 10.4653 16.804 10.3132C17.7165 10.009 18.1727 8.79243 18.3248 8.33621C18.4768 7.87999 18.857 7.57584 19.3132 7.57584C20.3778 7.4998 23.2672 6.96754 24.2556 5.67491C24.5598 5.29473 24.6358 4.83851 24.5598 4.23021C24.4077 3.31777 23.7994 2.70947 22.8109 2.32929C20.5298 1.56892 17.1842 2.55739 14.9791 4.53436C14.5989 4.91454 13.9906 4.91455 13.6105 4.6104C12.3178 3.62192 10.8731 3.24172 10.0367 3.69795C9.50444 3.92606 9.27635 4.38229 9.20031 5.06663C9.12427 5.67492 8.66805 6.13114 8.05975 6.0551C7.45146 5.97906 6.99524 5.52284 7.07128 4.91454C7.14732 3.46984 7.90765 2.32928 9.12424 1.79702C10.5689 1.11268 12.3939 1.41685 14.1427 2.48137C16.8801 0.352332 20.6819 -0.560127 23.4193 0.352318C25.1681 0.960615 26.3086 2.17721 26.6128 3.85003C26.8409 4.99058 26.6128 6.13115 25.9285 6.96755C24.4838 8.86848 21.5183 9.47678 20.1496 9.62885C19.7694 10.4653 19.0091 11.8339 17.5644 12.3662C17.1082 12.5183 16.6519 12.5943 16.2717 12.5943Z" fill="#F47B47"/>
<path d="M14.2189 34.2649H1.06454C0.456241 34.2649 0 33.8087 0 33.2004C0 32.5921 0.456241 32.1359 1.06454 32.1359H14.2189C14.8272 32.1359 15.2835 32.5921 15.2835 33.2004C15.2835 33.8087 14.8272 34.2649 14.2189 34.2649Z" fill="#F47B47"/>
</svg>
