<svg width="33" height="40" viewBox="0 0 33 40" fill="none" xmlns="http://www.w3.org/2000/svg">
<path d="M19.1964 15.3923H13.0041C10.1733 15.3923 7.78487 13.2692 7.43102 10.5269L6.1041 1.41538C6.01564 1.06154 6.19255 0.707692 6.36947 0.442307C6.63486 0.176923 6.98873 0 7.34258 0H24.8579C25.2118 0 25.5656 0.176923 25.831 0.442307C26.0964 0.707692 26.1849 1.06154 26.0964 1.41538L24.8579 10.6154C24.4156 13.3577 22.0272 15.3923 19.1964 15.3923ZM8.84644 2.47692L9.90793 10.1731C10.0849 11.6769 11.5002 12.9154 13.0041 12.9154H19.1964C20.7887 12.9154 22.1156 11.7654 22.2925 10.1731L23.3541 2.47692H8.84644Z" fill="#F47B47"/>
<path d="M16.1002 30.9616C15.8348 30.9616 15.5695 30.8731 15.3041 30.6962C14.5079 29.9885 11.7656 27.6001 11.7656 25.477V14.1539C11.7656 13.4462 12.2964 12.9155 13.0041 12.9155C13.7117 12.9155 14.2425 13.4462 14.2425 14.1539V25.477C14.2425 26.0078 15.1271 27.0693 16.1002 28.0424C17.0733 27.0693 17.9579 26.0078 17.9579 25.477V14.1539C17.9579 13.4462 18.4887 12.9155 19.1964 12.9155C19.904 12.9155 20.4348 13.4462 20.4348 14.1539V25.477C20.4348 27.6001 17.6925 29.9885 16.8964 30.6962C16.7195 30.8731 16.4541 30.9616 16.1002 30.9616Z" fill="#F47B47"/>
<path d="M17.3384 8.93444H14.8615C14.1538 8.93444 13.623 8.40367 13.623 7.69598C13.623 6.98829 14.1538 6.45752 14.8615 6.45752H17.3384C18.0461 6.45752 18.5769 6.98829 18.5769 7.69598C18.6654 8.40367 18.0461 8.93444 17.3384 8.93444Z" fill="#F47B47"/>
<path d="M16.0999 39.896C12.7384 39.896 9.73074 37.9499 8.49228 34.8537C7.96151 33.6153 6.72305 32.9076 5.39613 32.9076H1.23843C0.530737 32.9076 0 32.3768 0 31.6691C0 30.9614 0.530737 30.4307 1.23843 30.4307H5.39613C7.78459 30.4307 9.90764 31.846 10.7923 33.9691C11.6769 36.0922 13.7999 37.5076 16.0999 37.5076C18.3999 37.5076 20.523 36.0922 21.4076 33.9691C22.2923 31.846 24.4154 30.4307 26.8038 30.4307H30.9615C31.6692 30.4307 32.2 30.9614 32.2 31.6691C32.2 32.3768 31.6692 32.9076 30.9615 32.9076H26.8038C25.3884 32.9076 24.15 33.7037 23.7077 34.8537C22.4692 37.8614 19.4615 39.896 16.0999 39.896Z" fill="#F47B47"/>
<path d="M24.8579 28.1306C24.504 28.1306 24.2387 28.0422 23.9733 27.7768C23.4425 27.3345 23.4425 26.5383 23.9733 26.0076L27.7771 22.2037C28.3079 21.7614 29.0156 21.673 29.5463 22.2037C30.0771 22.646 30.0771 23.4422 29.5463 23.973L25.7425 27.7768C25.4771 27.9537 25.2117 28.1306 24.8579 28.1306Z" fill="#F47B47"/>
<path d="M7.43076 28.1307C7.07692 28.1307 6.81153 28.0422 6.54615 27.7768L2.74232 23.973C2.21155 23.4422 2.21155 22.7345 2.74232 22.2037C3.18462 21.673 3.98078 21.673 4.51154 22.2037L8.31538 26.0076C8.84615 26.5384 8.84615 27.246 8.31538 27.7768C8.04999 27.9537 7.69615 28.1307 7.43076 28.1307Z" fill="#F47B47"/>
</svg>
