<svg width="489" height="504" viewBox="0 0 489 504" fill="none" xmlns="http://www.w3.org/2000/svg">
<g clip-path="url(#clip0_366_2722)">
<path d="M485.149 0H462.944C462.063 0 461.182 0.352571 460.477 1.05771L428.404 30.6737C427.699 31.3788 427.347 32.2602 427.347 33.1417V57.8216C427.347 59.7608 428.933 61.3473 430.871 61.3473H460.301C461.182 61.3473 462.063 60.9948 462.768 60.2896L487.44 33.3179C488.145 32.6128 488.497 31.7314 488.497 30.8499V3.52571C488.673 1.58657 487.087 0 485.149 0Z" fill="#273550"/>
<path d="M485.149 61.171H462.944C462.063 61.171 461.182 61.5236 460.477 62.0525L428.404 87.6139C427.699 88.1427 427.347 89.0241 427.347 89.7293V111.06C427.347 112.646 428.933 114.057 430.871 114.057H460.301C461.182 114.057 462.063 113.704 462.768 113.175L487.44 89.9056C488.145 89.3767 488.497 88.4953 488.497 87.7901V64.1679C488.673 62.5813 487.087 61.171 485.149 61.171Z" fill="#273550"/>
<path d="M485.149 114.057H462.944C462.063 114.057 461.182 114.409 460.477 114.762L428.404 136.269C427.699 136.797 427.347 137.326 427.347 138.031V156.013C427.347 157.423 428.933 158.481 430.871 158.481H460.301C460.472 158.481 460.643 158.467 460.813 158.443C462.179 158.25 463.313 157.343 464.394 156.486L487.44 138.208C488.145 137.679 488.497 137.15 488.497 136.445V116.701C488.673 115.291 487.087 114.057 485.149 114.057Z" fill="#273550"/>
<path d="M485.149 158.833H462.944C462.063 158.833 461.182 159.009 460.477 159.362L428.404 176.991C427.699 177.343 427.347 177.872 427.347 178.401V193.033C427.347 194.09 428.933 195.148 430.871 195.148H460.301C461.182 195.148 462.063 194.972 462.768 194.619L487.44 178.577C488.145 178.225 488.497 177.696 488.497 177.167V162.369C488.497 161.423 488.685 160.319 487.977 159.692C487.376 159.159 486.327 158.833 485.149 158.833Z" fill="#273550"/>
<path d="M485.149 195.148H462.944C462.063 195.148 461.182 195.324 460.477 195.677L428.404 209.251C427.699 209.603 427.347 209.956 427.347 210.309V221.591C427.347 222.472 428.933 223.177 430.871 223.177H460.301C461.182 223.177 462.063 223.001 462.768 222.648L487.44 210.309C488.145 209.956 488.497 209.603 488.497 209.251V198.714C488.497 197.398 488.457 195.866 487.208 195.45C486.637 195.26 485.921 195.148 485.149 195.148Z" fill="#273550"/>
<path d="M485.149 223.177H462.944C462.063 223.177 461.182 223.354 460.477 223.53L428.404 233.049C427.699 233.226 427.347 233.578 427.347 233.931V241.864C427.347 242.569 428.933 242.921 430.871 242.921H460.301C461.182 242.921 462.063 242.745 462.768 242.569L487.44 233.931C488.145 233.754 488.497 233.402 488.497 233.049V227.48C488.497 225.331 487.791 223.29 485.644 223.189C485.482 223.181 485.317 223.177 485.149 223.177Z" fill="#273550"/>
<path d="M485.149 242.921H462.944C462.063 242.921 461.182 242.921 460.477 243.098L428.404 248.739C427.699 248.915 427.347 249.091 427.347 249.268V253.851C427.347 254.204 428.933 254.556 430.871 254.556H460.301C461.182 254.556 462.063 254.556 462.768 254.38L487.44 249.268C488.145 249.091 488.497 248.915 488.497 248.739V247.197C488.497 244.849 487.497 242.921 485.149 242.921Z" fill="#273550"/>
<path d="M423.998 0H401.794C400.913 0 400.032 0.352571 399.327 1.05771L367.254 30.6737C366.549 31.3788 366.197 32.2602 366.197 33.1417V57.8216C366.197 59.7608 367.783 61.3473 369.721 61.3473H399.151C400.032 61.3473 400.913 60.9948 401.618 60.2896L426.289 33.3179C426.994 32.6128 427.347 31.7314 427.347 30.8499V3.52571C427.523 1.58657 425.937 0 423.998 0Z" fill="#273550"/>
<path d="M423.998 61.171H401.794C400.913 61.171 400.032 61.5236 399.327 62.0525L367.254 87.6139C366.549 88.1427 366.197 89.0241 366.197 89.7293V111.06C366.197 112.646 367.783 114.057 369.721 114.057H399.151C400.032 114.057 400.913 113.704 401.618 113.175L426.289 89.9056C426.994 89.3767 427.347 88.4953 427.347 87.7901V64.1679C427.523 62.5813 425.937 61.171 423.998 61.171Z" fill="#273550"/>
<path d="M423.998 114.057H401.794C400.913 114.057 400.032 114.409 399.327 114.762L367.254 136.445C366.549 136.974 366.197 137.503 366.197 138.208V156.189C366.197 157.599 367.783 158.657 369.721 158.657H399.151C399.322 158.657 399.493 158.644 399.663 158.62C401.029 158.426 402.163 157.52 403.244 156.662L426.289 138.384C426.994 137.855 427.347 137.326 427.347 136.621V116.701C427.523 115.291 425.937 114.057 423.998 114.057Z" fill="#273550"/>
<path d="M423.998 158.833H401.794C400.913 158.833 400.032 159.009 399.327 159.362L367.254 176.991C366.549 177.343 366.197 177.872 366.197 178.401V193.033C366.197 194.09 367.783 195.148 369.721 195.148H399.151C400.032 195.148 400.913 194.972 401.618 194.619L426.289 178.577C426.994 178.225 427.347 177.696 427.347 177.167V162.369C427.347 161.423 427.535 160.319 426.827 159.692C426.225 159.159 425.177 158.833 423.998 158.833Z" fill="#273550"/>
<path d="M423.998 195.148H401.794C400.913 195.148 400.032 195.324 399.327 195.677L367.254 209.251C366.549 209.603 366.197 209.956 366.197 210.309V221.591C366.197 222.472 367.783 223.177 369.721 223.177H399.151C400.032 223.177 400.913 223.001 401.618 222.648L426.289 210.309C426.994 209.956 427.347 209.603 427.347 209.251V198.714C427.347 197.398 427.306 195.866 426.057 195.45C425.486 195.26 424.77 195.148 423.998 195.148Z" fill="#273550"/>
<path d="M423.998 223.177H401.794C400.913 223.177 400.032 223.354 399.327 223.53L367.254 233.049C366.549 233.226 366.197 233.578 366.197 233.931V241.864C366.197 242.569 367.783 242.921 369.721 242.921H399.151C400.032 242.921 400.913 242.745 401.618 242.569L426.289 233.931C426.994 233.754 427.347 233.402 427.347 233.049V227.48C427.347 225.331 426.64 223.29 424.494 223.189C424.332 223.181 424.167 223.177 423.998 223.177Z" fill="#273550"/>
<path d="M423.998 242.921H401.794C400.913 242.921 400.032 242.921 399.327 243.098L367.254 248.739C366.549 248.915 366.197 249.091 366.197 249.268V253.851C366.197 254.204 367.783 254.556 369.721 254.556H399.151C400.032 254.556 400.913 254.556 401.618 254.38L426.289 249.268C426.994 249.091 427.347 248.915 427.347 248.739V247.197C427.347 244.849 426.347 242.921 423.998 242.921Z" fill="#273550"/>
<path d="M362.848 0H340.644C339.763 0 338.882 0.352571 338.177 1.05771L306.104 30.6737C305.399 31.3788 305.046 32.2602 305.046 33.1417V57.8216C305.046 59.7608 306.632 61.3473 308.571 61.3473H338.001C338.882 61.3473 339.763 60.9948 340.468 60.2896L365.139 33.3179C365.844 32.6128 366.197 31.7314 366.197 30.8499V3.52571C366.197 1.58657 364.611 0 362.848 0Z" fill="#273550"/>
<path d="M362.848 61.171H340.644C339.763 61.171 338.882 61.5236 338.177 62.0525L306.104 87.6139C305.399 88.1427 305.046 89.0241 305.046 89.7293V111.06C305.046 112.646 306.632 114.057 308.571 114.057H338.001C338.882 114.057 339.763 113.704 340.468 113.175L365.139 89.9056C365.844 89.3767 366.197 88.4953 366.197 87.7901V64.1679C366.197 62.5813 364.611 61.171 362.848 61.171Z" fill="#273550"/>
<path d="M362.848 114.057H340.644C339.763 114.057 338.882 114.409 338.177 114.762L306.104 136.269C305.399 136.797 305.046 137.326 305.046 138.031V156.013C305.046 157.423 306.632 158.481 308.571 158.481H338.001C338.172 158.481 338.343 158.467 338.513 158.443C339.879 158.25 341.013 157.343 342.093 156.486L365.139 138.208C365.844 137.679 366.197 137.15 366.197 136.445V116.701C366.197 115.291 364.611 114.057 362.848 114.057Z" fill="#273550"/>
<path d="M362.848 158.833H340.644C339.763 158.833 338.882 159.009 338.177 159.362L306.104 176.991C305.399 177.343 305.046 177.872 305.046 178.401V193.033C305.046 194.09 306.632 195.148 308.571 195.148H338.001C338.882 195.148 339.763 194.972 340.468 194.619L365.139 178.577C365.844 178.225 366.197 177.696 366.197 177.167V160.949C366.197 159.715 364.611 158.833 362.848 158.833Z" fill="#273550"/>
<path d="M362.848 195.148H340.644C339.763 195.148 338.882 195.324 338.177 195.677L306.104 209.251C305.399 209.603 305.046 209.956 305.046 210.309V221.591C305.046 222.472 306.632 223.177 308.571 223.177H338.001C338.882 223.177 339.763 223.001 340.468 222.648L365.139 210.309C365.844 209.956 366.197 209.603 366.197 209.251V196.735C366.197 195.853 364.611 195.148 362.848 195.148Z" fill="#273550"/>
<path d="M362.848 223.177H340.644C339.763 223.177 338.882 223.354 338.177 223.53L306.104 233.049C305.399 233.226 305.046 233.578 305.046 233.931V241.864C305.046 242.569 306.632 242.921 308.571 242.921H338.001C338.882 242.921 339.763 242.745 340.468 242.569L365.139 233.931C365.844 233.754 366.197 233.402 366.197 233.049V224.235C366.197 223.706 364.611 223.177 362.848 223.177Z" fill="#273550"/>
<path d="M362.848 242.921H340.644C339.763 242.921 338.882 242.921 338.177 243.098L306.104 248.739C305.399 248.915 305.046 249.091 305.046 249.268V253.851C305.046 254.204 306.632 254.556 308.571 254.556H338.001C338.882 254.556 339.763 254.556 340.468 254.38L365.139 249.268C365.844 249.091 366.197 248.915 366.197 248.739V243.626C366.197 243.274 364.611 242.921 362.848 242.921Z" fill="#273550"/>
<path d="M301.522 0H279.317C278.436 0 277.555 0.352571 276.85 1.05771L244.777 30.6737C244.072 31.3788 243.72 32.2602 243.72 33.1417V57.8216C243.72 59.7608 245.306 61.3473 247.244 61.3473H276.674C277.555 61.3473 278.436 60.9948 279.141 60.2896L303.813 33.3179C304.518 32.6128 304.87 31.7314 304.87 30.8499V3.52571C305.046 1.58657 303.46 0 301.522 0Z" fill="#273550"/>
<path d="M301.522 61.171H279.317C278.436 61.171 277.555 61.5236 276.85 62.0525L244.777 87.6139C244.072 88.1427 243.72 89.0241 243.72 89.7293V111.06C243.72 112.646 245.306 114.057 247.244 114.057H276.674C277.555 114.057 278.436 113.704 279.141 113.175L303.813 89.9056C304.518 89.3767 304.87 88.4953 304.87 87.7901V64.1679C305.046 62.5813 303.46 61.171 301.522 61.171Z" fill="#273550"/>
<path d="M301.522 114.057H279.317C278.436 114.057 277.555 114.409 276.85 114.762L244.777 136.269C244.072 136.797 243.72 137.326 243.72 138.031V156.013C243.72 157.423 245.306 158.481 247.244 158.481H276.674C276.845 158.481 277.016 158.467 277.186 158.443C278.552 158.25 279.686 157.343 280.767 156.486L303.813 138.208C304.518 137.679 304.87 137.15 304.87 136.445V116.701C305.046 115.291 303.46 114.057 301.522 114.057Z" fill="#273550"/>
<path d="M301.522 158.833H279.317C278.436 158.833 277.555 159.009 276.85 159.362L244.777 176.991C244.072 177.343 243.72 177.872 243.72 178.401V193.033C243.72 194.09 245.306 195.148 247.244 195.148H276.674C277.555 195.148 278.436 194.972 279.141 194.619L303.813 178.577C304.518 178.225 304.87 177.696 304.87 177.167V162.369C304.87 161.423 305.058 160.319 304.35 159.692C303.749 159.159 302.7 158.833 301.522 158.833Z" fill="#273550"/>
<path d="M301.522 195.148H279.317C278.436 195.148 277.555 195.324 276.85 195.677L244.777 209.251C244.072 209.603 243.72 209.956 243.72 210.309V221.591C243.72 222.472 245.306 223.177 247.244 223.177H276.674C277.555 223.177 278.436 223.001 279.141 222.648L303.813 210.309C304.518 209.956 304.87 209.603 304.87 209.251V198.714C304.87 197.398 304.83 195.866 303.581 195.45C303.009 195.26 302.294 195.148 301.522 195.148Z" fill="#273550"/>
<path d="M301.522 223.177H279.317C278.436 223.177 277.555 223.354 276.85 223.53L244.777 233.049C244.072 233.226 243.72 233.578 243.72 233.931V241.864C243.72 242.569 245.306 242.921 247.244 242.921H276.674C277.555 242.921 278.436 242.745 279.141 242.569L303.813 233.931C304.518 233.754 304.87 233.402 304.87 233.049V227.48C304.87 225.331 304.164 223.29 302.017 223.189C301.855 223.181 301.69 223.177 301.522 223.177Z" fill="#273550"/>
<path d="M301.522 242.921H279.317C278.436 242.921 277.555 242.921 276.85 243.098L244.777 248.739C244.072 248.915 243.72 249.091 243.72 249.268V253.851C243.72 254.204 245.306 254.556 247.244 254.556H276.674C277.555 254.556 278.436 254.556 279.141 254.38L303.813 249.268C304.518 249.091 304.87 248.915 304.87 248.739V247.197C304.87 244.849 303.87 242.921 301.522 242.921Z" fill="#273550"/>
<path d="M3.34833 0H25.5527C26.4338 0 27.315 0.352571 28.0199 1.05771L60.0928 30.6737C60.7977 31.3788 61.1504 32.2602 61.1504 33.1417V57.8216C61.1504 59.7608 59.5643 61.3473 57.6259 61.3473H28.1961C27.3149 61.3473 26.4338 60.9948 25.7289 60.2896L1.05731 33.3179C0.352408 32.6128 0 31.7314 0 30.8499V3.52571C0 1.58657 1.58607 0 3.34833 0Z" fill="#273550"/>
<path d="M3.34836 61.171H25.5527C26.4338 61.171 27.315 61.5236 28.0199 62.0525L60.0929 87.6139C60.7978 88.1427 61.1504 89.0241 61.1504 89.7293V111.06C61.1504 112.646 59.5644 114.057 57.6259 114.057H28.1961C27.315 114.057 26.4338 113.704 25.7289 113.175L1.05734 89.9056C0.352438 89.3767 3.00144e-05 88.4953 3.00144e-05 87.7901V64.1679C3.00144e-05 62.5813 1.5861 61.171 3.34836 61.171Z" fill="#273550"/>
<path d="M3.34836 114.057H25.5527C26.4338 114.057 27.315 114.409 28.0199 114.762L60.0929 136.269C60.7978 136.797 61.1504 137.326 61.1504 138.031V156.013C61.1504 157.423 59.5644 158.481 57.6259 158.481H28.1961C28.025 158.481 27.8538 158.467 27.684 158.443C26.318 158.25 25.1841 157.343 24.1032 156.486L1.05734 138.208C0.352438 137.679 3.00144e-05 137.15 3.00144e-05 136.445V116.701C3.00144e-05 115.291 1.5861 114.057 3.34836 114.057Z" fill="#273550"/>
<path d="M3.34836 158.833H25.5527C26.4338 158.833 27.315 159.009 28.0199 159.362L60.0929 176.991C60.7978 177.343 61.1504 177.872 61.1504 178.401V193.033C61.1504 194.09 59.5644 195.148 57.6259 195.148H28.1961C27.315 195.148 26.4338 194.972 25.7289 194.619L1.05734 178.577C0.352438 178.225 3.00144e-05 177.696 3.00144e-05 177.167V160.949C3.00144e-05 159.715 1.5861 158.833 3.34836 158.833Z" fill="#273550"/>
<path d="M3.34836 195.148H25.5527C26.4338 195.148 27.315 195.324 28.0199 195.677L60.0929 209.251C60.7978 209.603 61.1504 209.956 61.1504 210.309V221.591C61.1504 222.472 59.5644 223.177 57.6259 223.177H28.1961C27.315 223.177 26.4338 223.001 25.7289 222.648L1.05734 210.309C0.352438 209.956 3.00144e-05 209.603 3.00144e-05 209.251V196.735C3.00144e-05 195.853 1.5861 195.148 3.34836 195.148Z" fill="#273550"/>
<path d="M3.34836 223.177H25.5527C26.4338 223.177 27.315 223.354 28.0199 223.53L60.0929 233.049C60.7978 233.226 61.1504 233.578 61.1504 233.931V241.864C61.1504 242.569 59.5644 242.921 57.6259 242.921H28.1961C27.315 242.921 26.4338 242.745 25.7289 242.569L1.05734 233.931C0.352438 233.754 3.00144e-05 233.402 3.00144e-05 233.049V224.235C3.00144e-05 223.706 1.5861 223.177 3.34836 223.177Z" fill="#273550"/>
<path d="M3.34836 242.921H25.5527C26.4338 242.921 27.315 242.921 28.0199 243.098L60.0929 248.739C60.7978 248.915 61.1504 249.091 61.1504 249.268V253.851C61.1504 254.204 59.5644 254.556 57.6259 254.556H28.1961C27.315 254.556 26.4338 254.556 25.7289 254.38L1.05734 249.268C0.352438 249.091 3.00144e-05 248.915 3.00144e-05 248.739V243.626C3.00144e-05 243.274 1.5861 242.921 3.34836 242.921Z" fill="#273550"/>
<path d="M64.675 0H86.8793C87.7605 0 88.6416 0.352571 89.3465 1.05771L121.419 30.6737C122.124 31.3788 122.477 32.2602 122.477 33.1417V57.8216C122.477 59.7608 120.891 61.3473 118.952 61.3473H89.5227C88.6416 61.3473 87.7604 60.9948 87.0555 60.2896L62.3839 33.3179C61.679 32.6128 61.3266 31.7314 61.3266 30.8499V3.52571C61.1504 1.58657 62.7365 0 64.675 0Z" fill="#273550"/>
<path d="M64.675 61.171H86.8793C87.7605 61.171 88.6416 61.5236 89.3465 62.0525L121.419 87.6139C122.124 88.1427 122.477 89.0241 122.477 89.7293V111.06C122.477 112.646 120.891 114.057 118.952 114.057H89.5227C88.6416 114.057 87.7604 113.704 87.0555 113.175L62.3839 89.9056C61.679 89.3767 61.3266 88.4953 61.3266 87.7901V64.1679C61.1504 62.5813 62.7365 61.171 64.675 61.171Z" fill="#273550"/>
<path d="M64.675 114.057H86.8793C87.7605 114.057 88.6416 114.409 89.3465 114.762L121.419 136.269C122.124 136.797 122.477 137.326 122.477 138.031V156.013C122.477 157.423 120.891 158.481 118.952 158.481H89.5227C89.3516 158.481 89.1804 158.467 89.0106 158.443C87.6446 158.25 86.5107 157.343 85.4298 156.486L62.3839 138.208C61.679 137.679 61.3266 137.15 61.3266 136.445V116.701C61.1504 115.291 62.7365 114.057 64.675 114.057Z" fill="#273550"/>
<path d="M64.675 158.833H86.8793C87.7605 158.833 88.6416 159.009 89.3465 159.362L121.419 176.991C122.124 177.343 122.477 177.872 122.477 178.401V193.033C122.477 194.09 120.891 195.148 118.952 195.148H89.5227C88.6416 195.148 87.7604 194.972 87.0555 194.619L62.3839 178.577C61.679 178.225 61.3266 177.696 61.3266 177.167V162.369C61.3266 161.423 61.1388 160.319 61.8468 159.692C62.448 159.159 63.4963 158.833 64.675 158.833Z" fill="#273550"/>
<path d="M64.675 195.148H86.8793C87.7605 195.148 88.6416 195.324 89.3465 195.677L121.419 209.251C122.124 209.603 122.477 209.956 122.477 210.309V221.591C122.477 222.472 120.891 223.177 118.952 223.177H89.5227C88.6416 223.177 87.7604 223.001 87.0555 222.648L62.3839 210.309C61.679 209.956 61.3266 209.603 61.3266 209.251V198.714C61.3266 197.398 61.3671 195.866 62.6162 195.45C63.1873 195.26 63.9032 195.148 64.675 195.148Z" fill="#273550"/>
<path d="M64.675 223.177H86.8793C87.7605 223.177 88.6416 223.354 89.3465 223.53L121.419 233.049C122.124 233.226 122.477 233.578 122.477 233.931V241.864C122.477 242.569 120.891 242.921 118.952 242.921H89.5227C88.6416 242.921 87.7604 242.745 87.0555 242.569L62.3839 233.931C61.679 233.754 61.3266 233.402 61.3266 233.049V227.48C61.3266 225.331 62.0331 223.29 64.1797 223.189C64.3415 223.181 64.5069 223.177 64.675 223.177Z" fill="#273550"/>
<path d="M64.675 242.921H86.8793C87.7605 242.921 88.6416 242.921 89.3465 243.098L121.419 248.739C122.124 248.915 122.477 249.091 122.477 249.268V253.851C122.477 254.204 120.891 254.556 118.952 254.556H89.5227C88.6416 254.556 87.7604 254.556 87.0555 254.38L62.3839 249.268C61.679 249.091 61.3266 248.915 61.3266 248.739V247.197C61.3266 244.849 62.3267 242.921 64.675 242.921Z" fill="#273550"/>
<path d="M125.825 0H148.029C148.911 0 149.792 0.352571 150.497 1.05771L182.57 30.6737C183.274 31.3788 183.627 32.2602 183.627 33.1417V57.8216C183.627 59.7608 182.041 61.3473 180.103 61.3473H150.497C149.615 61.3473 148.734 60.9948 148.029 60.2896L123.358 33.3179C122.653 32.6128 122.301 31.7314 122.301 30.8499V3.52571C122.301 1.58657 123.887 0 125.825 0Z" fill="#273550"/>
<path d="M125.825 61.171H148.029C148.911 61.171 149.792 61.5236 150.497 62.0525L182.57 87.6139C183.274 88.1427 183.627 89.0241 183.627 89.7293V111.06C183.627 112.646 182.041 114.057 180.103 114.057H150.497C149.615 114.057 148.734 113.704 148.029 113.175L123.358 89.9056C122.653 89.3767 122.301 88.4953 122.301 87.7901V64.1679C122.301 62.5813 123.887 61.171 125.825 61.171Z" fill="#273550"/>
<path d="M125.825 114.057H148.029C148.911 114.057 149.792 114.409 150.497 114.762L182.57 136.269C183.274 136.797 183.627 137.326 183.627 138.031V156.013C183.627 157.423 182.041 158.481 180.103 158.481H150.497C150.325 158.481 150.154 158.467 149.984 158.443C148.618 158.25 147.485 157.343 146.404 156.486L123.358 138.208C122.653 137.679 122.301 137.15 122.301 136.445V116.701C122.301 115.291 123.887 114.057 125.825 114.057Z" fill="#273550"/>
<path d="M125.825 158.833H148.029C148.911 158.833 149.792 159.009 150.497 159.362L182.57 176.991C183.274 177.343 183.627 177.872 183.627 178.401V193.033C183.627 194.09 182.041 195.148 180.103 195.148H150.497C149.615 195.148 148.734 194.972 148.029 194.619L123.358 178.577C122.653 178.225 122.301 177.696 122.301 177.167V160.949C122.301 159.715 123.887 158.833 125.825 158.833Z" fill="#273550"/>
<path d="M125.825 195.148H148.029C148.911 195.148 149.792 195.324 150.497 195.677L182.57 209.251C183.274 209.603 183.627 209.956 183.627 210.309V221.591C183.627 222.472 182.041 223.177 180.103 223.177H150.497C149.615 223.177 148.734 223.001 148.029 222.648L123.358 210.309C122.653 209.956 122.301 209.603 122.301 209.251V196.735C122.301 195.853 123.887 195.148 125.825 195.148Z" fill="#273550"/>
<path d="M125.825 223.177H148.029C148.911 223.177 149.792 223.354 150.497 223.53L182.57 233.049C183.274 233.226 183.627 233.578 183.627 233.931V241.864C183.627 242.569 182.041 242.921 180.103 242.921H150.497C149.615 242.921 148.734 242.745 148.029 242.569L123.358 233.931C122.653 233.754 122.301 233.402 122.301 233.049V224.235C122.301 223.706 123.887 223.177 125.825 223.177Z" fill="#273550"/>
<path d="M125.825 242.921H148.029C148.911 242.921 149.792 242.921 150.497 243.098L182.57 248.739C183.274 248.915 183.627 249.091 183.627 249.268V253.851C183.627 254.204 182.041 254.556 180.103 254.556H150.497C149.615 254.556 148.734 254.556 148.029 254.38L123.358 249.268C122.653 249.091 122.301 248.915 122.301 248.739V243.626C122.301 243.274 123.887 242.921 125.825 242.921Z" fill="#273550"/>
<path d="M186.975 0H209.18C210.061 0 210.942 0.352571 211.647 1.05771L243.72 30.6737C244.425 31.3788 244.777 32.2602 244.777 33.1417V57.8216C244.777 59.7608 243.191 61.3473 241.253 61.3473H211.823C210.942 61.3473 210.061 60.9948 209.356 60.2896L184.684 33.3179C183.98 32.6128 183.627 31.7314 183.627 30.8499V3.52571C183.451 1.58657 185.037 0 186.975 0Z" fill="#273550"/>
<path d="M186.975 61.171H209.18C210.061 61.171 210.942 61.5236 211.647 62.0525L243.72 87.6139C244.425 88.1427 244.777 89.0241 244.777 89.7293V111.06C244.777 112.646 243.191 114.057 241.253 114.057H211.823C210.942 114.057 210.061 113.704 209.356 113.175L184.684 89.9056C183.98 89.3767 183.627 88.4953 183.627 87.7901V64.1679C183.451 62.5813 185.037 61.171 186.975 61.171Z" fill="#273550"/>
<path d="M186.975 114.057H209.18C210.061 114.057 210.942 114.409 211.647 114.762L243.72 136.269C244.425 136.797 244.777 137.326 244.777 138.031V156.013C244.777 157.423 243.191 158.481 241.253 158.481H211.823C211.652 158.481 211.481 158.467 211.311 158.443C209.945 158.25 208.811 157.343 207.73 156.486L184.684 138.208C183.98 137.679 183.627 137.15 183.627 136.445V116.701C183.451 115.291 185.037 114.057 186.975 114.057Z" fill="#273550"/>
<path d="M186.975 158.833H209.18C210.061 158.833 210.942 159.009 211.647 159.362L243.72 176.991C244.425 177.343 244.777 177.872 244.777 178.401V193.033C244.777 194.09 243.191 195.148 241.253 195.148H211.823C210.942 195.148 210.061 194.972 209.356 194.619L184.684 178.577C183.98 178.225 183.627 177.696 183.627 177.167V162.369C183.627 161.423 183.439 160.319 184.147 159.692C184.748 159.159 185.797 158.833 186.975 158.833Z" fill="#273550"/>
<path d="M186.975 195.148H209.18C210.061 195.148 210.942 195.324 211.647 195.677L243.72 209.251C244.425 209.603 244.777 209.956 244.777 210.309V221.591C244.777 222.472 243.191 223.177 241.253 223.177H211.823C210.942 223.177 210.061 223.001 209.356 222.648L184.684 210.309C183.98 209.956 183.627 209.603 183.627 209.251V198.714C183.627 197.398 183.668 195.866 184.917 195.45C185.488 195.26 186.204 195.148 186.975 195.148Z" fill="#273550"/>
<path d="M186.975 223.177H209.18C210.061 223.177 210.942 223.354 211.647 223.53L243.72 233.049C244.425 233.226 244.777 233.578 244.777 233.931V241.864C244.777 242.569 243.191 242.921 241.253 242.921H211.823C210.942 242.921 210.061 242.745 209.356 242.569L184.684 233.931C183.98 233.754 183.627 233.402 183.627 233.049V227.48C183.627 225.331 184.334 223.29 186.48 223.189C186.642 223.181 186.807 223.177 186.975 223.177Z" fill="#273550"/>
<path d="M186.975 242.921H209.18C210.061 242.921 210.942 242.921 211.647 243.098L243.72 248.739C244.425 248.915 244.777 249.091 244.777 249.268V253.851C244.777 254.204 243.191 254.556 241.253 254.556H211.823C210.942 254.556 210.061 254.556 209.356 254.38L184.684 249.268C183.98 249.091 183.627 248.915 183.627 248.739V247.197C183.627 244.849 184.627 242.921 186.975 242.921Z" fill="#273550"/>
<path d="M485.149 504H462.944C462.063 504 461.182 503.647 460.477 502.942L428.404 473.326C427.699 472.621 427.347 471.74 427.347 470.858V446.178C427.347 444.239 428.933 442.653 430.871 442.653H460.301C461.182 442.653 462.063 443.005 462.768 443.71L487.44 470.682C488.145 471.387 488.497 472.269 488.497 473.15V500.474C488.673 502.413 487.087 504 485.149 504Z" fill="#273550"/>
<path d="M485.149 442.829H462.944C462.063 442.829 461.182 442.476 460.477 441.948L428.404 416.386C427.699 415.857 427.347 414.976 427.347 414.271V392.94C427.347 391.354 428.933 389.943 430.871 389.943H460.301C461.182 389.943 462.063 390.296 462.768 390.825L487.44 414.094C488.145 414.623 488.497 415.505 488.497 416.21V439.832C488.673 441.419 487.087 442.829 485.149 442.829Z" fill="#273550"/>
<path d="M485.149 389.943H462.944C462.063 389.943 461.182 389.591 460.477 389.238L428.404 367.731C427.699 367.203 427.347 366.674 427.347 365.969V347.987C427.347 346.577 428.933 345.519 430.871 345.519H460.301C460.472 345.519 460.643 345.533 460.813 345.557C462.179 345.75 463.313 346.657 464.394 347.514L487.44 365.792C488.145 366.321 488.497 366.85 488.497 367.555V386.054C488.497 387.001 488.668 388.063 488.046 388.776C487.458 389.45 486.374 389.943 485.149 389.943Z" fill="#273550"/>
<path d="M485.149 345.167H462.944C462.063 345.167 461.182 344.991 460.477 344.638L428.404 327.009C427.699 326.657 427.347 326.128 427.347 325.599V310.967C427.347 309.91 428.933 308.852 430.871 308.852H460.301C461.182 308.852 462.063 309.028 462.768 309.381L487.44 325.423C488.145 325.775 488.497 326.304 488.497 326.833V341.631C488.497 342.577 488.685 343.681 487.977 344.308C487.376 344.841 486.327 345.167 485.149 345.167Z" fill="#273550"/>
<path d="M485.149 308.852H462.944C462.063 308.852 461.182 308.676 460.477 308.323L428.404 294.749C427.699 294.397 427.347 294.044 427.347 293.691V282.409C427.347 281.528 428.933 280.823 430.871 280.823H460.301C461.182 280.823 462.063 280.999 462.768 281.352L487.44 293.691C488.145 294.044 488.497 294.397 488.497 294.749V305.286C488.497 306.602 488.457 308.134 487.208 308.55C486.637 308.74 485.921 308.852 485.149 308.852Z" fill="#273550"/>
<path d="M485.149 280.823H462.944C462.063 280.823 461.182 280.646 460.477 280.47L428.404 270.951C427.699 270.774 427.347 270.422 427.347 270.069V262.136C427.347 261.431 428.933 261.079 430.871 261.079H460.301C461.182 261.079 462.063 261.255 462.768 261.431L487.44 270.069C488.145 270.246 488.497 270.598 488.497 270.951V276.52C488.497 278.669 487.791 280.71 485.644 280.811C485.482 280.819 485.317 280.823 485.149 280.823Z" fill="#273550"/>
<path d="M485.149 261.079H462.944C462.063 261.079 461.182 261.079 460.477 260.902L428.404 255.261C427.699 255.085 427.347 254.909 427.347 254.732V250.149C427.347 249.796 428.933 249.444 430.871 249.444H460.301C461.182 249.444 462.063 249.444 462.768 249.62L487.44 254.732C488.145 254.909 488.497 255.085 488.497 255.261V256.803C488.497 259.151 487.497 261.079 485.149 261.079Z" fill="#273550"/>
<path d="M423.998 504H401.794C400.913 504 400.032 503.647 399.327 502.942L367.254 473.326C366.549 472.621 366.197 471.74 366.197 470.858V446.178C366.197 444.239 367.783 442.653 369.721 442.653H399.151C400.032 442.653 400.913 443.005 401.618 443.71L426.289 470.682C426.994 471.387 427.347 472.269 427.347 473.15V500.474C427.523 502.413 425.937 504 423.998 504Z" fill="#273550"/>
<path d="M423.998 442.829H401.794C400.913 442.829 400.032 442.476 399.327 441.948L367.254 416.386C366.549 415.857 366.197 414.976 366.197 414.271V392.94C366.197 391.354 367.783 389.943 369.721 389.943H399.151C400.032 389.943 400.913 390.296 401.618 390.825L426.289 414.094C426.994 414.623 427.347 415.505 427.347 416.21V439.832C427.523 441.419 425.937 442.829 423.998 442.829Z" fill="#273550"/>
<path d="M423.998 389.943H401.794C400.913 389.943 400.032 389.591 399.327 389.238L367.254 367.731C366.549 367.203 366.197 366.674 366.197 365.969V347.987C366.197 346.577 367.783 345.519 369.721 345.519H399.151C399.322 345.519 399.493 345.533 399.663 345.557C401.029 345.75 402.163 346.657 403.244 347.514L426.289 365.792C426.994 366.321 427.347 366.85 427.347 367.555V386.054C427.347 387.001 427.517 388.063 426.896 388.776C426.308 389.45 425.224 389.943 423.998 389.943Z" fill="#273550"/>
<path d="M423.998 345.167H401.794C400.913 345.167 400.032 344.991 399.327 344.638L367.254 327.009C366.549 326.657 366.197 326.128 366.197 325.599V310.967C366.197 309.91 367.783 308.852 369.721 308.852H399.151C400.032 308.852 400.913 309.028 401.618 309.381L426.289 325.423C426.994 325.775 427.347 326.304 427.347 326.833V341.631C427.347 342.577 427.535 343.681 426.827 344.308C426.225 344.841 425.177 345.167 423.998 345.167Z" fill="#273550"/>
<path d="M423.998 308.852H401.794C400.913 308.852 400.032 308.676 399.327 308.323L367.254 294.749C366.549 294.397 366.197 294.044 366.197 293.691V282.409C366.197 281.528 367.783 280.823 369.721 280.823H399.151C400.032 280.823 400.913 280.999 401.618 281.352L426.289 293.691C426.994 294.044 427.347 294.397 427.347 294.749V305.286C427.347 306.602 427.306 308.134 426.057 308.55C425.486 308.74 424.77 308.852 423.998 308.852Z" fill="#273550"/>
<path d="M423.998 280.823H401.794C400.913 280.823 400.032 280.646 399.327 280.47L367.254 270.951C366.549 270.774 366.197 270.422 366.197 270.069V262.136C366.197 261.431 367.783 261.079 369.721 261.079H399.151C400.032 261.079 400.913 261.255 401.618 261.431L426.289 270.069C426.994 270.246 427.347 270.598 427.347 270.951V276.52C427.347 278.669 426.64 280.71 424.494 280.811C424.332 280.819 424.167 280.823 423.998 280.823Z" fill="#273550"/>
<path d="M423.998 261.079H401.794C400.913 261.079 400.032 261.079 399.327 260.902L367.254 255.261C366.549 255.085 366.197 254.909 366.197 254.732V250.149C366.197 249.796 367.783 249.444 369.721 249.444H399.151C400.032 249.444 400.913 249.444 401.618 249.62L426.289 254.732C426.994 254.909 427.347 255.085 427.347 255.261V256.803C427.347 259.151 426.347 261.079 423.998 261.079Z" fill="#273550"/>
<path d="M362.848 504H340.644C339.763 504 338.882 503.647 338.177 502.942L306.104 473.326C305.399 472.621 305.046 471.74 305.046 470.858V446.178C305.046 444.239 306.632 442.653 308.571 442.653H338.001C338.882 442.653 339.763 443.005 340.468 443.71L365.139 470.682C365.844 471.387 366.197 472.269 366.197 473.15V500.474C366.197 502.413 364.611 504 362.848 504Z" fill="#273550"/>
<path d="M362.848 442.829H340.644C339.763 442.829 338.882 442.476 338.177 441.948L306.104 416.386C305.399 415.857 305.046 414.976 305.046 414.271V392.94C305.046 391.354 306.632 389.943 308.571 389.943H338.001C338.882 389.943 339.763 390.296 340.468 390.825L365.139 414.094C365.844 414.623 366.197 415.505 366.197 416.21V439.832C366.197 441.419 364.611 442.829 362.848 442.829Z" fill="#273550"/>
<path d="M362.848 389.943H340.644C339.763 389.943 338.882 389.591 338.177 389.238L306.104 367.731C305.399 367.203 305.046 366.674 305.046 365.969V347.987C305.046 346.577 306.632 345.519 308.571 345.519H338.001C338.172 345.519 338.343 345.533 338.513 345.557C339.879 345.75 341.013 346.657 342.093 347.514L365.139 365.792C365.844 366.321 366.197 366.85 366.197 367.555V387.475C366.197 388.709 364.611 389.943 362.848 389.943Z" fill="#273550"/>
<path d="M362.848 345.167H340.644C339.763 345.167 338.882 344.991 338.177 344.638L306.104 327.009C305.399 326.657 305.046 326.128 305.046 325.599V310.967C305.046 309.91 306.632 308.852 308.571 308.852H338.001C338.882 308.852 339.763 309.028 340.468 309.381L365.139 325.423C365.844 325.775 366.197 326.304 366.197 326.833V343.051C366.197 344.285 364.611 345.167 362.848 345.167Z" fill="#273550"/>
<path d="M362.848 308.852H340.644C339.763 308.852 338.882 308.676 338.177 308.323L306.104 294.749C305.399 294.397 305.046 294.044 305.046 293.691V282.409C305.046 281.528 306.632 280.823 308.571 280.823H338.001C338.882 280.823 339.763 280.999 340.468 281.352L365.139 293.691C365.844 294.044 366.197 294.397 366.197 294.749V307.265C366.197 308.147 364.611 308.852 362.848 308.852Z" fill="#273550"/>
<path d="M362.848 280.823H340.644C339.763 280.823 338.882 280.646 338.177 280.47L306.104 270.951C305.399 270.774 305.046 270.422 305.046 270.069V262.136C305.046 261.431 306.632 261.079 308.571 261.079H338.001C338.882 261.079 339.763 261.255 340.468 261.431L365.139 270.069C365.844 270.246 366.197 270.598 366.197 270.951V279.765C366.197 280.294 364.611 280.823 362.848 280.823Z" fill="#273550"/>
<path d="M362.848 261.079H340.644C339.763 261.079 338.882 261.079 338.177 260.902L306.104 255.261C305.399 255.085 305.046 254.909 305.046 254.732V250.149C305.046 249.796 306.632 249.444 308.571 249.444H338.001C338.882 249.444 339.763 249.444 340.468 249.62L365.139 254.732C365.844 254.909 366.197 255.085 366.197 255.261V260.374C366.197 260.726 364.611 261.079 362.848 261.079Z" fill="#273550"/>
<path d="M301.522 504H279.317C278.436 504 277.555 503.647 276.85 502.942L244.777 473.326C244.072 472.621 243.72 471.74 243.72 470.858V446.178C243.72 444.239 245.306 442.653 247.244 442.653H276.674C277.555 442.653 278.436 443.005 279.141 443.71L303.813 470.682C304.518 471.387 304.87 472.269 304.87 473.15V500.474C305.046 502.413 303.46 504 301.522 504Z" fill="#273550"/>
<path d="M301.522 442.829H279.317C278.436 442.829 277.555 442.476 276.85 441.948L244.777 416.386C244.072 415.857 243.72 414.976 243.72 414.271V392.94C243.72 391.354 245.306 389.943 247.244 389.943H276.674C277.555 389.943 278.436 390.296 279.141 390.825L303.813 414.094C304.518 414.623 304.87 415.505 304.87 416.21V439.832C305.046 441.419 303.46 442.829 301.522 442.829Z" fill="#273550"/>
<path d="M301.522 389.943H279.317C278.436 389.943 277.555 389.591 276.85 389.238L244.777 367.731C244.072 367.203 243.72 366.674 243.72 365.969V347.987C243.72 346.577 245.306 345.519 247.244 345.519H276.674C276.845 345.519 277.016 345.533 277.186 345.557C278.552 345.75 279.686 346.657 280.767 347.514L303.813 365.792C304.518 366.321 304.87 366.85 304.87 367.555V386.054C304.87 387.001 305.041 388.063 304.419 388.776C303.831 389.45 302.747 389.943 301.522 389.943Z" fill="#273550"/>
<path d="M301.522 345.167H279.317C278.436 345.167 277.555 344.991 276.85 344.638L244.777 327.009C244.072 326.657 243.72 326.128 243.72 325.599V310.967C243.72 309.91 245.306 308.852 247.244 308.852H276.674C277.555 308.852 278.436 309.028 279.141 309.381L303.813 325.423C304.518 325.775 304.87 326.304 304.87 326.833V341.631C304.87 342.577 305.058 343.681 304.35 344.308C303.749 344.841 302.7 345.167 301.522 345.167Z" fill="#273550"/>
<path d="M301.522 308.852H279.317C278.436 308.852 277.555 308.676 276.85 308.323L244.777 294.749C244.072 294.397 243.72 294.044 243.72 293.691V282.409C243.72 281.528 245.306 280.823 247.244 280.823H276.674C277.555 280.823 278.436 280.999 279.141 281.352L303.813 293.691C304.518 294.044 304.87 294.397 304.87 294.749V305.286C304.87 306.602 304.83 308.134 303.581 308.55C303.009 308.74 302.294 308.852 301.522 308.852Z" fill="#273550"/>
<path d="M301.522 280.823H279.317C278.436 280.823 277.555 280.646 276.85 280.47L244.777 270.951C244.072 270.774 243.72 270.422 243.72 270.069V262.136C243.72 261.431 245.306 261.079 247.244 261.079H276.674C277.555 261.079 278.436 261.255 279.141 261.431L303.813 270.069C304.518 270.246 304.87 270.598 304.87 270.951V276.52C304.87 278.669 304.164 280.71 302.017 280.811C301.855 280.819 301.69 280.823 301.522 280.823Z" fill="#273550"/>
<path d="M301.522 261.079H279.317C278.436 261.079 277.555 261.079 276.85 260.902L244.777 255.261C244.072 255.085 243.72 254.909 243.72 254.732V250.149C243.72 249.796 245.306 249.444 247.244 249.444H276.674C277.555 249.444 278.436 249.444 279.141 249.62L303.813 254.732C304.518 254.909 304.87 255.085 304.87 255.261V256.803C304.87 259.151 303.87 261.079 301.522 261.079Z" fill="#273550"/>
<path d="M3.34836 504H25.5527C26.4338 504 27.315 503.647 28.0199 502.942L60.0929 473.326C60.7978 472.621 61.1504 471.74 61.1504 470.858V446.178C61.1504 444.239 59.5644 442.653 57.6259 442.653H28.1961C27.315 442.653 26.4338 443.005 25.7289 443.71L1.05734 470.682C0.352438 471.387 3.00144e-05 472.269 3.00144e-05 473.15V500.474C3.00144e-05 502.413 1.5861 504 3.34836 504Z" fill="#273550"/>
<path d="M3.34836 442.829H25.5527C26.4338 442.829 27.315 442.476 28.0199 441.948L60.0929 416.386C60.7978 415.857 61.1504 414.976 61.1504 414.271V392.94C61.1504 391.354 59.5644 389.943 57.6259 389.943H28.1961C27.315 389.943 26.4338 390.296 25.7289 390.825L1.05734 414.094C0.352438 414.623 3.00144e-05 415.505 3.00144e-05 416.21V439.832C3.00144e-05 441.419 1.5861 442.829 3.34836 442.829Z" fill="#273550"/>
<path d="M3.34836 389.943H25.5527C26.4338 389.943 27.315 389.591 28.0199 389.238L60.0929 367.731C60.7978 367.203 61.1504 366.674 61.1504 365.969V347.987C61.1504 346.577 59.5644 345.519 57.6259 345.519H28.1961C28.025 345.519 27.8538 345.533 27.684 345.557C26.318 345.75 25.1841 346.657 24.1032 347.514L1.05734 365.792C0.352438 366.321 3.00144e-05 366.85 3.00144e-05 367.555V387.475C3.00144e-05 388.709 1.5861 389.943 3.34836 389.943Z" fill="#273550"/>
<path d="M3.34836 345.167H25.5527C26.4338 345.167 27.315 344.991 28.0199 344.638L60.0929 327.009C60.7978 326.657 61.1504 326.128 61.1504 325.599V310.967C61.1504 309.91 59.5644 308.852 57.6259 308.852H28.1961C27.315 308.852 26.4338 309.028 25.7289 309.381L1.05734 325.423C0.352438 325.775 3.00144e-05 326.304 3.00144e-05 326.833V343.051C3.00144e-05 344.285 1.5861 345.167 3.34836 345.167Z" fill="#273550"/>
<path d="M3.34836 308.852H25.5527C26.4338 308.852 27.315 308.676 28.0199 308.323L60.0929 294.749C60.7978 294.397 61.1504 294.044 61.1504 293.691V282.409C61.1504 281.528 59.5644 280.823 57.6259 280.823H28.1961C27.315 280.823 26.4338 280.999 25.7289 281.352L1.05734 293.691C0.352438 294.044 3.00144e-05 294.397 3.00144e-05 294.749V307.265C3.00144e-05 308.147 1.5861 308.852 3.34836 308.852Z" fill="#273550"/>
<path d="M3.34836 280.823H25.5527C26.4338 280.823 27.315 280.646 28.0199 280.47L60.0929 270.951C60.7978 270.774 61.1504 270.422 61.1504 270.069V262.136C61.1504 261.431 59.5644 261.079 57.6259 261.079H28.1961C27.315 261.079 26.4338 261.255 25.7289 261.431L1.05734 270.069C0.352438 270.246 3.00144e-05 270.598 3.00144e-05 270.951V279.765C3.00144e-05 280.294 1.5861 280.823 3.34836 280.823Z" fill="#273550"/>
<path d="M3.34836 261.079H25.5527C26.4338 261.079 27.315 261.079 28.0199 260.902L60.0929 255.261C60.7978 255.085 61.1504 254.909 61.1504 254.732V250.149C61.1504 249.796 59.5644 249.444 57.6259 249.444H28.1961C27.315 249.444 26.4338 249.444 25.7289 249.62L1.05734 254.732C0.352438 254.909 3.00144e-05 255.085 3.00144e-05 255.261V260.374C3.00144e-05 260.726 1.5861 261.079 3.34836 261.079Z" fill="#273550"/>
<path d="M64.675 504H86.8793C87.7605 504 88.6416 503.647 89.3465 502.942L121.419 473.326C122.124 472.621 122.477 471.74 122.477 470.858V446.178C122.477 444.239 120.891 442.653 118.952 442.653H89.5227C88.6416 442.653 87.7604 443.005 87.0555 443.71L62.3839 470.682C61.679 471.387 61.3266 472.269 61.3266 473.15V500.474C61.1504 502.413 62.7365 504 64.675 504Z" fill="#273550"/>
<path d="M64.675 442.829H86.8793C87.7605 442.829 88.6416 442.476 89.3465 441.948L121.419 416.386C122.124 415.857 122.477 414.976 122.477 414.271V392.94C122.477 391.354 120.891 389.943 118.952 389.943H89.5227C88.6416 389.943 87.7604 390.296 87.0555 390.825L62.3839 414.094C61.679 414.623 61.3266 415.505 61.3266 416.21V439.832C61.1504 441.419 62.7365 442.829 64.675 442.829Z" fill="#273550"/>
<path d="M64.675 389.943H86.8793C87.7605 389.943 88.6416 389.591 89.3465 389.238L121.419 367.731C122.124 367.203 122.477 366.674 122.477 365.969V347.987C122.477 346.577 120.891 345.519 118.952 345.519H89.5227C89.3516 345.519 89.1804 345.533 89.0106 345.557C87.6446 345.75 86.5107 346.657 85.4298 347.514L62.3839 365.792C61.679 366.321 61.3266 366.85 61.3266 367.555V386.054C61.3266 387.001 61.1562 388.063 61.7778 388.776C62.3654 389.45 63.4498 389.943 64.675 389.943Z" fill="#273550"/>
<path d="M64.675 345.167H86.8793C87.7605 345.167 88.6416 344.991 89.3465 344.638L121.419 327.009C122.124 326.657 122.477 326.128 122.477 325.599V310.967C122.477 309.91 120.891 308.852 118.952 308.852H89.5227C88.6416 308.852 87.7604 309.028 87.0555 309.381L62.3839 325.423C61.679 325.775 61.3266 326.304 61.3266 326.833V341.631C61.3266 342.577 61.1388 343.681 61.8468 344.308C62.448 344.841 63.4963 345.167 64.675 345.167Z" fill="#273550"/>
<path d="M64.675 308.852H86.8793C87.7605 308.852 88.6416 308.676 89.3465 308.323L121.419 294.749C122.124 294.397 122.477 294.044 122.477 293.691V282.409C122.477 281.528 120.891 280.823 118.952 280.823H89.5227C88.6416 280.823 87.7604 280.999 87.0555 281.352L62.3839 293.691C61.679 294.044 61.3266 294.397 61.3266 294.749V305.286C61.3266 306.602 61.3671 308.134 62.6162 308.55C63.1873 308.74 63.9032 308.852 64.675 308.852Z" fill="#273550"/>
<path d="M64.675 280.823H86.8793C87.7605 280.823 88.6416 280.646 89.3465 280.47L121.419 270.951C122.124 270.774 122.477 270.422 122.477 270.069V262.136C122.477 261.431 120.891 261.079 118.952 261.079H89.5227C88.6416 261.079 87.7604 261.255 87.0555 261.431L62.3839 270.069C61.679 270.246 61.3266 270.598 61.3266 270.951V276.52C61.3266 278.669 62.0331 280.71 64.1797 280.811C64.3415 280.819 64.5069 280.823 64.675 280.823Z" fill="#273550"/>
<path d="M64.675 261.079H86.8793C87.7605 261.079 88.6416 261.079 89.3465 260.902L121.419 255.261C122.124 255.085 122.477 254.909 122.477 254.732V250.149C122.477 249.796 120.891 249.444 118.952 249.444H89.5227C88.6416 249.444 87.7604 249.444 87.0555 249.62L62.3839 254.732C61.679 254.909 61.3266 255.085 61.3266 255.261V256.803C61.3266 259.151 62.3267 261.079 64.675 261.079Z" fill="#273550"/>
<path d="M125.825 504H148.029C148.911 504 149.792 503.647 150.497 502.942L182.57 473.326C183.274 472.621 183.627 471.74 183.627 470.858V446.178C183.627 444.239 182.041 442.653 180.103 442.653H150.497C149.615 442.653 148.734 443.005 148.029 443.71L123.358 470.682C122.653 471.387 122.301 472.269 122.301 473.15V500.474C122.301 502.413 123.887 504 125.825 504Z" fill="#273550"/>
<path d="M125.825 442.829H148.029C148.911 442.829 149.792 442.476 150.497 441.948L182.57 416.386C183.274 415.857 183.627 414.976 183.627 414.271V392.94C183.627 391.354 182.041 389.943 180.103 389.943H150.497C149.615 389.943 148.734 390.296 148.029 390.825L123.358 414.094C122.653 414.623 122.301 415.505 122.301 416.21V439.832C122.301 441.419 123.887 442.829 125.825 442.829Z" fill="#273550"/>
<path d="M125.825 389.943H148.029C148.911 389.943 149.792 389.591 150.497 389.238L182.57 367.731C183.274 367.203 183.627 366.674 183.627 365.969V347.987C183.627 346.577 182.041 345.519 180.103 345.519H150.497C150.325 345.519 150.154 345.533 149.984 345.557C148.618 345.75 147.485 346.657 146.404 347.514L123.358 365.792C122.653 366.321 122.301 366.85 122.301 367.555V387.475C122.301 388.709 123.887 389.943 125.825 389.943Z" fill="#273550"/>
<path d="M125.825 345.167H148.029C148.911 345.167 149.792 344.991 150.497 344.638L182.57 327.009C183.274 326.657 183.627 326.128 183.627 325.599V310.967C183.627 309.91 182.041 308.852 180.103 308.852H150.497C149.615 308.852 148.734 309.028 148.029 309.381L123.358 325.423C122.653 325.775 122.301 326.304 122.301 326.833V343.051C122.301 344.285 123.887 345.167 125.825 345.167Z" fill="#273550"/>
<path d="M125.825 308.852H148.029C148.911 308.852 149.792 308.676 150.497 308.323L182.57 294.749C183.274 294.397 183.627 294.044 183.627 293.691V282.409C183.627 281.528 182.041 280.823 180.103 280.823H150.497C149.615 280.823 148.734 280.999 148.029 281.352L123.358 293.691C122.653 294.044 122.301 294.397 122.301 294.749V307.265C122.301 308.147 123.887 308.852 125.825 308.852Z" fill="#273550"/>
<path d="M125.825 280.823H148.029C148.911 280.823 149.792 280.646 150.497 280.47L182.57 270.951C183.274 270.774 183.627 270.422 183.627 270.069V262.136C183.627 261.431 182.041 261.079 180.103 261.079H150.497C149.615 261.079 148.734 261.255 148.029 261.431L123.358 270.069C122.653 270.246 122.301 270.598 122.301 270.951V279.765C122.301 280.294 123.887 280.823 125.825 280.823Z" fill="#273550"/>
<path d="M125.825 261.079H148.029C148.911 261.079 149.792 261.079 150.497 260.902L182.57 255.261C183.274 255.085 183.627 254.909 183.627 254.732V250.149C183.627 249.796 182.041 249.444 180.103 249.444H150.497C149.615 249.444 148.734 249.444 148.029 249.62L123.358 254.732C122.653 254.909 122.301 255.085 122.301 255.261V260.374C122.301 260.726 123.887 261.079 125.825 261.079Z" fill="#273550"/>
<path d="M186.975 504H209.18C210.061 504 210.942 503.647 211.647 502.942L243.72 473.326C244.425 472.621 244.777 471.74 244.777 470.858V446.178C244.777 444.239 243.191 442.653 241.253 442.653H211.823C210.942 442.653 210.061 443.005 209.356 443.71L184.684 470.682C183.98 471.387 183.627 472.269 183.627 473.15V500.474C183.451 502.413 185.037 504 186.975 504Z" fill="#273550"/>
<path d="M186.975 442.829H209.18C210.061 442.829 210.942 442.476 211.647 441.948L243.72 416.386C244.425 415.857 244.777 414.976 244.777 414.271V392.94C244.777 391.354 243.191 389.943 241.253 389.943H211.823C210.942 389.943 210.061 390.296 209.356 390.825L184.684 414.094C183.98 414.623 183.627 415.505 183.627 416.21V439.832C183.451 441.419 185.037 442.829 186.975 442.829Z" fill="#273550"/>
<path d="M186.975 389.943H209.18C210.061 389.943 210.942 389.591 211.647 389.238L243.72 367.731C244.425 367.203 244.777 366.674 244.777 365.969V347.987C244.777 346.577 243.191 345.519 241.253 345.519H211.823C211.652 345.519 211.481 345.533 211.311 345.557C209.945 345.75 208.811 346.657 207.73 347.514L184.684 365.792C183.98 366.321 183.627 366.85 183.627 367.555V386.054C183.627 387.001 183.457 388.063 184.078 388.776C184.666 389.45 185.75 389.943 186.975 389.943Z" fill="#273550"/>
<path d="M186.975 345.167H209.18C210.061 345.167 210.942 344.991 211.647 344.638L243.72 327.009C244.425 326.657 244.777 326.128 244.777 325.599V310.967C244.777 309.91 243.191 308.852 241.253 308.852H211.823C210.942 308.852 210.061 309.028 209.356 309.381L184.684 325.423C183.98 325.775 183.627 326.304 183.627 326.833V341.631C183.627 342.577 183.439 343.681 184.147 344.308C184.748 344.841 185.797 345.167 186.975 345.167Z" fill="#273550"/>
<path d="M186.975 308.852H209.18C210.061 308.852 210.942 308.676 211.647 308.323L243.72 294.749C244.425 294.397 244.777 294.044 244.777 293.691V282.409C244.777 281.528 243.191 280.823 241.253 280.823H211.823C210.942 280.823 210.061 280.999 209.356 281.352L184.684 293.691C183.98 294.044 183.627 294.397 183.627 294.749V305.286C183.627 306.602 183.668 308.134 184.917 308.55C185.488 308.74 186.204 308.852 186.975 308.852Z" fill="#273550"/>
<path d="M186.975 280.823H209.18C210.061 280.823 210.942 280.646 211.647 280.47L243.72 270.951C244.425 270.774 244.777 270.422 244.777 270.069V262.136C244.777 261.431 243.191 261.079 241.253 261.079H211.823C210.942 261.079 210.061 261.255 209.356 261.431L184.684 270.069C183.98 270.246 183.627 270.598 183.627 270.951V276.52C183.627 278.669 184.334 280.71 186.48 280.811C186.642 280.819 186.807 280.823 186.975 280.823Z" fill="#273550"/>
<path d="M186.975 261.079H209.18C210.061 261.079 210.942 261.079 211.647 260.902L243.72 255.261C244.425 255.085 244.777 254.909 244.777 254.732V250.149C244.777 249.796 243.191 249.444 241.253 249.444H211.823C210.942 249.444 210.061 249.444 209.356 249.62L184.684 254.732C183.98 254.909 183.627 255.085 183.627 255.261V256.803C183.627 259.151 184.627 261.079 186.975 261.079Z" fill="#273550"/>
</g>
<defs>
<clipPath id="clip0_366_2722">
<rect width="488.52" height="504" rx="20" fill="white"/>
</clipPath>
</defs>
</svg>
