<svg width="41" height="37" viewBox="0 0 41 37" fill="none" xmlns="http://www.w3.org/2000/svg">
<path d="M1 5.33333L14 1L27 5.33333L40 1V31.3333L27 35.6667L14 31.3333L1 35.6667V5.33333Z" stroke="#F47B47" stroke-width="2" stroke-linecap="round" stroke-linejoin="round"/>
<path d="M14 1V31.3333" stroke="#F47B47" stroke-width="2" stroke-linecap="round" stroke-linejoin="round"/>
<path d="M27 5.33325V35.6666" stroke="#F47B47" stroke-width="2" stroke-linecap="round" stroke-linejoin="round"/>
<path d="M20.4996 15.82C20.4996 15.82 16.5996 13.246 16.5996 9.96996C16.5996 9.03905 17.0105 8.14627 17.7419 7.48802C18.4733 6.82976 19.4653 6.45996 20.4996 6.45996C21.534 6.45996 22.5259 6.82976 23.2573 7.48802C23.9887 8.14627 24.3996 9.03905 24.3996 9.96996C24.3996 13.246 20.4996 15.82 20.4996 15.82Z" stroke="#F47B47" stroke-linecap="round" stroke-linejoin="round"/>
<path d="M20.8907 11.1399C21.5369 11.1399 22.0607 10.6161 22.0607 9.96993C22.0607 9.32375 21.5369 8.79993 20.8907 8.79993C20.2445 8.79993 19.7207 9.32375 19.7207 9.96993C19.7207 10.6161 20.2445 11.1399 20.8907 11.1399Z" stroke="#F47B47" stroke-linecap="round" stroke-linejoin="round"/>
</svg>
