<svg width="38" height="39" viewBox="0 0 38 39" fill="none" xmlns="http://www.w3.org/2000/svg">
<path d="M31.7589 1H5.39413C2.96732 1 1 2.96732 1 5.39413V18.5765C1 21.0033 2.96732 22.9707 5.39413 22.9707H31.7589C34.1857 22.9707 36.1531 21.0033 36.1531 18.5765V5.39413C36.1531 2.96732 34.1857 1 31.7589 1Z" stroke="#F47B47" stroke-width="2" stroke-linecap="round" stroke-linejoin="round"/>
<path d="M9.78906 31.7589H27.3656" stroke="#F47B47" stroke-width="2" stroke-linecap="round" stroke-linejoin="round"/>
<path d="M14.1816 22.9707V31.759" stroke="#F47B47" stroke-width="2" stroke-linecap="round" stroke-linejoin="round"/>
<path d="M22.9707 22.9707V31.759" stroke="#F47B47" stroke-width="2" stroke-linecap="round" stroke-linejoin="round"/>
<path d="M9.78779 37.2516C11.6079 37.2516 13.0834 35.7761 13.0834 33.956C13.0834 32.1359 11.6079 30.6604 9.78779 30.6604C7.96768 30.6604 6.49219 32.1359 6.49219 33.956C6.49219 35.7761 7.96768 37.2516 9.78779 37.2516Z" stroke="#F47B47" stroke-width="2" stroke-linecap="round" stroke-linejoin="round"/>
<path d="M27.364 37.2516C29.1841 37.2516 30.6596 35.7761 30.6596 33.956C30.6596 32.1359 29.1841 30.6604 27.364 30.6604C25.5438 30.6604 24.0684 32.1359 24.0684 33.956C24.0684 35.7761 25.5438 37.2516 27.364 37.2516Z" stroke="#F47B47" stroke-width="2" stroke-linecap="round" stroke-linejoin="round"/>
</svg>
