<svg width="38" height="34" viewBox="0 0 38 34" fill="none" xmlns="http://www.w3.org/2000/svg">
<path d="M1 4.90637H20.5322" stroke="#F47B47" stroke-width="2" stroke-linecap="round" stroke-linejoin="round"/>
<path d="M1 16.6257H28.3451" stroke="#F47B47" stroke-width="2" stroke-linecap="round" stroke-linejoin="round"/>
<path d="M1 28.3451H20.5322" stroke="#F47B47" stroke-width="2" stroke-linecap="round" stroke-linejoin="round"/>
<path d="M25.3928 8.8129C27.5502 8.8129 29.2992 7.06392 29.2992 4.90645C29.2992 2.74898 27.5502 1 25.3928 1C23.2353 1 21.4863 2.74898 21.4863 4.90645C21.4863 7.06392 23.2353 8.8129 25.3928 8.8129Z" stroke="#F47B47" stroke-width="2" stroke-linecap="round" stroke-linejoin="round"/>
<path d="M32.299 20.5323C34.4565 20.5323 36.2055 18.7833 36.2055 16.6258C36.2055 14.4683 34.4565 12.7194 32.299 12.7194C30.1416 12.7194 28.3926 14.4683 28.3926 16.6258C28.3926 18.7833 30.1416 20.5323 32.299 20.5323Z" stroke="#F47B47" stroke-width="2" stroke-linecap="round" stroke-linejoin="round"/>
<path d="M25.3928 32.2516C27.5502 32.2516 29.2992 30.5026 29.2992 28.3452C29.2992 26.1877 27.5502 24.4387 25.3928 24.4387C23.2353 24.4387 21.4863 26.1877 21.4863 28.3452C21.4863 30.5026 23.2353 32.2516 25.3928 32.2516Z" stroke="#F47B47" stroke-width="2" stroke-linecap="round" stroke-linejoin="round"/>
</svg>
