<svg width="40" height="40" viewBox="0 0 40 40" fill="none" xmlns="http://www.w3.org/2000/svg">
<path d="M1 16L19 1L37 16V37C37 37.5304 36.7893 38.0391 36.4142 38.4142C36.0391 38.7893 35.5304 39 35 39H25V25H13V39H3C2.46957 39 1.96086 38.7893 1.58579 38.4142C1.21071 38.0391 1 37.5304 1 37V16Z" stroke="#F47B47" stroke-width="2" stroke-linecap="round" stroke-linejoin="round"/>
<path d="M19 22C19 22 15 19.2 15 16C15.0512 15.3292 15.2894 14.686 15.6875 14.1437C16.0857 13.6013 16.6278 13.1813 17.2526 12.9314C17.8773 12.6816 18.5595 12.6117 19.2219 12.7299C19.8843 12.8481 20.5003 13.1495 21 13.6C21.4997 13.1495 22.1157 12.8481 22.7781 12.7299C23.4405 12.6117 24.1227 12.6816 24.7474 12.9314C25.3722 13.1813 25.9143 13.6013 26.3125 14.1437C26.7106 14.686 26.9488 15.3292 27 16C27 19.2 23 22 23 22L21 24L19 22Z" stroke="#F47B47" stroke-width="2" stroke-linecap="round" stroke-linejoin="round"/>
<path d="M34 5L35 2L36 5L39 6L36 7L35 10L34 7L31 6L34 5Z" stroke="#F47B47" stroke-width="2" stroke-linecap="round" stroke-linejoin="round"/>
</svg>
