<svg width="1600" height="791" viewBox="0 0 1600 791" fill="none" xmlns="http://www.w3.org/2000/svg">
<path d="M0.0122662 164H1602.01V633H0.0122662V164Z" fill="#96B7E3"/>
<path d="M22.9883 181.5L1574.99 181.5C1588.8 181.5 1599.99 170.307 1599.99 156.5V114.427C1599.99 106.47 1596.83 98.8396 1591.2 93.2135L1506.78 8.78706C1501.15 3.16096 1493.52 0.000257116 1485.56 0.000255725L22.9883 0C9.18118 -2.41411e-06 -2.01169 11.1929 -2.0117 25L-2.01172 156.5C-2.01172 170.307 9.18115 181.5 22.9883 181.5Z" fill="#96B7E3"/>
<path d="M1575.99 608.75L23.9888 608.75C10.1817 608.75 -1.01122 619.943 -1.01122 633.75L-1.01121 675.824C-1.01121 683.78 2.14948 691.411 7.77557 697.037L92.202 781.463C97.8281 787.089 105.459 790.25 113.415 790.25L1575.99 790.25C1589.8 790.25 1600.99 779.057 1600.99 765.25V633.75C1600.99 619.943 1589.8 608.75 1575.99 608.75Z" fill="#96B7E3"/>
</svg>
