<svg width="2287" height="182" viewBox="0 0 2287 182" fill="none" xmlns="http://www.w3.org/2000/svg">
<path d="M35.6664 182H2249.84C2269.54 182 2285.51 170.776 2285.51 156.931V114.742C2285.51 106.763 2281 99.1116 2272.97 93.47L2152.52 8.811C2144.5 3.16941 2133.61 0 2122.26 0H35.6664C15.9684 0 0 11.2237 0 25.0689V156.931C0 170.776 15.9684 182 35.6664 182Z" fill="#16888C"/>
<path d="M35.6664 182H2249.84C2269.54 182 2285.51 170.776 2285.51 156.931V114.742C2285.51 106.763 2281 99.1116 2272.97 93.47L2152.52 8.811C2144.5 3.16941 2133.61 0 2122.26 0H35.6664C15.9684 0 0 11.2237 0 25.0689V156.931C0 170.776 15.9684 182 35.6664 182Z" fill="black" fill-opacity="0.2"/>
<path d="M1.49493 128.353H2287L2249.84 182H1191.26H0L1.49493 128.353Z" fill="#16888C"/>
<path d="M1.49493 128.353H2287L2249.84 182H1191.26H0L1.49493 128.353Z" fill="black" fill-opacity="0.2"/>
</svg>
