<svg width="2219" height="182" viewBox="0 0 2219 182" fill="none" xmlns="http://www.w3.org/2000/svg">
<path d="M34.606 182H2182.94C2202.06 182 2217.55 170.776 2217.55 156.931V114.742C2217.55 106.763 2213.17 99.1116 2205.39 93.47L2088.52 8.811C2080.73 3.16941 2070.17 0 2059.16 0H34.606C15.4936 0 0 11.2237 0 25.0689V156.931C0 170.776 15.4936 182 34.606 182Z" fill="#16888C"/>
<path d="M34.606 182H2182.94C2202.06 182 2217.55 170.776 2217.55 156.931V114.742C2217.55 106.763 2213.17 99.1116 2205.39 93.47L2088.52 8.811C2080.73 3.16941 2070.17 0 2059.16 0H34.606C15.4936 0 0 11.2237 0 25.0689V156.931C0 170.776 15.4936 182 34.606 182Z" fill="black" fill-opacity="0.2"/>
<path d="M1.45048 128.353H2219L2182.94 182H1155.84H0L1.45048 128.353Z" fill="#16888C"/>
<path d="M1.45048 128.353H2219L2182.94 182H1155.84H0L1.45048 128.353Z" fill="black" fill-opacity="0.2"/>
</svg>
