<?xml version="1.0" encoding="utf-8"?>
<!-- Generator: Adobe Illustrator 24.1.3, SVG Export Plug-In . SVG Version: 6.00 Build 0)  -->
<svg version="1.1" id="Layer_1" xmlns="http://www.w3.org/2000/svg" xmlns:xlink="http://www.w3.org/1999/xlink" x="0px" y="0px"
	 viewBox="0 0 1999.7 1061" style="enable-background:new 0 0 1999.7 1061;" xml:space="preserve">
<style type="text/css">
	.st0{fill:#1B273D;}
</style>
<path class="st0" d="M1988.7,116.4L1883.3,11c-7-7-16.6-11-26.5-11L30.2,0C13,0-1,14-1,31.2v428v175.4v283.4c0,9.9,3.9,19.5,11,26.5
	L115.4,1050c7,7,16.6,11,26.5,11l1826.6,0c17.2,0,31.2-14,31.2-31.2V634.7V459.2V142.9C1999.7,133,1995.7,123.4,1988.7,116.4z
	 M663.5,444.4l44.4-134.5c3.5-9.9,14-15.8,24-12.3l53.8,18.1c4.7,1.2,8.8,4.7,11.1,9.4l59,118.1c2.3,4.7,2.9,9.9,1.2,14.6
	l-44.4,134.5c-3.5,9.9-14,15.8-24,12.3l-53.8-18.1c-4.7-1.8-8.8-4.7-10.5-8.8L664.6,459C662.3,454.3,661.7,449,663.5,444.4z
	 M999,736.7l-33.9,45.6c-2.9,4.1-7,6.4-12.3,7l-131,19.9c-4.7,0.6-9.9-0.6-14-3.5l-114-84.2c-8.8-5.8-10.5-18.1-4.1-26.3l33.9-45.6
	c2.9-4.1,7-7,12.3-7.6l131-19.9c4.7-0.6,9.9,0.6,14,3.5l114,84.8C1003.7,716.2,1005.5,728.5,999,736.7z M867.5,383
	c-10.5,0-18.7-8.8-18.7-19.3l0.6-56.7c0-5.3,2.3-9.9,5.8-13.4l94.1-93.5c3.5-3.5,8.2-5.3,13.4-5.3l141.5,1.8
	c10.5,0,18.7,8.8,18.7,19.3l-0.6,56.7c0,5.3-2.3,9.9-5.8,13.4l-94.1,93c-3.5,3.5-8.2,5.3-13.4,5.3L867.5,383z M1226.5,636.7
	l-21.6,131c-0.6,4.7-3.5,9.4-7.6,12.3l-115.2,82.4c-8.2,6.4-20.5,4.7-26.3-4.1l-33.3-46.2c-2.9-4.1-4.1-9.4-3.5-14l21.6-131
	c0.6-4.7,3.5-9.4,7.6-12.3l115.2-81.9c8.2-6.4,20.5-4.7,26.3,4.1l33.3,46.2C1225.9,627.4,1227.1,632.6,1226.5,636.7z M1322.9,561.9
	l-54.4,17c-4.7,1.8-9.9,1.2-14.6-1.2l-117.5-60.8c-4.7-2.3-7.6-6.4-9.4-11.1l-42.7-135.1c-3.5-9.9,2.3-21,12.3-24l54.4-17.5
	c4.7-1.2,9.9-1.2,14.6,1.2l117.5,61.4c4.7,2.3,7.6,6.4,9.4,11.1l42.7,135.1C1338.7,547.8,1332.9,559,1322.9,561.9z"/>
</svg>
